0
SECTION
2
HEADER
9
$INSUNITS
70
4
9
$ACADVER
1
AC1014
9
$HANDSEED
5
FFFF
0
ENDSEC
0
SECTION
2
TABLES
0
TABLE
2
VPORT
5
8
100
AcDbSymbolTable
0
ENDTAB
0
TABLE
2
LTYPE
5
5
100
AcDbSymbolTable
0
LTYPE
5
14
100
AcDbSymbolTableRecord
100
AcDbLinetypeTableRecord
2
BYBLOCK
70
0
0
LTYPE
5
15
100
AcDbSymbolTableRecord
100
AcDbLinetypeTableRecord
2
BYLAYER
70
0
0
ENDTAB
0
TABLE
2
LAYER
5
2
100
AcDbSymbolTable
70
2
0
LAYER
5
50
100
AcDbSymbolTableRecord
100
AcDbLayerTableRecord
2
0
70
0
6
CONTINUOUS
0
ENDTAB
0
TABLE
2
STYLE
5
3
100
AcDbSymbolTable
70
1
0
STYLE
5
11
100
AcDbSymbolTableRecord
100
AcDbTextStyleTableRecord
2
STANDARD
70
0
0
ENDTAB
0
TABLE
2
VIEW
5
6
100
AcDbSymbolTable
70
0
0
ENDTAB
0
TABLE
2
UCS
5
7
100
AcDbSymbolTable
70
0
0
ENDTAB
0
TABLE
2
APPID
5
9
100
AcDbSymbolTable
70
2
0
APPID
5
12
100
AcDbSymbolTableRecord
100
AcDbRegAppTableRecord
2
ACAD
70
0
0
ENDTAB
0
TABLE
2
DIMSTYLE
5
A
100
AcDbSymbolTable
70
1
0
ENDTAB
0
TABLE
2
BLOCK_RECORD
5
1
100
AcDbSymbolTable
70
1
0
BLOCK_RECORD
5
1F
100
AcDbSymbolTableRecord
100
AcDbBlockTableRecord
2
*MODEL_SPACE
0
BLOCK_RECORD
5
1B
100
AcDbSymbolTableRecord
100
AcDbBlockTableRecord
2
*PAPER_SPACE
0
ENDTAB
0
ENDSEC
0
SECTION
2
BLOCKS
0
BLOCK
5
20
100
AcDbEntity
100
AcDbBlockBegin
2
*MODEL_SPACE
0
ENDBLK
5
21
100
AcDbEntity
100
AcDbBlockEnd
0
BLOCK
5
1C
100
AcDbEntity
100
AcDbBlockBegin
2
*PAPER_SPACE
0
ENDBLK
5
1D
100
AcDbEntity
100
AcDbBlockEnd
0
ENDSEC
0
SECTION
2
ENTITIES
0
LWPOLYLINE
5
100
100
AcDbEntity
8
0
100
AcDbPolyline
90
20
70
1
43
0.0
10
30.691000000000006
20
23.367400000000004
10
29.938900000000004
20
23.0945
10
31.923200000000005
20
17.644400000000001
10
32.674300000000009
20
17.918600000000001
10
33.735100000000003
20
15.005500000000001
10
32.983000000000011
20
14.731199999999999
10
33.324500000000008
20
13.791399999999999
10
20.169699999999999
20
9.0027100000000004
10
19.8279
20
9.9425500000000007
10
19.075800000000001
20
9.6697100000000002
10
18.016000000000002
20
12.581500000000002
10
18.767099999999999
20
12.855700000000001
10
16.784100000000002
20
18.305900000000001
10
16.031700000000004
20
18.033000000000001
10
14.971800000000002
20
20.946200000000005
10
15.723000000000003
20
21.219000000000001
10
15.381100000000005
20
22.158899999999999
10
28.537300000000005
20
26.947500000000005
10
28.879100000000008
20
26.007700000000003
10
29.631600000000002
20
26.2806
0
LWPOLYLINE
5
101
100
AcDbEntity
8
0
100
AcDbPolyline
90
20
70
1
43
0.0
10
55.647599999999997
20
34.135399999999997
10
55.108500000000014
20
37.189100000000003
10
55.896999999999998
20
37.328499999999998
10
54.889399999999995
20
43.038899999999998
10
54.101299999999995
20
42.90100000000001
10
53.563699999999997
20
45.953499999999998
10
54.350700000000003
20
46.092500000000001
10
54.17860000000001
20
47.076400000000007
10
67.964400000000012
20
49.507399999999997
10
68.139400000000009
20
48.523500000000006
10
68.926100000000019
20
48.662500000000009
10
69.465199999999996
20
45.608899999999998
10
68.676700000000011
20
45.471299999999999
10
69.684200000000004
20
39.759099999999997
10
70.472300000000004
20
39.898499999999999
10
71.009600000000006
20
36.844499999999996
10
70.222899999999996
20
36.705500000000001
10
70.395099999999999
20
35.721600000000002
10
56.609200000000008
20
33.290700000000001
10
56.434200000000004
20
34.2746
0
LWPOLYLINE
5
102
100
AcDbEntity
8
0
100
AcDbPolyline
90
20
70
1
43
0.0
10
25.383099999999999
20
45.822700000000005
10
24.5946
20
45.683300000000003
10
24.057400000000008
20
48.735500000000009
10
24.844099999999997
20
48.874899999999997
10
23.838299999999997
20
54.586700000000008
10
23.049799999999998
20
54.447699999999998
10
22.511099999999999
20
57.501400000000004
10
23.299200000000006
20
57.640700000000002
10
23.125700000000002
20
58.624600000000001
10
36.912900000000008
20
61.05530000000001
10
37.086500000000001
20
60.071399999999997
10
37.875000000000007
20
60.21070000000001
10
38.412199999999999
20
57.157100000000007
10
37.625500000000009
20
57.017699999999998
10
38.63130000000001
20
51.305900000000008
10
39.418399999999998
20
51.444900000000004
10
39.957099999999997
20
48.392600000000002
10
39.170400000000001
20
48.25330000000001
10
39.343900000000005
20
47.268000000000001
10
25.556699999999999
20
44.837400000000002
0
LWPOLYLINE
5
103
100
AcDbEntity
8
0
100
AcDbPolyline
90
20
70
1
43
0.0
10
40.902500000000011
20
67.514300000000006
10
40.72890000000001
20
68.499600000000001
10
54.516199999999998
20
70.930599999999998
10
54.689800000000012
20
69.945300000000003
10
55.476500000000009
20
70.084199999999996
10
56.015500000000003
20
67.030600000000007
10
55.227000000000004
20
66.891300000000001
10
56.234600000000007
20
61.179400000000008
10
57.0227
20
61.318400000000004
10
57.560000000000002
20
58.266199999999998
10
56.773300000000013
20
58.127200000000002
10
56.946799999999996
20
57.141900000000007
10
43.159600000000005
20
54.710900000000002
10
42.986000000000004
20
55.696200000000005
10
42.197899999999997
20
55.556899999999999
10
41.660299999999999
20
58.610900000000008
10
42.447300000000006
20
58.748399999999997
10
41.441200000000009
20
64.460599999999999
10
40.653100000000002
20
64.322699999999998
10
40.1126
20
67.374899999999997
0
LINE
5
104
100
AcDbEntity
8
0
100
AcDbLine
10
98.772741768339088
20
63.845360032740018
30
0
11
98.768999999999991
21
63.844700000000003
31
0
0
LWPOLYLINE
5
105
100
AcDbEntity
8
0
100
AcDbPolyline
90
20
70
1
43
0.0
10
78.174199999999999
20
70.938699999999997
10
77.635500000000008
20
73.990899999999996
10
78.423599999999993
20
74.130300000000005
10
78.250000000000014
20
75.115600000000001
10
92.037000000000006
20
77.546199999999999
10
92.210999999999999
20
76.560900000000004
10
92.999000000000009
20
76.700199999999995
10
93.53700000000002
20
73.646600000000007
10
92.74799999999999
20
73.508700000000005
10
93.756
20
67.796800000000005
10
94.543999999999997
20
67.934400000000011
10
95.081000000000003
20
64.882199999999997
10
94.294000000000011
20
64.742800000000003
10
94.467999999999989
20
63.7575
10
80.681000000000012
20
61.326900000000002
10
80.507000000000005
20
62.312200000000004
10
79.718999999999994
20
62.172899999999998
10
79.180300000000017
20
65.226799999999997
10
79.968400000000003
20
65.364400000000003
10
78.961200000000019
20
71.076599999999999
0
LWPOLYLINE
5
106
100
AcDbEntity
8
0
100
AcDbPolyline
90
20
70
1
43
0.0
10
116.738
20
76.242699999999999
10
116.56500000000001
20
77.228000000000009
10
130.352
20
79.658999999999992
10
130.52600000000001
20
78.673699999999997
10
131.31399999999999
20
78.812700000000007
10
131.851
20
75.760400000000004
10
131.06299999999999
20
75.622500000000002
10
132.071
20
69.910700000000006
10
132.85900000000001
20
70.048599999999993
10
133.398
20
66.996000000000009
10
132.61000000000001
20
66.856999999999999
10
132.78299999999999
20
65.871700000000004
10
118.99600000000001
20
63.440700000000007
10
118.822
20
64.426000000000002
10
118.035
20
64.286699999999996
10
117.495
20
67.340699999999998
10
118.28299999999999
20
67.478300000000004
10
117.27700000000002
20
73.190500000000014
10
116.489
20
73.052499999999995
10
115.94999999999999
20
76.103700000000003
0
LWPOLYLINE
5
107
100
AcDbEntity
8
0
100
AcDbPolyline
90
20
70
1
43
0.0
10
19.991900000000005
20
76.399699999999996
10
19.8184
20
77.385000000000005
10
33.604200000000006
20
79.816000000000003
10
33.779200000000003
20
78.830700000000007
10
34.566300000000005
20
78.969999999999999
10
35.104900000000008
20
75.917400000000001
10
34.316800000000001
20
75.778400000000005
10
35.323999999999998
20
70.066299999999998
10
36.112499999999997
20
70.205600000000004
10
36.649799999999999
20
67.153000000000006
10
35.86310000000001
20
67.013999999999996
10
36.035200000000003
20
66.028700000000001
10
22.249400000000001
20
63.59770000000001
10
22.074400000000001
20
64.582999999999998
10
21.287300000000002
20
64.444000000000003
10
20.748699999999999
20
67.497699999999995
10
21.536800000000007
20
67.635599999999997
10
20.529600000000006
20
73.347399999999993
10
19.741100000000003
20
73.208400000000012
10
19.203800000000001
20
76.2607
0
LWPOLYLINE
5
108
100
AcDbEntity
8
0
100
AcDbPolyline
90
20
70
1
43
0.0
10
58.472200000000001
20
77.576499999999996
10
58.297300000000014
20
78.560400000000001
10
72.085899999999995
20
80.991399999999999
10
72.258399999999995
20
80.007499999999993
10
73.046500000000009
20
80.146900000000002
10
73.5852
20
77.0929
10
72.7971
20
76.953900000000004
10
73.804300000000012
20
71.241699999999994
10
74.592799999999997
20
71.381100000000004
10
75.130099999999999
20
68.328800000000001
10
74.343400000000003
20
68.189499999999995
10
74.516900000000007
20
67.204200000000014
10
60.728300000000019
20
64.773200000000003
10
60.556100000000001
20
65.758499999999998
10
59.767600000000002
20
65.619500000000002
10
59.230400000000003
20
68.671700000000001
10
60.017100000000013
20
68.811099999999996
10
59.009900000000002
20
74.522900000000021
10
58.222800000000007
20
74.383899999999997
10
57.684100000000001
20
77.4375
0
LWPOLYLINE
5
109
100
AcDbEntity
8
0
100
AcDbPolyline
90
20
70
1
43
0.0
10
39.10690000000001
20
77.6965
10
38.099300000000007
20
83.40870000000001
10
37.311200000000007
20
83.270700000000005
10
36.772500000000008
20
86.322999999999993
10
37.560600000000008
20
86.462300000000013
10
37.388500000000001
20
87.447599999999994
10
51.174300000000002
20
89.87830000000001
10
51.349300000000007
20
88.892900000000012
10
52.13600000000001
20
89.032300000000006
10
52.674999999999997
20
85.9786
10
51.886600000000001
20
85.839300000000009
10
52.894100000000002
20
80.127499999999998
10
53.682200000000002
20
80.266500000000008
10
54.219900000000003
20
77.214200000000005
10
53.431399999999996
20
77.0749
10
53.605300000000007
20
76.091000000000008
10
39.818100000000001
20
73.660399999999996
10
39.644100000000009
20
74.644200000000012
10
38.857399999999998
20
74.504900000000006
10
38.31880000000001
20
77.557500000000005
0
LWPOLYLINE
5
110
100
AcDbEntity
8
0
100
AcDbPolyline
90
20
70
1
43
0.0
10
94.669000000000011
20
91.696100000000001
10
94.496000000000024
20
92.681400000000011
10
108.28400000000001
20
95.112099999999998
10
108.45700000000001
20
94.126800000000003
10
109.24500000000002
20
94.267499999999998
10
109.78200000000001
20
91.21250000000002
10
108.99500000000002
20
91.0745
10
110.00299999999999
20
85.362700000000004
10
110.791
20
85.500299999999996
10
111.32900000000001
20
82.447999999999993
10
110.54000000000001
20
82.308700000000016
10
110.715
20
81.324799999999996
10
96.926000000000002
20
78.892799999999994
10
96.753999999999991
20
79.878100000000003
10
95.966000000000022
20
79.738699999999994
10
95.427000000000021
20
82.792699999999996
10
96.214000000000013
20
82.931700000000021
10
95.208000000000013
20
88.643500000000003
10
94.420000000000002
20
88.504500000000007
10
93.881000000000014
20
91.55680000000001
0
LWPOLYLINE
5
111
100
AcDbEntity
8
0
100
AcDbPolyline
90
20
70
1
43
0.0
10
75.081699999999998
20
93.078300000000013
10
74.908199999999994
20
94.063599999999994
10
88.695000000000007
20
96.49430000000001
10
88.869
20
95.508900000000011
10
89.657000000000011
20
95.648300000000006
10
90.195999999999998
20
92.594600000000014
10
89.407999999999987
20
92.456700000000012
10
90.415000000000006
20
86.743500000000012
10
91.202000000000027
20
86.882499999999993
10
91.741000000000014
20
83.830200000000005
10
90.953999999999994
20
83.690899999999999
10
91.126000000000005
20
82.707000000000022
10
77.339100000000016
20
80.276300000000006
10
77.165600000000012
20
81.260199999999998
10
76.377099999999999
20
81.120900000000006
10
75.839799999999997
20
84.174500000000009
10
76.627999999999986
20
84.3125
10
75.620800000000003
20
90.02470000000001
10
74.832300000000004
20
89.886700000000005
10
74.295000000000016
20
92.938999999999993
0
LWPOLYLINE
5
112
100
AcDbEntity
8
0
100
AcDbPolyline
90
20
70
1
43
0.0
10
114.18799999999999
20
86.099999999999994
10
114.976
20
86.23899999999999
10
113.96900000000001
20
91.950800000000015
10
113.18100000000001
20
91.811800000000005
10
112.643
20
94.865499999999997
10
113.43100000000001
20
95.004800000000017
10
113.25600000000001
20
95.988699999999994
10
127.04300000000002
20
98.41940000000001
10
127.21700000000001
20
97.435500000000005
10
128.005
20
97.573400000000007
10
128.54399999999998
20
94.521199999999993
10
127.756
20
94.383200000000016
10
128.76300000000001
20
88.670000000000016
10
129.55000000000001
20
88.808999999999997
10
130.09
20
85.756700000000009
10
129.30200000000002
20
85.617400000000004
10
129.47399999999999
20
84.633499999999998
10
115.68700000000001
20
82.20150000000001
10
115.51400000000001
20
83.186800000000005
10
114.72700000000002
20
83.04740000000001
0
LWPOLYLINE
5
113
100
AcDbEntity
8
0
100
AcDbPolyline
90
20
70
1
43
0.0
10
15.895100000000003
20
95.022500000000008
10
16.683199999999999
20
95.16040000000001
10
16.509700000000006
20
96.145700000000005
10
30.296900000000004
20
98.576700000000002
10
30.470500000000005
20
97.592800000000011
10
31.258999999999997
20
97.730400000000017
10
31.796199999999999
20
94.678100000000001
10
31.008099999999999
20
94.538799999999995
10
32.015300000000011
20
88.827000000000012
10
32.80380000000001
20
88.966300000000004
10
33.341099999999997
20
85.912300000000016
10
32.554400000000001
20
85.774699999999996
10
32.727900000000005
20
84.789400000000001
10
18.9407
20
82.358400000000017
10
18.767099999999999
20
83.342299999999994
10
17.9786
20
83.204400000000021
10
17.441400000000002
20
86.257000000000005
10
18.228100000000001
20
86.396000000000001
10
17.222299999999997
20
92.108199999999997
10
16.433800000000002
20
91.968800000000002
0
LWPOLYLINE
5
114
100
AcDbEntity
8
0
100
AcDbPolyline
90
20
70
1
43
0.0
10
54.914100000000012
20
93.144300000000001
10
54.375399999999999
20
96.196899999999999
10
55.163900000000005
20
96.335899999999995
10
54.989999999999995
20
97.321200000000019
10
68.777199999999993
20
99.752100000000013
10
68.9512
20
98.766800000000003
10
69.739300000000014
20
98.905799999999999
10
70.277999999999992
20
95.8536
10
69.489800000000002
20
95.714299999999994
10
70.497000000000014
20
90.002399999999994
10
71.285500000000013
20
90.141800000000018
10
71.822800000000001
20
87.089200000000005
10
71.034700000000001
20
86.950199999999995
10
71.208200000000005
20
85.964900000000014
10
57.421000000000006
20
83.533900000000017
10
57.247400000000006
20
84.519199999999998
10
56.458900000000007
20
84.380200000000002
10
55.921700000000001
20
87.432400000000001
10
56.709800000000001
20
87.571399999999997
10
55.7012
20
93.283600000000021
0
LWPOLYLINE
5
115
100
AcDbEntity
8
0
100
AcDbPolyline
90
20
70
1
43
0.0
10
34.25330000000001
20
105.22300000000001
10
34.079800000000006
20
106.20800000000001
10
47.867000000000004
20
108.63900000000001
10
48.040599999999998
20
107.654
10
48.8277
20
107.79299999999999
10
49.366300000000003
20
104.74000000000001
10
48.578200000000002
20
104.601
10
49.585400000000007
20
98.88930000000002
10
50.373500000000007
20
99.028600000000012
10
50.911200000000001
20
95.974999999999994
10
50.124099999999999
20
95.835599999999999
10
50.298000000000009
20
94.850300000000004
10
36.510800000000003
20
92.419700000000006
10
36.336900000000007
20
93.405000000000001
10
35.548700000000004
20
93.26700000000001
10
35.011499999999998
20
96.319299999999998
10
35.798200000000008
20
96.458600000000004
10
34.792000000000002
20
102.17
10
34.003900000000009
20
102.03100000000001
10
33.46520000000001
20
105.08400000000002
0
LWPOLYLINE
5
116
100
AcDbEntity
8
0
100
AcDbPolyline
90
20
70
1
43
0.0
10
90.574000000000012
20
110.31700000000001
10
91.362000000000023
20
110.456
10
91.188000000000002
20
111.44100000000002
10
104.976
20
113.87100000000002
10
105.149
20
112.887
10
105.93600000000002
20
113.02700000000002
10
106.47500000000001
20
109.97399999999999
10
105.68799999999999
20
109.83499999999999
10
106.69400000000002
20
104.123
10
107.48200000000003
20
104.26200000000001
10
108.02100000000003
20
101.209
10
107.233
20
101.06900000000002
10
107.40600000000001
20
100.08600000000001
10
93.619
20
97.654500000000013
10
93.445999999999998
20
98.638400000000019
10
92.657000000000025
20
98.499400000000009
10
92.120000000000019
20
101.553
10
92.907000000000011
20
101.69200000000002
10
91.899000000000015
20
107.40400000000001
10
91.111000000000004
20
107.26500000000001
0
LWPOLYLINE
5
117
100
AcDbEntity
8
0
100
AcDbPolyline
90
20
70
1
43
0.0
10
71.773399999999995
20
111.83900000000001
10
71.600899999999996
20
112.82299999999999
10
85.388000000000005
20
115.25500000000001
10
85.562000000000026
20
114.27
10
86.349999999999994
20
114.40899999999999
10
86.887
20
111.35600000000002
10
86.09899999999999
20
111.21700000000003
10
87.107000000000028
20
105.505
10
87.89500000000001
20
105.64500000000001
10
88.432000000000016
20
102.59100000000002
10
87.646000000000015
20
102.45200000000003
10
87.819000000000003
20
101.46799999999999
10
74.031900000000007
20
99.035300000000021
10
73.8583
20
100.021
10
73.069800000000015
20
99.881600000000006
10
72.531099999999995
20
102.93500000000002
10
73.319299999999998
20
103.07500000000002
10
72.313500000000005
20
108.786
10
71.52500000000002
20
108.64700000000001
10
70.9863
20
111.70000000000002
0
LWPOLYLINE
5
118
100
AcDbEntity
8
0
100
AcDbPolyline
90
20
70
1
43
0.0
10
111.667
20
105
10
110.66000000000001
20
110.71200000000002
10
109.87299999999999
20
110.57299999999999
10
109.334
20
113.626
10
110.12299999999999
20
113.765
10
109.949
20
114.749
10
123.73599999999999
20
117.18000000000002
10
123.91
20
116.196
10
124.69799999999999
20
116.33600000000001
10
125.23500000000001
20
113.28200000000002
10
124.447
20
113.143
10
125.45500000000003
20
107.43000000000002
10
126.24299999999999
20
107.56999999999999
10
126.78200000000002
20
104.51700000000002
10
125.99400000000001
20
104.37799999999999
10
126.16700000000002
20
103.393
10
112.38
20
100.96200000000002
10
112.20600000000003
20
101.947
10
111.419
20
101.80799999999999
10
110.87899999999999
20
104.86000000000001
0
LWPOLYLINE
5
119
100
AcDbEntity
8
0
100
AcDbPolyline
90
20
70
1
43
0.0
10
13.376100000000001
20
113.92100000000001
10
13.201099999999997
20
114.90600000000001
10
26.988200000000006
20
117.337
10
27.163200000000003
20
116.35300000000001
10
27.950299999999999
20
116.49100000000001
10
28.489000000000004
20
113.43899999999999
10
27.700800000000001
20
113.3
10
28.707999999999998
20
107.58800000000001
10
29.496500000000001
20
107.727
10
30.033799999999999
20
104.67399999999999
10
29.24710000000001
20
104.535
10
29.419199999999996
20
103.55000000000001
10
15.633400000000002
20
101.119
10
15.458400000000001
20
102.104
10
14.670000000000005
20
101.965
10
14.132599999999996
20
105.018
10
14.920900000000007
20
105.15700000000002
10
13.913500000000001
20
110.869
10
13.125300000000006
20
110.73
10
12.587800000000001
20
113.78299999999999
0
LWPOLYLINE
5
120
100
AcDbEntity
8
0
100
AcDbPolyline
90
20
70
1
43
0.0
10
51.8566
20
115.09700000000002
10
51.681299999999993
20
116.08200000000002
10
65.469899999999996
20
118.51300000000001
10
65.642499999999998
20
117.52700000000002
10
66.430599999999998
20
117.667
10
66.969200000000001
20
114.61399999999999
10
66.181100000000001
20
114.47499999999999
10
67.188299999999998
20
108.76300000000001
10
67.976799999999997
20
108.902
10
68.514099999999999
20
105.84899999999999
10
67.727400000000003
20
105.71100000000001
10
67.900899999999993
20
104.72499999999999
10
54.112300000000005
20
102.29500000000002
10
53.940100000000008
20
103.279
10
53.151600000000002
20
103.14100000000002
10
52.614400000000003
20
106.19300000000001
10
53.4011
20
106.33200000000002
10
52.393900000000002
20
112.044
10
51.606800000000007
20
111.905
10
51.068100000000001
20
114.959
0
LWPOLYLINE
5
121
100
AcDbEntity
8
0
100
AcDbPolyline
90
20
70
1
43
0.0
10
31.702800000000011
20
115.08000000000001
10
32.490900000000011
20
115.21799999999999
10
31.483699999999999
20
120.93000000000002
10
30.695200000000007
20
120.79000000000001
10
30.156500000000008
20
123.84399999999999
10
30.944600000000008
20
123.98299999999999
10
30.771100000000004
20
124.96700000000003
10
44.558300000000003
20
127.40000000000002
10
44.733300000000007
20
126.41400000000002
10
45.520399999999995
20
126.553
10
46.058999999999997
20
123.50000000000001
10
45.270900000000005
20
123.36100000000002
10
46.278100000000002
20
117.65000000000001
10
47.066200000000002
20
117.78800000000001
10
47.603900000000003
20
114.73500000000001
10
46.815399999999997
20
114.59800000000001
10
46.989300000000007
20
113.61200000000002
10
33.203500000000005
20
111.181
10
33.028100000000009
20
112.16500000000002
10
32.241399999999999
20
112.02799999999999
0
LWPOLYLINE
5
122
100
AcDbEntity
8
0
100
AcDbPolyline
90
20
70
1
43
0.0
10
87.265000000000015
20
129.07800000000003
10
88.053000000000011
20
129.21700000000001
10
87.879999999999995
20
130.203
10
101.66800000000001
20
132.63399999999999
10
101.84100000000001
20
131.648
10
102.629
20
131.78700000000001
10
103.16600000000001
20
128.73400000000001
10
102.37899999999999
20
128.595
10
103.38700000000001
20
122.88200000000002
10
104.17400000000001
20
123.02200000000001
10
104.71299999999999
20
119.96899999999999
10
103.92400000000001
20
119.83200000000002
10
104.099
20
118.846
10
90.310000000000002
20
116.41500000000001
10
90.138000000000005
20
117.399
10
89.350000000000009
20
117.262
10
88.811000000000021
20
120.31200000000001
10
89.598000000000013
20
120.45200000000001
10
88.592000000000013
20
126.164
10
87.804000000000002
20
126.02400000000002
0
LWPOLYLINE
5
123
100
AcDbEntity
8
0
100
AcDbPolyline
90
20
70
1
43
0.0
10
68.216700000000003
20
127.40600000000001
10
67.679000000000002
20
130.46000000000001
10
68.466099999999997
20
130.59899999999999
10
68.292199999999994
20
131.583
10
82.079000000000008
20
134.01599999999999
10
82.252999999999986
20
133.03
10
83.040999999999997
20
133.16899999999998
10
83.580000000000013
20
130.11600000000001
10
82.792000000000016
20
129.97700000000003
10
83.798999999999992
20
124.26600000000001
10
84.586000000000013
20
124.404
10
85.125000000000014
20
121.35100000000001
10
84.337999999999994
20
121.21400000000001
10
84.510000000000005
20
120.22800000000001
10
70.72320000000002
20
117.79700000000003
10
70.549599999999998
20
118.78100000000002
10
69.761099999999999
20
118.64400000000001
10
69.2239
20
121.69600000000001
10
70.012
20
121.834
10
69.004800000000003
20
127.54600000000002
0
LWPOLYLINE
5
124
100
AcDbEntity
8
0
100
AcDbPolyline
90
20
70
1
43
0.0
10
48.547900000000006
20
133.857
10
48.373999999999995
20
134.84200000000001
10
62.161200000000001
20
137.273
10
62.3352
20
136.28899999999999
10
63.123300000000015
20
136.42700000000002
10
63.662000000000006
20
133.375
10
62.873900000000006
20
133.23599999999999
10
63.881
20
127.52400000000002
10
64.669499999999999
20
127.66300000000001
10
65.206800000000001
20
124.61100000000002
10
64.418700000000001
20
124.471
10
64.592200000000005
20
123.48600000000002
10
50.805000000000007
20
121.05500000000001
10
50.631400000000006
20
122.04000000000001
10
49.842900000000007
20
121.90100000000001
10
49.305700000000002
20
124.95400000000001
10
50.093800000000002
20
125.09299999999999
10
49.0852
20
130.80500000000001
10
48.298500000000004
20
130.666
10
47.759399999999999
20
133.71899999999999
0
LWPOLYLINE
5
125
100
AcDbEntity
8
0
100
AcDbPolyline
90
20
70
1
43
0.0
10
37.617100000000008
20
23.169
10
37.358100000000007
20
24.135000000000005
10
36.584800000000008
20
23.9282
10
35.783000000000001
20
26.921400000000002
10
36.554900000000004
20
27.1294
10
35.054100000000005
20
32.731200000000001
10
34.28090000000001
20
32.524500000000003
10
33.478999999999999
20
35.519100000000002
10
34.251900000000006
20
35.725800000000007
10
33.993000000000002
20
36.691699999999997
10
47.515700000000002
20
40.314399999999999
10
47.774600000000014
20
39.348500000000001
10
48.547900000000006
20
39.556600000000003
10
49.349800000000002
20
36.562199999999997
10
48.576800000000013
20
36.355500000000006
10
50.077500000000008
20
30.752300000000005
10
50.850499999999997
20
30.960400000000003
10
51.652300000000004
20
27.964500000000001
10
50.880799999999994
20
27.7592
10
51.138300000000001
20
26.791800000000002
0
LINE
5
126
100
AcDbEntity
8
0
100
AcDbLine
10
37.030163258502171
20
0.074414200000000014
30
0
11
0.093706599999983098
21
0.074414200000000014
31
0
0
LWPOLYLINE
5
127
100
AcDbEntity
8
0
100
AcDbPolyline
90
20
70
1
43
0.0
10
-37.20108680000002
20
87.447599999999994
10
-50.986886800000022
20
89.87830000000001
10
-51.161886800000019
20
88.892900000000012
10
-51.948586800000029
20
89.032300000000006
10
-52.487586800000017
20
85.9786
10
-51.699186800000021
20
85.839300000000009
10
-52.706686800000014
20
80.127499999999998
10
-53.494786800000014
20
80.266500000000008
10
-54.032486800000015
20
77.214200000000034
10
-53.243986800000016
20
77.074900000000014
10
-53.417886800000019
20
76.091000000000037
10
-39.630686800000021
20
73.660399999999996
10
-39.456686800000028
20
74.644200000000012
10
-38.669986800000018
20
74.504900000000006
10
-38.131386800000023
20
77.557500000000005
10
-38.919486800000023
20
77.6965
10
-37.911886800000019
20
83.40870000000001
10
-37.123786800000019
20
83.270700000000005
10
-36.585086800000028
20
86.322999999999993
10
-37.37318680000002
20
86.462300000000013
0
LWPOLYLINE
5
128
100
AcDbEntity
8
0
100
AcDbPolyline
90
20
70
1
43
0.0
10
-48.389386800000047
20
36.355500000000013
10
-49.890086800000041
20
30.752300000000012
10
-50.663086800000031
20
30.960400000000014
10
-51.464886800000038
20
27.964500000000008
10
-50.693386800000027
20
27.759200000000011
10
-50.950886800000035
20
26.791800000000009
10
-37.429686800000034
20
23.169000000000008
10
-37.170686800000034
20
24.135000000000012
10
-36.397386800000035
20
23.928200000000007
10
-35.595586800000028
20
26.921400000000013
10
-36.36748680000003
20
27.129400000000011
10
-34.866686800000025
20
32.731200000000015
10
-34.093486800000036
20
32.524500000000018
10
-33.291586800000026
20
35.519100000000009
10
-34.064486800000033
20
35.725800000000014
10
-33.805586800000029
20
36.691700000000004
10
-47.328286800000036
20
40.31440000000002
10
-47.587186800000048
20
39.348500000000016
10
-48.360486800000039
20
39.55660000000001
10
-49.162386800000036
20
36.562200000000004
0
LWPOLYLINE
5
129
100
AcDbEntity
8
0
100
AcDbPolyline
90
20
70
1
43
0.0
10
-75.652386800000016
20
84.174500000000009
10
-76.440586800000005
20
84.3125
10
-75.433386800000022
20
90.02470000000001
10
-74.644886800000023
20
89.886700000000005
10
-74.107586800000021
20
92.938999999999993
10
-74.894286800000017
20
93.078300000000013
10
-74.720786800000013
20
94.063599999999994
10
-88.507586799999999
20
96.494300000000038
10
-88.681586800000005
20
95.50890000000004
10
-89.469586800000016
20
95.648300000000035
10
-90.008586800000003
20
92.594600000000042
10
-89.220586799999992
20
92.456700000000041
10
-90.227586800000012
20
86.74350000000004
10
-91.014586800000018
20
86.882500000000036
10
-91.553586800000005
20
83.830200000000033
10
-90.766586799999999
20
83.690900000000028
10
-90.938586799999996
20
82.70700000000005
10
-77.151686800000036
20
80.276300000000006
10
-76.978186800000032
20
81.260199999999998
10
-76.189686800000018
20
81.120900000000006
0
LWPOLYLINE
5
130
100
AcDbEntity
8
0
100
AcDbPolyline
90
20
70
1
43
0.0
10
-56.421786800000042
20
33.290700000000008
10
-56.246786800000038
20
34.274600000000007
10
-55.460186800000031
20
34.135400000000004
10
-54.921086800000047
20
37.189100000000018
10
-55.709586800000032
20
37.328500000000005
10
-54.701986800000014
20
43.038900000000019
10
-53.913886800000014
20
42.901000000000025
10
-53.376286800000017
20
45.95350000000002
10
-54.163286800000023
20
46.092500000000022
10
-53.991186800000023
20
47.076400000000021
10
-67.776986800000017
20
49.507400000000018
10
-67.951986800000014
20
48.52350000000002
10
-68.738686800000025
20
48.662500000000023
10
-69.277786800000015
20
45.608900000000013
10
-68.489286800000016
20
45.471300000000021
10
-69.496786800000038
20
39.759100000000018
10
-70.284886800000038
20
39.89850000000002
10
-70.82218680000004
20
36.844500000000018
10
-70.035486800000029
20
36.705500000000022
10
-70.207686800000033
20
35.721600000000024
0
LWPOLYLINE
5
131
100
AcDbEntity
8
0
100
AcDbPolyline
90
20
70
1
43
0.0
10
-30.820686800000018
20
94.538799999999995
10
-31.827886800000023
20
88.827000000000012
10
-32.616386800000029
20
88.966300000000004
10
-33.153686800000017
20
85.912300000000016
10
-32.366986800000021
20
85.774699999999996
10
-32.540486800000025
20
84.789400000000001
10
-18.753286800000019
20
82.358400000000017
10
-18.579686800000019
20
83.342299999999994
10
-17.791186800000016
20
83.204400000000021
10
-17.253986800000018
20
86.257000000000005
10
-18.040686800000017
20
86.396000000000001
10
-17.03488680000001
20
92.108199999999997
10
-16.24638680000001
20
91.968800000000002
10
-15.707686800000014
20
95.022500000000008
10
-16.495786800000012
20
95.16040000000001
10
-16.322286800000015
20
96.145700000000005
10
-30.10948680000002
20
98.576700000000002
10
-30.283086800000021
20
97.592800000000011
10
-31.071586800000013
20
97.730400000000017
10
-31.608786800000015
20
94.678100000000001
0
LWPOLYLINE
5
132
100
AcDbEntity
8
0
100
AcDbPolyline
90
20
70
1
43
0.0
10
-55.039586800000023
20
66.89130000000003
10
-56.04718680000002
20
61.17940000000003
10
-56.83528680000002
20
61.318400000000025
10
-57.372586800000022
20
58.266200000000019
10
-56.585886800000026
20
58.127200000000023
10
-56.759386800000016
20
57.141900000000021
10
-42.972186800000017
20
54.710900000000024
10
-42.798586800000024
20
55.696200000000019
10
-42.01048680000001
20
55.55690000000002
10
-41.472886800000019
20
58.610900000000029
10
-42.259886800000018
20
58.748400000000018
10
-41.253786800000029
20
64.460600000000014
10
-40.465686800000015
20
64.322700000000012
10
-39.92518680000002
20
67.374899999999997
10
-40.715086800000023
20
67.51430000000002
10
-40.54148680000003
20
68.499600000000015
10
-54.328786800000017
20
70.930600000000027
10
-54.502386800000025
20
69.945300000000032
10
-55.289086800000021
20
70.084200000000024
10
-55.828086800000023
20
67.030600000000021
0
LWPOLYLINE
5
133
100
AcDbEntity
8
0
100
AcDbPolyline
90
20
70
1
43
0.0
10
-18.579686800000029
20
12.855700000000006
10
-16.596686800000032
20
18.305900000000005
10
-15.844286800000035
20
18.033000000000005
10
-14.784386800000032
20
20.946200000000005
10
-15.535586800000033
20
21.219000000000001
10
-15.193686800000034
20
22.158899999999999
10
-28.349886800000029
20
26.947500000000012
10
-28.691686800000031
20
26.00770000000001
10
-29.444186800000026
20
26.28060000000001
10
-30.503586800000029
20
23.367400000000011
10
-29.751486800000031
20
23.094500000000011
10
-31.735786800000039
20
17.644400000000012
10
-32.486886800000043
20
17.918600000000012
10
-33.547686800000037
20
15.005500000000008
10
-32.795586800000045
20
14.731200000000008
10
-33.137086800000041
20
13.79140000000001
10
-19.982286800000033
20
9.002710000000004
10
-19.640486800000033
20
9.942550000000006
10
-18.888386800000035
20
9.6697100000000056
10
-17.828586800000032
20
12.581500000000005
0
LWPOLYLINE
5
134
100
AcDbEntity
8
0
100
AcDbPolyline
90
20
70
1
43
0.0
10
-48.390786800000015
20
104.601
10
-49.397986800000027
20
98.88930000000002
10
-50.186086800000027
20
99.028600000000012
10
-50.723786800000013
20
95.974999999999994
10
-49.936686800000018
20
95.835599999999999
10
-50.110586800000021
20
94.850300000000004
10
-36.323386800000023
20
92.419700000000006
10
-36.14948680000002
20
93.405000000000001
10
-35.361286800000016
20
93.26700000000001
10
-34.824086800000018
20
96.319299999999998
10
-35.610786800000021
20
96.458600000000004
10
-34.604586800000014
20
102.17
10
-33.816486800000014
20
102.03100000000001
10
-33.277786800000015
20
105.08400000000002
10
-34.065886800000015
20
105.22300000000001
10
-33.892386800000011
20
106.20800000000001
10
-47.679586800000024
20
108.63900000000001
10
-47.853186800000017
20
107.654
10
-48.640286800000013
20
107.79299999999999
10
-49.178886800000015
20
104.74000000000001
0
LWPOLYLINE
5
135
100
AcDbEntity
8
0
100
AcDbPolyline
90
20
70
1
43
0.0
10
-72.859086800000028
20
80.146900000000002
10
-73.39778680000002
20
77.092900000000014
10
-72.60968680000002
20
76.953900000000019
10
-73.616886800000017
20
71.241700000000009
10
-74.405386800000016
20
71.381100000000032
10
-74.942686800000018
20
68.328800000000015
10
-74.155986800000022
20
68.189500000000024
10
-74.329486800000026
20
67.204200000000029
10
-60.540886800000031
20
64.773200000000031
10
-60.368686800000013
20
65.758500000000012
10
-59.580186800000021
20
65.619500000000016
10
-59.042986800000023
20
68.67170000000003
10
-59.829686800000026
20
68.81110000000001
10
-58.822486800000021
20
74.522900000000035
10
-58.035386800000026
20
74.383900000000011
10
-57.49668680000002
20
77.437500000000028
10
-58.28478680000002
20
77.57650000000001
10
-58.109886800000027
20
78.560400000000016
10
-71.898486800000001
20
80.991399999999999
10
-72.070986800000014
20
80.007499999999993
0
LWPOLYLINE
5
136
100
AcDbEntity
8
0
100
AcDbPolyline
90
20
70
1
43
0.0
10
-70.847286800000006
20
86.950199999999995
10
-71.020786800000025
20
85.964900000000014
10
-57.233586800000026
20
83.533900000000017
10
-57.059986800000019
20
84.519199999999998
10
-56.271486800000019
20
84.380200000000002
10
-55.734286800000021
20
87.432400000000001
10
-56.522386800000021
20
87.571399999999997
10
-55.51378680000002
20
93.283600000000021
10
-54.726686800000024
20
93.144300000000001
10
-54.187986800000019
20
96.196899999999999
10
-54.976486800000018
20
96.335899999999995
10
-54.802586800000014
20
97.321200000000019
10
-68.589786800000013
20
99.752100000000013
10
-68.76378680000002
20
98.766800000000003
10
-69.551886800000034
20
98.905799999999999
10
-70.090586800000011
20
95.8536
10
-69.302386800000022
20
95.714299999999994
10
-70.309586800000034
20
90.002399999999994
10
-71.098086800000019
20
90.141800000000018
10
-71.63538680000002
20
87.089200000000005
0
LWPOLYLINE
5
137
100
AcDbEntity
8
0
100
AcDbPolyline
90
20
70
1
43
0.0
10
-51.66918680000002
20
115.09700000000002
10
-51.493886800000013
20
116.08200000000002
10
-65.282486800000015
20
118.51300000000001
10
-65.455086800000004
20
117.52700000000002
10
-66.243186800000018
20
117.667
10
-66.78178680000002
20
114.61399999999999
10
-65.993686800000006
20
114.47499999999999
10
-67.000886800000018
20
108.76300000000001
10
-67.789386800000017
20
108.902
10
-68.326686800000004
20
105.84899999999999
10
-67.539986800000023
20
105.71100000000001
10
-67.713486800000013
20
104.72499999999999
10
-53.924886800000024
20
102.29500000000002
10
-53.752686800000021
20
103.279
10
-52.964186800000022
20
103.14100000000002
10
-52.426986800000023
20
106.19300000000001
10
-53.213686800000019
20
106.33200000000002
10
-52.206486800000022
20
112.044
10
-51.419386800000026
20
111.905
10
-50.880686800000021
20
114.959
0
LWPOLYLINE
5
138
100
AcDbEntity
8
0
100
AcDbPolyline
90
20
70
1
43
0.0
10
-46.627986800000016
20
114.59800000000001
10
-46.80188680000002
20
113.61200000000002
10
-33.016086800000011
20
111.181
10
-32.840686800000015
20
112.16500000000002
10
-32.053986800000011
20
112.02799999999999
10
-31.515386800000016
20
115.08000000000001
10
-32.303486800000016
20
115.21799999999999
10
-31.296286800000004
20
120.93000000000002
10
-30.507786800000012
20
120.79000000000001
10
-29.969086800000014
20
123.84399999999999
10
-30.757186800000014
20
123.98299999999999
10
-30.583686800000009
20
124.96700000000003
10
-44.370886800000008
20
127.40000000000002
10
-44.545886800000005
20
126.41400000000002
10
-45.3329868
20
126.553
10
-45.871586800000003
20
123.50000000000001
10
-45.083486800000003
20
123.36100000000002
10
-46.090686800000015
20
117.65000000000001
10
-46.878786800000015
20
117.78800000000001
10
-47.416486800000015
20
114.73500000000001
0
LWPOLYLINE
5
139
100
AcDbEntity
8
0
100
AcDbPolyline
90
20
70
1
43
0.0
10
-77.986786800000019
20
70.938700000000011
10
-77.448086800000027
20
73.990900000000025
10
-78.236186800000013
20
74.130300000000034
10
-78.06258680000002
20
75.115600000000015
10
-91.849586800000054
20
77.546200000000013
10
-92.023586800000032
20
76.560900000000032
10
-92.811586800000043
20
76.700200000000024
10
-93.349586800000054
20
73.646600000000021
10
-92.560586800000024
20
73.508700000000019
10
-93.568586800000034
20
67.796800000000019
10
-94.356586800000031
20
67.934400000000025
10
-94.893586800000037
20
64.882200000000012
10
-94.106586800000045
20
64.742800000000017
10
-94.280586800000037
20
63.757500000000022
10
-80.493586800000045
20
61.326900000000023
10
-80.319586800000039
20
62.312200000000018
10
-79.531586800000014
20
62.17290000000002
10
-78.992886800000036
20
65.226800000000026
10
-79.780986800000022
20
65.364400000000018
10
-78.773786800000039
20
71.076600000000013
0
LWPOLYLINE
5
140
100
AcDbEntity
8
0
100
AcDbPolyline
90
20
70
1
43
0.0
10
-94.481586800000002
20
91.696100000000044
10
-94.308586800000015
20
92.681400000000039
10
-108.0965868
20
95.112100000000041
10
-108.26958680000001
20
94.126800000000031
10
-109.05758680000002
20
94.267500000000041
10
-109.5945868
20
91.212500000000048
10
-108.80758680000001
20
91.074500000000029
10
-109.81558679999999
20
85.362700000000032
10
-110.6035868
20
85.500300000000038
10
-111.14158680000001
20
82.448000000000036
10
-110.3525868
20
82.308700000000044
10
-110.52758679999999
20
81.324800000000025
10
-96.738586800000036
20
78.892800000000008
10
-96.566586800000039
20
79.878100000000018
10
-95.778586800000056
20
79.738700000000023
10
-95.239586800000012
20
82.792700000000039
10
-96.026586800000018
20
82.931700000000049
10
-95.020586800000018
20
88.643500000000031
10
-94.232586800000007
20
88.504500000000036
10
-93.69358680000002
20
91.556800000000038
0
LWPOLYLINE
5
141
100
AcDbEntity
8
0
100
AcDbPolyline
90
20
70
1
43
0.0
10
-19.630986800000017
20
77.385000000000005
10
-33.416786800000018
20
79.816000000000003
10
-33.591786800000023
20
78.830700000000007
10
-34.378886800000018
20
78.969999999999999
10
-34.91748680000002
20
75.917400000000001
10
-34.12938680000002
20
75.778400000000005
10
-35.136586800000018
20
70.066299999999998
10
-35.925086800000017
20
70.205600000000004
10
-36.462386800000019
20
67.153000000000006
10
-35.675686800000022
20
67.013999999999996
10
-35.847786800000023
20
66.028700000000001
10
-22.061986800000017
20
63.59770000000001
10
-21.886986800000017
20
64.582999999999998
10
-21.099886800000014
20
64.444000000000003
10
-20.561286800000012
20
67.497699999999995
10
-21.349386800000019
20
67.635599999999997
10
-20.342186800000022
20
73.347399999999993
10
-19.553686800000023
20
73.208400000000012
10
-19.016386800000017
20
76.2607
10
-19.804486800000021
20
76.399699999999996
0
LWPOLYLINE
5
142
100
AcDbEntity
8
0
100
AcDbPolyline
90
20
70
1
43
0.0
10
-36.899086800000028
20
60.071399999999997
10
-37.687586800000034
20
60.21070000000001
10
-38.224786800000025
20
57.157100000000007
10
-37.438086800000036
20
57.017699999999998
10
-38.44388680000003
20
51.305900000000008
10
-39.230986800000025
20
51.444900000000004
10
-39.769686800000024
20
48.392600000000002
10
-38.982986800000027
20
48.25330000000001
10
-39.156486800000032
20
47.268000000000001
10
-25.369286800000026
20
44.837400000000002
10
-25.195686800000026
20
45.822700000000005
10
-24.407186800000026
20
45.683300000000003
10
-23.869986800000031
20
48.735500000000009
10
-24.656686800000021
20
48.874899999999997
10
-23.650886800000023
20
54.586700000000008
10
-22.862386800000021
20
54.447699999999998
10
-22.323686800000022
20
57.501400000000004
10
-23.111786800000029
20
57.640700000000002
10
-22.938286800000025
20
58.624600000000001
10
-36.72548680000002
20
61.05530000000001
0
LWPOLYLINE
5
143
100
AcDbEntity
8
0
100
AcDbPolyline
90
20
70
1
43
0.0
10
-72.343686800000015
20
102.93500000000002
10
-73.131886800000018
20
103.07500000000002
10
-72.126086800000024
20
108.786
10
-71.337586800000025
20
108.64700000000001
10
-70.79888680000002
20
111.70000000000002
10
-71.585986800000001
20
111.83900000000001
10
-71.413486800000015
20
112.82299999999999
10
-85.200586799999996
20
115.25500000000005
10
-85.374586800000017
20
114.27000000000004
10
-86.1625868
20
114.40900000000002
10
-86.699586800000006
20
111.35600000000005
10
-85.911586799999995
20
111.21700000000006
10
-86.919586800000019
20
105.50500000000002
10
-87.707586800000001
20
105.64500000000004
10
-88.244586800000008
20
102.59100000000005
10
-87.458586800000006
20
102.45200000000006
10
-87.631586800000008
20
101.46800000000002
10
-73.844486800000027
20
99.035300000000021
10
-73.670886800000019
20
100.021
10
-72.882386800000035
20
99.881600000000006
0
LWPOLYLINE
5
144
100
AcDbEntity
8
0
100
AcDbPolyline
90
20
70
1
43
0.0
10
-91.174586800000014
20
110.45600000000005
10
-91.000586800000008
20
111.44100000000006
10
-104.7885868
20
113.87100000000005
10
-104.96158680000001
20
112.88700000000004
10
-105.74858680000003
20
113.02700000000004
10
-106.28758680000001
20
109.97400000000002
10
-105.50058679999999
20
109.83500000000004
10
-106.50658680000001
20
104.12300000000003
10
-107.29458680000002
20
104.26200000000006
10
-107.83358680000003
20
101.20900000000005
10
-107.0455868
20
101.06900000000005
10
-107.2185868
20
100.08600000000004
10
-93.431586800000005
20
97.654500000000041
10
-93.258586799999989
20
98.638400000000047
10
-92.46958680000003
20
98.499400000000037
10
-91.93258680000001
20
101.55300000000004
10
-92.719586800000002
20
101.69200000000005
10
-91.711586800000021
20
107.40400000000005
10
-90.92358680000001
20
107.26500000000004
10
-90.386586800000003
20
110.31700000000004
0
LWPOLYLINE
5
145
100
AcDbEntity
8
0
100
AcDbPolyline
90
20
70
1
43
0.0
10
-102.1915868
20
128.59500000000003
10
-103.19958680000001
20
122.88200000000005
10
-103.9865868
20
123.02200000000005
10
-104.52558679999999
20
119.96900000000004
10
-103.7365868
20
119.83200000000005
10
-103.91158680000001
20
118.84600000000005
10
-90.122586800000008
20
116.41500000000005
10
-89.950586799999996
20
117.39900000000004
10
-89.1625868
20
117.26200000000004
10
-88.623586800000012
20
120.31200000000005
10
-89.410586800000004
20
120.45200000000006
10
-88.404586800000004
20
126.16400000000004
10
-87.616586799999993
20
126.02400000000004
10
-87.077586800000006
20
129.07800000000006
10
-87.865586800000003
20
129.21700000000004
10
-87.692586800000001
20
130.20300000000003
10
-101.4805868
20
132.63400000000001
10
-101.6535868
20
131.64800000000002
10
-102.4415868
20
131.78700000000003
10
-102.97858680000002
20
128.73400000000007
0
LWPOLYLINE
5
146
100
AcDbEntity
8
0
100
AcDbPolyline
90
20
70
1
43
0.0
10
-68.029286800000008
20
127.40600000000001
10
-67.491586800000007
20
130.46000000000001
10
-68.278686800000003
20
130.59899999999999
10
-68.104786799999999
20
131.583
10
-81.891586799999999
20
134.01600000000005
10
-82.065586799999991
20
133.03000000000003
10
-82.853586800000002
20
133.16900000000001
10
-83.392586800000004
20
130.11600000000004
10
-82.604586800000007
20
129.97700000000006
10
-83.611586799999998
20
124.26600000000005
10
-84.398586800000004
20
124.40400000000004
10
-84.937586800000005
20
121.35100000000006
10
-84.150586799999999
20
121.21400000000006
10
-84.32258680000001
20
120.22800000000004
10
-70.535786800000025
20
117.79700000000003
10
-70.362186800000018
20
118.78100000000002
10
-69.573686800000019
20
118.64400000000001
10
-69.036486800000006
20
121.69600000000001
10
-69.824586800000006
20
121.834
10
-68.817386799999994
20
127.54600000000002
0
LWPOLYLINE
5
147
100
AcDbEntity
8
0
100
AcDbPolyline
90
20
70
1
43
0.0
10
-48.360486800000004
20
133.857
10
-48.186586799999994
20
134.84200000000001
10
-61.973786799999999
20
137.273
10
-62.147786800000006
20
136.28899999999999
10
-62.935886800000006
20
136.42700000000002
10
-63.474586800000012
20
133.375
10
-62.686486799999997
20
133.23599999999999
10
-63.693586799999991
20
127.52400000000002
10
-64.482086800000005
20
127.66300000000001
10
-65.019386800000007
20
124.61100000000002
10
-64.231286799999992
20
124.471
10
-64.404786799999997
20
123.48600000000002
10
-50.617586800000005
20
121.05500000000001
10
-50.443986800000005
20
122.04000000000001
10
-49.655486800000006
20
121.90100000000001
10
-49.1182868
20
124.95400000000001
10
-49.9063868
20
125.09299999999999
10
-48.897786799999999
20
130.80500000000001
10
-48.111086800000002
20
130.666
10
-47.571986800000005
20
133.71899999999999
0
LWPOLYLINE
5
148
100
AcDbEntity
8
0
100
AcDbPolyline
90
20
70
1
43
0.0
10
-116.55058680000003
20
76.242700000000013
10
-116.37758680000005
20
77.228000000000037
10
-130.16458680000005
20
79.659000000000034
10
-130.33858680000006
20
78.673700000000039
10
-131.12658680000004
20
78.812700000000035
10
-131.66358680000005
20
75.760400000000047
10
-130.87558680000004
20
75.622500000000045
10
-131.88358680000005
20
69.910700000000048
10
-132.67158680000006
20
70.048600000000036
10
-133.21058680000004
20
66.996000000000052
10
-132.42258680000006
20
66.857000000000042
10
-132.59558680000004
20
65.871700000000033
10
-118.80858680000004
20
63.440700000000021
10
-118.63458680000005
20
64.426000000000016
10
-117.84758680000003
20
64.286700000000025
10
-117.30758680000005
20
67.340700000000012
10
-118.09558680000002
20
67.478300000000019
10
-117.08958680000006
20
73.190500000000029
10
-116.30158680000005
20
73.052500000000023
10
-115.76258680000002
20
76.103700000000018
0
LWPOLYLINE
5
149
100
AcDbEntity
8
0
100
AcDbPolyline
90
20
70
1
43
0.0
10
-26.800786800000012
20
117.337
10
-26.975786800000012
20
116.35300000000001
10
-27.762886800000004
20
116.49100000000001
10
-28.30158680000001
20
113.43899999999999
10
-27.513386800000006
20
113.3
10
-28.520586800000007
20
107.58800000000001
10
-29.30908680000001
20
107.727
10
-29.846386800000005
20
104.67399999999999
10
-29.059686800000016
20
104.535
10
-29.231786800000002
20
103.55000000000001
10
-15.445986800000014
20
101.119
10
-15.270986800000014
20
102.104
10
-14.482586800000018
20
101.965
10
-13.945186800000009
20
105.018
10
-14.733486800000017
20
105.15700000000002
10
-13.726086800000012
20
110.869
10
-12.937886800000019
20
110.73
10
-12.40038680000001
20
113.78299999999999
10
-13.18868680000001
20
113.92100000000001
10
-13.013686800000004
20
114.90600000000001
0
LWPOLYLINE
5
150
100
AcDbEntity
8
0
100
AcDbPolyline
90
20
70
1
43
0.0
10
-114.00058679999999
20
86.100000000000023
10
-114.7885868
20
86.239000000000033
10
-113.7815868
20
91.950800000000044
10
-112.9935868
20
91.811800000000048
10
-112.45558680000001
20
94.865500000000026
10
-113.24358680000002
20
95.004800000000046
10
-113.06858680000002
20
95.988700000000037
10
-126.85558680000001
20
98.419400000000053
10
-127.02958680000002
20
97.435500000000047
10
-127.81758679999999
20
97.573400000000049
10
-128.35658679999997
20
94.521200000000022
10
-127.56858680000001
20
94.383200000000045
10
-128.5755868
20
88.670000000000044
10
-129.36258680000003
20
88.80900000000004
10
-129.90258679999999
20
85.756700000000038
10
-129.11458680000004
20
85.617400000000032
10
-129.28658680000001
20
84.633500000000041
10
-115.49958680000002
20
82.201500000000038
10
-115.3265868
20
83.186800000000034
10
-114.53958680000001
20
83.047400000000039
0
LWPOLYLINE
5
151
100
AcDbEntity
8
0
100
AcDbPolyline
90
20
70
1
43
0.0
10
-111.47958680000001
20
105.00000000000003
10
-110.4725868
20
110.71200000000005
10
-109.6855868
20
110.57300000000004
10
-109.14658680000001
20
113.62600000000003
10
-109.9355868
20
113.76500000000004
10
-109.76158679999999
20
114.74900000000004
10
-123.5485868
20
117.18000000000005
10
-123.7225868
20
116.19600000000004
10
-124.5105868
20
116.33600000000004
10
-125.04758680000002
20
113.28200000000007
10
-124.25958680000001
20
113.14300000000003
10
-125.26758680000002
20
107.43000000000006
10
-126.0555868
20
107.57000000000004
10
-126.59458680000002
20
104.51700000000005
10
-125.80658680000001
20
104.37800000000003
10
-125.97958680000002
20
103.39300000000003
10
-112.19258679999999
20
100.96200000000005
10
-112.01858680000002
20
101.94700000000005
10
-111.2315868
20
101.80800000000004
10
-110.6915868
20
104.86000000000004
0
LWPOLYLINE
5
152
100
AcDbEntity
8
0
100
AcDbPolyline
90
5
70
1
43
0.0
10
0.093706599999983098
20
0.074414200000000014
10
-36.842750058502212
20
0.074414200000010311
10
-149.77431191872938
20
20.138397271611126
10
-127.43058469302669
20
145.90166194201257
10
0.093706599999999168
20
145.90166194201254
0
LINE
5
153
100
AcDbEntity
8
0
100
AcDbLine
10
127.6179978930267
20
145.90166194201254
30
0
11
149.96172511872936
21
20.138397271611105
31
0
0
LINE
5
154
100
AcDbEntity
8
0
100
AcDbLine
10
149.96172511872936
20
20.138397271611105
30
0
11
37.030163258502171
21
0.074414200000000014
31
0
0
LINE
5
155
100
AcDbEntity
8
0
100
AcDbLine
10
127.6179978930267
20
145.90166194201254
30
0
11
0.093706599999999168
21
145.90166194201254
31
0
0
LINE
5
156
100
AcDbEntity
8
0
100
AcDbLine
10
0.093706599999991563
20
95.319616758179166
30
0
11
7.593706599999992
21
95.319616758179166
31
0
0
LINE
5
157
100
AcDbEntity
8
0
100
AcDbLine
10
7.593706599999992
20
95.319616758179166
30
0
11
7.593706599999992
21
119.90406586275937
31
0
0
LINE
5
158
100
AcDbEntity
8
0
100
AcDbLine
10
7.593706599999992
20
119.90406586275937
30
0
11
35.797248193977246
21
145.90166194201254
31
0
0
LINE
5
159
100
AcDbEntity
8
0
100
AcDbLine
10
-7.4062933999999991
20
119.90406586275937
30
0
11
-35.609834993977245
21
145.90166194201254
31
0
0
LINE
5
160
100
AcDbEntity
8
0
100
AcDbLine
10
0.093706599999995616
20
95.319616758179166
30
0
11
-7.4062934000000062
21
95.319616758179166
31
0
0
LINE
5
161
100
AcDbEntity
8
0
100
AcDbLine
10
-7.4062934000000062
20
95.319616758179166
30
0
11
-7.4062933999999991
21
119.90406586275937
31
0
0
LINE
5
162
100
AcDbEntity
8
0
100
AcDbLine
10
0.093706599999995616
20
95.319616758179166
30
0
11
10.093706599999997
21
95.319616758179166
31
0
0
LINE
5
163
100
AcDbEntity
8
0
100
AcDbLine
10
10.093706599999997
20
95.319616758179166
30
0
11
10.093706599999997
21
55.319616758179166
31
0
0
LINE
5
164
100
AcDbEntity
8
0
100
AcDbLine
10
10.093706599999997
20
55.319616758179166
30
0
11
0.09370659999998919
21
55.319616758179166
31
0
0
LINE
5
165
100
AcDbEntity
8
0
100
AcDbLine
10
-9.9062934000000169
20
55.319616758179166
30
0
11
0.09370659999998919
21
55.319616758179166
31
0
0
LINE
5
166
100
AcDbEntity
8
0
100
AcDbLine
10
-9.906293400000008
20
95.319616758179166
30
0
11
-9.9062934000000169
21
55.319616758179166
31
0
0
LINE
5
167
100
AcDbEntity
8
0
100
AcDbLine
10
0.093706599999991563
20
95.319616758179166
30
0
11
-9.906293400000008
21
95.319616758179166
31
0
0
CIRCLE
5
168
100
AcDbEntity
8
0
100
AcDbCircle
10
9.7823744903331011
20
139.68711855960609
30
0
40
2.4000000000000026
0
CIRCLE
5
169
100
AcDbEntity
8
0
100
AcDbCircle
10
119.73342858672537
20
139.68711855960609
30
0
40
2.4000000000000021
0
CIRCLE
5
170
100
AcDbEntity
8
0
100
AcDbCircle
10
139.77689151585426
20
25.697366497379861
30
0
40
2.4000000000000061
0
CIRCLE
5
171
100
AcDbEntity
8
0
100
AcDbCircle
10
10.093706599999997
20
5.8639884643661588
30
0
40
2.3999999999999995
0
CIRCLE
5
172
100
AcDbEntity
8
0
100
AcDbCircle
10
-9.9062934000000311
20
5.8639884643661588
30
0
40
2.3999999999999995
0
CIRCLE
5
173
100
AcDbEntity
8
0
100
AcDbCircle
10
-139.58947831585431
20
25.697366497379885
30
0
40
2.4000000000000061
0
CIRCLE
5
174
100
AcDbEntity
8
0
100
AcDbCircle
10
-9.5949612903331065
20
139.68711855960609
30
0
40
2.4000000000000026
0
CIRCLE
5
175
100
AcDbEntity
8
0
100
AcDbCircle
10
-119.54601538672536
20
139.68711855960612
30
0
40
2.4000000000000021
0
LWPOLYLINE
5
176
100
AcDbEntity
8
0
100
AcDbPolyline
90
24
70
1
43
0.0
10
97.731638390936482
20
69.733153045593099
10
98.519192438244005
20
69.873577518423076
10
99.529131533808282
20
64.162120063162561
10
98.741577486500773
20
64.021695590332584
10
99.281057143457758
20
60.969180322601808
10
100.06898806408853
20
61.108571370786123
10
100.2440342656655
20
60.123632835996546
10
114.02949302768435
20
62.563357558312049
10
113.88839669309263
20
63.361830785974369
10
113.85538630305795
20
63.548638705213712
10
114.64248053037181
20
63.687405298200808
10
114.10346069340849
20
66.741578445774479
10
113.31600942973465
20
66.60087212985934
10
112.3491370319324
20
72.057587959548158
10
112.30405433542433
20
72.31202015167591
10
113.09164264394305
20
72.452350676810823
10
112.85499999999558
20
73.791950000025054
10
112.552642643943
20
75.503550676810832
10
111.7647117233122
20
75.364159628626481
10
111.58966552173523
20
76.349098163416073
10
97.804206759716379
20
73.909373441100556
10
97.978313484342749
20
72.9240922941989
10
97.190382563712006
20
72.784701246014578
10
97.541189583203504
20
70.80688507262758
0
LWPOLYLINE
5
177
100
AcDbEntity
8
0
100
AcDbPolyline
90
24
70
1
43
0.0
10
-111.40225232173522
20
76.349098163416102
10
-97.616793559716371
20
73.909373441100584
10
-97.790900284342754
20
72.924092294198914
10
-97.002969363712012
20
72.784701246014592
10
-97.35377638320351
20
70.806885072627594
10
-97.544225190936487
20
69.733153045593127
10
-98.33177923824401
20
69.87357751842309
10
-99.341718333808316
20
64.162120063162575
10
-98.554164286500807
20
64.021695590332612
10
-99.093643943457792
20
60.969180322601829
10
-99.881574864088549
20
61.108571370786144
10
-100.05662106566554
20
60.12363283599656
10
-113.84207982768439
20
62.563357558312056
10
-113.70098349309266
20
63.361830785974398
10
-113.66797310305799
20
63.54863870521374
10
-114.45506733037185
20
63.687405298200837
10
-113.9160474934085
20
66.741578445774493
10
-113.12859622973464
20
66.600872129859368
10
-112.16172383193239
20
72.057587959548187
10
-112.11664113542433
20
72.312020151675938
10
-112.90422944394305
20
72.452350676810852
10
-112.66758679999558
20
73.791950000025082
10
-112.36522944394301
20
75.503550676810846
10
-111.57729852331221
20
75.36415962862651
0
ENDSEC
0
SECTION
2
OBJECTS
0
DICTIONARY
5
C
100
AcDbDictionary
3
ACAD_GROUP
350
D
3
ACAD_MLINESTYLE
350
17
0
DICTIONARY
5
D
100
AcDbDictionary
0
DICTIONARY
5
1A
330
C
100
AcDbDictionary
0
DICTIONARY
5
17
100
AcDbDictionary
0
ENDSEC
0
EOF
