M48
;DRILL file {KiCad (5.0.2)-1} date 25/02/2019 13:46:39
;FORMAT={-:-/ absolute / metric / decimal}
FMAT,2
METRIC,TZ
T1C0.400
T2C0.813
T3C1.300
T4C1.499
%
G90
G05
T1
X190.32Y-199.84
X194.72Y-197.21
X202.25Y-155.03
X221.57Y-177.02
X222.32Y-198.31
X224.96Y-175.97
X233.39Y-177.01
T2
X207.674Y-146.422
X207.674Y-148.962
X207.674Y-151.502
X207.674Y-154.042
X207.674Y-156.582
X207.674Y-159.122
X207.674Y-161.662
X207.674Y-164.202
X207.674Y-166.742
X207.674Y-169.282
X207.674Y-171.822
X207.674Y-174.362
X222.894Y-146.422
X222.894Y-148.962
X222.894Y-151.502
X222.894Y-154.042
X222.894Y-156.582
X222.894Y-159.122
X222.894Y-161.662
X222.894Y-164.202
X222.894Y-166.742
X222.894Y-169.282
X222.894Y-171.822
X222.894Y-174.362
T3
X212.04Y-186.41
X218.54Y-186.41
T4
X310.287Y-130.32
X316.099Y-126.716
X155.579Y-105.597
X162.274Y-104.198
X277.397Y-163.2
X283.209Y-159.596
X112.766Y-128.999
X119.461Y-127.601
X235.607Y-145.61
X241.419Y-142.006
X169.787Y-202.74
X176.578Y-201.93
X316.917Y-167.85
X322.729Y-164.246
X148.969Y-143.107
X155.664Y-141.708
X287.397Y-110.18
X293.209Y-106.576
X106.149Y-166.517
X112.844Y-165.118
X332.357Y-145.77
X338.169Y-142.166
X259.837Y-173.26
X265.649Y-169.656
X242.227Y-183.14
X248.039Y-179.536
X187.449Y-144.287
X194.144Y-142.888
X149.779Y-193.357
X156.474Y-191.958
X294.017Y-147.7
X299.829Y-144.096
X132.359Y-127.617
X139.054Y-126.218
X87.389Y-163.217
X94.084Y-161.818
X267.477Y-106.92
X273.289Y-103.316
X249.877Y-116.79
X255.689Y-113.186
X180.829Y-181.817
X187.524Y-180.418
X169.879Y-134.227
X176.574Y-132.828
X306.987Y-111.55
X312.799Y-107.946
X125.709Y-165.317
X132.404Y-163.918
X274.097Y-144.44
X279.909Y-140.836
X94.009Y-125.687
X100.704Y-124.288
X232.307Y-126.85
X238.119Y-123.246
X163.229Y-171.937
X169.924Y-170.538
X313.607Y-149.08
X319.419Y-145.476
X152.269Y-124.347
X158.964Y-122.948
X273.287Y-194.68
X279.099Y-191.076
X109.459Y-147.757
X116.154Y-146.358
X256.487Y-154.31
X262.299Y-150.706
X238.927Y-164.37
X244.739Y-160.766
X190.749Y-125.537
X197.444Y-124.138
X329.057Y-127.01
X334.869Y-123.406
X145.659Y-161.877
X152.354Y-160.478
X290.707Y-128.93
X296.519Y-125.326
X135.669Y-108.857
X142.364Y-107.458
X335.667Y-164.53
X341.479Y-160.926
X253.422Y-204.713
X258.899Y-200.616
X235.101Y-218.866
X240.199Y-214.308
X184.139Y-163.057
X190.834Y-161.658
X173.189Y-115.467
X179.884Y-114.068
X297.347Y-166.64
X303.159Y-163.036
X129.049Y-146.367
X135.744Y-144.968
X90.699Y-144.447
X97.394Y-143.048
X270.787Y-125.67
X276.599Y-122.066
X116.079Y-110.237
X122.774Y-108.838
X253.187Y-135.55
X258.999Y-131.946
X188.309Y-216.26
X195.144Y-216.045
X166.569Y-152.987
X173.264Y-151.588
T0
M30
