G04 #@! TF.GenerationSoftware,KiCad,Pcbnew,(5.0.2)-1*
G04 #@! TF.CreationDate,2019-02-25T13:46:33+08:00*
G04 #@! TF.ProjectId,Kisaragi,4b697361-7261-4676-992e-6b696361645f,rev?*
G04 #@! TF.SameCoordinates,Original*
G04 #@! TF.FileFunction,Copper,L2,Bot*
G04 #@! TF.FilePolarity,Positive*
%FSLAX46Y46*%
G04 Gerber Fmt 4.6, Leading zero omitted, Abs format (unit mm)*
G04 Created by KiCad (PCBNEW (5.0.2)-1) date 25/02/2019 13:46:33*
%MOMM*%
%LPD*%
G01*
G04 APERTURE LIST*
G04 #@! TA.AperFunction,SMDPad,CuDef*
%ADD10C,1.524000*%
G04 #@! TD*
G04 #@! TA.AperFunction,Conductor*
%ADD11C,0.100000*%
G04 #@! TD*
G04 #@! TA.AperFunction,ComponentPad*
%ADD12C,2.286000*%
G04 #@! TD*
G04 #@! TA.AperFunction,SMDPad,CuDef*
%ADD13C,0.900000*%
G04 #@! TD*
G04 #@! TA.AperFunction,ComponentPad*
%ADD14C,2.000000*%
G04 #@! TD*
G04 #@! TA.AperFunction,ComponentPad*
%ADD15C,1.524000*%
G04 #@! TD*
G04 #@! TA.AperFunction,ViaPad*
%ADD16C,0.800000*%
G04 #@! TD*
G04 #@! TA.AperFunction,Conductor*
%ADD17C,0.250000*%
G04 #@! TD*
G04 #@! TA.AperFunction,Conductor*
%ADD18C,0.500000*%
G04 #@! TD*
G04 APERTURE END LIST*
D10*
G04 #@! TO.P,J1,3*
G04 #@! TO.N,GND*
X276811066Y-223351412D03*
D11*
G04 #@! TD*
G04 #@! TO.N,GND*
G04 #@! TO.C,J1*
G36*
X277429170Y-222468669D02*
X277693809Y-223969516D01*
X276192962Y-224234155D01*
X275928323Y-222733308D01*
X277429170Y-222468669D01*
X277429170Y-222468669D01*
G37*
D10*
G04 #@! TO.P,J1,2*
G04 #@! TO.N,LED*
X276370000Y-220850000D03*
D11*
G04 #@! TD*
G04 #@! TO.N,LED*
G04 #@! TO.C,J1*
G36*
X276988104Y-219967257D02*
X277252743Y-221468104D01*
X275751896Y-221732743D01*
X275487257Y-220231896D01*
X276988104Y-219967257D01*
X276988104Y-219967257D01*
G37*
D10*
G04 #@! TO.P,J1,1*
G04 #@! TO.N,VCC*
X275928934Y-218348588D03*
D11*
G04 #@! TD*
G04 #@! TO.N,VCC*
G04 #@! TO.C,J1*
G36*
X276547038Y-217465845D02*
X276811677Y-218966692D01*
X275310830Y-219231331D01*
X275046191Y-217730484D01*
X276547038Y-217465845D01*
X276547038Y-217465845D01*
G37*
D10*
G04 #@! TO.P,J2,1*
G04 #@! TO.N,VCC*
X155118934Y-223141412D03*
D11*
G04 #@! TD*
G04 #@! TO.N,VCC*
G04 #@! TO.C,J2*
G36*
X154236191Y-223759516D02*
X154500830Y-222258669D01*
X156001677Y-222523308D01*
X155737038Y-224024155D01*
X154236191Y-223759516D01*
X154236191Y-223759516D01*
G37*
D10*
G04 #@! TO.P,J2,2*
G04 #@! TO.N,LED*
X155560000Y-220640000D03*
D11*
G04 #@! TD*
G04 #@! TO.N,LED*
G04 #@! TO.C,J2*
G36*
X154677257Y-221258104D02*
X154941896Y-219757257D01*
X156442743Y-220021896D01*
X156178104Y-221522743D01*
X154677257Y-221258104D01*
X154677257Y-221258104D01*
G37*
D10*
G04 #@! TO.P,J2,3*
G04 #@! TO.N,GND*
X156001066Y-218138588D03*
D11*
G04 #@! TD*
G04 #@! TO.N,GND*
G04 #@! TO.C,J2*
G36*
X155118323Y-218756692D02*
X155382962Y-217255845D01*
X156883809Y-217520484D01*
X156619170Y-219021331D01*
X155118323Y-218756692D01*
X155118323Y-218756692D01*
G37*
D12*
G04 #@! TO.P,SW4,2*
G04 #@! TO.N,Net-(D4-Pad2)*
X116078949Y-110236989D03*
G04 #@! TO.P,SW4,1*
G04 #@! TO.N,col1*
X122773544Y-108838243D03*
G04 #@! TD*
G04 #@! TO.P,SW1,1*
G04 #@! TO.N,col0*
X100703544Y-124288243D03*
G04 #@! TO.P,SW1,2*
G04 #@! TO.N,Net-(D1-Pad2)*
X94008949Y-125686989D03*
G04 #@! TD*
G04 #@! TO.P,SW5,2*
G04 #@! TO.N,Net-(D5-Pad2)*
X112766466Y-128999410D03*
G04 #@! TO.P,SW5,1*
G04 #@! TO.N,col1*
X119461061Y-127600664D03*
G04 #@! TD*
G04 #@! TO.P,SW6,1*
G04 #@! TO.N,col1*
X116153544Y-146358243D03*
G04 #@! TO.P,SW6,2*
G04 #@! TO.N,Net-(D6-Pad2)*
X109458949Y-147756989D03*
G04 #@! TD*
G04 #@! TO.P,SW7,2*
G04 #@! TO.N,Net-(D7-Pad2)*
X106148949Y-166516989D03*
G04 #@! TO.P,SW7,1*
G04 #@! TO.N,col1*
X112843544Y-165118243D03*
G04 #@! TD*
G04 #@! TO.P,SW8,1*
G04 #@! TO.N,col2*
X142363544Y-107458243D03*
G04 #@! TO.P,SW8,2*
G04 #@! TO.N,Net-(D8-Pad2)*
X135668949Y-108856989D03*
G04 #@! TD*
G04 #@! TO.P,SW9,2*
G04 #@! TO.N,Net-(D9-Pad2)*
X132358949Y-127616989D03*
G04 #@! TO.P,SW9,1*
G04 #@! TO.N,col2*
X139053544Y-126218243D03*
G04 #@! TD*
G04 #@! TO.P,SW10,1*
G04 #@! TO.N,col2*
X135743544Y-144968243D03*
G04 #@! TO.P,SW10,2*
G04 #@! TO.N,Net-(D10-Pad2)*
X129048949Y-146366989D03*
G04 #@! TD*
G04 #@! TO.P,SW11,2*
G04 #@! TO.N,Net-(D11-Pad2)*
X125708949Y-165316989D03*
G04 #@! TO.P,SW11,1*
G04 #@! TO.N,col2*
X132403544Y-163918243D03*
G04 #@! TD*
G04 #@! TO.P,SW12,1*
G04 #@! TO.N,col3*
X162273544Y-104198243D03*
G04 #@! TO.P,SW12,2*
G04 #@! TO.N,Net-(D12-Pad2)*
X155578949Y-105596989D03*
G04 #@! TD*
G04 #@! TO.P,SW13,2*
G04 #@! TO.N,Net-(D13-Pad2)*
X152268949Y-124346989D03*
G04 #@! TO.P,SW13,1*
G04 #@! TO.N,col3*
X158963544Y-122948243D03*
G04 #@! TD*
G04 #@! TO.P,SW14,1*
G04 #@! TO.N,col3*
X155663544Y-141708243D03*
G04 #@! TO.P,SW14,2*
G04 #@! TO.N,Net-(D14-Pad2)*
X148968949Y-143106989D03*
G04 #@! TD*
G04 #@! TO.P,SW15,2*
G04 #@! TO.N,Net-(D15-Pad2)*
X145658949Y-161876989D03*
G04 #@! TO.P,SW15,1*
G04 #@! TO.N,col3*
X152353544Y-160478243D03*
G04 #@! TD*
G04 #@! TO.P,SW16,1*
G04 #@! TO.N,col3*
X156473544Y-191958243D03*
G04 #@! TO.P,SW16,2*
G04 #@! TO.N,Net-(D16-Pad2)*
X149778949Y-193356989D03*
G04 #@! TD*
G04 #@! TO.P,SW17,2*
G04 #@! TO.N,Net-(D17-Pad2)*
X173188949Y-115466989D03*
G04 #@! TO.P,SW17,1*
G04 #@! TO.N,col4*
X179883544Y-114068243D03*
G04 #@! TD*
G04 #@! TO.P,SW18,1*
G04 #@! TO.N,col4*
X176573544Y-132828243D03*
G04 #@! TO.P,SW18,2*
G04 #@! TO.N,Net-(D18-Pad2)*
X169878949Y-134226989D03*
G04 #@! TD*
G04 #@! TO.P,SW19,2*
G04 #@! TO.N,Net-(D19-Pad2)*
X166568949Y-152986989D03*
G04 #@! TO.P,SW19,1*
G04 #@! TO.N,col4*
X173263544Y-151588243D03*
G04 #@! TD*
G04 #@! TO.P,SW20,1*
G04 #@! TO.N,col4*
X169923544Y-170538243D03*
G04 #@! TO.P,SW20,2*
G04 #@! TO.N,Net-(D20-Pad2)*
X163228949Y-171936989D03*
G04 #@! TD*
G04 #@! TO.P,SW21,2*
G04 #@! TO.N,Net-(D21-Pad2)*
X169787223Y-202740448D03*
G04 #@! TO.P,SW21,1*
G04 #@! TO.N,col4*
X176578252Y-201930497D03*
G04 #@! TD*
G04 #@! TO.P,SW22,1*
G04 #@! TO.N,col5*
X197443544Y-124138243D03*
G04 #@! TO.P,SW22,2*
G04 #@! TO.N,Net-(D22-Pad2)*
X190748949Y-125536989D03*
G04 #@! TD*
G04 #@! TO.P,SW23,2*
G04 #@! TO.N,Net-(D23-Pad2)*
X187448949Y-144286989D03*
G04 #@! TO.P,SW23,1*
G04 #@! TO.N,col5*
X194143544Y-142888243D03*
G04 #@! TD*
G04 #@! TO.P,SW24,1*
G04 #@! TO.N,col5*
X190833544Y-161658243D03*
G04 #@! TO.P,SW24,2*
G04 #@! TO.N,Net-(D24-Pad2)*
X184138949Y-163056989D03*
G04 #@! TD*
G04 #@! TO.P,SW25,2*
G04 #@! TO.N,Net-(D25-Pad2)*
X180828949Y-181816989D03*
G04 #@! TO.P,SW25,1*
G04 #@! TO.N,col5*
X187523544Y-180418243D03*
G04 #@! TD*
G04 #@! TO.P,SW26,1*
G04 #@! TO.N,col5*
X195144283Y-216045093D03*
G04 #@! TO.P,SW26,2*
G04 #@! TO.N,Net-(D26-Pad2)*
X188308502Y-216260084D03*
G04 #@! TD*
G04 #@! TO.P,SW27,2*
G04 #@! TO.N,Net-(D27-Pad2)*
X232306816Y-126850188D03*
G04 #@! TO.P,SW27,1*
G04 #@! TO.N,col6*
X238119279Y-123246110D03*
G04 #@! TD*
G04 #@! TO.P,SW28,1*
G04 #@! TO.N,col6*
X241419279Y-142006110D03*
G04 #@! TO.P,SW28,2*
G04 #@! TO.N,Net-(D28-Pad2)*
X235606816Y-145610188D03*
G04 #@! TD*
G04 #@! TO.P,SW29,2*
G04 #@! TO.N,Net-(D29-Pad2)*
X238926816Y-164370188D03*
G04 #@! TO.P,SW29,1*
G04 #@! TO.N,col6*
X244739279Y-160766110D03*
G04 #@! TD*
G04 #@! TO.P,SW30,1*
G04 #@! TO.N,col6*
X248039279Y-179536110D03*
G04 #@! TO.P,SW30,2*
G04 #@! TO.N,Net-(D30-Pad2)*
X242226816Y-183140188D03*
G04 #@! TD*
G04 #@! TO.P,SW31,2*
G04 #@! TO.N,Net-(D31-Pad2)*
X235101040Y-218866277D03*
G04 #@! TO.P,SW31,1*
G04 #@! TO.N,col6*
X240199357Y-214307630D03*
G04 #@! TD*
G04 #@! TO.P,SW32,1*
G04 #@! TO.N,col7*
X255689279Y-113186110D03*
G04 #@! TO.P,SW32,2*
G04 #@! TO.N,Net-(D32-Pad2)*
X249876816Y-116790188D03*
G04 #@! TD*
G04 #@! TO.P,SW33,2*
G04 #@! TO.N,Net-(D33-Pad2)*
X253186816Y-135550188D03*
G04 #@! TO.P,SW33,1*
G04 #@! TO.N,col7*
X258999279Y-131946110D03*
G04 #@! TD*
G04 #@! TO.P,SW34,1*
G04 #@! TO.N,col7*
X262299279Y-150706110D03*
G04 #@! TO.P,SW34,2*
G04 #@! TO.N,Net-(D34-Pad2)*
X256486816Y-154310188D03*
G04 #@! TD*
G04 #@! TO.P,SW35,2*
G04 #@! TO.N,Net-(D35-Pad2)*
X259836816Y-173260188D03*
G04 #@! TO.P,SW35,1*
G04 #@! TO.N,col7*
X265649279Y-169656110D03*
G04 #@! TD*
G04 #@! TO.P,SW36,1*
G04 #@! TO.N,col7*
X258898651Y-200615696D03*
G04 #@! TO.P,SW36,2*
G04 #@! TO.N,Net-(D36-Pad2)*
X253422422Y-204712649D03*
G04 #@! TD*
G04 #@! TO.P,SW37,2*
G04 #@! TO.N,Net-(D37-Pad2)*
X267476816Y-106920188D03*
G04 #@! TO.P,SW37,1*
G04 #@! TO.N,col8*
X273289279Y-103316110D03*
G04 #@! TD*
G04 #@! TO.P,SW38,1*
G04 #@! TO.N,col8*
X276599279Y-122066110D03*
G04 #@! TO.P,SW38,2*
G04 #@! TO.N,Net-(D38-Pad2)*
X270786816Y-125670188D03*
G04 #@! TD*
G04 #@! TO.P,SW39,2*
G04 #@! TO.N,Net-(D39-Pad2)*
X274096816Y-144440188D03*
G04 #@! TO.P,SW39,1*
G04 #@! TO.N,col8*
X279909279Y-140836110D03*
G04 #@! TD*
G04 #@! TO.P,SW40,1*
G04 #@! TO.N,col8*
X283209279Y-159596110D03*
G04 #@! TO.P,SW40,2*
G04 #@! TO.N,Net-(D40-Pad2)*
X277396816Y-163200188D03*
G04 #@! TD*
G04 #@! TO.P,SW41,2*
G04 #@! TO.N,Net-(D41-Pad2)*
X273286816Y-194680188D03*
G04 #@! TO.P,SW41,1*
G04 #@! TO.N,col8*
X279099279Y-191076110D03*
G04 #@! TD*
G04 #@! TO.P,SW42,1*
G04 #@! TO.N,col9*
X293209279Y-106576110D03*
G04 #@! TO.P,SW42,2*
G04 #@! TO.N,Net-(D42-Pad2)*
X287396816Y-110180188D03*
G04 #@! TD*
G04 #@! TO.P,SW43,2*
G04 #@! TO.N,Net-(D43-Pad2)*
X290706816Y-128930188D03*
G04 #@! TO.P,SW43,1*
G04 #@! TO.N,col9*
X296519279Y-125326110D03*
G04 #@! TD*
G04 #@! TO.P,SW44,1*
G04 #@! TO.N,col9*
X299829279Y-144096110D03*
G04 #@! TO.P,SW44,2*
G04 #@! TO.N,Net-(D44-Pad2)*
X294016816Y-147700188D03*
G04 #@! TD*
G04 #@! TO.P,SW45,2*
G04 #@! TO.N,Net-(D45-Pad2)*
X297346816Y-166640188D03*
G04 #@! TO.P,SW45,1*
G04 #@! TO.N,col9*
X303159279Y-163036110D03*
G04 #@! TD*
G04 #@! TO.P,SW46,1*
G04 #@! TO.N,col10*
X312799279Y-107946110D03*
G04 #@! TO.P,SW46,2*
G04 #@! TO.N,Net-(D46-Pad2)*
X306986816Y-111550188D03*
G04 #@! TD*
G04 #@! TO.P,SW47,2*
G04 #@! TO.N,Net-(D47-Pad2)*
X310286816Y-130320188D03*
G04 #@! TO.P,SW47,1*
G04 #@! TO.N,col10*
X316099279Y-126716110D03*
G04 #@! TD*
G04 #@! TO.P,SW48,1*
G04 #@! TO.N,col10*
X319419279Y-145476110D03*
G04 #@! TO.P,SW48,2*
G04 #@! TO.N,Net-(D48-Pad2)*
X313606816Y-149080188D03*
G04 #@! TD*
G04 #@! TO.P,SW49,2*
G04 #@! TO.N,Net-(D49-Pad2)*
X316916816Y-167850188D03*
G04 #@! TO.P,SW49,1*
G04 #@! TO.N,col10*
X322729279Y-164246110D03*
G04 #@! TD*
G04 #@! TO.P,SW50,1*
G04 #@! TO.N,col11*
X334869279Y-123406110D03*
G04 #@! TO.P,SW50,2*
G04 #@! TO.N,Net-(D50-Pad2)*
X329056816Y-127010188D03*
G04 #@! TD*
G04 #@! TO.P,SW51,2*
G04 #@! TO.N,Net-(D51-Pad2)*
X332356816Y-145770188D03*
G04 #@! TO.P,SW51,1*
G04 #@! TO.N,col11*
X338169279Y-142166110D03*
G04 #@! TD*
G04 #@! TO.P,SW52,1*
G04 #@! TO.N,col11*
X341479279Y-160926110D03*
G04 #@! TO.P,SW52,2*
G04 #@! TO.N,Net-(D52-Pad2)*
X335666816Y-164530188D03*
G04 #@! TD*
G04 #@! TO.P,SW3,2*
G04 #@! TO.N,Net-(D3-Pad2)*
X87388949Y-163216989D03*
G04 #@! TO.P,SW3,1*
G04 #@! TO.N,col0*
X94083544Y-161818243D03*
G04 #@! TD*
G04 #@! TO.P,SW2,1*
G04 #@! TO.N,col0*
X97393544Y-143048243D03*
G04 #@! TO.P,SW2,2*
G04 #@! TO.N,Net-(D2-Pad2)*
X90698949Y-144446989D03*
G04 #@! TD*
D13*
G04 #@! TO.P,D1,2*
G04 #@! TO.N,Net-(D1-Pad2)*
X101135067Y-137783481D03*
D11*
G04 #@! TD*
G04 #@! TO.N,Net-(D1-Pad2)*
G04 #@! TO.C,D1*
G36*
X101682419Y-137270738D02*
X101474042Y-138452507D01*
X100587715Y-138296224D01*
X100796092Y-137114455D01*
X101682419Y-137270738D01*
X101682419Y-137270738D01*
G37*
D13*
G04 #@! TO.P,D1,1*
G04 #@! TO.N,row1*
X104384933Y-138356519D03*
D11*
G04 #@! TD*
G04 #@! TO.N,row1*
G04 #@! TO.C,D1*
G36*
X104932285Y-137843776D02*
X104723908Y-139025545D01*
X103837581Y-138869262D01*
X104045958Y-137687493D01*
X104932285Y-137843776D01*
X104932285Y-137843776D01*
G37*
D13*
G04 #@! TO.P,D2,1*
G04 #@! TO.N,row2*
X101044933Y-157096519D03*
D11*
G04 #@! TD*
G04 #@! TO.N,row2*
G04 #@! TO.C,D2*
G36*
X101592285Y-156583776D02*
X101383908Y-157765545D01*
X100497581Y-157609262D01*
X100705958Y-156427493D01*
X101592285Y-156583776D01*
X101592285Y-156583776D01*
G37*
D13*
G04 #@! TO.P,D2,2*
G04 #@! TO.N,Net-(D2-Pad2)*
X97795067Y-156523481D03*
D11*
G04 #@! TD*
G04 #@! TO.N,Net-(D2-Pad2)*
G04 #@! TO.C,D2*
G36*
X98342419Y-156010738D02*
X98134042Y-157192507D01*
X97247715Y-157036224D01*
X97456092Y-155854455D01*
X98342419Y-156010738D01*
X98342419Y-156010738D01*
G37*
D13*
G04 #@! TO.P,D3,2*
G04 #@! TO.N,Net-(D3-Pad2)*
X94475067Y-175283481D03*
D11*
G04 #@! TD*
G04 #@! TO.N,Net-(D3-Pad2)*
G04 #@! TO.C,D3*
G36*
X95022419Y-174770738D02*
X94814042Y-175952507D01*
X93927715Y-175796224D01*
X94136092Y-174614455D01*
X95022419Y-174770738D01*
X95022419Y-174770738D01*
G37*
D13*
G04 #@! TO.P,D3,1*
G04 #@! TO.N,row3*
X97724933Y-175856519D03*
D11*
G04 #@! TD*
G04 #@! TO.N,row3*
G04 #@! TO.C,D3*
G36*
X98272285Y-175343776D02*
X98063908Y-176525545D01*
X97177581Y-176369262D01*
X97385958Y-175187493D01*
X98272285Y-175343776D01*
X98272285Y-175343776D01*
G37*
D13*
G04 #@! TO.P,D4,1*
G04 #@! TO.N,row0*
X126430000Y-122900000D03*
D11*
G04 #@! TD*
G04 #@! TO.N,row0*
G04 #@! TO.C,D4*
G36*
X126977352Y-122387257D02*
X126768975Y-123569026D01*
X125882648Y-123412743D01*
X126091025Y-122230974D01*
X126977352Y-122387257D01*
X126977352Y-122387257D01*
G37*
D13*
G04 #@! TO.P,D4,2*
G04 #@! TO.N,Net-(D4-Pad2)*
X123180134Y-122326962D03*
D11*
G04 #@! TD*
G04 #@! TO.N,Net-(D4-Pad2)*
G04 #@! TO.C,D4*
G36*
X123727486Y-121814219D02*
X123519109Y-122995988D01*
X122632782Y-122839705D01*
X122841159Y-121657936D01*
X123727486Y-121814219D01*
X123727486Y-121814219D01*
G37*
D13*
G04 #@! TO.P,D5,2*
G04 #@! TO.N,Net-(D5-Pad2)*
X119855067Y-141093481D03*
D11*
G04 #@! TD*
G04 #@! TO.N,Net-(D5-Pad2)*
G04 #@! TO.C,D5*
G36*
X120402419Y-140580738D02*
X120194042Y-141762507D01*
X119307715Y-141606224D01*
X119516092Y-140424455D01*
X120402419Y-140580738D01*
X120402419Y-140580738D01*
G37*
D13*
G04 #@! TO.P,D5,1*
G04 #@! TO.N,row1*
X123104933Y-141666519D03*
D11*
G04 #@! TD*
G04 #@! TO.N,row1*
G04 #@! TO.C,D5*
G36*
X123652285Y-141153776D02*
X123443908Y-142335545D01*
X122557581Y-142179262D01*
X122765958Y-140997493D01*
X123652285Y-141153776D01*
X123652285Y-141153776D01*
G37*
D13*
G04 #@! TO.P,D6,1*
G04 #@! TO.N,row2*
X119814933Y-160426519D03*
D11*
G04 #@! TD*
G04 #@! TO.N,row2*
G04 #@! TO.C,D6*
G36*
X120362285Y-159913776D02*
X120153908Y-161095545D01*
X119267581Y-160939262D01*
X119475958Y-159757493D01*
X120362285Y-159913776D01*
X120362285Y-159913776D01*
G37*
D13*
G04 #@! TO.P,D6,2*
G04 #@! TO.N,Net-(D6-Pad2)*
X116565067Y-159853481D03*
D11*
G04 #@! TD*
G04 #@! TO.N,Net-(D6-Pad2)*
G04 #@! TO.C,D6*
G36*
X117112419Y-159340738D02*
X116904042Y-160522507D01*
X116017715Y-160366224D01*
X116226092Y-159184455D01*
X117112419Y-159340738D01*
X117112419Y-159340738D01*
G37*
D13*
G04 #@! TO.P,D7,2*
G04 #@! TO.N,Net-(D7-Pad2)*
X113195067Y-178533481D03*
D11*
G04 #@! TD*
G04 #@! TO.N,Net-(D7-Pad2)*
G04 #@! TO.C,D7*
G36*
X113742419Y-178020738D02*
X113534042Y-179202507D01*
X112647715Y-179046224D01*
X112856092Y-177864455D01*
X113742419Y-178020738D01*
X113742419Y-178020738D01*
G37*
D13*
G04 #@! TO.P,D7,1*
G04 #@! TO.N,row3*
X116444933Y-179106519D03*
D11*
G04 #@! TD*
G04 #@! TO.N,row3*
G04 #@! TO.C,D7*
G36*
X116992285Y-178593776D02*
X116783908Y-179775545D01*
X115897581Y-179619262D01*
X116105958Y-178437493D01*
X116992285Y-178593776D01*
X116992285Y-178593776D01*
G37*
D13*
G04 #@! TO.P,D8,2*
G04 #@! TO.N,Net-(D8-Pad2)*
X142785067Y-120963481D03*
D11*
G04 #@! TD*
G04 #@! TO.N,Net-(D8-Pad2)*
G04 #@! TO.C,D8*
G36*
X143332419Y-120450738D02*
X143124042Y-121632507D01*
X142237715Y-121476224D01*
X142446092Y-120294455D01*
X143332419Y-120450738D01*
X143332419Y-120450738D01*
G37*
D13*
G04 #@! TO.P,D8,1*
G04 #@! TO.N,row0*
X146034933Y-121536519D03*
D11*
G04 #@! TD*
G04 #@! TO.N,row0*
G04 #@! TO.C,D8*
G36*
X146582285Y-121023776D02*
X146373908Y-122205545D01*
X145487581Y-122049262D01*
X145695958Y-120867493D01*
X146582285Y-121023776D01*
X146582285Y-121023776D01*
G37*
D13*
G04 #@! TO.P,D9,1*
G04 #@! TO.N,row1*
X142704933Y-140246519D03*
D11*
G04 #@! TD*
G04 #@! TO.N,row1*
G04 #@! TO.C,D9*
G36*
X143252285Y-139733776D02*
X143043908Y-140915545D01*
X142157581Y-140759262D01*
X142365958Y-139577493D01*
X143252285Y-139733776D01*
X143252285Y-139733776D01*
G37*
D13*
G04 #@! TO.P,D9,2*
G04 #@! TO.N,Net-(D9-Pad2)*
X139455067Y-139673481D03*
D11*
G04 #@! TD*
G04 #@! TO.N,Net-(D9-Pad2)*
G04 #@! TO.C,D9*
G36*
X140002419Y-139160738D02*
X139794042Y-140342507D01*
X138907715Y-140186224D01*
X139116092Y-139004455D01*
X140002419Y-139160738D01*
X140002419Y-139160738D01*
G37*
D13*
G04 #@! TO.P,D10,2*
G04 #@! TO.N,Net-(D10-Pad2)*
X136165067Y-158483481D03*
D11*
G04 #@! TD*
G04 #@! TO.N,Net-(D10-Pad2)*
G04 #@! TO.C,D10*
G36*
X136712419Y-157970738D02*
X136504042Y-159152507D01*
X135617715Y-158996224D01*
X135826092Y-157814455D01*
X136712419Y-157970738D01*
X136712419Y-157970738D01*
G37*
D13*
G04 #@! TO.P,D10,1*
G04 #@! TO.N,row2*
X139414933Y-159056519D03*
D11*
G04 #@! TD*
G04 #@! TO.N,row2*
G04 #@! TO.C,D10*
G36*
X139962285Y-158543776D02*
X139753908Y-159725545D01*
X138867581Y-159569262D01*
X139075958Y-158387493D01*
X139962285Y-158543776D01*
X139962285Y-158543776D01*
G37*
D13*
G04 #@! TO.P,D11,1*
G04 #@! TO.N,row3*
X136064933Y-177976519D03*
D11*
G04 #@! TD*
G04 #@! TO.N,row3*
G04 #@! TO.C,D11*
G36*
X136612285Y-177463776D02*
X136403908Y-178645545D01*
X135517581Y-178489262D01*
X135725958Y-177307493D01*
X136612285Y-177463776D01*
X136612285Y-177463776D01*
G37*
D13*
G04 #@! TO.P,D11,2*
G04 #@! TO.N,Net-(D11-Pad2)*
X132815067Y-177403481D03*
D11*
G04 #@! TD*
G04 #@! TO.N,Net-(D11-Pad2)*
G04 #@! TO.C,D11*
G36*
X133362419Y-176890738D02*
X133154042Y-178072507D01*
X132267715Y-177916224D01*
X132476092Y-176734455D01*
X133362419Y-176890738D01*
X133362419Y-176890738D01*
G37*
D13*
G04 #@! TO.P,D12,1*
G04 #@! TO.N,row0*
X165934933Y-118266519D03*
D11*
G04 #@! TD*
G04 #@! TO.N,row0*
G04 #@! TO.C,D12*
G36*
X166482285Y-117753776D02*
X166273908Y-118935545D01*
X165387581Y-118779262D01*
X165595958Y-117597493D01*
X166482285Y-117753776D01*
X166482285Y-117753776D01*
G37*
D13*
G04 #@! TO.P,D12,2*
G04 #@! TO.N,Net-(D12-Pad2)*
X162685067Y-117693481D03*
D11*
G04 #@! TD*
G04 #@! TO.N,Net-(D12-Pad2)*
G04 #@! TO.C,D12*
G36*
X163232419Y-117180738D02*
X163024042Y-118362507D01*
X162137715Y-118206224D01*
X162346092Y-117024455D01*
X163232419Y-117180738D01*
X163232419Y-117180738D01*
G37*
D13*
G04 #@! TO.P,D13,2*
G04 #@! TO.N,Net-(D13-Pad2)*
X159385067Y-136423481D03*
D11*
G04 #@! TD*
G04 #@! TO.N,Net-(D13-Pad2)*
G04 #@! TO.C,D13*
G36*
X159932419Y-135910738D02*
X159724042Y-137092507D01*
X158837715Y-136936224D01*
X159046092Y-135754455D01*
X159932419Y-135910738D01*
X159932419Y-135910738D01*
G37*
D13*
G04 #@! TO.P,D13,1*
G04 #@! TO.N,row1*
X162634933Y-136996519D03*
D11*
G04 #@! TD*
G04 #@! TO.N,row1*
G04 #@! TO.C,D13*
G36*
X163182285Y-136483776D02*
X162973908Y-137665545D01*
X162087581Y-137509262D01*
X162295958Y-136327493D01*
X163182285Y-136483776D01*
X163182285Y-136483776D01*
G37*
D13*
G04 #@! TO.P,D14,1*
G04 #@! TO.N,row2*
X159324933Y-155786519D03*
D11*
G04 #@! TD*
G04 #@! TO.N,row2*
G04 #@! TO.C,D14*
G36*
X159872285Y-155273776D02*
X159663908Y-156455545D01*
X158777581Y-156299262D01*
X158985958Y-155117493D01*
X159872285Y-155273776D01*
X159872285Y-155273776D01*
G37*
D13*
G04 #@! TO.P,D14,2*
G04 #@! TO.N,Net-(D14-Pad2)*
X156075067Y-155213481D03*
D11*
G04 #@! TD*
G04 #@! TO.N,Net-(D14-Pad2)*
G04 #@! TO.C,D14*
G36*
X156622419Y-154700738D02*
X156414042Y-155882507D01*
X155527715Y-155726224D01*
X155736092Y-154544455D01*
X156622419Y-154700738D01*
X156622419Y-154700738D01*
G37*
D13*
G04 #@! TO.P,D15,2*
G04 #@! TO.N,Net-(D15-Pad2)*
X152755067Y-173963481D03*
D11*
G04 #@! TD*
G04 #@! TO.N,Net-(D15-Pad2)*
G04 #@! TO.C,D15*
G36*
X153302419Y-173450738D02*
X153094042Y-174632507D01*
X152207715Y-174476224D01*
X152416092Y-173294455D01*
X153302419Y-173450738D01*
X153302419Y-173450738D01*
G37*
D13*
G04 #@! TO.P,D15,1*
G04 #@! TO.N,row3*
X156004933Y-174536519D03*
D11*
G04 #@! TD*
G04 #@! TO.N,row3*
G04 #@! TO.C,D15*
G36*
X156552285Y-174023776D02*
X156343908Y-175205545D01*
X155457581Y-175049262D01*
X155665958Y-173867493D01*
X156552285Y-174023776D01*
X156552285Y-174023776D01*
G37*
D13*
G04 #@! TO.P,D16,1*
G04 #@! TO.N,row4*
X160129866Y-206043038D03*
D11*
G04 #@! TD*
G04 #@! TO.N,row4*
G04 #@! TO.C,D16*
G36*
X160677218Y-205530295D02*
X160468841Y-206712064D01*
X159582514Y-206555781D01*
X159790891Y-205374012D01*
X160677218Y-205530295D01*
X160677218Y-205530295D01*
G37*
D13*
G04 #@! TO.P,D16,2*
G04 #@! TO.N,Net-(D16-Pad2)*
X156880000Y-205470000D03*
D11*
G04 #@! TD*
G04 #@! TO.N,Net-(D16-Pad2)*
G04 #@! TO.C,D16*
G36*
X157427352Y-204957257D02*
X157218975Y-206139026D01*
X156332648Y-205982743D01*
X156541025Y-204800974D01*
X157427352Y-204957257D01*
X157427352Y-204957257D01*
G37*
D13*
G04 #@! TO.P,D17,2*
G04 #@! TO.N,Net-(D17-Pad2)*
X180305067Y-127563481D03*
D11*
G04 #@! TD*
G04 #@! TO.N,Net-(D17-Pad2)*
G04 #@! TO.C,D17*
G36*
X180852419Y-127050738D02*
X180644042Y-128232507D01*
X179757715Y-128076224D01*
X179966092Y-126894455D01*
X180852419Y-127050738D01*
X180852419Y-127050738D01*
G37*
D13*
G04 #@! TO.P,D17,1*
G04 #@! TO.N,row0*
X183554933Y-128136519D03*
D11*
G04 #@! TD*
G04 #@! TO.N,row0*
G04 #@! TO.C,D17*
G36*
X184102285Y-127623776D02*
X183893908Y-128805545D01*
X183007581Y-128649262D01*
X183215958Y-127467493D01*
X184102285Y-127623776D01*
X184102285Y-127623776D01*
G37*
D13*
G04 #@! TO.P,D18,1*
G04 #@! TO.N,row1*
X180224933Y-146866519D03*
D11*
G04 #@! TD*
G04 #@! TO.N,row1*
G04 #@! TO.C,D18*
G36*
X180772285Y-146353776D02*
X180563908Y-147535545D01*
X179677581Y-147379262D01*
X179885958Y-146197493D01*
X180772285Y-146353776D01*
X180772285Y-146353776D01*
G37*
D13*
G04 #@! TO.P,D18,2*
G04 #@! TO.N,Net-(D18-Pad2)*
X176975067Y-146293481D03*
D11*
G04 #@! TD*
G04 #@! TO.N,Net-(D18-Pad2)*
G04 #@! TO.C,D18*
G36*
X177522419Y-145780738D02*
X177314042Y-146962507D01*
X176427715Y-146806224D01*
X176636092Y-145624455D01*
X177522419Y-145780738D01*
X177522419Y-145780738D01*
G37*
D13*
G04 #@! TO.P,D19,2*
G04 #@! TO.N,Net-(D19-Pad2)*
X173685067Y-165083481D03*
D11*
G04 #@! TD*
G04 #@! TO.N,Net-(D19-Pad2)*
G04 #@! TO.C,D19*
G36*
X174232419Y-164570738D02*
X174024042Y-165752507D01*
X173137715Y-165596224D01*
X173346092Y-164414455D01*
X174232419Y-164570738D01*
X174232419Y-164570738D01*
G37*
D13*
G04 #@! TO.P,D19,1*
G04 #@! TO.N,row2*
X176934933Y-165656519D03*
D11*
G04 #@! TD*
G04 #@! TO.N,row2*
G04 #@! TO.C,D19*
G36*
X177482285Y-165143776D02*
X177273908Y-166325545D01*
X176387581Y-166169262D01*
X176595958Y-164987493D01*
X177482285Y-165143776D01*
X177482285Y-165143776D01*
G37*
D13*
G04 #@! TO.P,D20,1*
G04 #@! TO.N,row3*
X173584933Y-184596519D03*
D11*
G04 #@! TD*
G04 #@! TO.N,row3*
G04 #@! TO.C,D20*
G36*
X174132285Y-184083776D02*
X173923908Y-185265545D01*
X173037581Y-185109262D01*
X173245958Y-183927493D01*
X174132285Y-184083776D01*
X174132285Y-184083776D01*
G37*
D13*
G04 #@! TO.P,D20,2*
G04 #@! TO.N,Net-(D20-Pad2)*
X170335067Y-184023481D03*
D11*
G04 #@! TD*
G04 #@! TO.N,Net-(D20-Pad2)*
G04 #@! TO.C,D20*
G36*
X170882419Y-183510738D02*
X170674042Y-184692507D01*
X169787715Y-184536224D01*
X169996092Y-183354455D01*
X170882419Y-183510738D01*
X170882419Y-183510738D01*
G37*
D13*
G04 #@! TO.P,D21,2*
G04 #@! TO.N,Net-(D21-Pad2)*
X175816222Y-215412950D03*
D11*
G04 #@! TD*
G04 #@! TO.N,Net-(D21-Pad2)*
G04 #@! TO.C,D21*
G36*
X176406180Y-214949863D02*
X176095597Y-216108974D01*
X175226264Y-215876037D01*
X175536847Y-214716926D01*
X176406180Y-214949863D01*
X176406180Y-214949863D01*
G37*
D13*
G04 #@! TO.P,D21,1*
G04 #@! TO.N,row4*
X179003778Y-216267050D03*
D11*
G04 #@! TD*
G04 #@! TO.N,row4*
G04 #@! TO.C,D21*
G36*
X179593736Y-215803963D02*
X179283153Y-216963074D01*
X178413820Y-216730137D01*
X178724403Y-215571026D01*
X179593736Y-215803963D01*
X179593736Y-215803963D01*
G37*
D13*
G04 #@! TO.P,D22,1*
G04 #@! TO.N,row0*
X201104933Y-138186519D03*
D11*
G04 #@! TD*
G04 #@! TO.N,row0*
G04 #@! TO.C,D22*
G36*
X201652285Y-137673776D02*
X201443908Y-138855545D01*
X200557581Y-138699262D01*
X200765958Y-137517493D01*
X201652285Y-137673776D01*
X201652285Y-137673776D01*
G37*
D13*
G04 #@! TO.P,D22,2*
G04 #@! TO.N,Net-(D22-Pad2)*
X197855067Y-137613481D03*
D11*
G04 #@! TD*
G04 #@! TO.N,Net-(D22-Pad2)*
G04 #@! TO.C,D22*
G36*
X198402419Y-137100738D02*
X198194042Y-138282507D01*
X197307715Y-138126224D01*
X197516092Y-136944455D01*
X198402419Y-137100738D01*
X198402419Y-137100738D01*
G37*
D13*
G04 #@! TO.P,D23,2*
G04 #@! TO.N,Net-(D23-Pad2)*
X194555067Y-156383481D03*
D11*
G04 #@! TD*
G04 #@! TO.N,Net-(D23-Pad2)*
G04 #@! TO.C,D23*
G36*
X195102419Y-155870738D02*
X194894042Y-157052507D01*
X194007715Y-156896224D01*
X194216092Y-155714455D01*
X195102419Y-155870738D01*
X195102419Y-155870738D01*
G37*
D13*
G04 #@! TO.P,D23,1*
G04 #@! TO.N,row1*
X197804933Y-156956519D03*
D11*
G04 #@! TD*
G04 #@! TO.N,row1*
G04 #@! TO.C,D23*
G36*
X198352285Y-156443776D02*
X198143908Y-157625545D01*
X197257581Y-157469262D01*
X197465958Y-156287493D01*
X198352285Y-156443776D01*
X198352285Y-156443776D01*
G37*
D13*
G04 #@! TO.P,D24,1*
G04 #@! TO.N,row2*
X194474933Y-175726519D03*
D11*
G04 #@! TD*
G04 #@! TO.N,row2*
G04 #@! TO.C,D24*
G36*
X195022285Y-175213776D02*
X194813908Y-176395545D01*
X193927581Y-176239262D01*
X194135958Y-175057493D01*
X195022285Y-175213776D01*
X195022285Y-175213776D01*
G37*
D13*
G04 #@! TO.P,D24,2*
G04 #@! TO.N,Net-(D24-Pad2)*
X191225067Y-175153481D03*
D11*
G04 #@! TD*
G04 #@! TO.N,Net-(D24-Pad2)*
G04 #@! TO.C,D24*
G36*
X191772419Y-174640738D02*
X191564042Y-175822507D01*
X190677715Y-175666224D01*
X190886092Y-174484455D01*
X191772419Y-174640738D01*
X191772419Y-174640738D01*
G37*
D13*
G04 #@! TO.P,D25,2*
G04 #@! TO.N,Net-(D25-Pad2)*
X187955067Y-193903481D03*
D11*
G04 #@! TD*
G04 #@! TO.N,Net-(D25-Pad2)*
G04 #@! TO.C,D25*
G36*
X188502419Y-193390738D02*
X188294042Y-194572507D01*
X187407715Y-194416224D01*
X187616092Y-193234455D01*
X188502419Y-193390738D01*
X188502419Y-193390738D01*
G37*
D13*
G04 #@! TO.P,D25,1*
G04 #@! TO.N,row3*
X191204933Y-194476519D03*
D11*
G04 #@! TD*
G04 #@! TO.N,row3*
G04 #@! TO.C,D25*
G36*
X191752285Y-193963776D02*
X191543908Y-195145545D01*
X190657581Y-194989262D01*
X190865958Y-193807493D01*
X191752285Y-193963776D01*
X191752285Y-193963776D01*
G37*
D13*
G04 #@! TO.P,D26,1*
G04 #@! TO.N,row4*
X196300493Y-230524333D03*
D11*
G04 #@! TD*
G04 #@! TO.N,row4*
G04 #@! TO.C,D26*
G36*
X196928567Y-230114426D02*
X196518143Y-231242058D01*
X195672419Y-230934240D01*
X196082843Y-229806608D01*
X196928567Y-230114426D01*
X196928567Y-230114426D01*
G37*
D13*
G04 #@! TO.P,D26,2*
G04 #@! TO.N,Net-(D26-Pad2)*
X193199507Y-229395667D03*
D11*
G04 #@! TD*
G04 #@! TO.N,Net-(D26-Pad2)*
G04 #@! TO.C,D26*
G36*
X193827581Y-228985760D02*
X193417157Y-230113392D01*
X192571433Y-229805574D01*
X192981857Y-228677942D01*
X193827581Y-228985760D01*
X193827581Y-228985760D01*
G37*
D13*
G04 #@! TO.P,D27,2*
G04 #@! TO.N,Net-(D27-Pad2)*
X243125067Y-135766519D03*
D11*
G04 #@! TD*
G04 #@! TO.N,Net-(D27-Pad2)*
G04 #@! TO.C,D27*
G36*
X243464042Y-135097493D02*
X243672419Y-136279262D01*
X242786092Y-136435545D01*
X242577715Y-135253776D01*
X243464042Y-135097493D01*
X243464042Y-135097493D01*
G37*
D13*
G04 #@! TO.P,D27,1*
G04 #@! TO.N,row0*
X246374933Y-135193481D03*
D11*
G04 #@! TD*
G04 #@! TO.N,row0*
G04 #@! TO.C,D27*
G36*
X246713908Y-134524455D02*
X246922285Y-135706224D01*
X246035958Y-135862507D01*
X245827581Y-134680738D01*
X246713908Y-134524455D01*
X246713908Y-134524455D01*
G37*
D13*
G04 #@! TO.P,D28,1*
G04 #@! TO.N,row1*
X249614933Y-153943481D03*
D11*
G04 #@! TD*
G04 #@! TO.N,row1*
G04 #@! TO.C,D28*
G36*
X249953908Y-153274455D02*
X250162285Y-154456224D01*
X249275958Y-154612507D01*
X249067581Y-153430738D01*
X249953908Y-153274455D01*
X249953908Y-153274455D01*
G37*
D13*
G04 #@! TO.P,D28,2*
G04 #@! TO.N,Net-(D28-Pad2)*
X246365067Y-154516519D03*
D11*
G04 #@! TD*
G04 #@! TO.N,Net-(D28-Pad2)*
G04 #@! TO.C,D28*
G36*
X246704042Y-153847493D02*
X246912419Y-155029262D01*
X246026092Y-155185545D01*
X245817715Y-154003776D01*
X246704042Y-153847493D01*
X246704042Y-153847493D01*
G37*
D13*
G04 #@! TO.P,D29,2*
G04 #@! TO.N,Net-(D29-Pad2)*
X249715067Y-173316519D03*
D11*
G04 #@! TD*
G04 #@! TO.N,Net-(D29-Pad2)*
G04 #@! TO.C,D29*
G36*
X250054042Y-172647493D02*
X250262419Y-173829262D01*
X249376092Y-173985545D01*
X249167715Y-172803776D01*
X250054042Y-172647493D01*
X250054042Y-172647493D01*
G37*
D13*
G04 #@! TO.P,D29,1*
G04 #@! TO.N,row2*
X252964933Y-172743481D03*
D11*
G04 #@! TD*
G04 #@! TO.N,row2*
G04 #@! TO.C,D29*
G36*
X253303908Y-172074455D02*
X253512285Y-173256224D01*
X252625958Y-173412507D01*
X252417581Y-172230738D01*
X253303908Y-172074455D01*
X253303908Y-172074455D01*
G37*
D13*
G04 #@! TO.P,D30,1*
G04 #@! TO.N,row3*
X256294933Y-191493481D03*
D11*
G04 #@! TD*
G04 #@! TO.N,row3*
G04 #@! TO.C,D30*
G36*
X256633908Y-190824455D02*
X256842285Y-192006224D01*
X255955958Y-192162507D01*
X255747581Y-190980738D01*
X256633908Y-190824455D01*
X256633908Y-190824455D01*
G37*
D13*
G04 #@! TO.P,D30,2*
G04 #@! TO.N,Net-(D30-Pad2)*
X253045067Y-192066519D03*
D11*
G04 #@! TD*
G04 #@! TO.N,Net-(D30-Pad2)*
G04 #@! TO.C,D30*
G36*
X253384042Y-191397493D02*
X253592419Y-192579262D01*
X252706092Y-192735545D01*
X252497715Y-191553776D01*
X253384042Y-191397493D01*
X253384042Y-191397493D01*
G37*
D13*
G04 #@! TO.P,D31,2*
G04 #@! TO.N,Net-(D31-Pad2)*
X247299507Y-225794333D03*
D11*
G04 #@! TD*
G04 #@! TO.N,Net-(D31-Pad2)*
G04 #@! TO.C,D31*
G36*
X247517157Y-225076608D02*
X247927581Y-226204240D01*
X247081857Y-226512058D01*
X246671433Y-225384426D01*
X247517157Y-225076608D01*
X247517157Y-225076608D01*
G37*
D13*
G04 #@! TO.P,D31,1*
G04 #@! TO.N,row4*
X250400493Y-224665667D03*
D11*
G04 #@! TD*
G04 #@! TO.N,row4*
G04 #@! TO.C,D31*
G36*
X250618143Y-223947942D02*
X251028567Y-225075574D01*
X250182843Y-225383392D01*
X249772419Y-224255760D01*
X250618143Y-223947942D01*
X250618143Y-223947942D01*
G37*
D13*
G04 #@! TO.P,D32,1*
G04 #@! TO.N,row0*
X263924933Y-125133481D03*
D11*
G04 #@! TD*
G04 #@! TO.N,row0*
G04 #@! TO.C,D32*
G36*
X264263908Y-124464455D02*
X264472285Y-125646224D01*
X263585958Y-125802507D01*
X263377581Y-124620738D01*
X264263908Y-124464455D01*
X264263908Y-124464455D01*
G37*
D13*
G04 #@! TO.P,D32,2*
G04 #@! TO.N,Net-(D32-Pad2)*
X260675067Y-125706519D03*
D11*
G04 #@! TD*
G04 #@! TO.N,Net-(D32-Pad2)*
G04 #@! TO.C,D32*
G36*
X261014042Y-125037493D02*
X261222419Y-126219262D01*
X260336092Y-126375545D01*
X260127715Y-125193776D01*
X261014042Y-125037493D01*
X261014042Y-125037493D01*
G37*
D13*
G04 #@! TO.P,D33,2*
G04 #@! TO.N,Net-(D33-Pad2)*
X264005067Y-144496519D03*
D11*
G04 #@! TD*
G04 #@! TO.N,Net-(D33-Pad2)*
G04 #@! TO.C,D33*
G36*
X264344042Y-143827493D02*
X264552419Y-145009262D01*
X263666092Y-145165545D01*
X263457715Y-143983776D01*
X264344042Y-143827493D01*
X264344042Y-143827493D01*
G37*
D13*
G04 #@! TO.P,D33,1*
G04 #@! TO.N,row1*
X267254933Y-143923481D03*
D11*
G04 #@! TD*
G04 #@! TO.N,row1*
G04 #@! TO.C,D33*
G36*
X267593908Y-143254455D02*
X267802285Y-144436224D01*
X266915958Y-144592507D01*
X266707581Y-143410738D01*
X267593908Y-143254455D01*
X267593908Y-143254455D01*
G37*
D13*
G04 #@! TO.P,D34,1*
G04 #@! TO.N,row2*
X270544933Y-162673481D03*
D11*
G04 #@! TD*
G04 #@! TO.N,row2*
G04 #@! TO.C,D34*
G36*
X270883908Y-162004455D02*
X271092285Y-163186224D01*
X270205958Y-163342507D01*
X269997581Y-162160738D01*
X270883908Y-162004455D01*
X270883908Y-162004455D01*
G37*
D13*
G04 #@! TO.P,D34,2*
G04 #@! TO.N,Net-(D34-Pad2)*
X267295067Y-163246519D03*
D11*
G04 #@! TD*
G04 #@! TO.N,Net-(D34-Pad2)*
G04 #@! TO.C,D34*
G36*
X267634042Y-162577493D02*
X267842419Y-163759262D01*
X266956092Y-163915545D01*
X266747715Y-162733776D01*
X267634042Y-162577493D01*
X267634042Y-162577493D01*
G37*
D13*
G04 #@! TO.P,D35,2*
G04 #@! TO.N,Net-(D35-Pad2)*
X270655067Y-182166519D03*
D11*
G04 #@! TD*
G04 #@! TO.N,Net-(D35-Pad2)*
G04 #@! TO.C,D35*
G36*
X270994042Y-181497493D02*
X271202419Y-182679262D01*
X270316092Y-182835545D01*
X270107715Y-181653776D01*
X270994042Y-181497493D01*
X270994042Y-181497493D01*
G37*
D13*
G04 #@! TO.P,D35,1*
G04 #@! TO.N,row3*
X273904933Y-181593481D03*
D11*
G04 #@! TD*
G04 #@! TO.N,row3*
G04 #@! TO.C,D35*
G36*
X274243908Y-180924455D02*
X274452285Y-182106224D01*
X273565958Y-182262507D01*
X273357581Y-181080738D01*
X274243908Y-180924455D01*
X274243908Y-180924455D01*
G37*
D13*
G04 #@! TO.P,D36,1*
G04 #@! TO.N,row4*
X268173778Y-211832950D03*
D11*
G04 #@! TD*
G04 #@! TO.N,row4*
G04 #@! TO.C,D36*
G36*
X268453153Y-211136926D02*
X268763736Y-212296037D01*
X267894403Y-212528974D01*
X267583820Y-211369863D01*
X268453153Y-211136926D01*
X268453153Y-211136926D01*
G37*
D13*
G04 #@! TO.P,D36,2*
G04 #@! TO.N,Net-(D36-Pad2)*
X264986222Y-212687050D03*
D11*
G04 #@! TD*
G04 #@! TO.N,Net-(D36-Pad2)*
G04 #@! TO.C,D36*
G36*
X265265597Y-211991026D02*
X265576180Y-213150137D01*
X264706847Y-213383074D01*
X264396264Y-212223963D01*
X265265597Y-211991026D01*
X265265597Y-211991026D01*
G37*
D13*
G04 #@! TO.P,D37,2*
G04 #@! TO.N,Net-(D37-Pad2)*
X278305067Y-115866519D03*
D11*
G04 #@! TD*
G04 #@! TO.N,Net-(D37-Pad2)*
G04 #@! TO.C,D37*
G36*
X278644042Y-115197493D02*
X278852419Y-116379262D01*
X277966092Y-116535545D01*
X277757715Y-115353776D01*
X278644042Y-115197493D01*
X278644042Y-115197493D01*
G37*
D13*
G04 #@! TO.P,D37,1*
G04 #@! TO.N,row0*
X281554933Y-115293481D03*
D11*
G04 #@! TD*
G04 #@! TO.N,row0*
G04 #@! TO.C,D37*
G36*
X281893908Y-114624455D02*
X282102285Y-115806224D01*
X281215958Y-115962507D01*
X281007581Y-114780738D01*
X281893908Y-114624455D01*
X281893908Y-114624455D01*
G37*
D13*
G04 #@! TO.P,D38,1*
G04 #@! TO.N,row1*
X284854933Y-134053481D03*
D11*
G04 #@! TD*
G04 #@! TO.N,row1*
G04 #@! TO.C,D38*
G36*
X285193908Y-133384455D02*
X285402285Y-134566224D01*
X284515958Y-134722507D01*
X284307581Y-133540738D01*
X285193908Y-133384455D01*
X285193908Y-133384455D01*
G37*
D13*
G04 #@! TO.P,D38,2*
G04 #@! TO.N,Net-(D38-Pad2)*
X281605067Y-134626519D03*
D11*
G04 #@! TD*
G04 #@! TO.N,Net-(D38-Pad2)*
G04 #@! TO.C,D38*
G36*
X281944042Y-133957493D02*
X282152419Y-135139262D01*
X281266092Y-135295545D01*
X281057715Y-134113776D01*
X281944042Y-133957493D01*
X281944042Y-133957493D01*
G37*
D13*
G04 #@! TO.P,D39,2*
G04 #@! TO.N,Net-(D39-Pad2)*
X284905067Y-153376519D03*
D11*
G04 #@! TD*
G04 #@! TO.N,Net-(D39-Pad2)*
G04 #@! TO.C,D39*
G36*
X285244042Y-152707493D02*
X285452419Y-153889262D01*
X284566092Y-154045545D01*
X284357715Y-152863776D01*
X285244042Y-152707493D01*
X285244042Y-152707493D01*
G37*
D13*
G04 #@! TO.P,D39,1*
G04 #@! TO.N,row2*
X288154933Y-152803481D03*
D11*
G04 #@! TD*
G04 #@! TO.N,row2*
G04 #@! TO.C,D39*
G36*
X288493908Y-152134455D02*
X288702285Y-153316224D01*
X287815958Y-153472507D01*
X287607581Y-152290738D01*
X288493908Y-152134455D01*
X288493908Y-152134455D01*
G37*
D13*
G04 #@! TO.P,D40,1*
G04 #@! TO.N,row3*
X291474933Y-171573481D03*
D11*
G04 #@! TD*
G04 #@! TO.N,row3*
G04 #@! TO.C,D40*
G36*
X291813908Y-170904455D02*
X292022285Y-172086224D01*
X291135958Y-172242507D01*
X290927581Y-171060738D01*
X291813908Y-170904455D01*
X291813908Y-170904455D01*
G37*
D13*
G04 #@! TO.P,D40,2*
G04 #@! TO.N,Net-(D40-Pad2)*
X288225067Y-172146519D03*
D11*
G04 #@! TD*
G04 #@! TO.N,Net-(D40-Pad2)*
G04 #@! TO.C,D40*
G36*
X288564042Y-171477493D02*
X288772419Y-172659262D01*
X287886092Y-172815545D01*
X287677715Y-171633776D01*
X288564042Y-171477493D01*
X288564042Y-171477493D01*
G37*
D13*
G04 #@! TO.P,D41,2*
G04 #@! TO.N,Net-(D41-Pad2)*
X284115067Y-203626519D03*
D11*
G04 #@! TD*
G04 #@! TO.N,Net-(D41-Pad2)*
G04 #@! TO.C,D41*
G36*
X284454042Y-202957493D02*
X284662419Y-204139262D01*
X283776092Y-204295545D01*
X283567715Y-203113776D01*
X284454042Y-202957493D01*
X284454042Y-202957493D01*
G37*
D13*
G04 #@! TO.P,D41,1*
G04 #@! TO.N,row4*
X287364933Y-203053481D03*
D11*
G04 #@! TD*
G04 #@! TO.N,row4*
G04 #@! TO.C,D41*
G36*
X287703908Y-202384455D02*
X287912285Y-203566224D01*
X287025958Y-203722507D01*
X286817581Y-202540738D01*
X287703908Y-202384455D01*
X287703908Y-202384455D01*
G37*
D13*
G04 #@! TO.P,D42,1*
G04 #@! TO.N,row0*
X301474933Y-118533481D03*
D11*
G04 #@! TD*
G04 #@! TO.N,row0*
G04 #@! TO.C,D42*
G36*
X301813908Y-117864455D02*
X302022285Y-119046224D01*
X301135958Y-119202507D01*
X300927581Y-118020738D01*
X301813908Y-117864455D01*
X301813908Y-117864455D01*
G37*
D13*
G04 #@! TO.P,D42,2*
G04 #@! TO.N,Net-(D42-Pad2)*
X298225067Y-119106519D03*
D11*
G04 #@! TD*
G04 #@! TO.N,Net-(D42-Pad2)*
G04 #@! TO.C,D42*
G36*
X298564042Y-118437493D02*
X298772419Y-119619262D01*
X297886092Y-119775545D01*
X297677715Y-118593776D01*
X298564042Y-118437493D01*
X298564042Y-118437493D01*
G37*
D13*
G04 #@! TO.P,D43,2*
G04 #@! TO.N,Net-(D43-Pad2)*
X301535067Y-137866519D03*
D11*
G04 #@! TD*
G04 #@! TO.N,Net-(D43-Pad2)*
G04 #@! TO.C,D43*
G36*
X301874042Y-137197493D02*
X302082419Y-138379262D01*
X301196092Y-138535545D01*
X300987715Y-137353776D01*
X301874042Y-137197493D01*
X301874042Y-137197493D01*
G37*
D13*
G04 #@! TO.P,D43,1*
G04 #@! TO.N,row1*
X304784933Y-137293481D03*
D11*
G04 #@! TD*
G04 #@! TO.N,row1*
G04 #@! TO.C,D43*
G36*
X305123908Y-136624455D02*
X305332285Y-137806224D01*
X304445958Y-137962507D01*
X304237581Y-136780738D01*
X305123908Y-136624455D01*
X305123908Y-136624455D01*
G37*
D13*
G04 #@! TO.P,D44,1*
G04 #@! TO.N,row2*
X308094933Y-156073481D03*
D11*
G04 #@! TD*
G04 #@! TO.N,row2*
G04 #@! TO.C,D44*
G36*
X308433908Y-155404455D02*
X308642285Y-156586224D01*
X307755958Y-156742507D01*
X307547581Y-155560738D01*
X308433908Y-155404455D01*
X308433908Y-155404455D01*
G37*
D13*
G04 #@! TO.P,D44,2*
G04 #@! TO.N,Net-(D44-Pad2)*
X304845067Y-156646519D03*
D11*
G04 #@! TD*
G04 #@! TO.N,Net-(D44-Pad2)*
G04 #@! TO.C,D44*
G36*
X305184042Y-155977493D02*
X305392419Y-157159262D01*
X304506092Y-157315545D01*
X304297715Y-156133776D01*
X305184042Y-155977493D01*
X305184042Y-155977493D01*
G37*
D13*
G04 #@! TO.P,D45,2*
G04 #@! TO.N,Net-(D45-Pad2)*
X308175067Y-175596519D03*
D11*
G04 #@! TD*
G04 #@! TO.N,Net-(D45-Pad2)*
G04 #@! TO.C,D45*
G36*
X308514042Y-174927493D02*
X308722419Y-176109262D01*
X307836092Y-176265545D01*
X307627715Y-175083776D01*
X308514042Y-174927493D01*
X308514042Y-174927493D01*
G37*
D13*
G04 #@! TO.P,D45,1*
G04 #@! TO.N,row3*
X311424933Y-175023481D03*
D11*
G04 #@! TD*
G04 #@! TO.N,row3*
G04 #@! TO.C,D45*
G36*
X311763908Y-174354455D02*
X311972285Y-175536224D01*
X311085958Y-175692507D01*
X310877581Y-174510738D01*
X311763908Y-174354455D01*
X311763908Y-174354455D01*
G37*
D13*
G04 #@! TO.P,D46,2*
G04 #@! TO.N,Net-(D46-Pad2)*
X317825067Y-120496519D03*
D11*
G04 #@! TD*
G04 #@! TO.N,Net-(D46-Pad2)*
G04 #@! TO.C,D46*
G36*
X318164042Y-119827493D02*
X318372419Y-121009262D01*
X317486092Y-121165545D01*
X317277715Y-119983776D01*
X318164042Y-119827493D01*
X318164042Y-119827493D01*
G37*
D13*
G04 #@! TO.P,D46,1*
G04 #@! TO.N,row0*
X321074933Y-119923481D03*
D11*
G04 #@! TD*
G04 #@! TO.N,row0*
G04 #@! TO.C,D46*
G36*
X321413908Y-119254455D02*
X321622285Y-120436224D01*
X320735958Y-120592507D01*
X320527581Y-119410738D01*
X321413908Y-119254455D01*
X321413908Y-119254455D01*
G37*
D13*
G04 #@! TO.P,D47,1*
G04 #@! TO.N,row1*
X324354933Y-138683481D03*
D11*
G04 #@! TD*
G04 #@! TO.N,row1*
G04 #@! TO.C,D47*
G36*
X324693908Y-138014455D02*
X324902285Y-139196224D01*
X324015958Y-139352507D01*
X323807581Y-138170738D01*
X324693908Y-138014455D01*
X324693908Y-138014455D01*
G37*
D13*
G04 #@! TO.P,D47,2*
G04 #@! TO.N,Net-(D47-Pad2)*
X321105067Y-139256519D03*
D11*
G04 #@! TD*
G04 #@! TO.N,Net-(D47-Pad2)*
G04 #@! TO.C,D47*
G36*
X321444042Y-138587493D02*
X321652419Y-139769262D01*
X320766092Y-139925545D01*
X320557715Y-138743776D01*
X321444042Y-138587493D01*
X321444042Y-138587493D01*
G37*
D13*
G04 #@! TO.P,D48,2*
G04 #@! TO.N,Net-(D48-Pad2)*
X324405067Y-158036519D03*
D11*
G04 #@! TD*
G04 #@! TO.N,Net-(D48-Pad2)*
G04 #@! TO.C,D48*
G36*
X324744042Y-157367493D02*
X324952419Y-158549262D01*
X324066092Y-158705545D01*
X323857715Y-157523776D01*
X324744042Y-157367493D01*
X324744042Y-157367493D01*
G37*
D13*
G04 #@! TO.P,D48,1*
G04 #@! TO.N,row2*
X327654933Y-157463481D03*
D11*
G04 #@! TD*
G04 #@! TO.N,row2*
G04 #@! TO.C,D48*
G36*
X327993908Y-156794455D02*
X328202285Y-157976224D01*
X327315958Y-158132507D01*
X327107581Y-156950738D01*
X327993908Y-156794455D01*
X327993908Y-156794455D01*
G37*
D13*
G04 #@! TO.P,D49,1*
G04 #@! TO.N,row3*
X331004933Y-176223481D03*
D11*
G04 #@! TD*
G04 #@! TO.N,row3*
G04 #@! TO.C,D49*
G36*
X331343908Y-175554455D02*
X331552285Y-176736224D01*
X330665958Y-176892507D01*
X330457581Y-175710738D01*
X331343908Y-175554455D01*
X331343908Y-175554455D01*
G37*
D13*
G04 #@! TO.P,D49,2*
G04 #@! TO.N,Net-(D49-Pad2)*
X327755067Y-176796519D03*
D11*
G04 #@! TD*
G04 #@! TO.N,Net-(D49-Pad2)*
G04 #@! TO.C,D49*
G36*
X328094042Y-176127493D02*
X328302419Y-177309262D01*
X327416092Y-177465545D01*
X327207715Y-176283776D01*
X328094042Y-176127493D01*
X328094042Y-176127493D01*
G37*
D13*
G04 #@! TO.P,D50,1*
G04 #@! TO.N,row1*
X343124933Y-135383481D03*
D11*
G04 #@! TD*
G04 #@! TO.N,row1*
G04 #@! TO.C,D50*
G36*
X343463908Y-134714455D02*
X343672285Y-135896224D01*
X342785958Y-136052507D01*
X342577581Y-134870738D01*
X343463908Y-134714455D01*
X343463908Y-134714455D01*
G37*
D13*
G04 #@! TO.P,D50,2*
G04 #@! TO.N,Net-(D50-Pad2)*
X339875067Y-135956519D03*
D11*
G04 #@! TD*
G04 #@! TO.N,Net-(D50-Pad2)*
G04 #@! TO.C,D50*
G36*
X340214042Y-135287493D02*
X340422419Y-136469262D01*
X339536092Y-136625545D01*
X339327715Y-135443776D01*
X340214042Y-135287493D01*
X340214042Y-135287493D01*
G37*
D13*
G04 #@! TO.P,D51,2*
G04 #@! TO.N,Net-(D51-Pad2)*
X343175067Y-154706519D03*
D11*
G04 #@! TD*
G04 #@! TO.N,Net-(D51-Pad2)*
G04 #@! TO.C,D51*
G36*
X343514042Y-154037493D02*
X343722419Y-155219262D01*
X342836092Y-155375545D01*
X342627715Y-154193776D01*
X343514042Y-154037493D01*
X343514042Y-154037493D01*
G37*
D13*
G04 #@! TO.P,D51,1*
G04 #@! TO.N,row2*
X346424933Y-154133481D03*
D11*
G04 #@! TD*
G04 #@! TO.N,row2*
G04 #@! TO.C,D51*
G36*
X346763908Y-153464455D02*
X346972285Y-154646224D01*
X346085958Y-154802507D01*
X345877581Y-153620738D01*
X346763908Y-153464455D01*
X346763908Y-153464455D01*
G37*
D13*
G04 #@! TO.P,D52,1*
G04 #@! TO.N,row3*
X349724933Y-172903481D03*
D11*
G04 #@! TD*
G04 #@! TO.N,row3*
G04 #@! TO.C,D52*
G36*
X350063908Y-172234455D02*
X350272285Y-173416224D01*
X349385958Y-173572507D01*
X349177581Y-172390738D01*
X350063908Y-172234455D01*
X350063908Y-172234455D01*
G37*
D13*
G04 #@! TO.P,D52,2*
G04 #@! TO.N,Net-(D52-Pad2)*
X346475067Y-173476519D03*
D11*
G04 #@! TD*
G04 #@! TO.N,Net-(D52-Pad2)*
G04 #@! TO.C,D52*
G36*
X346814042Y-172807493D02*
X347022419Y-173989262D01*
X346136092Y-174145545D01*
X345927715Y-172963776D01*
X346814042Y-172807493D01*
X346814042Y-172807493D01*
G37*
D14*
G04 #@! TO.P,SW53,1*
G04 #@! TO.N,reset*
X218540000Y-186410000D03*
G04 #@! TO.P,SW53,2*
G04 #@! TO.N,GND*
X212040000Y-186410000D03*
G04 #@! TD*
D15*
G04 #@! TO.P,U1,24*
G04 #@! TO.N,Net-(U1-Pad24)*
X222893600Y-146422000D03*
G04 #@! TO.P,U1,23*
G04 #@! TO.N,GND*
X222893600Y-148962000D03*
G04 #@! TO.P,U1,22*
G04 #@! TO.N,reset*
X222893600Y-151502000D03*
G04 #@! TO.P,U1,21*
G04 #@! TO.N,VCC*
X222893600Y-154042000D03*
G04 #@! TO.P,U1,20*
G04 #@! TO.N,col11*
X222893600Y-156582000D03*
G04 #@! TO.P,U1,19*
G04 #@! TO.N,col10*
X222893600Y-159122000D03*
G04 #@! TO.P,U1,18*
G04 #@! TO.N,col9*
X222893600Y-161662000D03*
G04 #@! TO.P,U1,17*
G04 #@! TO.N,col8*
X222893600Y-164202000D03*
G04 #@! TO.P,U1,16*
G04 #@! TO.N,col7*
X222893600Y-166742000D03*
G04 #@! TO.P,U1,15*
G04 #@! TO.N,col6*
X222893600Y-169282000D03*
G04 #@! TO.P,U1,14*
G04 #@! TO.N,row4*
X222893600Y-171822000D03*
G04 #@! TO.P,U1,13*
G04 #@! TO.N,row3*
X222893600Y-174362000D03*
G04 #@! TO.P,U1,12*
G04 #@! TO.N,row2*
X207673600Y-174362000D03*
G04 #@! TO.P,U1,11*
G04 #@! TO.N,row1*
X207673600Y-171822000D03*
G04 #@! TO.P,U1,10*
G04 #@! TO.N,row0*
X207673600Y-169282000D03*
G04 #@! TO.P,U1,9*
G04 #@! TO.N,col5*
X207673600Y-166742000D03*
G04 #@! TO.P,U1,8*
G04 #@! TO.N,col4*
X207673600Y-164202000D03*
G04 #@! TO.P,U1,7*
G04 #@! TO.N,col3*
X207673600Y-161662000D03*
G04 #@! TO.P,U1,6*
G04 #@! TO.N,col2*
X207673600Y-159122000D03*
G04 #@! TO.P,U1,5*
G04 #@! TO.N,col1*
X207673600Y-156582000D03*
G04 #@! TO.P,U1,4*
G04 #@! TO.N,GND*
X207673600Y-154042000D03*
G04 #@! TO.P,U1,3*
X207673600Y-151502000D03*
G04 #@! TO.P,U1,2*
G04 #@! TO.N,col0*
X207673600Y-148962000D03*
G04 #@! TO.P,U1,1*
G04 #@! TO.N,LED*
X207673600Y-146422000D03*
G04 #@! TD*
D16*
G04 #@! TO.N,row2*
X233390000Y-177010000D03*
X221570000Y-177020000D03*
G04 #@! TO.N,row3*
X224960000Y-175970000D03*
G04 #@! TO.N,GND*
X194720000Y-197210000D03*
G04 #@! TO.N,VCC*
X222320000Y-198310000D03*
G04 #@! TO.N,LED*
X202250000Y-155030000D03*
X190320000Y-199840000D03*
G04 #@! TD*
D17*
G04 #@! TO.N,Net-(D1-Pad2)*
X94008949Y-130657363D02*
X101135067Y-137783481D01*
X94008949Y-125686989D02*
X94008949Y-130657363D01*
G04 #@! TO.N,row1*
X108283573Y-142255159D02*
X122516293Y-142255159D01*
X122516293Y-142255159D02*
X123104933Y-141666519D01*
X104384933Y-138356519D02*
X108283573Y-142255159D01*
X141284933Y-141666519D02*
X142704933Y-140246519D01*
X123104933Y-141666519D02*
X141284933Y-141666519D01*
X159973573Y-139657879D02*
X162046293Y-137585159D01*
X162046293Y-137585159D02*
X162634933Y-136996519D01*
X143293573Y-139657879D02*
X159973573Y-139657879D01*
X142704933Y-140246519D02*
X143293573Y-139657879D01*
X162634933Y-136996519D02*
X173038414Y-147400000D01*
X179667992Y-146866519D02*
X180224933Y-146866519D01*
X179134511Y-147400000D02*
X179667992Y-146866519D01*
X173038414Y-147400000D02*
X179134511Y-147400000D01*
X180224933Y-146866519D02*
X191180000Y-157821586D01*
X196939866Y-157821586D02*
X197804933Y-156956519D01*
X191180000Y-157821586D02*
X196939866Y-157821586D01*
X197804933Y-161953333D02*
X207673600Y-171822000D01*
X197804933Y-156956519D02*
X197804933Y-161953333D01*
X249026293Y-153354841D02*
X249614933Y-153943481D01*
X211920009Y-167575591D02*
X207673600Y-171822000D01*
X248047859Y-155510555D02*
X245130555Y-155510555D01*
X249614933Y-153943481D02*
X248047859Y-155510555D01*
X221826599Y-157669001D02*
X211920009Y-167575591D01*
X242972109Y-157669001D02*
X221826599Y-157669001D01*
X245130555Y-155510555D02*
X242972109Y-157669001D01*
X266795775Y-144382639D02*
X267254933Y-143923481D01*
X261940305Y-149238109D02*
X266795775Y-144382639D01*
X254320305Y-149238109D02*
X261940305Y-149238109D01*
X249614933Y-153943481D02*
X254320305Y-149238109D01*
X283287859Y-135620555D02*
X284395775Y-134512639D01*
X284395775Y-134512639D02*
X284854933Y-134053481D01*
X275557859Y-135620555D02*
X283287859Y-135620555D01*
X267254933Y-143923481D02*
X275557859Y-135620555D01*
X304325775Y-137752639D02*
X304784933Y-137293481D01*
X303217859Y-138860555D02*
X304325775Y-137752639D01*
X289662007Y-138860555D02*
X303217859Y-138860555D01*
X284854933Y-134053481D02*
X289662007Y-138860555D01*
X323895775Y-139142639D02*
X324354933Y-138683481D01*
X322787859Y-140250555D02*
X323895775Y-139142639D01*
X307742007Y-140250555D02*
X322787859Y-140250555D01*
X304784933Y-137293481D02*
X307742007Y-140250555D01*
X342665775Y-135842639D02*
X343124933Y-135383481D01*
X339824933Y-138683481D02*
X343124933Y-135383481D01*
X324354933Y-138683481D02*
X339824933Y-138683481D01*
G04 #@! TO.N,row2*
X119226293Y-161015159D02*
X119814933Y-160426519D01*
X104963573Y-161015159D02*
X119226293Y-161015159D01*
X101044933Y-157096519D02*
X104963573Y-161015159D01*
X138044933Y-160426519D02*
X139414933Y-159056519D01*
X119814933Y-160426519D02*
X138044933Y-160426519D01*
X158736293Y-156375159D02*
X159324933Y-155786519D01*
X139971874Y-159056519D02*
X142653234Y-156375159D01*
X142653234Y-156375159D02*
X158736293Y-156375159D01*
X139414933Y-159056519D02*
X139971874Y-159056519D01*
X159324933Y-155786519D02*
X170388414Y-166850000D01*
X175741452Y-166850000D02*
X176934933Y-165656519D01*
X170388414Y-166850000D02*
X175741452Y-166850000D01*
X193917992Y-175726519D02*
X194474933Y-175726519D01*
X193496994Y-176147517D02*
X193917992Y-175726519D01*
X187425931Y-176147517D02*
X193496994Y-176147517D01*
X176934933Y-165656519D02*
X187425931Y-176147517D01*
X206309081Y-175726519D02*
X207673600Y-174362000D01*
X194474933Y-175726519D02*
X206309081Y-175726519D01*
X217982000Y-174362000D02*
X220630000Y-177010000D01*
X207673600Y-174362000D02*
X217982000Y-174362000D01*
X248698414Y-177010000D02*
X252964933Y-172743481D01*
X233390000Y-177010000D02*
X248698414Y-177010000D01*
X343094933Y-157463481D02*
X346424933Y-154133481D01*
X327654933Y-157463481D02*
X343094933Y-157463481D01*
X327195775Y-157922639D02*
X327654933Y-157463481D01*
X326087859Y-159030555D02*
X327195775Y-157922639D01*
X311052007Y-159030555D02*
X326087859Y-159030555D01*
X308094933Y-156073481D02*
X311052007Y-159030555D01*
X307635775Y-156532639D02*
X308094933Y-156073481D01*
X306527859Y-157640555D02*
X307635775Y-156532639D01*
X292992007Y-157640555D02*
X306527859Y-157640555D01*
X288154933Y-152803481D02*
X292992007Y-157640555D01*
X278847859Y-154370555D02*
X286587859Y-154370555D01*
X287695775Y-153262639D02*
X288154933Y-152803481D01*
X286587859Y-154370555D02*
X287695775Y-153262639D01*
X270544933Y-162673481D02*
X278847859Y-154370555D01*
X270085775Y-163132639D02*
X270544933Y-162673481D01*
X268977859Y-164240555D02*
X270085775Y-163132639D01*
X261467859Y-164240555D02*
X268977859Y-164240555D01*
X252964933Y-172743481D02*
X261467859Y-164240555D01*
X220630000Y-177010000D02*
X221560000Y-177010000D01*
X221560000Y-177010000D02*
X221570000Y-177020000D01*
G04 #@! TO.N,Net-(D2-Pad2)*
X90698949Y-149427363D02*
X97795067Y-156523481D01*
X90698949Y-144446989D02*
X90698949Y-149427363D01*
G04 #@! TO.N,Net-(D3-Pad2)*
X87388949Y-168197363D02*
X94475067Y-175283481D01*
X87388949Y-163216989D02*
X87388949Y-168197363D01*
G04 #@! TO.N,row3*
X115856293Y-179695159D02*
X116444933Y-179106519D01*
X101563573Y-179695159D02*
X115856293Y-179695159D01*
X97724933Y-175856519D02*
X101563573Y-179695159D01*
X134934933Y-179106519D02*
X136064933Y-177976519D01*
X116444933Y-179106519D02*
X134934933Y-179106519D01*
X152564933Y-177976519D02*
X156004933Y-174536519D01*
X136064933Y-177976519D02*
X152564933Y-177976519D01*
X156004933Y-174536519D02*
X168508414Y-187040000D01*
X171141452Y-187040000D02*
X173584933Y-184596519D01*
X168508414Y-187040000D02*
X171141452Y-187040000D01*
X190647992Y-194476519D02*
X191204933Y-194476519D01*
X190226994Y-194897517D02*
X190647992Y-194476519D01*
X183885931Y-194897517D02*
X190226994Y-194897517D01*
X173584933Y-184596519D02*
X183885931Y-194897517D01*
X191204933Y-194476519D02*
X218333481Y-194476519D01*
X222893600Y-189916400D02*
X222893600Y-174362000D01*
X218333481Y-194476519D02*
X222893600Y-189916400D01*
X255137835Y-191493481D02*
X253570761Y-193060555D01*
X253570761Y-193060555D02*
X228080555Y-193060555D01*
X256294933Y-191493481D02*
X255137835Y-191493481D01*
X224960000Y-189940000D02*
X224960000Y-175970000D01*
X228080555Y-193060555D02*
X224960000Y-189940000D01*
X346404933Y-176223481D02*
X349724933Y-172903481D01*
X331004933Y-176223481D02*
X346404933Y-176223481D01*
X330545775Y-176682639D02*
X331004933Y-176223481D01*
X329058414Y-178170000D02*
X330545775Y-176682639D01*
X314571452Y-178170000D02*
X329058414Y-178170000D01*
X311424933Y-175023481D02*
X314571452Y-178170000D01*
X264004933Y-191493481D02*
X273904933Y-181593481D01*
X256294933Y-191493481D02*
X264004933Y-191493481D01*
X281454933Y-181593481D02*
X291474933Y-171573481D01*
X273904933Y-181593481D02*
X281454933Y-181593481D01*
X309857859Y-176590555D02*
X310965775Y-175482639D01*
X295782752Y-176590555D02*
X309857859Y-176590555D01*
X291474933Y-172282736D02*
X295782752Y-176590555D01*
X310965775Y-175482639D02*
X311424933Y-175023481D01*
X291474933Y-171573481D02*
X291474933Y-172282736D01*
G04 #@! TO.N,row0*
X144671452Y-122900000D02*
X146034933Y-121536519D01*
X126430000Y-122900000D02*
X144671452Y-122900000D01*
X165346293Y-118855159D02*
X165934933Y-118266519D01*
X163253573Y-120947879D02*
X165346293Y-118855159D01*
X146623573Y-120947879D02*
X163253573Y-120947879D01*
X146034933Y-121536519D02*
X146623573Y-120947879D01*
X165934933Y-118266519D02*
X165934933Y-119854933D01*
X182966293Y-128725159D02*
X183554933Y-128136519D01*
X174805159Y-128725159D02*
X182966293Y-128725159D01*
X165934933Y-119854933D02*
X174805159Y-128725159D01*
X194193573Y-138775159D02*
X200516293Y-138775159D01*
X200516293Y-138775159D02*
X201104933Y-138186519D01*
X183554933Y-128136519D02*
X194193573Y-138775159D01*
X201104933Y-162713333D02*
X207673600Y-169282000D01*
X201104933Y-138186519D02*
X201104933Y-162713333D01*
X245915775Y-135652639D02*
X246374933Y-135193481D01*
X211470000Y-154486010D02*
X229195455Y-136760555D01*
X244807859Y-136760555D02*
X245915775Y-135652639D01*
X229195455Y-136760555D02*
X244807859Y-136760555D01*
X211470000Y-165485600D02*
X211470000Y-154486010D01*
X207673600Y-169282000D02*
X211470000Y-165485600D01*
X263465775Y-125592639D02*
X263924933Y-125133481D01*
X254867859Y-126700555D02*
X262357859Y-126700555D01*
X262357859Y-126700555D02*
X263465775Y-125592639D01*
X246374933Y-135193481D02*
X254867859Y-126700555D01*
X276250305Y-120598109D02*
X281095775Y-115752639D01*
X281095775Y-115752639D02*
X281554933Y-115293481D01*
X268460305Y-120598109D02*
X276250305Y-120598109D01*
X263924933Y-125133481D02*
X268460305Y-120598109D01*
X301015775Y-118992639D02*
X301474933Y-118533481D01*
X299907859Y-120100555D02*
X301015775Y-118992639D01*
X286362007Y-120100555D02*
X299907859Y-120100555D01*
X281554933Y-115293481D02*
X286362007Y-120100555D01*
X319188414Y-121810000D02*
X320615775Y-120382639D01*
X320615775Y-120382639D02*
X321074933Y-119923481D01*
X304751452Y-121810000D02*
X319188414Y-121810000D01*
X301474933Y-118533481D02*
X304751452Y-121810000D01*
G04 #@! TO.N,Net-(D4-Pad2)*
X116078949Y-115225777D02*
X123180134Y-122326962D01*
X116078949Y-110236989D02*
X116078949Y-115225777D01*
G04 #@! TO.N,Net-(D5-Pad2)*
X112766466Y-134004880D02*
X119855067Y-141093481D01*
X112766466Y-128999410D02*
X112766466Y-134004880D01*
G04 #@! TO.N,Net-(D6-Pad2)*
X109458949Y-152747363D02*
X116565067Y-159853481D01*
X109458949Y-147756989D02*
X109458949Y-152747363D01*
G04 #@! TO.N,Net-(D7-Pad2)*
X106148949Y-171487363D02*
X113195067Y-178533481D01*
X106148949Y-166516989D02*
X106148949Y-171487363D01*
G04 #@! TO.N,Net-(D8-Pad2)*
X135668949Y-113847363D02*
X142785067Y-120963481D01*
X135668949Y-108856989D02*
X135668949Y-113847363D01*
G04 #@! TO.N,Net-(D9-Pad2)*
X132358949Y-132577363D02*
X139455067Y-139673481D01*
X132358949Y-127616989D02*
X132358949Y-132577363D01*
G04 #@! TO.N,Net-(D10-Pad2)*
X129048949Y-151367363D02*
X136165067Y-158483481D01*
X129048949Y-146366989D02*
X129048949Y-151367363D01*
G04 #@! TO.N,Net-(D11-Pad2)*
X125708949Y-170297363D02*
X132815067Y-177403481D01*
X125708949Y-165316989D02*
X125708949Y-170297363D01*
G04 #@! TO.N,Net-(D12-Pad2)*
X155578949Y-110587363D02*
X162685067Y-117693481D01*
X155578949Y-105596989D02*
X155578949Y-110587363D01*
G04 #@! TO.N,Net-(D13-Pad2)*
X152268949Y-129307363D02*
X159385067Y-136423481D01*
X152268949Y-124346989D02*
X152268949Y-129307363D01*
G04 #@! TO.N,Net-(D14-Pad2)*
X148968949Y-148107363D02*
X156075067Y-155213481D01*
X148968949Y-143106989D02*
X148968949Y-148107363D01*
G04 #@! TO.N,Net-(D15-Pad2)*
X145658949Y-166867363D02*
X152755067Y-173963481D01*
X145658949Y-161876989D02*
X145658949Y-166867363D01*
G04 #@! TO.N,row4*
X160129866Y-206752293D02*
X170437573Y-217060000D01*
X160129866Y-206043038D02*
X160129866Y-206752293D01*
X178210829Y-217060000D02*
X179003778Y-216267051D01*
X170437573Y-217060000D02*
X178210829Y-217060000D01*
X195721613Y-230524333D02*
X196300493Y-230524333D01*
X192539895Y-230524333D02*
X195721613Y-230524333D01*
X179003778Y-216988216D02*
X192539895Y-230524333D01*
X179003778Y-216267051D02*
X179003778Y-216988216D01*
X196300493Y-230524333D02*
X196839326Y-229985500D01*
X202089326Y-212500674D02*
X223980601Y-190609399D01*
X223655599Y-172583999D02*
X222893600Y-171822000D01*
X223980601Y-172909001D02*
X223655599Y-172583999D01*
X223980601Y-190609399D02*
X223980601Y-172909001D01*
X202089326Y-225314380D02*
X202089326Y-212500674D01*
X196879373Y-230524333D02*
X202089326Y-225314380D01*
X196300493Y-230524333D02*
X196879373Y-230524333D01*
X255341060Y-224665667D02*
X268173778Y-211832949D01*
X250400493Y-224665667D02*
X255341060Y-224665667D01*
X286905775Y-203512639D02*
X287364933Y-203053481D01*
X279023598Y-211394816D02*
X286905775Y-203512639D01*
X268611911Y-211394816D02*
X279023598Y-211394816D01*
X268173778Y-211832949D02*
X268611911Y-211394816D01*
X196300493Y-230524333D02*
X244541827Y-230524333D01*
X249978691Y-225087469D02*
X250400493Y-224665667D01*
X244541827Y-230524333D02*
X249978691Y-225087469D01*
G04 #@! TO.N,Net-(D16-Pad2)*
X149778949Y-198368949D02*
X156880000Y-205470000D01*
X149778949Y-193356989D02*
X149778949Y-198368949D01*
G04 #@! TO.N,Net-(D17-Pad2)*
X173188949Y-120447363D02*
X180305067Y-127563481D01*
X173188949Y-115466989D02*
X173188949Y-120447363D01*
G04 #@! TO.N,Net-(D18-Pad2)*
X169878949Y-139197363D02*
X176975067Y-146293481D01*
X169878949Y-134226989D02*
X169878949Y-139197363D01*
G04 #@! TO.N,Net-(D19-Pad2)*
X166568949Y-157967363D02*
X173685067Y-165083481D01*
X166568949Y-152986989D02*
X166568949Y-157967363D01*
G04 #@! TO.N,Net-(D20-Pad2)*
X163228949Y-176917363D02*
X170335067Y-184023481D01*
X163228949Y-171936989D02*
X163228949Y-176917363D01*
G04 #@! TO.N,Net-(D21-Pad2)*
X169787223Y-209383950D02*
X175816222Y-215412949D01*
X169787223Y-202740448D02*
X169787223Y-209383950D01*
G04 #@! TO.N,Net-(D22-Pad2)*
X190748949Y-130507363D02*
X197855067Y-137613481D01*
X190748949Y-125536989D02*
X190748949Y-130507363D01*
G04 #@! TO.N,Net-(D23-Pad2)*
X187448949Y-149277363D02*
X194555067Y-156383481D01*
X187448949Y-144286989D02*
X187448949Y-149277363D01*
G04 #@! TO.N,Net-(D24-Pad2)*
X184138949Y-168067363D02*
X191225067Y-175153481D01*
X184138949Y-163056989D02*
X184138949Y-168067363D01*
G04 #@! TO.N,Net-(D25-Pad2)*
X180828949Y-186777363D02*
X187955067Y-193903481D01*
X180828949Y-181816989D02*
X180828949Y-186777363D01*
G04 #@! TO.N,Net-(D26-Pad2)*
X188308502Y-224504662D02*
X193199507Y-229395667D01*
X188308502Y-216260084D02*
X188308502Y-224504662D01*
G04 #@! TO.N,Net-(D27-Pad2)*
X242568126Y-135766519D02*
X243125067Y-135766519D01*
X239606701Y-135766519D02*
X242568126Y-135766519D01*
X232306816Y-128466634D02*
X239606701Y-135766519D01*
X232306816Y-126850188D02*
X232306816Y-128466634D01*
G04 #@! TO.N,Net-(D28-Pad2)*
X245808126Y-154516519D02*
X246365067Y-154516519D01*
X242896701Y-154516519D02*
X245808126Y-154516519D01*
X235606816Y-147226634D02*
X242896701Y-154516519D01*
X235606816Y-145610188D02*
X235606816Y-147226634D01*
G04 #@! TO.N,Net-(D29-Pad2)*
X249158126Y-173316519D02*
X249715067Y-173316519D01*
X246256701Y-173316519D02*
X249158126Y-173316519D01*
X238926816Y-165986634D02*
X246256701Y-173316519D01*
X238926816Y-164370188D02*
X238926816Y-165986634D01*
G04 #@! TO.N,Net-(D30-Pad2)*
X249536701Y-192066519D02*
X252488126Y-192066519D01*
X252488126Y-192066519D02*
X253045067Y-192066519D01*
X242226816Y-184756634D02*
X249536701Y-192066519D01*
X242226816Y-183140188D02*
X242226816Y-184756634D01*
G04 #@! TO.N,Net-(D31-Pad2)*
X246720627Y-225794333D02*
X247299507Y-225794333D01*
X240412650Y-225794333D02*
X246720627Y-225794333D01*
X235101040Y-220482723D02*
X240412650Y-225794333D01*
X235101040Y-218866277D02*
X235101040Y-220482723D01*
G04 #@! TO.N,Net-(D32-Pad2)*
X257176701Y-125706519D02*
X260118126Y-125706519D01*
X260118126Y-125706519D02*
X260675067Y-125706519D01*
X249876816Y-118406634D02*
X257176701Y-125706519D01*
X249876816Y-116790188D02*
X249876816Y-118406634D01*
G04 #@! TO.N,Net-(D33-Pad2)*
X263448126Y-144496519D02*
X264005067Y-144496519D01*
X260516701Y-144496519D02*
X263448126Y-144496519D01*
X253186816Y-137166634D02*
X260516701Y-144496519D01*
X253186816Y-135550188D02*
X253186816Y-137166634D01*
G04 #@! TO.N,Net-(D34-Pad2)*
X263806701Y-163246519D02*
X266738126Y-163246519D01*
X256486816Y-155926634D02*
X263806701Y-163246519D01*
X266738126Y-163246519D02*
X267295067Y-163246519D01*
X256486816Y-154310188D02*
X256486816Y-155926634D01*
G04 #@! TO.N,Net-(D35-Pad2)*
X270098126Y-182166519D02*
X270655067Y-182166519D01*
X267126701Y-182166519D02*
X270098126Y-182166519D01*
X259836816Y-174876634D02*
X267126701Y-182166519D01*
X259836816Y-173260188D02*
X259836816Y-174876634D01*
G04 #@! TO.N,Net-(D36-Pad2)*
X259780378Y-212687051D02*
X264420348Y-212687051D01*
X253422422Y-206329095D02*
X259780378Y-212687051D01*
X264420348Y-212687051D02*
X264986222Y-212687051D01*
X253422422Y-204712649D02*
X253422422Y-206329095D01*
G04 #@! TO.N,Net-(D37-Pad2)*
X277748126Y-115866519D02*
X278305067Y-115866519D01*
X274806701Y-115866519D02*
X277748126Y-115866519D01*
X267476816Y-108536634D02*
X274806701Y-115866519D01*
X267476816Y-106920188D02*
X267476816Y-108536634D01*
G04 #@! TO.N,Net-(D38-Pad2)*
X281048126Y-134626519D02*
X281605067Y-134626519D01*
X278126701Y-134626519D02*
X281048126Y-134626519D01*
X270786816Y-127286634D02*
X278126701Y-134626519D01*
X270786816Y-125670188D02*
X270786816Y-127286634D01*
G04 #@! TO.N,Net-(D39-Pad2)*
X284348126Y-153376519D02*
X284905067Y-153376519D01*
X281416701Y-153376519D02*
X284348126Y-153376519D01*
X274096816Y-146056634D02*
X281416701Y-153376519D01*
X274096816Y-144440188D02*
X274096816Y-146056634D01*
G04 #@! TO.N,Net-(D40-Pad2)*
X287668126Y-172146519D02*
X288225067Y-172146519D01*
X284726701Y-172146519D02*
X287668126Y-172146519D01*
X277396816Y-164816634D02*
X284726701Y-172146519D01*
X277396816Y-163200188D02*
X277396816Y-164816634D01*
G04 #@! TO.N,Net-(D41-Pad2)*
X283558126Y-203626519D02*
X284115067Y-203626519D01*
X280616701Y-203626519D02*
X283558126Y-203626519D01*
X273286816Y-196296634D02*
X280616701Y-203626519D01*
X273286816Y-194680188D02*
X273286816Y-196296634D01*
G04 #@! TO.N,Net-(D42-Pad2)*
X297668126Y-119106519D02*
X298225067Y-119106519D01*
X294706701Y-119106519D02*
X297668126Y-119106519D01*
X287396816Y-111796634D02*
X294706701Y-119106519D01*
X287396816Y-110180188D02*
X287396816Y-111796634D01*
G04 #@! TO.N,Net-(D43-Pad2)*
X300978126Y-137866519D02*
X301535067Y-137866519D01*
X298026701Y-137866519D02*
X300978126Y-137866519D01*
X290706816Y-130546634D02*
X298026701Y-137866519D01*
X290706816Y-128930188D02*
X290706816Y-130546634D01*
G04 #@! TO.N,Net-(D44-Pad2)*
X304288126Y-156646519D02*
X304845067Y-156646519D01*
X294016816Y-149316634D02*
X301346701Y-156646519D01*
X301346701Y-156646519D02*
X304288126Y-156646519D01*
X294016816Y-147700188D02*
X294016816Y-149316634D01*
G04 #@! TO.N,Net-(D45-Pad2)*
X307618126Y-175596519D02*
X308175067Y-175596519D01*
X304686701Y-175596519D02*
X307618126Y-175596519D01*
X297346816Y-168256634D02*
X304686701Y-175596519D01*
X297346816Y-166640188D02*
X297346816Y-168256634D01*
G04 #@! TO.N,Net-(D46-Pad2)*
X317268126Y-120496519D02*
X317825067Y-120496519D01*
X314316701Y-120496519D02*
X317268126Y-120496519D01*
X306986816Y-113166634D02*
X314316701Y-120496519D01*
X306986816Y-111550188D02*
X306986816Y-113166634D01*
G04 #@! TO.N,Net-(D47-Pad2)*
X320548126Y-139256519D02*
X321105067Y-139256519D01*
X317606701Y-139256519D02*
X320548126Y-139256519D01*
X310286816Y-131936634D02*
X317606701Y-139256519D01*
X310286816Y-130320188D02*
X310286816Y-131936634D01*
G04 #@! TO.N,Net-(D48-Pad2)*
X323848126Y-158036519D02*
X324405067Y-158036519D01*
X320946701Y-158036519D02*
X323848126Y-158036519D01*
X313606816Y-150696634D02*
X320946701Y-158036519D01*
X313606816Y-149080188D02*
X313606816Y-150696634D01*
G04 #@! TO.N,Net-(D49-Pad2)*
X327198126Y-176796519D02*
X327755067Y-176796519D01*
X324246701Y-176796519D02*
X327198126Y-176796519D01*
X316916816Y-169466634D02*
X324246701Y-176796519D01*
X316916816Y-167850188D02*
X316916816Y-169466634D01*
G04 #@! TO.N,Net-(D50-Pad2)*
X339318126Y-135956519D02*
X339875067Y-135956519D01*
X336386701Y-135956519D02*
X339318126Y-135956519D01*
X329056816Y-128626634D02*
X336386701Y-135956519D01*
X329056816Y-127010188D02*
X329056816Y-128626634D01*
G04 #@! TO.N,Net-(D51-Pad2)*
X339676701Y-154706519D02*
X342618126Y-154706519D01*
X342618126Y-154706519D02*
X343175067Y-154706519D01*
X332356816Y-147386634D02*
X339676701Y-154706519D01*
X332356816Y-145770188D02*
X332356816Y-147386634D01*
G04 #@! TO.N,Net-(D52-Pad2)*
X345918126Y-173476519D02*
X346475067Y-173476519D01*
X342996701Y-173476519D02*
X345918126Y-173476519D01*
X335666816Y-166146634D02*
X342996701Y-173476519D01*
X335666816Y-164530188D02*
X335666816Y-166146634D01*
D18*
G04 #@! TO.N,GND*
X154512478Y-216650000D02*
X156001066Y-218138588D01*
X141290000Y-206450000D02*
X151490000Y-216650000D01*
X141290000Y-187600000D02*
X141290000Y-206450000D01*
X151490000Y-216650000D02*
X154512478Y-216650000D01*
X194720000Y-197210000D02*
X174630000Y-197210000D01*
X174630000Y-197210000D02*
X161830000Y-184410000D01*
X161830000Y-184410000D02*
X144480000Y-184410000D01*
X144480000Y-184410000D02*
X141290000Y-187600000D01*
X253571873Y-237075010D02*
X176989717Y-237075010D01*
X148810000Y-216650000D02*
X151490000Y-216650000D01*
X176765246Y-237035119D02*
X159179826Y-233909826D01*
X276811066Y-225768934D02*
X268080713Y-234499287D01*
X147400000Y-218060000D02*
X148810000Y-216650000D01*
X147400000Y-222130000D02*
X147400000Y-218060000D01*
X159179826Y-233909826D02*
X147400000Y-222130000D01*
X176989717Y-237075010D02*
X176765246Y-237035119D01*
X268080713Y-234499287D02*
X253571873Y-237075010D01*
X276811066Y-223351412D02*
X276811066Y-225768934D01*
G04 #@! TO.N,VCC*
X276802688Y-218348588D02*
X290090000Y-205061276D01*
X275928934Y-218348588D02*
X276802688Y-218348588D01*
X290090000Y-205061276D02*
X290090000Y-185800000D01*
X290090000Y-185800000D02*
X289300000Y-185010000D01*
X289300000Y-185010000D02*
X273920000Y-185010000D01*
X273920000Y-185010000D02*
X265290000Y-193640000D01*
X265290000Y-193640000D02*
X256570000Y-193640000D01*
X256570000Y-193640000D02*
X251900000Y-198310000D01*
X251900000Y-198310000D02*
X222320000Y-198310000D01*
X155847416Y-223869894D02*
X155118934Y-223141412D01*
X165916565Y-233939043D02*
X155847416Y-223869894D01*
X169072963Y-234500000D02*
X165916565Y-233939043D01*
X259777522Y-234500000D02*
X169072963Y-234500000D01*
X275928934Y-218348588D02*
X259777522Y-234500000D01*
D17*
G04 #@! TO.N,LED*
X150690000Y-223890000D02*
X150690000Y-220070000D01*
X150690000Y-220070000D02*
X150848482Y-219911518D01*
X260967958Y-235177998D02*
X178097871Y-235177998D01*
X178097871Y-235177998D02*
X176815789Y-236460080D01*
X176815789Y-236460080D02*
X160330262Y-233530262D01*
X160330262Y-233530262D02*
X150690000Y-223890000D01*
X154831518Y-219911518D02*
X155560000Y-220640000D01*
X150848482Y-219911518D02*
X154831518Y-219911518D01*
X262273830Y-234946170D02*
X260967958Y-235177998D01*
X276370000Y-220850000D02*
X262273830Y-234946170D01*
X207673600Y-146422000D02*
X202688000Y-146422000D01*
X202688000Y-146422000D02*
X202250000Y-146860000D01*
X202250000Y-146860000D02*
X202250000Y-155030000D01*
X157540000Y-220640000D02*
X155560000Y-220640000D01*
X158070000Y-220110000D02*
X157540000Y-220640000D01*
X158070000Y-217500000D02*
X158070000Y-220110000D01*
X156240000Y-215670000D02*
X158070000Y-217500000D01*
X151970000Y-215670000D02*
X156240000Y-215670000D01*
X175550000Y-199840000D02*
X161470000Y-185760000D01*
X190320000Y-199840000D02*
X175550000Y-199840000D01*
X161470000Y-185760000D02*
X144600000Y-185760000D01*
X144600000Y-185760000D02*
X142490000Y-187870000D01*
X142490000Y-187870000D02*
X142490000Y-206190000D01*
X142490000Y-206190000D02*
X151970000Y-215670000D01*
G04 #@! TD*
M02*
