M48
;DRILL file {KiCad (5.0.2)-1} date 25/02/2019 13:46:39
;FORMAT={-:-/ absolute / metric / decimal}
FMAT,2
METRIC,TZ
T1C3.988
%
G90
G05
T1
X321.11Y-169.69
X152.28Y-146.27
X291.59Y-112.02
X109.46Y-169.68
X336.55Y-147.61
X264.03Y-175.1
X246.42Y-184.98
X190.76Y-147.45
X153.09Y-196.52
X298.21Y-149.54
X135.67Y-130.78
X90.7Y-166.38
X271.67Y-108.76
X254.07Y-118.63
X184.14Y-184.98
X173.19Y-137.39
X311.18Y-113.39
X129.02Y-168.48
X278.29Y-146.28
X97.32Y-128.85
X236.5Y-128.69
X166.54Y-175.1
X317.8Y-150.92
X155.58Y-127.51
X277.48Y-196.52
X112.77Y-150.92
X260.68Y-156.15
X243.12Y-166.21
X194.06Y-128.7
X333.25Y-128.85
X148.97Y-165.04
X294.9Y-130.77
X138.98Y-112.02
X339.86Y-166.37
X257.76Y-206.18
X239.55Y-219.95
X187.45Y-166.22
X176.5Y-118.63
X301.54Y-168.48
X132.36Y-149.53
X94.01Y-147.61
X274.98Y-127.51
X119.39Y-113.4
X257.38Y-137.39
X191.02Y-219.95
X169.88Y-156.15
X314.48Y-132.16
X158.89Y-108.76
X281.59Y-165.04
X116.078Y-132.162
X239.8Y-147.45
X172.81Y-206.18
T0
M30
