G04 #@! TF.GenerationSoftware,KiCad,Pcbnew,(5.0.2)-1*
G04 #@! TF.CreationDate,2019-02-25T13:46:33+08:00*
G04 #@! TF.ProjectId,Kisaragi,4b697361-7261-4676-992e-6b696361645f,rev?*
G04 #@! TF.SameCoordinates,Original*
G04 #@! TF.FileFunction,Legend,Bot*
G04 #@! TF.FilePolarity,Positive*
%FSLAX46Y46*%
G04 Gerber Fmt 4.6, Leading zero omitted, Abs format (unit mm)*
G04 Created by KiCad (PCBNEW (5.0.2)-1) date 25/02/2019 13:46:33*
%MOMM*%
%LPD*%
G01*
G04 APERTURE LIST*
%ADD10C,0.150000*%
%ADD11C,0.120000*%
%ADD12C,0.010000*%
%ADD13C,0.125000*%
G04 APERTURE END LIST*
D10*
G04 #@! TO.C,J1*
X279533011Y-224161051D02*
X278209812Y-216656816D01*
X274530188Y-225043184D02*
X279533011Y-224161051D01*
X273206989Y-217538949D02*
X274530188Y-225043184D01*
X278209812Y-216656816D02*
X273206989Y-217538949D01*
G04 #@! TO.C,J2*
X152396989Y-223951051D02*
X157399812Y-224833184D01*
X157399812Y-224833184D02*
X158723011Y-217328949D01*
X158723011Y-217328949D02*
X153720188Y-216446816D01*
X153720188Y-216446816D02*
X152396989Y-223951051D01*
D11*
G04 #@! TO.C,D1*
X105149466Y-137475901D02*
X101308715Y-136798673D01*
X104802169Y-139445516D02*
X100961419Y-138768288D01*
X105149466Y-137475901D02*
X104802169Y-139445516D01*
G04 #@! TO.C,D2*
X101809466Y-156215901D02*
X101462169Y-158185516D01*
X101462169Y-158185516D02*
X97621419Y-157508288D01*
X101809466Y-156215901D02*
X97968715Y-155538673D01*
G04 #@! TO.C,D3*
X98489466Y-174975901D02*
X94648715Y-174298673D01*
X98142169Y-176945516D02*
X94301419Y-176268288D01*
X98489466Y-174975901D02*
X98142169Y-176945516D01*
G04 #@! TO.C,D4*
X127194533Y-122019382D02*
X126847236Y-123988997D01*
X126847236Y-123988997D02*
X123006486Y-123311769D01*
X127194533Y-122019382D02*
X123353782Y-121342154D01*
G04 #@! TO.C,D5*
X123869466Y-140785901D02*
X120028715Y-140108673D01*
X123522169Y-142755516D02*
X119681419Y-142078288D01*
X123869466Y-140785901D02*
X123522169Y-142755516D01*
G04 #@! TO.C,D6*
X120579466Y-159545901D02*
X120232169Y-161515516D01*
X120232169Y-161515516D02*
X116391419Y-160838288D01*
X120579466Y-159545901D02*
X116738715Y-158868673D01*
G04 #@! TO.C,D7*
X117209466Y-178225901D02*
X113368715Y-177548673D01*
X116862169Y-180195516D02*
X113021419Y-179518288D01*
X117209466Y-178225901D02*
X116862169Y-180195516D01*
G04 #@! TO.C,D8*
X146799466Y-120655901D02*
X142958715Y-119978673D01*
X146452169Y-122625516D02*
X142611419Y-121948288D01*
X146799466Y-120655901D02*
X146452169Y-122625516D01*
G04 #@! TO.C,D9*
X143469466Y-139365901D02*
X143122169Y-141335516D01*
X143122169Y-141335516D02*
X139281419Y-140658288D01*
X143469466Y-139365901D02*
X139628715Y-138688673D01*
G04 #@! TO.C,D10*
X140179466Y-158175901D02*
X136338715Y-157498673D01*
X139832169Y-160145516D02*
X135991419Y-159468288D01*
X140179466Y-158175901D02*
X139832169Y-160145516D01*
G04 #@! TO.C,D11*
X136829466Y-177095901D02*
X136482169Y-179065516D01*
X136482169Y-179065516D02*
X132641419Y-178388288D01*
X136829466Y-177095901D02*
X132988715Y-176418673D01*
G04 #@! TO.C,D12*
X166699466Y-117385901D02*
X166352169Y-119355516D01*
X166352169Y-119355516D02*
X162511419Y-118678288D01*
X166699466Y-117385901D02*
X162858715Y-116708673D01*
G04 #@! TO.C,D13*
X163399466Y-136115901D02*
X159558715Y-135438673D01*
X163052169Y-138085516D02*
X159211419Y-137408288D01*
X163399466Y-136115901D02*
X163052169Y-138085516D01*
G04 #@! TO.C,D14*
X160089466Y-154905901D02*
X159742169Y-156875516D01*
X159742169Y-156875516D02*
X155901419Y-156198288D01*
X160089466Y-154905901D02*
X156248715Y-154228673D01*
G04 #@! TO.C,D15*
X156769466Y-173655901D02*
X152928715Y-172978673D01*
X156422169Y-175625516D02*
X152581419Y-174948288D01*
X156769466Y-173655901D02*
X156422169Y-175625516D01*
G04 #@! TO.C,D16*
X160894399Y-205162420D02*
X160547102Y-207132035D01*
X160547102Y-207132035D02*
X156706352Y-206454807D01*
X160894399Y-205162420D02*
X157053648Y-204485192D01*
G04 #@! TO.C,D17*
X184319466Y-127255901D02*
X180478715Y-126578673D01*
X183972169Y-129225516D02*
X180131419Y-128548288D01*
X184319466Y-127255901D02*
X183972169Y-129225516D01*
G04 #@! TO.C,D18*
X180989466Y-145985901D02*
X180642169Y-147955516D01*
X180642169Y-147955516D02*
X176801419Y-147278288D01*
X180989466Y-145985901D02*
X177148715Y-145308673D01*
G04 #@! TO.C,D19*
X177699466Y-164775901D02*
X173858715Y-164098673D01*
X177352169Y-166745516D02*
X173511419Y-166068288D01*
X177699466Y-164775901D02*
X177352169Y-166745516D01*
G04 #@! TO.C,D20*
X174349466Y-183715901D02*
X174002169Y-185685516D01*
X174002169Y-185685516D02*
X170161419Y-185008288D01*
X174349466Y-183715901D02*
X170508715Y-183038673D01*
G04 #@! TO.C,D21*
X179842152Y-215456417D02*
X176075041Y-214447023D01*
X179324514Y-217388269D02*
X175557403Y-216378874D01*
X179842152Y-215456417D02*
X179324514Y-217388269D01*
G04 #@! TO.C,D22*
X201869466Y-137305901D02*
X201522169Y-139275516D01*
X201522169Y-139275516D02*
X197681419Y-138598288D01*
X201869466Y-137305901D02*
X198028715Y-136628673D01*
G04 #@! TO.C,D23*
X198569466Y-156075901D02*
X194728715Y-155398673D01*
X198222169Y-158045516D02*
X194381419Y-157368288D01*
X198569466Y-156075901D02*
X198222169Y-158045516D01*
G04 #@! TO.C,D24*
X195239466Y-174845901D02*
X194892169Y-176815516D01*
X194892169Y-176815516D02*
X191051419Y-176138288D01*
X195239466Y-174845901D02*
X191398715Y-174168673D01*
G04 #@! TO.C,D25*
X191969466Y-193595901D02*
X188128715Y-192918673D01*
X191622169Y-195565516D02*
X187781419Y-194888288D01*
X191969466Y-193595901D02*
X191622169Y-195565516D01*
G04 #@! TO.C,D26*
X197206329Y-229789853D02*
X196522288Y-231669238D01*
X196522288Y-231669238D02*
X192857487Y-230335359D01*
X197206329Y-229789853D02*
X193541527Y-228455974D01*
G04 #@! TO.C,D27*
X246792169Y-134104484D02*
X242951419Y-134781712D01*
X247139466Y-136074099D02*
X243298715Y-136751327D01*
X246792169Y-134104484D02*
X247139466Y-136074099D01*
G04 #@! TO.C,D28*
X250032169Y-152854484D02*
X250379466Y-154824099D01*
X250379466Y-154824099D02*
X246538715Y-155501327D01*
X250032169Y-152854484D02*
X246191419Y-153531712D01*
G04 #@! TO.C,D29*
X253382169Y-171654484D02*
X249541419Y-172331712D01*
X253729466Y-173624099D02*
X249888715Y-174301327D01*
X253382169Y-171654484D02*
X253729466Y-173624099D01*
G04 #@! TO.C,D30*
X256712169Y-190404484D02*
X257059466Y-192374099D01*
X257059466Y-192374099D02*
X253218715Y-193051327D01*
X256712169Y-190404484D02*
X252871419Y-191081712D01*
G04 #@! TO.C,D31*
X250622288Y-223520762D02*
X246957487Y-224854641D01*
X251306329Y-225400147D02*
X247641527Y-226734026D01*
X250622288Y-223520762D02*
X251306329Y-225400147D01*
G04 #@! TO.C,D32*
X264342169Y-124044484D02*
X264689466Y-126014099D01*
X264689466Y-126014099D02*
X260848715Y-126691327D01*
X264342169Y-124044484D02*
X260501419Y-124721712D01*
G04 #@! TO.C,D33*
X267672169Y-142834484D02*
X263831419Y-143511712D01*
X268019466Y-144804099D02*
X264178715Y-145481327D01*
X267672169Y-142834484D02*
X268019466Y-144804099D01*
G04 #@! TO.C,D34*
X270962169Y-161584484D02*
X271309466Y-163554099D01*
X271309466Y-163554099D02*
X267468715Y-164231327D01*
X270962169Y-161584484D02*
X267121419Y-162261712D01*
G04 #@! TO.C,D35*
X274322169Y-180504484D02*
X270481419Y-181181712D01*
X274669466Y-182474099D02*
X270828715Y-183151327D01*
X274322169Y-180504484D02*
X274669466Y-182474099D01*
G04 #@! TO.C,D36*
X268494514Y-210711731D02*
X269012152Y-212643583D01*
X269012152Y-212643583D02*
X265245041Y-213652977D01*
X268494514Y-210711731D02*
X264727403Y-211721126D01*
G04 #@! TO.C,D37*
X281972169Y-114204484D02*
X278131419Y-114881712D01*
X282319466Y-116174099D02*
X278478715Y-116851327D01*
X281972169Y-114204484D02*
X282319466Y-116174099D01*
G04 #@! TO.C,D38*
X285272169Y-132964484D02*
X285619466Y-134934099D01*
X285619466Y-134934099D02*
X281778715Y-135611327D01*
X285272169Y-132964484D02*
X281431419Y-133641712D01*
G04 #@! TO.C,D39*
X288572169Y-151714484D02*
X284731419Y-152391712D01*
X288919466Y-153684099D02*
X285078715Y-154361327D01*
X288572169Y-151714484D02*
X288919466Y-153684099D01*
G04 #@! TO.C,D40*
X291892169Y-170484484D02*
X292239466Y-172454099D01*
X292239466Y-172454099D02*
X288398715Y-173131327D01*
X291892169Y-170484484D02*
X288051419Y-171161712D01*
G04 #@! TO.C,D41*
X287782169Y-201964484D02*
X283941419Y-202641712D01*
X288129466Y-203934099D02*
X284288715Y-204611327D01*
X287782169Y-201964484D02*
X288129466Y-203934099D01*
G04 #@! TO.C,D42*
X301892169Y-117444484D02*
X302239466Y-119414099D01*
X302239466Y-119414099D02*
X298398715Y-120091327D01*
X301892169Y-117444484D02*
X298051419Y-118121712D01*
G04 #@! TO.C,D43*
X305202169Y-136204484D02*
X301361419Y-136881712D01*
X305549466Y-138174099D02*
X301708715Y-138851327D01*
X305202169Y-136204484D02*
X305549466Y-138174099D01*
G04 #@! TO.C,D44*
X308512169Y-154984484D02*
X308859466Y-156954099D01*
X308859466Y-156954099D02*
X305018715Y-157631327D01*
X308512169Y-154984484D02*
X304671419Y-155661712D01*
G04 #@! TO.C,D45*
X311842169Y-173934484D02*
X308001419Y-174611712D01*
X312189466Y-175904099D02*
X308348715Y-176581327D01*
X311842169Y-173934484D02*
X312189466Y-175904099D01*
G04 #@! TO.C,D46*
X321492169Y-118834484D02*
X317651419Y-119511712D01*
X321839466Y-120804099D02*
X317998715Y-121481327D01*
X321492169Y-118834484D02*
X321839466Y-120804099D01*
G04 #@! TO.C,D47*
X324772169Y-137594484D02*
X325119466Y-139564099D01*
X325119466Y-139564099D02*
X321278715Y-140241327D01*
X324772169Y-137594484D02*
X320931419Y-138271712D01*
G04 #@! TO.C,D48*
X328072169Y-156374484D02*
X324231419Y-157051712D01*
X328419466Y-158344099D02*
X324578715Y-159021327D01*
X328072169Y-156374484D02*
X328419466Y-158344099D01*
G04 #@! TO.C,D49*
X331422169Y-175134484D02*
X331769466Y-177104099D01*
X331769466Y-177104099D02*
X327928715Y-177781327D01*
X331422169Y-175134484D02*
X327581419Y-175811712D01*
G04 #@! TO.C,D50*
X343542169Y-134294484D02*
X343889466Y-136264099D01*
X343889466Y-136264099D02*
X340048715Y-136941327D01*
X343542169Y-134294484D02*
X339701419Y-134971712D01*
G04 #@! TO.C,D51*
X346842169Y-153044484D02*
X343001419Y-153721712D01*
X347189466Y-155014099D02*
X343348715Y-155691327D01*
X346842169Y-153044484D02*
X347189466Y-155014099D01*
G04 #@! TO.C,D52*
X350142169Y-171814484D02*
X350489466Y-173784099D01*
X350489466Y-173784099D02*
X346648715Y-174461327D01*
X350142169Y-171814484D02*
X346301419Y-172491712D01*
D10*
G04 #@! TO.C,SW53*
X218290000Y-187910000D02*
X218290000Y-188160000D01*
X218290000Y-188160000D02*
X212290000Y-188160000D01*
X212290000Y-188160000D02*
X212290000Y-187910000D01*
X212290000Y-184910000D02*
X212290000Y-184660000D01*
X212290000Y-184660000D02*
X218290000Y-184660000D01*
X218290000Y-184660000D02*
X218290000Y-184910000D01*
G04 #@! TO.C,U1*
X208943600Y-175632000D02*
X208943600Y-145152000D01*
X206403600Y-175632000D02*
X208943600Y-175632000D01*
X206403600Y-145152000D02*
X206403600Y-175632000D01*
X208943600Y-145152000D02*
X206403600Y-145152000D01*
X224163600Y-175632000D02*
X224163600Y-145152000D01*
X221623600Y-175632000D02*
X224163600Y-175632000D01*
X221623600Y-145152000D02*
X221623600Y-175632000D01*
X224163600Y-145152000D02*
X221623600Y-145152000D01*
D12*
G04 #@! TO.C,G\002A\002A\002A*
G36*
X207978045Y-188110350D02*
X207855576Y-188344695D01*
X207830758Y-188828828D01*
X207830667Y-188901333D01*
X207830667Y-189748000D01*
X209354667Y-189748000D01*
X209354667Y-189007167D01*
X209334697Y-188540739D01*
X209230002Y-188305042D01*
X208973406Y-188192592D01*
X208825500Y-188160500D01*
X208275557Y-188068162D01*
X207978045Y-188110350D01*
X207978045Y-188110350D01*
G37*
X207978045Y-188110350D02*
X207855576Y-188344695D01*
X207830758Y-188828828D01*
X207830667Y-188901333D01*
X207830667Y-189748000D01*
X209354667Y-189748000D01*
X209354667Y-189007167D01*
X209334697Y-188540739D01*
X209230002Y-188305042D01*
X208973406Y-188192592D01*
X208825500Y-188160500D01*
X208275557Y-188068162D01*
X207978045Y-188110350D01*
G36*
X210250707Y-190516737D02*
X210204551Y-190800596D01*
X210201334Y-191144524D01*
X210215465Y-191614799D01*
X210314244Y-191852139D01*
X210582252Y-191962275D01*
X210899875Y-192017750D01*
X211428689Y-192109721D01*
X211795156Y-192225510D01*
X212029042Y-192422312D01*
X212160115Y-192757325D01*
X212218142Y-193287744D01*
X212232888Y-194070766D01*
X212233334Y-194579958D01*
X212233334Y-196690667D01*
X213757334Y-196690667D01*
X213757334Y-190628768D01*
X212995334Y-190568164D01*
X212526382Y-190546720D01*
X212303429Y-190607531D01*
X212236540Y-190789917D01*
X212233334Y-190901310D01*
X212233334Y-191295061D01*
X211739585Y-190943481D01*
X211236774Y-190664185D01*
X210723585Y-190487450D01*
X210402647Y-190438866D01*
X210250707Y-190516737D01*
X210250707Y-190516737D01*
G37*
X210250707Y-190516737D02*
X210204551Y-190800596D01*
X210201334Y-191144524D01*
X210215465Y-191614799D01*
X210314244Y-191852139D01*
X210582252Y-191962275D01*
X210899875Y-192017750D01*
X211428689Y-192109721D01*
X211795156Y-192225510D01*
X212029042Y-192422312D01*
X212160115Y-192757325D01*
X212218142Y-193287744D01*
X212232888Y-194070766D01*
X212233334Y-194579958D01*
X212233334Y-196690667D01*
X213757334Y-196690667D01*
X213757334Y-190628768D01*
X212995334Y-190568164D01*
X212526382Y-190546720D01*
X212303429Y-190607531D01*
X212236540Y-190789917D01*
X212233334Y-190901310D01*
X212233334Y-191295061D01*
X211739585Y-190943481D01*
X211236774Y-190664185D01*
X210723585Y-190487450D01*
X210402647Y-190438866D01*
X210250707Y-190516737D01*
G36*
X215876754Y-188988225D02*
X215797311Y-189265303D01*
X215789334Y-189663333D01*
X215776682Y-190131539D01*
X215690935Y-190353250D01*
X215460406Y-190420633D01*
X215196667Y-190425333D01*
X214799443Y-190451546D01*
X214636539Y-190599439D01*
X214604074Y-190972889D01*
X214604000Y-191018000D01*
X214629780Y-191413971D01*
X214776085Y-191577326D01*
X215146366Y-191610554D01*
X215202213Y-191610667D01*
X215800426Y-191610667D01*
X215752546Y-193515667D01*
X215704667Y-195420667D01*
X215144460Y-195474465D01*
X214764895Y-195542180D01*
X214628728Y-195717029D01*
X214636460Y-196067132D01*
X214691316Y-196393693D01*
X214836447Y-196560307D01*
X215167201Y-196632446D01*
X215496601Y-196657758D01*
X216035518Y-196660474D01*
X216402554Y-196544698D01*
X216758582Y-196254943D01*
X216808934Y-196205117D01*
X217020896Y-195983626D01*
X217163190Y-195775221D01*
X217249699Y-195509739D01*
X217294305Y-195117013D01*
X217310889Y-194526880D01*
X217313334Y-193669176D01*
X217313334Y-191610667D01*
X217736667Y-191610667D01*
X218022950Y-191566386D01*
X218140149Y-191367124D01*
X218160000Y-191018000D01*
X218128269Y-190617104D01*
X217985912Y-190453003D01*
X217738668Y-190425333D01*
X217453277Y-190374052D01*
X217298250Y-190158120D01*
X217211808Y-189765394D01*
X217101780Y-189319091D01*
X216901437Y-189098039D01*
X216595973Y-189003394D01*
X216114137Y-188924516D01*
X215876754Y-188988225D01*
X215876754Y-188988225D01*
G37*
X215876754Y-188988225D02*
X215797311Y-189265303D01*
X215789334Y-189663333D01*
X215776682Y-190131539D01*
X215690935Y-190353250D01*
X215460406Y-190420633D01*
X215196667Y-190425333D01*
X214799443Y-190451546D01*
X214636539Y-190599439D01*
X214604074Y-190972889D01*
X214604000Y-191018000D01*
X214629780Y-191413971D01*
X214776085Y-191577326D01*
X215146366Y-191610554D01*
X215202213Y-191610667D01*
X215800426Y-191610667D01*
X215752546Y-193515667D01*
X215704667Y-195420667D01*
X215144460Y-195474465D01*
X214764895Y-195542180D01*
X214628728Y-195717029D01*
X214636460Y-196067132D01*
X214691316Y-196393693D01*
X214836447Y-196560307D01*
X215167201Y-196632446D01*
X215496601Y-196657758D01*
X216035518Y-196660474D01*
X216402554Y-196544698D01*
X216758582Y-196254943D01*
X216808934Y-196205117D01*
X217020896Y-195983626D01*
X217163190Y-195775221D01*
X217249699Y-195509739D01*
X217294305Y-195117013D01*
X217310889Y-194526880D01*
X217313334Y-193669176D01*
X217313334Y-191610667D01*
X217736667Y-191610667D01*
X218022950Y-191566386D01*
X218140149Y-191367124D01*
X218160000Y-191018000D01*
X218128269Y-190617104D01*
X217985912Y-190453003D01*
X217738668Y-190425333D01*
X217453277Y-190374052D01*
X217298250Y-190158120D01*
X217211808Y-189765394D01*
X217101780Y-189319091D01*
X216901437Y-189098039D01*
X216595973Y-189003394D01*
X216114137Y-188924516D01*
X215876754Y-188988225D01*
G36*
X219980969Y-190626703D02*
X219737141Y-190755572D01*
X219294847Y-191101297D01*
X218994033Y-191479940D01*
X218888795Y-191809175D01*
X218948647Y-191955530D01*
X219390460Y-192189751D01*
X219887743Y-192182845D01*
X220267987Y-191958925D01*
X220697416Y-191656414D01*
X221121975Y-191663063D01*
X221343467Y-191813867D01*
X221504370Y-192026679D01*
X221478730Y-192212089D01*
X221227310Y-192413839D01*
X220710874Y-192675672D01*
X220473603Y-192783615D01*
X219584776Y-193267293D01*
X219007968Y-193792654D01*
X218716742Y-194389416D01*
X218668000Y-194813158D01*
X218815811Y-195562352D01*
X219252255Y-196137323D01*
X219785359Y-196454554D01*
X220677782Y-196672110D01*
X221523394Y-196576870D01*
X222001527Y-196360428D01*
X222440394Y-196015213D01*
X222771239Y-195617229D01*
X222901334Y-195279030D01*
X222759992Y-195175350D01*
X222416752Y-195031004D01*
X222386802Y-195020430D01*
X221980245Y-194928125D01*
X221691070Y-195037488D01*
X221540135Y-195173198D01*
X221090111Y-195445262D01*
X220603106Y-195478760D01*
X220206211Y-195267162D01*
X220184947Y-195242835D01*
X220078185Y-194999407D01*
X220207803Y-194764591D01*
X220605735Y-194506906D01*
X221208000Y-194234247D01*
X222020895Y-193818543D01*
X222539956Y-193350071D01*
X222809879Y-192785771D01*
X222836454Y-192665413D01*
X222826679Y-191929848D01*
X222547515Y-191301490D01*
X222061162Y-190818668D01*
X221429821Y-190519711D01*
X220715690Y-190442946D01*
X219980969Y-190626703D01*
X219980969Y-190626703D01*
G37*
X219980969Y-190626703D02*
X219737141Y-190755572D01*
X219294847Y-191101297D01*
X218994033Y-191479940D01*
X218888795Y-191809175D01*
X218948647Y-191955530D01*
X219390460Y-192189751D01*
X219887743Y-192182845D01*
X220267987Y-191958925D01*
X220697416Y-191656414D01*
X221121975Y-191663063D01*
X221343467Y-191813867D01*
X221504370Y-192026679D01*
X221478730Y-192212089D01*
X221227310Y-192413839D01*
X220710874Y-192675672D01*
X220473603Y-192783615D01*
X219584776Y-193267293D01*
X219007968Y-193792654D01*
X218716742Y-194389416D01*
X218668000Y-194813158D01*
X218815811Y-195562352D01*
X219252255Y-196137323D01*
X219785359Y-196454554D01*
X220677782Y-196672110D01*
X221523394Y-196576870D01*
X222001527Y-196360428D01*
X222440394Y-196015213D01*
X222771239Y-195617229D01*
X222901334Y-195279030D01*
X222759992Y-195175350D01*
X222416752Y-195031004D01*
X222386802Y-195020430D01*
X221980245Y-194928125D01*
X221691070Y-195037488D01*
X221540135Y-195173198D01*
X221090111Y-195445262D01*
X220603106Y-195478760D01*
X220206211Y-195267162D01*
X220184947Y-195242835D01*
X220078185Y-194999407D01*
X220207803Y-194764591D01*
X220605735Y-194506906D01*
X221208000Y-194234247D01*
X222020895Y-193818543D01*
X222539956Y-193350071D01*
X222809879Y-192785771D01*
X222836454Y-192665413D01*
X222826679Y-191929848D01*
X222547515Y-191301490D01*
X222061162Y-190818668D01*
X221429821Y-190519711D01*
X220715690Y-190442946D01*
X219980969Y-190626703D01*
G36*
X229423420Y-188988225D02*
X229343978Y-189265303D01*
X229336000Y-189663333D01*
X229323348Y-190131539D01*
X229237601Y-190353250D01*
X229007073Y-190420633D01*
X228743334Y-190425333D01*
X228346110Y-190451546D01*
X228183205Y-190599439D01*
X228150741Y-190972889D01*
X228150667Y-191018000D01*
X228176447Y-191413971D01*
X228322752Y-191577326D01*
X228693033Y-191610554D01*
X228748880Y-191610667D01*
X229347092Y-191610667D01*
X229251334Y-195420667D01*
X228691127Y-195474465D01*
X228311561Y-195542180D01*
X228175395Y-195717029D01*
X228183127Y-196067132D01*
X228237983Y-196393693D01*
X228383114Y-196560307D01*
X228713868Y-196632446D01*
X229043268Y-196657758D01*
X229582185Y-196660474D01*
X229949221Y-196544698D01*
X230305249Y-196254943D01*
X230355601Y-196205117D01*
X230567563Y-195983626D01*
X230709857Y-195775221D01*
X230796366Y-195509739D01*
X230840972Y-195117013D01*
X230857556Y-194526880D01*
X230860000Y-193669176D01*
X230860000Y-191610667D01*
X231283334Y-191610667D01*
X231569617Y-191566386D01*
X231686816Y-191367124D01*
X231706667Y-191018000D01*
X231674936Y-190617104D01*
X231532578Y-190453003D01*
X231285335Y-190425333D01*
X230999944Y-190374052D01*
X230844917Y-190158120D01*
X230758474Y-189765394D01*
X230648447Y-189319091D01*
X230448103Y-189098039D01*
X230142640Y-189003394D01*
X229660804Y-188924516D01*
X229423420Y-188988225D01*
X229423420Y-188988225D01*
G37*
X229423420Y-188988225D02*
X229343978Y-189265303D01*
X229336000Y-189663333D01*
X229323348Y-190131539D01*
X229237601Y-190353250D01*
X229007073Y-190420633D01*
X228743334Y-190425333D01*
X228346110Y-190451546D01*
X228183205Y-190599439D01*
X228150741Y-190972889D01*
X228150667Y-191018000D01*
X228176447Y-191413971D01*
X228322752Y-191577326D01*
X228693033Y-191610554D01*
X228748880Y-191610667D01*
X229347092Y-191610667D01*
X229251334Y-195420667D01*
X228691127Y-195474465D01*
X228311561Y-195542180D01*
X228175395Y-195717029D01*
X228183127Y-196067132D01*
X228237983Y-196393693D01*
X228383114Y-196560307D01*
X228713868Y-196632446D01*
X229043268Y-196657758D01*
X229582185Y-196660474D01*
X229949221Y-196544698D01*
X230305249Y-196254943D01*
X230355601Y-196205117D01*
X230567563Y-195983626D01*
X230709857Y-195775221D01*
X230796366Y-195509739D01*
X230840972Y-195117013D01*
X230857556Y-194526880D01*
X230860000Y-193669176D01*
X230860000Y-191610667D01*
X231283334Y-191610667D01*
X231569617Y-191566386D01*
X231686816Y-191367124D01*
X231706667Y-191018000D01*
X231674936Y-190617104D01*
X231532578Y-190453003D01*
X231285335Y-190425333D01*
X230999944Y-190374052D01*
X230844917Y-190158120D01*
X230758474Y-189765394D01*
X230648447Y-189319091D01*
X230448103Y-189098039D01*
X230142640Y-189003394D01*
X229660804Y-188924516D01*
X229423420Y-188988225D01*
G36*
X247486457Y-190481107D02*
X246711989Y-190698437D01*
X246137063Y-191177537D01*
X245755229Y-191926720D01*
X245560038Y-192954299D01*
X245559066Y-192965333D01*
X245507334Y-193558000D01*
X247009541Y-193607225D01*
X248511747Y-193656451D01*
X248399114Y-194360824D01*
X248286160Y-194857185D01*
X248143701Y-195225126D01*
X248103839Y-195285265D01*
X247753782Y-195501549D01*
X247385607Y-195425973D01*
X247099264Y-195084099D01*
X247073383Y-195021748D01*
X246923321Y-194705051D01*
X246724671Y-194617922D01*
X246345451Y-194705566D01*
X246326092Y-194711493D01*
X245928178Y-194864992D01*
X245788308Y-195059495D01*
X245876134Y-195390482D01*
X246018200Y-195680209D01*
X246474412Y-196221516D01*
X247125197Y-196568202D01*
X247864597Y-196681778D01*
X248470667Y-196571079D01*
X249010771Y-196207589D01*
X249460327Y-195590032D01*
X249785271Y-194798264D01*
X249951540Y-193912140D01*
X249940473Y-193125443D01*
X249785387Y-192411466D01*
X248443979Y-192411466D01*
X248408673Y-192663587D01*
X248079567Y-192778400D01*
X247708667Y-192796000D01*
X247254199Y-192764552D01*
X246981610Y-192684986D01*
X246946667Y-192637690D01*
X247002357Y-192372920D01*
X247111809Y-192045023D01*
X247376558Y-191693746D01*
X247737969Y-191633038D01*
X248111465Y-191867378D01*
X248207065Y-191987011D01*
X248443979Y-192411466D01*
X249785387Y-192411466D01*
X249705996Y-192045974D01*
X249295660Y-191238794D01*
X248718318Y-190713444D01*
X247982825Y-190479466D01*
X247486457Y-190481107D01*
X247486457Y-190481107D01*
G37*
X247486457Y-190481107D02*
X246711989Y-190698437D01*
X246137063Y-191177537D01*
X245755229Y-191926720D01*
X245560038Y-192954299D01*
X245559066Y-192965333D01*
X245507334Y-193558000D01*
X247009541Y-193607225D01*
X248511747Y-193656451D01*
X248399114Y-194360824D01*
X248286160Y-194857185D01*
X248143701Y-195225126D01*
X248103839Y-195285265D01*
X247753782Y-195501549D01*
X247385607Y-195425973D01*
X247099264Y-195084099D01*
X247073383Y-195021748D01*
X246923321Y-194705051D01*
X246724671Y-194617922D01*
X246345451Y-194705566D01*
X246326092Y-194711493D01*
X245928178Y-194864992D01*
X245788308Y-195059495D01*
X245876134Y-195390482D01*
X246018200Y-195680209D01*
X246474412Y-196221516D01*
X247125197Y-196568202D01*
X247864597Y-196681778D01*
X248470667Y-196571079D01*
X249010771Y-196207589D01*
X249460327Y-195590032D01*
X249785271Y-194798264D01*
X249951540Y-193912140D01*
X249940473Y-193125443D01*
X249785387Y-192411466D01*
X248443979Y-192411466D01*
X248408673Y-192663587D01*
X248079567Y-192778400D01*
X247708667Y-192796000D01*
X247254199Y-192764552D01*
X246981610Y-192684986D01*
X246946667Y-192637690D01*
X247002357Y-192372920D01*
X247111809Y-192045023D01*
X247376558Y-191693746D01*
X247737969Y-191633038D01*
X248111465Y-191867378D01*
X248207065Y-191987011D01*
X248443979Y-192411466D01*
X249785387Y-192411466D01*
X249705996Y-192045974D01*
X249295660Y-191238794D01*
X248718318Y-190713444D01*
X247982825Y-190479466D01*
X247486457Y-190481107D01*
G36*
X202481035Y-190685662D02*
X202123056Y-191208733D01*
X202091145Y-191293694D01*
X202022848Y-191656923D01*
X201965716Y-192279566D01*
X201924771Y-193082422D01*
X201905040Y-193986293D01*
X201904000Y-194243551D01*
X201904000Y-196656565D01*
X202661604Y-196716820D01*
X203419208Y-196777074D01*
X203465937Y-194423716D01*
X203490641Y-193462318D01*
X203524933Y-192785469D01*
X203575906Y-192339063D01*
X203650652Y-192068992D01*
X203756265Y-191921148D01*
X203797977Y-191890665D01*
X204140997Y-191806605D01*
X204517643Y-191943433D01*
X204693416Y-192047138D01*
X204813929Y-192176396D01*
X204889611Y-192390577D01*
X204930890Y-192749048D01*
X204948196Y-193311179D01*
X204951955Y-194136339D01*
X204952000Y-194416230D01*
X204952000Y-196656565D01*
X205714000Y-196717169D01*
X206476000Y-196777774D01*
X206476000Y-190594667D01*
X205714000Y-190594667D01*
X205237130Y-190617217D01*
X205011729Y-190709858D01*
X204952172Y-190910069D01*
X204952000Y-190928230D01*
X204931537Y-191120264D01*
X204820072Y-191141720D01*
X204542489Y-190982279D01*
X204335704Y-190843563D01*
X203625793Y-190495370D01*
X202994759Y-190445305D01*
X202481035Y-190685662D01*
X202481035Y-190685662D01*
G37*
X202481035Y-190685662D02*
X202123056Y-191208733D01*
X202091145Y-191293694D01*
X202022848Y-191656923D01*
X201965716Y-192279566D01*
X201924771Y-193082422D01*
X201905040Y-193986293D01*
X201904000Y-194243551D01*
X201904000Y-196656565D01*
X202661604Y-196716820D01*
X203419208Y-196777074D01*
X203465937Y-194423716D01*
X203490641Y-193462318D01*
X203524933Y-192785469D01*
X203575906Y-192339063D01*
X203650652Y-192068992D01*
X203756265Y-191921148D01*
X203797977Y-191890665D01*
X204140997Y-191806605D01*
X204517643Y-191943433D01*
X204693416Y-192047138D01*
X204813929Y-192176396D01*
X204889611Y-192390577D01*
X204930890Y-192749048D01*
X204948196Y-193311179D01*
X204951955Y-194136339D01*
X204952000Y-194416230D01*
X204952000Y-196656565D01*
X205714000Y-196717169D01*
X206476000Y-196777774D01*
X206476000Y-190594667D01*
X205714000Y-190594667D01*
X205237130Y-190617217D01*
X205011729Y-190709858D01*
X204952172Y-190910069D01*
X204952000Y-190928230D01*
X204931537Y-191120264D01*
X204820072Y-191141720D01*
X204542489Y-190982279D01*
X204335704Y-190843563D01*
X203625793Y-190495370D01*
X202994759Y-190445305D01*
X202481035Y-190685662D01*
G36*
X207830667Y-193642667D02*
X207831632Y-194725361D01*
X207838367Y-195515511D01*
X207856634Y-196059237D01*
X207892192Y-196402661D01*
X207950804Y-196591906D01*
X208038229Y-196673092D01*
X208160228Y-196692342D01*
X208211667Y-196692979D01*
X208702070Y-196741048D01*
X208973667Y-196797395D01*
X209354667Y-196899499D01*
X209354667Y-193849866D01*
X209353564Y-192725481D01*
X209340859Y-191895196D01*
X209302453Y-191314454D01*
X209224251Y-190938699D01*
X209092156Y-190723371D01*
X208892071Y-190623915D01*
X208609901Y-190595774D01*
X208324818Y-190594667D01*
X207830667Y-190594667D01*
X207830667Y-193642667D01*
X207830667Y-193642667D01*
G37*
X207830667Y-193642667D02*
X207831632Y-194725361D01*
X207838367Y-195515511D01*
X207856634Y-196059237D01*
X207892192Y-196402661D01*
X207950804Y-196591906D01*
X208038229Y-196673092D01*
X208160228Y-196692342D01*
X208211667Y-196692979D01*
X208702070Y-196741048D01*
X208973667Y-196797395D01*
X209354667Y-196899499D01*
X209354667Y-193849866D01*
X209353564Y-192725481D01*
X209340859Y-191895196D01*
X209302453Y-191314454D01*
X209224251Y-190938699D01*
X209092156Y-190723371D01*
X208892071Y-190623915D01*
X208609901Y-190595774D01*
X208324818Y-190594667D01*
X207830667Y-190594667D01*
X207830667Y-193642667D01*
G36*
X238395388Y-190626765D02*
X238235602Y-190801678D01*
X238132271Y-191013337D01*
X238058661Y-191341008D01*
X238010415Y-191836183D01*
X237983175Y-192550351D01*
X237972585Y-193535004D01*
X237972000Y-193916558D01*
X237972000Y-196655094D01*
X238649334Y-196719689D01*
X239326667Y-196784283D01*
X239326667Y-194549991D01*
X239332894Y-193513908D01*
X239357096Y-192769749D01*
X239407555Y-192270907D01*
X239492554Y-191970780D01*
X239620374Y-191822760D01*
X239799297Y-191780244D01*
X239818917Y-191780000D01*
X240083971Y-191818300D01*
X240272664Y-191964712D01*
X240397398Y-192266500D01*
X240470576Y-192770932D01*
X240504600Y-193525272D01*
X240512000Y-194421482D01*
X240512000Y-196656565D01*
X241274000Y-196717169D01*
X242036000Y-196777774D01*
X242036000Y-194278887D01*
X242039053Y-193308643D01*
X242052293Y-192626843D01*
X242081842Y-192183288D01*
X242133824Y-191927782D01*
X242214362Y-191810124D01*
X242329578Y-191780117D01*
X242340801Y-191780000D01*
X242612441Y-191816588D01*
X242805782Y-191958021D01*
X242933613Y-192251800D01*
X243008725Y-192745428D01*
X243043906Y-193486407D01*
X243052000Y-194421482D01*
X243052000Y-196656565D01*
X243814000Y-196717169D01*
X244576000Y-196777774D01*
X244576000Y-190594667D01*
X243814000Y-190594667D01*
X243319514Y-190625043D01*
X243090804Y-190732285D01*
X243052000Y-190862477D01*
X243010143Y-191009186D01*
X242835830Y-190979268D01*
X242481680Y-190777811D01*
X241818583Y-190492111D01*
X241255482Y-190494665D01*
X240832492Y-190777597D01*
X240640928Y-191139217D01*
X240484404Y-191196044D01*
X240137005Y-190983316D01*
X240020150Y-190888241D01*
X239423092Y-190525171D01*
X238860734Y-190437005D01*
X238395388Y-190626765D01*
X238395388Y-190626765D01*
G37*
X238395388Y-190626765D02*
X238235602Y-190801678D01*
X238132271Y-191013337D01*
X238058661Y-191341008D01*
X238010415Y-191836183D01*
X237983175Y-192550351D01*
X237972585Y-193535004D01*
X237972000Y-193916558D01*
X237972000Y-196655094D01*
X238649334Y-196719689D01*
X239326667Y-196784283D01*
X239326667Y-194549991D01*
X239332894Y-193513908D01*
X239357096Y-192769749D01*
X239407555Y-192270907D01*
X239492554Y-191970780D01*
X239620374Y-191822760D01*
X239799297Y-191780244D01*
X239818917Y-191780000D01*
X240083971Y-191818300D01*
X240272664Y-191964712D01*
X240397398Y-192266500D01*
X240470576Y-192770932D01*
X240504600Y-193525272D01*
X240512000Y-194421482D01*
X240512000Y-196656565D01*
X241274000Y-196717169D01*
X242036000Y-196777774D01*
X242036000Y-194278887D01*
X242039053Y-193308643D01*
X242052293Y-192626843D01*
X242081842Y-192183288D01*
X242133824Y-191927782D01*
X242214362Y-191810124D01*
X242329578Y-191780117D01*
X242340801Y-191780000D01*
X242612441Y-191816588D01*
X242805782Y-191958021D01*
X242933613Y-192251800D01*
X243008725Y-192745428D01*
X243043906Y-193486407D01*
X243052000Y-194421482D01*
X243052000Y-196656565D01*
X243814000Y-196717169D01*
X244576000Y-196777774D01*
X244576000Y-190594667D01*
X243814000Y-190594667D01*
X243319514Y-190625043D01*
X243090804Y-190732285D01*
X243052000Y-190862477D01*
X243010143Y-191009186D01*
X242835830Y-190979268D01*
X242481680Y-190777811D01*
X241818583Y-190492111D01*
X241255482Y-190494665D01*
X240832492Y-190777597D01*
X240640928Y-191139217D01*
X240484404Y-191196044D01*
X240137005Y-190983316D01*
X240020150Y-190888241D01*
X239423092Y-190525171D01*
X238860734Y-190437005D01*
X238395388Y-190626765D01*
G36*
X232951150Y-190673896D02*
X232620460Y-191088803D01*
X232388310Y-191747630D01*
X232253828Y-192570549D01*
X232216140Y-193477734D01*
X232274373Y-194389357D01*
X232427656Y-195225590D01*
X232675115Y-195906607D01*
X233013212Y-196350493D01*
X233628435Y-196645469D01*
X234275923Y-196632975D01*
X234716989Y-196427065D01*
X234926194Y-196293961D01*
X235038593Y-196309038D01*
X235084263Y-196531500D01*
X235093281Y-197020554D01*
X235093334Y-197167898D01*
X235101767Y-197728358D01*
X235155319Y-198039083D01*
X235296372Y-198188997D01*
X235567307Y-198267021D01*
X235622500Y-198278167D01*
X235937991Y-198344040D01*
X236178809Y-198373690D01*
X236354999Y-198328867D01*
X236476604Y-198171323D01*
X236553666Y-197862808D01*
X236596230Y-197365073D01*
X236614337Y-196639867D01*
X236618031Y-195648943D01*
X236617334Y-194489333D01*
X236617334Y-194357793D01*
X235061105Y-194357793D01*
X235009339Y-194969990D01*
X234909847Y-195268388D01*
X234552472Y-195492269D01*
X234181540Y-195423501D01*
X233908889Y-195084028D01*
X233903809Y-195070976D01*
X233818279Y-194677830D01*
X233758602Y-194082194D01*
X233738667Y-193481069D01*
X233765385Y-192769638D01*
X233859462Y-192294642D01*
X234041788Y-191957051D01*
X234066725Y-191925759D01*
X234344365Y-191660560D01*
X234588992Y-191654511D01*
X234701725Y-191713267D01*
X234852790Y-191860300D01*
X234952147Y-192125709D01*
X235013765Y-192578298D01*
X235051614Y-193286870D01*
X235057581Y-193465988D01*
X235061105Y-194357793D01*
X236617334Y-194357793D01*
X236617334Y-190594667D01*
X235855334Y-190594667D01*
X235360106Y-190625325D01*
X235131354Y-190733132D01*
X235093334Y-190860957D01*
X235049908Y-191007784D01*
X234874124Y-190944091D01*
X234647164Y-190776290D01*
X234033070Y-190475692D01*
X233393108Y-190474257D01*
X232951150Y-190673896D01*
X232951150Y-190673896D01*
G37*
X232951150Y-190673896D02*
X232620460Y-191088803D01*
X232388310Y-191747630D01*
X232253828Y-192570549D01*
X232216140Y-193477734D01*
X232274373Y-194389357D01*
X232427656Y-195225590D01*
X232675115Y-195906607D01*
X233013212Y-196350493D01*
X233628435Y-196645469D01*
X234275923Y-196632975D01*
X234716989Y-196427065D01*
X234926194Y-196293961D01*
X235038593Y-196309038D01*
X235084263Y-196531500D01*
X235093281Y-197020554D01*
X235093334Y-197167898D01*
X235101767Y-197728358D01*
X235155319Y-198039083D01*
X235296372Y-198188997D01*
X235567307Y-198267021D01*
X235622500Y-198278167D01*
X235937991Y-198344040D01*
X236178809Y-198373690D01*
X236354999Y-198328867D01*
X236476604Y-198171323D01*
X236553666Y-197862808D01*
X236596230Y-197365073D01*
X236614337Y-196639867D01*
X236618031Y-195648943D01*
X236617334Y-194489333D01*
X236617334Y-194357793D01*
X235061105Y-194357793D01*
X235009339Y-194969990D01*
X234909847Y-195268388D01*
X234552472Y-195492269D01*
X234181540Y-195423501D01*
X233908889Y-195084028D01*
X233903809Y-195070976D01*
X233818279Y-194677830D01*
X233758602Y-194082194D01*
X233738667Y-193481069D01*
X233765385Y-192769638D01*
X233859462Y-192294642D01*
X234041788Y-191957051D01*
X234066725Y-191925759D01*
X234344365Y-191660560D01*
X234588992Y-191654511D01*
X234701725Y-191713267D01*
X234852790Y-191860300D01*
X234952147Y-192125709D01*
X235013765Y-192578298D01*
X235051614Y-193286870D01*
X235057581Y-193465988D01*
X235061105Y-194357793D01*
X236617334Y-194357793D01*
X236617334Y-190594667D01*
X235855334Y-190594667D01*
X235360106Y-190625325D01*
X235131354Y-190733132D01*
X235093334Y-190860957D01*
X235049908Y-191007784D01*
X234874124Y-190944091D01*
X234647164Y-190776290D01*
X234033070Y-190475692D01*
X233393108Y-190474257D01*
X232951150Y-190673896D01*
G36*
X195657388Y-190326255D02*
X195638667Y-190576309D01*
X195714319Y-190967158D01*
X195991042Y-191153242D01*
X196041736Y-191167116D01*
X196273767Y-191258086D01*
X196390701Y-191441472D01*
X196426694Y-191809601D01*
X196422736Y-192197027D01*
X196501610Y-193003604D01*
X196800599Y-193571923D01*
X197346594Y-193930216D01*
X198166483Y-194106713D01*
X198248761Y-194114162D01*
X198922282Y-194225911D01*
X199353382Y-194416897D01*
X199504420Y-194665320D01*
X199457305Y-194814024D01*
X199351854Y-194910062D01*
X199128516Y-194992965D01*
X198728598Y-195075638D01*
X198093406Y-195170986D01*
X197446795Y-195256091D01*
X196700498Y-195439735D01*
X196233172Y-195785192D01*
X196009435Y-196328278D01*
X195977334Y-196743403D01*
X196100079Y-197466951D01*
X196482495Y-197987592D01*
X197145847Y-198331789D01*
X197288565Y-198374792D01*
X198095566Y-198506598D01*
X199028654Y-198524097D01*
X199899728Y-198427986D01*
X200167453Y-198364115D01*
X200705358Y-198083926D01*
X201047872Y-197661652D01*
X201176411Y-197179439D01*
X201103079Y-196855139D01*
X199856223Y-196855139D01*
X199665195Y-197095603D01*
X199627969Y-197123918D01*
X199177496Y-197302022D01*
X198574271Y-197360179D01*
X197980311Y-197297231D01*
X197590852Y-197138487D01*
X197358385Y-196847188D01*
X197439357Y-196577331D01*
X197808778Y-196362961D01*
X198233588Y-196262943D01*
X198934374Y-196194566D01*
X199392789Y-196254077D01*
X199685972Y-196457080D01*
X199769184Y-196573584D01*
X199856223Y-196855139D01*
X201103079Y-196855139D01*
X201072393Y-196719436D01*
X200717235Y-196363788D01*
X200630012Y-196319372D01*
X200343812Y-196169801D01*
X200347278Y-196047400D01*
X200550017Y-195892195D01*
X200842631Y-195508506D01*
X200870387Y-195021223D01*
X200641396Y-194527210D01*
X200416156Y-194293657D01*
X199944311Y-193902889D01*
X200337206Y-193561111D01*
X200697047Y-193051877D01*
X200819773Y-192535125D01*
X199337221Y-192535125D01*
X199186728Y-192973411D01*
X198871401Y-193236219D01*
X198450235Y-193260066D01*
X198187134Y-193143483D01*
X198016004Y-192870963D01*
X197941956Y-192408412D01*
X197941600Y-192372667D01*
X198050707Y-191858080D01*
X198322183Y-191540188D01*
X198672265Y-191443560D01*
X199017188Y-191592764D01*
X199263882Y-191984844D01*
X199337221Y-192535125D01*
X200819773Y-192535125D01*
X200849026Y-192411953D01*
X200771951Y-191781146D01*
X200646424Y-191521195D01*
X200060970Y-190917823D01*
X199294120Y-190545370D01*
X198434684Y-190430581D01*
X197578990Y-190597332D01*
X197190776Y-190675940D01*
X196800827Y-190557305D01*
X196574313Y-190427998D01*
X196076325Y-190159981D01*
X195786014Y-190123636D01*
X195657388Y-190326255D01*
X195657388Y-190326255D01*
G37*
X195657388Y-190326255D02*
X195638667Y-190576309D01*
X195714319Y-190967158D01*
X195991042Y-191153242D01*
X196041736Y-191167116D01*
X196273767Y-191258086D01*
X196390701Y-191441472D01*
X196426694Y-191809601D01*
X196422736Y-192197027D01*
X196501610Y-193003604D01*
X196800599Y-193571923D01*
X197346594Y-193930216D01*
X198166483Y-194106713D01*
X198248761Y-194114162D01*
X198922282Y-194225911D01*
X199353382Y-194416897D01*
X199504420Y-194665320D01*
X199457305Y-194814024D01*
X199351854Y-194910062D01*
X199128516Y-194992965D01*
X198728598Y-195075638D01*
X198093406Y-195170986D01*
X197446795Y-195256091D01*
X196700498Y-195439735D01*
X196233172Y-195785192D01*
X196009435Y-196328278D01*
X195977334Y-196743403D01*
X196100079Y-197466951D01*
X196482495Y-197987592D01*
X197145847Y-198331789D01*
X197288565Y-198374792D01*
X198095566Y-198506598D01*
X199028654Y-198524097D01*
X199899728Y-198427986D01*
X200167453Y-198364115D01*
X200705358Y-198083926D01*
X201047872Y-197661652D01*
X201176411Y-197179439D01*
X201103079Y-196855139D01*
X199856223Y-196855139D01*
X199665195Y-197095603D01*
X199627969Y-197123918D01*
X199177496Y-197302022D01*
X198574271Y-197360179D01*
X197980311Y-197297231D01*
X197590852Y-197138487D01*
X197358385Y-196847188D01*
X197439357Y-196577331D01*
X197808778Y-196362961D01*
X198233588Y-196262943D01*
X198934374Y-196194566D01*
X199392789Y-196254077D01*
X199685972Y-196457080D01*
X199769184Y-196573584D01*
X199856223Y-196855139D01*
X201103079Y-196855139D01*
X201072393Y-196719436D01*
X200717235Y-196363788D01*
X200630012Y-196319372D01*
X200343812Y-196169801D01*
X200347278Y-196047400D01*
X200550017Y-195892195D01*
X200842631Y-195508506D01*
X200870387Y-195021223D01*
X200641396Y-194527210D01*
X200416156Y-194293657D01*
X199944311Y-193902889D01*
X200337206Y-193561111D01*
X200697047Y-193051877D01*
X200819773Y-192535125D01*
X199337221Y-192535125D01*
X199186728Y-192973411D01*
X198871401Y-193236219D01*
X198450235Y-193260066D01*
X198187134Y-193143483D01*
X198016004Y-192870963D01*
X197941956Y-192408412D01*
X197941600Y-192372667D01*
X198050707Y-191858080D01*
X198322183Y-191540188D01*
X198672265Y-191443560D01*
X199017188Y-191592764D01*
X199263882Y-191984844D01*
X199337221Y-192535125D01*
X200819773Y-192535125D01*
X200849026Y-192411953D01*
X200771951Y-191781146D01*
X200646424Y-191521195D01*
X200060970Y-190917823D01*
X199294120Y-190545370D01*
X198434684Y-190430581D01*
X197578990Y-190597332D01*
X197190776Y-190675940D01*
X196800827Y-190557305D01*
X196574313Y-190427998D01*
X196076325Y-190159981D01*
X195786014Y-190123636D01*
X195657388Y-190326255D01*
G36*
X224099917Y-193591547D02*
X224370764Y-194619408D01*
X224631364Y-195567566D01*
X224863850Y-196374066D01*
X225050354Y-196976954D01*
X225173008Y-197314275D01*
X225174448Y-197317378D01*
X225637687Y-197952944D01*
X226331402Y-198353823D01*
X227052444Y-198511765D01*
X227812000Y-198597378D01*
X227812000Y-197898022D01*
X227794881Y-197455059D01*
X227692372Y-197254631D01*
X227427753Y-197200718D01*
X227253200Y-197198667D01*
X226817743Y-197158302D01*
X226517112Y-197014407D01*
X226349564Y-196732778D01*
X226313354Y-196279209D01*
X226406736Y-195619499D01*
X226627967Y-194719441D01*
X226975301Y-193544834D01*
X227053931Y-193292503D01*
X227326702Y-192424021D01*
X227566965Y-191662489D01*
X227754996Y-191070161D01*
X227871072Y-190709290D01*
X227895283Y-190637000D01*
X227830034Y-190499992D01*
X227485463Y-190434500D01*
X227155118Y-190425333D01*
X226339531Y-190425333D01*
X225948892Y-192205348D01*
X225782343Y-192916345D01*
X225631600Y-193473423D01*
X225515041Y-193813707D01*
X225457460Y-193886485D01*
X225381407Y-193688260D01*
X225258169Y-193234583D01*
X225107534Y-192601981D01*
X225008068Y-192148803D01*
X224659470Y-190510000D01*
X223969178Y-190458880D01*
X223278887Y-190407761D01*
X224099917Y-193591547D01*
X224099917Y-193591547D01*
G37*
X224099917Y-193591547D02*
X224370764Y-194619408D01*
X224631364Y-195567566D01*
X224863850Y-196374066D01*
X225050354Y-196976954D01*
X225173008Y-197314275D01*
X225174448Y-197317378D01*
X225637687Y-197952944D01*
X226331402Y-198353823D01*
X227052444Y-198511765D01*
X227812000Y-198597378D01*
X227812000Y-197898022D01*
X227794881Y-197455059D01*
X227692372Y-197254631D01*
X227427753Y-197200718D01*
X227253200Y-197198667D01*
X226817743Y-197158302D01*
X226517112Y-197014407D01*
X226349564Y-196732778D01*
X226313354Y-196279209D01*
X226406736Y-195619499D01*
X226627967Y-194719441D01*
X226975301Y-193544834D01*
X227053931Y-193292503D01*
X227326702Y-192424021D01*
X227566965Y-191662489D01*
X227754996Y-191070161D01*
X227871072Y-190709290D01*
X227895283Y-190637000D01*
X227830034Y-190499992D01*
X227485463Y-190434500D01*
X227155118Y-190425333D01*
X226339531Y-190425333D01*
X225948892Y-192205348D01*
X225782343Y-192916345D01*
X225631600Y-193473423D01*
X225515041Y-193813707D01*
X225457460Y-193886485D01*
X225381407Y-193688260D01*
X225258169Y-193234583D01*
X225107534Y-192601981D01*
X225008068Y-192148803D01*
X224659470Y-190510000D01*
X223969178Y-190458880D01*
X223278887Y-190407761D01*
X224099917Y-193591547D01*
G36*
X182070045Y-206229017D02*
X181947576Y-206463362D01*
X181922758Y-206947495D01*
X181922667Y-207020000D01*
X181922667Y-207866667D01*
X183446667Y-207866667D01*
X183446667Y-207125833D01*
X183426697Y-206659406D01*
X183322002Y-206423708D01*
X183065406Y-206311259D01*
X182917500Y-206279167D01*
X182367557Y-206186828D01*
X182070045Y-206229017D01*
X182070045Y-206229017D01*
G37*
X182070045Y-206229017D02*
X181947576Y-206463362D01*
X181922758Y-206947495D01*
X181922667Y-207020000D01*
X181922667Y-207866667D01*
X183446667Y-207866667D01*
X183446667Y-207125833D01*
X183426697Y-206659406D01*
X183322002Y-206423708D01*
X183065406Y-206311259D01*
X182917500Y-206279167D01*
X182367557Y-206186828D01*
X182070045Y-206229017D01*
G36*
X178057552Y-208651482D02*
X177473157Y-208870512D01*
X177344530Y-208967333D01*
X176822210Y-209641231D01*
X176491340Y-210504834D01*
X176352317Y-211471549D01*
X176405535Y-212454784D01*
X176651390Y-213367944D01*
X177090278Y-214124439D01*
X177319881Y-214363692D01*
X177885433Y-214664867D01*
X178591674Y-214763580D01*
X179303125Y-214653394D01*
X179689190Y-214476239D01*
X180221239Y-213956314D01*
X180594842Y-213215550D01*
X180805875Y-212334571D01*
X180850215Y-211394000D01*
X180833620Y-211273340D01*
X179345566Y-211273340D01*
X179340104Y-211967211D01*
X179278923Y-212627471D01*
X179166020Y-213140977D01*
X179063495Y-213346510D01*
X178689130Y-213600319D01*
X178312878Y-213551699D01*
X178034138Y-213215646D01*
X178023809Y-213189643D01*
X177919167Y-212698314D01*
X177868914Y-212009076D01*
X177872849Y-211258258D01*
X177930771Y-210582191D01*
X178028273Y-210151949D01*
X178285181Y-209820190D01*
X178637007Y-209766143D01*
X178994715Y-209983168D01*
X179173342Y-210237333D01*
X179291311Y-210659000D01*
X179345566Y-211273340D01*
X180833620Y-211273340D01*
X180723740Y-210474460D01*
X180422327Y-209656575D01*
X179966989Y-209044160D01*
X179437030Y-208742190D01*
X178756364Y-208610003D01*
X178057552Y-208651482D01*
X178057552Y-208651482D01*
G37*
X178057552Y-208651482D02*
X177473157Y-208870512D01*
X177344530Y-208967333D01*
X176822210Y-209641231D01*
X176491340Y-210504834D01*
X176352317Y-211471549D01*
X176405535Y-212454784D01*
X176651390Y-213367944D01*
X177090278Y-214124439D01*
X177319881Y-214363692D01*
X177885433Y-214664867D01*
X178591674Y-214763580D01*
X179303125Y-214653394D01*
X179689190Y-214476239D01*
X180221239Y-213956314D01*
X180594842Y-213215550D01*
X180805875Y-212334571D01*
X180850215Y-211394000D01*
X180833620Y-211273340D01*
X179345566Y-211273340D01*
X179340104Y-211967211D01*
X179278923Y-212627471D01*
X179166020Y-213140977D01*
X179063495Y-213346510D01*
X178689130Y-213600319D01*
X178312878Y-213551699D01*
X178034138Y-213215646D01*
X178023809Y-213189643D01*
X177919167Y-212698314D01*
X177868914Y-212009076D01*
X177872849Y-211258258D01*
X177930771Y-210582191D01*
X178028273Y-210151949D01*
X178285181Y-209820190D01*
X178637007Y-209766143D01*
X178994715Y-209983168D01*
X179173342Y-210237333D01*
X179291311Y-210659000D01*
X179345566Y-211273340D01*
X180833620Y-211273340D01*
X180723740Y-210474460D01*
X180422327Y-209656575D01*
X179966989Y-209044160D01*
X179437030Y-208742190D01*
X178756364Y-208610003D01*
X178057552Y-208651482D01*
G36*
X184801334Y-214640000D02*
X185382590Y-214640000D01*
X185826780Y-214579952D01*
X186045720Y-214367244D01*
X186074269Y-214292086D01*
X186162978Y-214075338D01*
X186284659Y-214078275D01*
X186528901Y-214315730D01*
X186585594Y-214376753D01*
X187122706Y-214733442D01*
X187738411Y-214786531D01*
X188320623Y-214545054D01*
X188767593Y-214107934D01*
X189062060Y-213501889D01*
X189222535Y-212672489D01*
X189267343Y-211761333D01*
X189248050Y-211253862D01*
X187803966Y-211253862D01*
X187796249Y-211945099D01*
X187735364Y-212608764D01*
X187625848Y-213132318D01*
X187515758Y-213363865D01*
X187149846Y-213597699D01*
X186760169Y-213554253D01*
X186500625Y-213296465D01*
X186395347Y-212923607D01*
X186335265Y-212350439D01*
X186318351Y-211674462D01*
X186342575Y-210993178D01*
X186405908Y-210404088D01*
X186506320Y-210004693D01*
X186571199Y-209905418D01*
X186974138Y-209752483D01*
X187373432Y-209904404D01*
X187641749Y-210238833D01*
X187753978Y-210647594D01*
X187803966Y-211253862D01*
X189248050Y-211253862D01*
X189223916Y-210619088D01*
X189067767Y-209767575D01*
X188789037Y-209174861D01*
X188377869Y-208809011D01*
X188351639Y-208795055D01*
X187735088Y-208571966D01*
X187211420Y-208629511D01*
X186771503Y-208894957D01*
X186325334Y-209245914D01*
X186325334Y-206715435D01*
X185563334Y-206654830D01*
X184801334Y-206594226D01*
X184801334Y-214640000D01*
X184801334Y-214640000D01*
G37*
X184801334Y-214640000D02*
X185382590Y-214640000D01*
X185826780Y-214579952D01*
X186045720Y-214367244D01*
X186074269Y-214292086D01*
X186162978Y-214075338D01*
X186284659Y-214078275D01*
X186528901Y-214315730D01*
X186585594Y-214376753D01*
X187122706Y-214733442D01*
X187738411Y-214786531D01*
X188320623Y-214545054D01*
X188767593Y-214107934D01*
X189062060Y-213501889D01*
X189222535Y-212672489D01*
X189267343Y-211761333D01*
X189248050Y-211253862D01*
X187803966Y-211253862D01*
X187796249Y-211945099D01*
X187735364Y-212608764D01*
X187625848Y-213132318D01*
X187515758Y-213363865D01*
X187149846Y-213597699D01*
X186760169Y-213554253D01*
X186500625Y-213296465D01*
X186395347Y-212923607D01*
X186335265Y-212350439D01*
X186318351Y-211674462D01*
X186342575Y-210993178D01*
X186405908Y-210404088D01*
X186506320Y-210004693D01*
X186571199Y-209905418D01*
X186974138Y-209752483D01*
X187373432Y-209904404D01*
X187641749Y-210238833D01*
X187753978Y-210647594D01*
X187803966Y-211253862D01*
X189248050Y-211253862D01*
X189223916Y-210619088D01*
X189067767Y-209767575D01*
X188789037Y-209174861D01*
X188377869Y-208809011D01*
X188351639Y-208795055D01*
X187735088Y-208571966D01*
X187211420Y-208629511D01*
X186771503Y-208894957D01*
X186325334Y-209245914D01*
X186325334Y-206715435D01*
X185563334Y-206654830D01*
X184801334Y-206594226D01*
X184801334Y-214640000D01*
G36*
X193230316Y-210957000D02*
X193210120Y-211903852D01*
X193186325Y-212565086D01*
X193149447Y-212993697D01*
X193089999Y-213242682D01*
X192998493Y-213365037D01*
X192865445Y-213413759D01*
X192788370Y-213425940D01*
X192360292Y-213359888D01*
X192068703Y-213188029D01*
X191933346Y-213031169D01*
X191841410Y-212808517D01*
X191784754Y-212458164D01*
X191755236Y-211918201D01*
X191744714Y-211126719D01*
X191744000Y-210719089D01*
X191744000Y-208544000D01*
X190220000Y-208544000D01*
X190220000Y-214640000D01*
X190982000Y-214640000D01*
X191484245Y-214606759D01*
X191713017Y-214493731D01*
X191744000Y-214386000D01*
X191767857Y-214191955D01*
X191887607Y-214160537D01*
X192175523Y-214300234D01*
X192459574Y-214470034D01*
X193179438Y-214766684D01*
X193824696Y-214739320D01*
X194376364Y-214393697D01*
X194531693Y-214226404D01*
X194642536Y-214046983D01*
X194716396Y-213798905D01*
X194760770Y-213425643D01*
X194783160Y-212870670D01*
X194791065Y-212077458D01*
X194792000Y-211261030D01*
X194792000Y-208544000D01*
X193277299Y-208544000D01*
X193230316Y-210957000D01*
X193230316Y-210957000D01*
G37*
X193230316Y-210957000D02*
X193210120Y-211903852D01*
X193186325Y-212565086D01*
X193149447Y-212993697D01*
X193089999Y-213242682D01*
X192998493Y-213365037D01*
X192865445Y-213413759D01*
X192788370Y-213425940D01*
X192360292Y-213359888D01*
X192068703Y-213188029D01*
X191933346Y-213031169D01*
X191841410Y-212808517D01*
X191784754Y-212458164D01*
X191755236Y-211918201D01*
X191744714Y-211126719D01*
X191744000Y-210719089D01*
X191744000Y-208544000D01*
X190220000Y-208544000D01*
X190220000Y-214640000D01*
X190982000Y-214640000D01*
X191484245Y-214606759D01*
X191713017Y-214493731D01*
X191744000Y-214386000D01*
X191767857Y-214191955D01*
X191887607Y-214160537D01*
X192175523Y-214300234D01*
X192459574Y-214470034D01*
X193179438Y-214766684D01*
X193824696Y-214739320D01*
X194376364Y-214393697D01*
X194531693Y-214226404D01*
X194642536Y-214046983D01*
X194716396Y-213798905D01*
X194760770Y-213425643D01*
X194783160Y-212870670D01*
X194791065Y-212077458D01*
X194792000Y-211261030D01*
X194792000Y-208544000D01*
X193277299Y-208544000D01*
X193230316Y-210957000D01*
G36*
X196911420Y-207106892D02*
X196831978Y-207383970D01*
X196824000Y-207782000D01*
X196811348Y-208250206D01*
X196725601Y-208471916D01*
X196495073Y-208539300D01*
X196231334Y-208544000D01*
X195834110Y-208570213D01*
X195671205Y-208718105D01*
X195638741Y-209091556D01*
X195638667Y-209136667D01*
X195664447Y-209532638D01*
X195810752Y-209695993D01*
X196181033Y-209729221D01*
X196236880Y-209729333D01*
X196835092Y-209729333D01*
X196739334Y-213539333D01*
X196179127Y-213593132D01*
X195799561Y-213660846D01*
X195663395Y-213835696D01*
X195671127Y-214185798D01*
X195725983Y-214512359D01*
X195871114Y-214678974D01*
X196201868Y-214751113D01*
X196531268Y-214776425D01*
X197070185Y-214779140D01*
X197437221Y-214663364D01*
X197793249Y-214373610D01*
X197843601Y-214323784D01*
X198055563Y-214102293D01*
X198197857Y-213893888D01*
X198284366Y-213628405D01*
X198328972Y-213235680D01*
X198345556Y-212645547D01*
X198348000Y-211787842D01*
X198348000Y-209729333D01*
X198771334Y-209729333D01*
X199057617Y-209685053D01*
X199174816Y-209485790D01*
X199194667Y-209136667D01*
X199162936Y-208735771D01*
X199020578Y-208571670D01*
X198773335Y-208544000D01*
X198487944Y-208492718D01*
X198332917Y-208276787D01*
X198246474Y-207884061D01*
X198136447Y-207437758D01*
X197936103Y-207216706D01*
X197630640Y-207122061D01*
X197148804Y-207043182D01*
X196911420Y-207106892D01*
X196911420Y-207106892D01*
G37*
X196911420Y-207106892D02*
X196831978Y-207383970D01*
X196824000Y-207782000D01*
X196811348Y-208250206D01*
X196725601Y-208471916D01*
X196495073Y-208539300D01*
X196231334Y-208544000D01*
X195834110Y-208570213D01*
X195671205Y-208718105D01*
X195638741Y-209091556D01*
X195638667Y-209136667D01*
X195664447Y-209532638D01*
X195810752Y-209695993D01*
X196181033Y-209729221D01*
X196236880Y-209729333D01*
X196835092Y-209729333D01*
X196739334Y-213539333D01*
X196179127Y-213593132D01*
X195799561Y-213660846D01*
X195663395Y-213835696D01*
X195671127Y-214185798D01*
X195725983Y-214512359D01*
X195871114Y-214678974D01*
X196201868Y-214751113D01*
X196531268Y-214776425D01*
X197070185Y-214779140D01*
X197437221Y-214663364D01*
X197793249Y-214373610D01*
X197843601Y-214323784D01*
X198055563Y-214102293D01*
X198197857Y-213893888D01*
X198284366Y-213628405D01*
X198328972Y-213235680D01*
X198345556Y-212645547D01*
X198348000Y-211787842D01*
X198348000Y-209729333D01*
X198771334Y-209729333D01*
X199057617Y-209685053D01*
X199174816Y-209485790D01*
X199194667Y-209136667D01*
X199162936Y-208735771D01*
X199020578Y-208571670D01*
X198773335Y-208544000D01*
X198487944Y-208492718D01*
X198332917Y-208276787D01*
X198246474Y-207884061D01*
X198136447Y-207437758D01*
X197936103Y-207216706D01*
X197630640Y-207122061D01*
X197148804Y-207043182D01*
X196911420Y-207106892D01*
G36*
X201015636Y-208745370D02*
X200771808Y-208874238D01*
X200329514Y-209219963D01*
X200028699Y-209598607D01*
X199923461Y-209927842D01*
X199983313Y-210074197D01*
X200425127Y-210308418D01*
X200922410Y-210301512D01*
X201302654Y-210077591D01*
X201732083Y-209775081D01*
X202156642Y-209781730D01*
X202378134Y-209932533D01*
X202539036Y-210145346D01*
X202513397Y-210330755D01*
X202261977Y-210532506D01*
X201745541Y-210794338D01*
X201508270Y-210902282D01*
X200619443Y-211385959D01*
X200042635Y-211911321D01*
X199751409Y-212508083D01*
X199702667Y-212931825D01*
X199850478Y-213681019D01*
X200286921Y-214255990D01*
X200820026Y-214573220D01*
X201712448Y-214790777D01*
X202558060Y-214695536D01*
X203036193Y-214479095D01*
X203475061Y-214133880D01*
X203805906Y-213735896D01*
X203936000Y-213397697D01*
X203794658Y-213294017D01*
X203451418Y-213149671D01*
X203421469Y-213139097D01*
X203014912Y-213046791D01*
X202725737Y-213156155D01*
X202574802Y-213291865D01*
X202124778Y-213563929D01*
X201637773Y-213597427D01*
X201240877Y-213385829D01*
X201219614Y-213361501D01*
X201112852Y-213118074D01*
X201242470Y-212883258D01*
X201640402Y-212625573D01*
X202242667Y-212352914D01*
X203055561Y-211937210D01*
X203574622Y-211468737D01*
X203844545Y-210904437D01*
X203871121Y-210784080D01*
X203861345Y-210048514D01*
X203582182Y-209420157D01*
X203095829Y-208937335D01*
X202464487Y-208638378D01*
X201750356Y-208561613D01*
X201015636Y-208745370D01*
X201015636Y-208745370D01*
G37*
X201015636Y-208745370D02*
X200771808Y-208874238D01*
X200329514Y-209219963D01*
X200028699Y-209598607D01*
X199923461Y-209927842D01*
X199983313Y-210074197D01*
X200425127Y-210308418D01*
X200922410Y-210301512D01*
X201302654Y-210077591D01*
X201732083Y-209775081D01*
X202156642Y-209781730D01*
X202378134Y-209932533D01*
X202539036Y-210145346D01*
X202513397Y-210330755D01*
X202261977Y-210532506D01*
X201745541Y-210794338D01*
X201508270Y-210902282D01*
X200619443Y-211385959D01*
X200042635Y-211911321D01*
X199751409Y-212508083D01*
X199702667Y-212931825D01*
X199850478Y-213681019D01*
X200286921Y-214255990D01*
X200820026Y-214573220D01*
X201712448Y-214790777D01*
X202558060Y-214695536D01*
X203036193Y-214479095D01*
X203475061Y-214133880D01*
X203805906Y-213735896D01*
X203936000Y-213397697D01*
X203794658Y-213294017D01*
X203451418Y-213149671D01*
X203421469Y-213139097D01*
X203014912Y-213046791D01*
X202725737Y-213156155D01*
X202574802Y-213291865D01*
X202124778Y-213563929D01*
X201637773Y-213597427D01*
X201240877Y-213385829D01*
X201219614Y-213361501D01*
X201112852Y-213118074D01*
X201242470Y-212883258D01*
X201640402Y-212625573D01*
X202242667Y-212352914D01*
X203055561Y-211937210D01*
X203574622Y-211468737D01*
X203844545Y-210904437D01*
X203871121Y-210784080D01*
X203861345Y-210048514D01*
X203582182Y-209420157D01*
X203095829Y-208937335D01*
X202464487Y-208638378D01*
X201750356Y-208561613D01*
X201015636Y-208745370D01*
G36*
X181922667Y-211761333D02*
X181923632Y-212844028D01*
X181930367Y-213634177D01*
X181948634Y-214177903D01*
X181984192Y-214521328D01*
X182042804Y-214710572D01*
X182130229Y-214791759D01*
X182252228Y-214811008D01*
X182303667Y-214811645D01*
X182794070Y-214859714D01*
X183065667Y-214916062D01*
X183446667Y-215018166D01*
X183446667Y-211968533D01*
X183445564Y-210844148D01*
X183432859Y-210013863D01*
X183394453Y-209433121D01*
X183316251Y-209057365D01*
X183184156Y-208842038D01*
X182984071Y-208742582D01*
X182701901Y-208714441D01*
X182416818Y-208713333D01*
X181922667Y-208713333D01*
X181922667Y-211761333D01*
X181922667Y-211761333D01*
G37*
X181922667Y-211761333D02*
X181923632Y-212844028D01*
X181930367Y-213634177D01*
X181948634Y-214177903D01*
X181984192Y-214521328D01*
X182042804Y-214710572D01*
X182130229Y-214791759D01*
X182252228Y-214811008D01*
X182303667Y-214811645D01*
X182794070Y-214859714D01*
X183065667Y-214916062D01*
X183446667Y-215018166D01*
X183446667Y-211968533D01*
X183445564Y-210844148D01*
X183432859Y-210013863D01*
X183394453Y-209433121D01*
X183316251Y-209057365D01*
X183184156Y-208842038D01*
X182984071Y-208742582D01*
X182701901Y-208714441D01*
X182416818Y-208713333D01*
X181922667Y-208713333D01*
X181922667Y-211761333D01*
G04 #@! TO.C,J1*
D10*
X277485309Y-225255640D02*
X277609343Y-225959074D01*
X277681046Y-226091492D01*
X277791375Y-226168746D01*
X277940331Y-226190834D01*
X278034122Y-226174296D01*
X276674149Y-226414096D02*
X277236896Y-226314869D01*
X276955523Y-226364482D02*
X276781875Y-225379675D01*
X276900473Y-225503824D01*
X277010802Y-225581077D01*
X277112862Y-225611435D01*
X274973160Y-223167770D02*
X275058682Y-223104337D01*
X275199369Y-223079530D01*
X275348325Y-223101619D01*
X275458654Y-223178872D01*
X275522088Y-223264394D01*
X275602059Y-223443708D01*
X275626866Y-223584394D01*
X275613046Y-223780246D01*
X275582689Y-223882306D01*
X275505435Y-223992635D01*
X275373017Y-224064338D01*
X275279226Y-224080876D01*
X275130270Y-224058787D01*
X275075106Y-224020160D01*
X275017223Y-223691891D01*
X275204806Y-223658815D01*
X274669583Y-224188372D02*
X274495935Y-223203564D01*
X274106836Y-224287600D01*
X273933188Y-223302792D01*
X273637880Y-224370289D02*
X273464232Y-223385481D01*
X273229754Y-223426826D01*
X273097336Y-223498529D01*
X273020083Y-223608858D01*
X272989725Y-223710918D01*
X272975905Y-223906769D01*
X273000712Y-224047456D01*
X273080683Y-224226770D01*
X273144117Y-224312292D01*
X273254446Y-224389545D01*
X273403402Y-224411634D01*
X273637880Y-224370289D01*
X274580233Y-221624943D02*
X275049189Y-221542253D01*
X274875541Y-220557445D01*
X274161006Y-221166974D02*
X273832736Y-221224857D01*
X273783008Y-221765515D02*
X274251964Y-221682826D01*
X274078316Y-220698018D01*
X273609360Y-220780707D01*
X273360948Y-221839936D02*
X273187299Y-220855128D01*
X272952821Y-220896473D01*
X272820403Y-220968175D01*
X272743150Y-221078504D01*
X272712792Y-221180565D01*
X272698973Y-221376416D01*
X272723780Y-221517103D01*
X272803751Y-221696416D01*
X272867185Y-221781939D01*
X272977514Y-221859192D01*
X273126470Y-221881281D01*
X273360948Y-221839936D01*
X274645505Y-218018824D02*
X274490884Y-219061515D01*
X273988967Y-218134590D01*
X273255061Y-219182716D02*
X273310225Y-219221343D01*
X273459181Y-219243432D01*
X273552972Y-219226894D01*
X273685390Y-219155191D01*
X273762643Y-219044862D01*
X273793001Y-218942802D01*
X273806821Y-218746951D01*
X273782014Y-218606264D01*
X273702043Y-218426950D01*
X273638609Y-218341428D01*
X273528280Y-218264175D01*
X273379324Y-218242086D01*
X273285533Y-218258624D01*
X273153115Y-218330326D01*
X273114488Y-218385491D01*
X272270253Y-219356365D02*
X272325417Y-219394991D01*
X272474373Y-219417080D01*
X272568164Y-219400542D01*
X272700582Y-219328839D01*
X272777836Y-219218510D01*
X272808193Y-219116450D01*
X272822013Y-218920599D01*
X272797206Y-218779912D01*
X272717235Y-218600599D01*
X272653801Y-218515076D01*
X272543472Y-218437823D01*
X272394516Y-218415734D01*
X272300725Y-218432272D01*
X272168307Y-218503975D01*
X272129681Y-218559139D01*
G04 #@! TO.C,J2*
X156865495Y-215155760D02*
X156741460Y-215859194D01*
X156763549Y-216008150D01*
X156840802Y-216118479D01*
X156973220Y-216190181D01*
X157067011Y-216206719D01*
X156426896Y-215175130D02*
X156388270Y-215119966D01*
X156302748Y-215056532D01*
X156068269Y-215015187D01*
X155966209Y-215045545D01*
X155911045Y-215084172D01*
X155847611Y-215169694D01*
X155831073Y-215263485D01*
X155853162Y-215412441D01*
X156316682Y-216074416D01*
X155707039Y-215966919D01*
X159028515Y-223274709D02*
X158526597Y-224201634D01*
X158371976Y-223158943D01*
X157323849Y-223892850D02*
X157362476Y-223948014D01*
X157494894Y-224019717D01*
X157588685Y-224036255D01*
X157737641Y-224014166D01*
X157847970Y-223936913D01*
X157911403Y-223851390D01*
X157991375Y-223672077D01*
X158016182Y-223531390D01*
X158002362Y-223335539D01*
X157972004Y-223233479D01*
X157894751Y-223123149D01*
X157762333Y-223051447D01*
X157668542Y-223034909D01*
X157519586Y-223056998D01*
X157464422Y-223095624D01*
X156339042Y-223719202D02*
X156377668Y-223774366D01*
X156510086Y-223846069D01*
X156603877Y-223862607D01*
X156752833Y-223840518D01*
X156863162Y-223763265D01*
X156926596Y-223677742D01*
X157006567Y-223498429D01*
X157031374Y-223357742D01*
X157017554Y-223161891D01*
X156987197Y-223059830D01*
X156909943Y-222949501D01*
X156777525Y-222877799D01*
X156683734Y-222861261D01*
X156534778Y-222883350D01*
X156479614Y-222921976D01*
X158615947Y-221638205D02*
X159084903Y-221720894D01*
X159258551Y-220736087D01*
X158378636Y-221064470D02*
X158050367Y-221006588D01*
X157818722Y-221497632D02*
X158287678Y-221580322D01*
X158461326Y-220595514D01*
X157992370Y-220512825D01*
X157396661Y-221423212D02*
X157570309Y-220438404D01*
X157335831Y-220397059D01*
X157186876Y-220419148D01*
X157076547Y-220496401D01*
X157013113Y-220581923D01*
X156933142Y-220761237D01*
X156908335Y-220901924D01*
X156922154Y-221097775D01*
X156952512Y-221199835D01*
X157029765Y-221310164D01*
X157162183Y-221381867D01*
X157396661Y-221423212D01*
X159339631Y-218219554D02*
X159441691Y-218189196D01*
X159582378Y-218214003D01*
X159714796Y-218285706D01*
X159792049Y-218396035D01*
X159822407Y-218498095D01*
X159836227Y-218693946D01*
X159811420Y-218834633D01*
X159731449Y-219013947D01*
X159668015Y-219099469D01*
X159557686Y-219176722D01*
X159408730Y-219198811D01*
X159314939Y-219182273D01*
X159182521Y-219110571D01*
X159143894Y-219055406D01*
X159201777Y-218727137D01*
X159389360Y-218760213D01*
X158705296Y-219074777D02*
X158878944Y-218089969D01*
X158142549Y-218975549D01*
X158316197Y-217990741D01*
X157673593Y-218892859D02*
X157847241Y-217908052D01*
X157612763Y-217866707D01*
X157463807Y-217888796D01*
X157353478Y-217966049D01*
X157290044Y-218051571D01*
X157210073Y-218230885D01*
X157185266Y-218371571D01*
X157199086Y-218567423D01*
X157229443Y-218669483D01*
X157306697Y-218779812D01*
X157439115Y-218851515D01*
X157673593Y-218892859D01*
G04 #@! TO.C,D1*
X103755622Y-136674061D02*
X103929270Y-135689253D01*
X103694792Y-135647908D01*
X103545837Y-135669997D01*
X103435508Y-135747250D01*
X103372074Y-135832772D01*
X103292103Y-136012086D01*
X103267296Y-136152773D01*
X103281115Y-136348624D01*
X103311473Y-136450684D01*
X103388726Y-136561013D01*
X103521144Y-136632716D01*
X103755622Y-136674061D01*
X102254963Y-136409454D02*
X102817710Y-136508681D01*
X102536336Y-136459068D02*
X102709985Y-135474260D01*
X102778969Y-135631485D01*
X102856222Y-135741814D01*
X102941745Y-135805247D01*
G04 #@! TO.C,D2*
X100415622Y-155414061D02*
X100589270Y-154429253D01*
X100354792Y-154387908D01*
X100205837Y-154409997D01*
X100095508Y-154487250D01*
X100032074Y-154572772D01*
X99952103Y-154752086D01*
X99927296Y-154892773D01*
X99941115Y-155088624D01*
X99971473Y-155190684D01*
X100048726Y-155301013D01*
X100181144Y-155372716D01*
X100415622Y-155414061D01*
X99634820Y-154357665D02*
X99596194Y-154302500D01*
X99510671Y-154239067D01*
X99276193Y-154197722D01*
X99174133Y-154228080D01*
X99118969Y-154266706D01*
X99055535Y-154352229D01*
X99038997Y-154446020D01*
X99061086Y-154594976D01*
X99524606Y-155256950D01*
X98914963Y-155149454D01*
G04 #@! TO.C,D3*
X97095622Y-174174061D02*
X97269270Y-173189253D01*
X97034792Y-173147908D01*
X96885837Y-173169997D01*
X96775508Y-173247250D01*
X96712074Y-173332772D01*
X96632103Y-173512086D01*
X96607296Y-173652773D01*
X96621115Y-173848624D01*
X96651473Y-173950684D01*
X96728726Y-174061013D01*
X96861144Y-174132716D01*
X97095622Y-174174061D01*
X96378254Y-173032143D02*
X95768611Y-172924646D01*
X96030729Y-173357694D01*
X95890042Y-173332887D01*
X95787982Y-173363245D01*
X95732817Y-173401871D01*
X95669383Y-173487393D01*
X95628039Y-173721871D01*
X95658396Y-173823932D01*
X95697023Y-173879096D01*
X95782545Y-173942530D01*
X96063919Y-173992144D01*
X96165979Y-173961786D01*
X96221144Y-173923159D01*
G04 #@! TO.C,D4*
X125800689Y-121217542D02*
X125974337Y-120232734D01*
X125739859Y-120191389D01*
X125590904Y-120213478D01*
X125480575Y-120290731D01*
X125417141Y-120376253D01*
X125337170Y-120555567D01*
X125312363Y-120696254D01*
X125326182Y-120892105D01*
X125356540Y-120994165D01*
X125433793Y-121104494D01*
X125566211Y-121176197D01*
X125800689Y-121217542D01*
X124509587Y-120312934D02*
X124393821Y-120969473D01*
X124810216Y-119979114D02*
X124920660Y-120723893D01*
X124311017Y-120616397D01*
G04 #@! TO.C,D5*
X122475622Y-139984061D02*
X122649270Y-138999253D01*
X122414792Y-138957908D01*
X122265837Y-138979997D01*
X122155508Y-139057250D01*
X122092074Y-139142772D01*
X122012103Y-139322086D01*
X121987296Y-139462773D01*
X122001115Y-139658624D01*
X122031473Y-139760684D01*
X122108726Y-139871013D01*
X122241144Y-139942716D01*
X122475622Y-139984061D01*
X121195507Y-138742915D02*
X121664463Y-138825605D01*
X121628669Y-139302830D01*
X121590042Y-139247665D01*
X121504520Y-139184232D01*
X121270042Y-139142887D01*
X121167982Y-139173245D01*
X121112817Y-139211871D01*
X121049383Y-139297393D01*
X121008039Y-139531871D01*
X121038396Y-139633932D01*
X121077023Y-139689096D01*
X121162545Y-139752530D01*
X121397023Y-139793875D01*
X121499083Y-139763517D01*
X121554248Y-139724890D01*
G04 #@! TO.C,D6*
X119185622Y-158744061D02*
X119359270Y-157759253D01*
X119124792Y-157717908D01*
X118975837Y-157739997D01*
X118865508Y-157817250D01*
X118802074Y-157902772D01*
X118722103Y-158082086D01*
X118697296Y-158222773D01*
X118711115Y-158418624D01*
X118741473Y-158520684D01*
X118818726Y-158631013D01*
X118951144Y-158702716D01*
X119185622Y-158744061D01*
X117952402Y-157511184D02*
X118139985Y-157544260D01*
X118225507Y-157607693D01*
X118264134Y-157662858D01*
X118333118Y-157820083D01*
X118346938Y-158015934D01*
X118280786Y-158391099D01*
X118217352Y-158476621D01*
X118162188Y-158515248D01*
X118060128Y-158545606D01*
X117872545Y-158512530D01*
X117787023Y-158449096D01*
X117748396Y-158393932D01*
X117718039Y-158291871D01*
X117759383Y-158057393D01*
X117822817Y-157971871D01*
X117877982Y-157933245D01*
X117980042Y-157902887D01*
X118167624Y-157935963D01*
X118253146Y-157999396D01*
X118291773Y-158054561D01*
X118322131Y-158156621D01*
G04 #@! TO.C,D7*
X115815622Y-177424061D02*
X115989270Y-176439253D01*
X115754792Y-176397908D01*
X115605837Y-176419997D01*
X115495508Y-176497250D01*
X115432074Y-176582772D01*
X115352103Y-176762086D01*
X115327296Y-176902773D01*
X115341115Y-177098624D01*
X115371473Y-177200684D01*
X115448726Y-177311013D01*
X115581144Y-177382716D01*
X115815622Y-177424061D01*
X115098254Y-176282143D02*
X114441715Y-176166377D01*
X114690128Y-177225606D01*
G04 #@! TO.C,D8*
X145405622Y-119854061D02*
X145579270Y-118869253D01*
X145344792Y-118827908D01*
X145195837Y-118849997D01*
X145085508Y-118927250D01*
X145022074Y-119012772D01*
X144942103Y-119192086D01*
X144917296Y-119332773D01*
X144931115Y-119528624D01*
X144961473Y-119630684D01*
X145038726Y-119741013D01*
X145171144Y-119812716D01*
X145405622Y-119854061D01*
X144379355Y-119092858D02*
X144481415Y-119062501D01*
X144536580Y-119023874D01*
X144600014Y-118938352D01*
X144608282Y-118891456D01*
X144577925Y-118789396D01*
X144539298Y-118734231D01*
X144453776Y-118670798D01*
X144266193Y-118637722D01*
X144164133Y-118668080D01*
X144108969Y-118706706D01*
X144045535Y-118792229D01*
X144037266Y-118839124D01*
X144067624Y-118941184D01*
X144106251Y-118996349D01*
X144191773Y-119059782D01*
X144379355Y-119092858D01*
X144464877Y-119156292D01*
X144503504Y-119211456D01*
X144533862Y-119313517D01*
X144500786Y-119501099D01*
X144437352Y-119586621D01*
X144382188Y-119625248D01*
X144280128Y-119655606D01*
X144092545Y-119622530D01*
X144007023Y-119559096D01*
X143968396Y-119503932D01*
X143938039Y-119401871D01*
X143971115Y-119214289D01*
X144034548Y-119128767D01*
X144089713Y-119090140D01*
X144191773Y-119059782D01*
G04 #@! TO.C,D9*
X142075622Y-138564061D02*
X142249270Y-137579253D01*
X142014792Y-137537908D01*
X141865837Y-137559997D01*
X141755508Y-137637250D01*
X141692074Y-137722772D01*
X141612103Y-137902086D01*
X141587296Y-138042773D01*
X141601115Y-138238624D01*
X141631473Y-138340684D01*
X141708726Y-138451013D01*
X141841144Y-138522716D01*
X142075622Y-138564061D01*
X141043919Y-138382144D02*
X140856336Y-138349068D01*
X140770814Y-138285634D01*
X140732188Y-138230470D01*
X140663203Y-138073245D01*
X140649383Y-137877393D01*
X140715535Y-137502229D01*
X140778969Y-137416706D01*
X140834133Y-137378080D01*
X140936193Y-137347722D01*
X141123776Y-137380798D01*
X141209298Y-137444231D01*
X141247925Y-137499396D01*
X141278282Y-137601456D01*
X141236938Y-137835934D01*
X141173504Y-137921456D01*
X141118340Y-137960083D01*
X141016279Y-137990441D01*
X140828697Y-137957365D01*
X140743175Y-137893931D01*
X140704548Y-137838767D01*
X140674190Y-137736707D01*
G04 #@! TO.C,D10*
X139254578Y-157456750D02*
X139428227Y-156471943D01*
X139193748Y-156430598D01*
X139044793Y-156452686D01*
X138934464Y-156529940D01*
X138871030Y-156615462D01*
X138791059Y-156794775D01*
X138766252Y-156935462D01*
X138780071Y-157131314D01*
X138810429Y-157233374D01*
X138887682Y-157343703D01*
X139020100Y-157415405D01*
X139254578Y-157456750D01*
X137753919Y-157192144D02*
X138316666Y-157291371D01*
X138035293Y-157241757D02*
X138208941Y-156256950D01*
X138277925Y-156414174D01*
X138355178Y-156524503D01*
X138440701Y-156587937D01*
X137317924Y-156099839D02*
X137224133Y-156083301D01*
X137122073Y-156113659D01*
X137066908Y-156152286D01*
X137003475Y-156237808D01*
X136923503Y-156417121D01*
X136882158Y-156651599D01*
X136895978Y-156847451D01*
X136926336Y-156949511D01*
X136964963Y-157004676D01*
X137050485Y-157068109D01*
X137144276Y-157084647D01*
X137246336Y-157054289D01*
X137301501Y-157015663D01*
X137364934Y-156930140D01*
X137444906Y-156750827D01*
X137486251Y-156516349D01*
X137472431Y-156320498D01*
X137442073Y-156218437D01*
X137403446Y-156163273D01*
X137317924Y-156099839D01*
G04 #@! TO.C,D11*
X135904578Y-176376750D02*
X136078227Y-175391943D01*
X135843748Y-175350598D01*
X135694793Y-175372686D01*
X135584464Y-175449940D01*
X135521030Y-175535462D01*
X135441059Y-175714775D01*
X135416252Y-175855462D01*
X135430071Y-176051314D01*
X135460429Y-176153374D01*
X135537682Y-176263703D01*
X135670100Y-176335405D01*
X135904578Y-176376750D01*
X134403919Y-176112144D02*
X134966666Y-176211371D01*
X134685293Y-176161757D02*
X134858941Y-175176950D01*
X134927925Y-175334174D01*
X135005178Y-175444503D01*
X135090701Y-175507937D01*
X133466007Y-175946764D02*
X134028754Y-176045992D01*
X133747380Y-175996378D02*
X133921029Y-175011570D01*
X133990013Y-175168795D01*
X134067266Y-175279124D01*
X134152788Y-175342558D01*
G04 #@! TO.C,D12*
X165774578Y-116666750D02*
X165948227Y-115681943D01*
X165713748Y-115640598D01*
X165564793Y-115662686D01*
X165454464Y-115739940D01*
X165391030Y-115825462D01*
X165311059Y-116004775D01*
X165286252Y-116145462D01*
X165300071Y-116341314D01*
X165330429Y-116443374D01*
X165407682Y-116553703D01*
X165540100Y-116625405D01*
X165774578Y-116666750D01*
X164273919Y-116402144D02*
X164836666Y-116501371D01*
X164555293Y-116451757D02*
X164728941Y-115466950D01*
X164797925Y-115624174D01*
X164875178Y-115734503D01*
X164960701Y-115797937D01*
X164055864Y-115444975D02*
X164017238Y-115389811D01*
X163931715Y-115326377D01*
X163697237Y-115285032D01*
X163595177Y-115315390D01*
X163540013Y-115354017D01*
X163476579Y-115439539D01*
X163460041Y-115533330D01*
X163482130Y-115682286D01*
X163945650Y-116344261D01*
X163336007Y-116236764D01*
G04 #@! TO.C,D13*
X162474578Y-135396750D02*
X162648227Y-134411943D01*
X162413748Y-134370598D01*
X162264793Y-134392686D01*
X162154464Y-134469940D01*
X162091030Y-134555462D01*
X162011059Y-134734775D01*
X161986252Y-134875462D01*
X162000071Y-135071314D01*
X162030429Y-135173374D01*
X162107682Y-135283703D01*
X162240100Y-135355405D01*
X162474578Y-135396750D01*
X160973919Y-135132144D02*
X161536666Y-135231371D01*
X161255293Y-135181757D02*
X161428941Y-134196950D01*
X161497925Y-134354174D01*
X161575178Y-134464503D01*
X161660701Y-134527937D01*
X160819298Y-134089453D02*
X160209655Y-133981957D01*
X160471773Y-134415004D01*
X160331086Y-134390197D01*
X160229026Y-134420555D01*
X160173861Y-134459182D01*
X160110427Y-134544704D01*
X160069083Y-134779182D01*
X160099440Y-134881242D01*
X160138067Y-134936407D01*
X160223589Y-134999840D01*
X160504963Y-135049454D01*
X160607023Y-135019096D01*
X160662188Y-134980470D01*
G04 #@! TO.C,D14*
X159164578Y-154186750D02*
X159338227Y-153201943D01*
X159103748Y-153160598D01*
X158954793Y-153182686D01*
X158844464Y-153259940D01*
X158781030Y-153345462D01*
X158701059Y-153524775D01*
X158676252Y-153665462D01*
X158690071Y-153861314D01*
X158720429Y-153963374D01*
X158797682Y-154073703D01*
X158930100Y-154145405D01*
X159164578Y-154186750D01*
X157663919Y-153922144D02*
X158226666Y-154021371D01*
X157945293Y-153971757D02*
X158118941Y-152986950D01*
X158187925Y-153144174D01*
X158265178Y-153254503D01*
X158350701Y-153317937D01*
X156935563Y-153116764D02*
X156819798Y-153773302D01*
X157236193Y-152782944D02*
X157346637Y-153527723D01*
X156736994Y-153420226D01*
G04 #@! TO.C,D15*
X155844578Y-172936750D02*
X156018227Y-171951943D01*
X155783748Y-171910598D01*
X155634793Y-171932686D01*
X155524464Y-172009940D01*
X155461030Y-172095462D01*
X155381059Y-172274775D01*
X155356252Y-172415462D01*
X155370071Y-172611314D01*
X155400429Y-172713374D01*
X155477682Y-172823703D01*
X155610100Y-172895405D01*
X155844578Y-172936750D01*
X154343919Y-172672144D02*
X154906666Y-172771371D01*
X154625293Y-172721757D02*
X154798941Y-171736950D01*
X154867925Y-171894174D01*
X154945178Y-172004503D01*
X155030701Y-172067937D01*
X153626551Y-171530226D02*
X154095507Y-171612915D01*
X154059713Y-172090140D01*
X154021086Y-172034976D01*
X153935564Y-171971542D01*
X153701086Y-171930197D01*
X153599026Y-171960555D01*
X153543861Y-171999182D01*
X153480427Y-172084704D01*
X153439083Y-172319182D01*
X153469440Y-172421242D01*
X153508067Y-172476407D01*
X153593589Y-172539840D01*
X153828067Y-172581185D01*
X153930127Y-172550827D01*
X153985292Y-172512201D01*
G04 #@! TO.C,D16*
X159969511Y-204443269D02*
X160143160Y-203458462D01*
X159908681Y-203417117D01*
X159759726Y-203439205D01*
X159649397Y-203516459D01*
X159585963Y-203601981D01*
X159505992Y-203781294D01*
X159481185Y-203921981D01*
X159495004Y-204117833D01*
X159525362Y-204219893D01*
X159602615Y-204330222D01*
X159735033Y-204401924D01*
X159969511Y-204443269D01*
X158468852Y-204178663D02*
X159031599Y-204277890D01*
X158750226Y-204228276D02*
X158923874Y-203243469D01*
X158992858Y-203400693D01*
X159070111Y-203511022D01*
X159155634Y-203574456D01*
X157798379Y-203045013D02*
X157985962Y-203078089D01*
X158071484Y-203141523D01*
X158110111Y-203196687D01*
X158179095Y-203353912D01*
X158192915Y-203549764D01*
X158126763Y-203924928D01*
X158063329Y-204010451D01*
X158008165Y-204049077D01*
X157906105Y-204079435D01*
X157718522Y-204046359D01*
X157633000Y-203982926D01*
X157594373Y-203927761D01*
X157564016Y-203825701D01*
X157605360Y-203591223D01*
X157668794Y-203505701D01*
X157723959Y-203467074D01*
X157826019Y-203436716D01*
X158013601Y-203469792D01*
X158099123Y-203533226D01*
X158137750Y-203588390D01*
X158168108Y-203690450D01*
G04 #@! TO.C,D17*
X183394578Y-126536750D02*
X183568227Y-125551943D01*
X183333748Y-125510598D01*
X183184793Y-125532686D01*
X183074464Y-125609940D01*
X183011030Y-125695462D01*
X182931059Y-125874775D01*
X182906252Y-126015462D01*
X182920071Y-126211314D01*
X182950429Y-126313374D01*
X183027682Y-126423703D01*
X183160100Y-126495405D01*
X183394578Y-126536750D01*
X181893919Y-126272144D02*
X182456666Y-126371371D01*
X182175293Y-126321757D02*
X182348941Y-125336950D01*
X182417925Y-125494174D01*
X182495178Y-125604503D01*
X182580701Y-125667937D01*
X181739298Y-125229453D02*
X181082759Y-125113688D01*
X181331172Y-126172916D01*
G04 #@! TO.C,D18*
X180064578Y-145266750D02*
X180238227Y-144281943D01*
X180003748Y-144240598D01*
X179854793Y-144262686D01*
X179744464Y-144339940D01*
X179681030Y-144425462D01*
X179601059Y-144604775D01*
X179576252Y-144745462D01*
X179590071Y-144941314D01*
X179620429Y-145043374D01*
X179697682Y-145153703D01*
X179830100Y-145225405D01*
X180064578Y-145266750D01*
X178563919Y-145002144D02*
X179126666Y-145101371D01*
X178845293Y-145051757D02*
X179018941Y-144066950D01*
X179087925Y-144224174D01*
X179165178Y-144334503D01*
X179250701Y-144397937D01*
X178100399Y-144340169D02*
X178202459Y-144309811D01*
X178257624Y-144271184D01*
X178321057Y-144185662D01*
X178329326Y-144138767D01*
X178298969Y-144036706D01*
X178260342Y-143981542D01*
X178174820Y-143918108D01*
X177987237Y-143885032D01*
X177885177Y-143915390D01*
X177830013Y-143954017D01*
X177766579Y-144039539D01*
X177758310Y-144086435D01*
X177788668Y-144188495D01*
X177827294Y-144243659D01*
X177912817Y-144307093D01*
X178100399Y-144340169D01*
X178185921Y-144403602D01*
X178224548Y-144458767D01*
X178254906Y-144560827D01*
X178221830Y-144748409D01*
X178158396Y-144833932D01*
X178103232Y-144872558D01*
X178001172Y-144902916D01*
X177813589Y-144869840D01*
X177728067Y-144806407D01*
X177689440Y-144751242D01*
X177659083Y-144649182D01*
X177692158Y-144461599D01*
X177755592Y-144376077D01*
X177810757Y-144337451D01*
X177912817Y-144307093D01*
G04 #@! TO.C,D19*
X176774578Y-164056750D02*
X176948227Y-163071943D01*
X176713748Y-163030598D01*
X176564793Y-163052686D01*
X176454464Y-163129940D01*
X176391030Y-163215462D01*
X176311059Y-163394775D01*
X176286252Y-163535462D01*
X176300071Y-163731314D01*
X176330429Y-163833374D01*
X176407682Y-163943703D01*
X176540100Y-164015405D01*
X176774578Y-164056750D01*
X175273919Y-163792144D02*
X175836666Y-163891371D01*
X175555293Y-163841757D02*
X175728941Y-162856950D01*
X175797925Y-163014174D01*
X175875178Y-163124503D01*
X175960701Y-163187937D01*
X174804963Y-163709454D02*
X174617380Y-163676378D01*
X174531858Y-163612945D01*
X174493232Y-163557780D01*
X174424247Y-163400555D01*
X174410427Y-163204704D01*
X174476579Y-162829539D01*
X174540013Y-162744017D01*
X174595177Y-162705390D01*
X174697237Y-162675032D01*
X174884820Y-162708108D01*
X174970342Y-162771542D01*
X175008969Y-162826706D01*
X175039326Y-162928767D01*
X174997982Y-163163245D01*
X174934548Y-163248767D01*
X174879383Y-163287393D01*
X174777323Y-163317751D01*
X174589741Y-163284675D01*
X174504219Y-163221242D01*
X174465592Y-163166077D01*
X174435234Y-163064017D01*
G04 #@! TO.C,D20*
X173424578Y-182996750D02*
X173598227Y-182011943D01*
X173363748Y-181970598D01*
X173214793Y-181992686D01*
X173104464Y-182069940D01*
X173041030Y-182155462D01*
X172961059Y-182334775D01*
X172936252Y-182475462D01*
X172950071Y-182671314D01*
X172980429Y-182773374D01*
X173057682Y-182883703D01*
X173190100Y-182955405D01*
X173424578Y-182996750D01*
X172643776Y-181940355D02*
X172605150Y-181885190D01*
X172519628Y-181821756D01*
X172285150Y-181780412D01*
X172183089Y-181810769D01*
X172127925Y-181849396D01*
X172064491Y-181934918D01*
X172047953Y-182028709D01*
X172070042Y-182177665D01*
X172533562Y-182839640D01*
X171923919Y-182732144D01*
X171487924Y-181639839D02*
X171394133Y-181623301D01*
X171292073Y-181653659D01*
X171236908Y-181692286D01*
X171173475Y-181777808D01*
X171093503Y-181957121D01*
X171052158Y-182191599D01*
X171065978Y-182387451D01*
X171096336Y-182489511D01*
X171134963Y-182544676D01*
X171220485Y-182608109D01*
X171314276Y-182624647D01*
X171416336Y-182594289D01*
X171471501Y-182555663D01*
X171534934Y-182470140D01*
X171614906Y-182290827D01*
X171656251Y-182056349D01*
X171642431Y-181860498D01*
X171612073Y-181758437D01*
X171573446Y-181703273D01*
X171487924Y-181639839D01*
G04 #@! TO.C,D21*
X178983463Y-214659394D02*
X179242282Y-213693468D01*
X179012299Y-213631845D01*
X178861985Y-213640867D01*
X178745343Y-213708211D01*
X178674697Y-213787879D01*
X178579402Y-213959540D01*
X178542427Y-214097529D01*
X178539125Y-214293840D01*
X178560472Y-214398158D01*
X178627816Y-214514800D01*
X178753480Y-214597771D01*
X178983463Y-214659394D01*
X178297703Y-213538967D02*
X178264031Y-213480646D01*
X178184363Y-213410000D01*
X177954381Y-213348376D01*
X177850063Y-213369723D01*
X177791742Y-213403395D01*
X177721096Y-213483063D01*
X177696446Y-213575056D01*
X177705469Y-213725370D01*
X178109530Y-214425225D01*
X177511576Y-214265003D01*
X176591646Y-214018509D02*
X177143604Y-214166406D01*
X176867625Y-214092457D02*
X177126444Y-213126531D01*
X177181463Y-213289170D01*
X177248806Y-213405813D01*
X177328475Y-213476459D01*
G04 #@! TO.C,D22*
X200944578Y-136586750D02*
X201118227Y-135601943D01*
X200883748Y-135560598D01*
X200734793Y-135582686D01*
X200624464Y-135659940D01*
X200561030Y-135745462D01*
X200481059Y-135924775D01*
X200456252Y-136065462D01*
X200470071Y-136261314D01*
X200500429Y-136363374D01*
X200577682Y-136473703D01*
X200710100Y-136545405D01*
X200944578Y-136586750D01*
X200163776Y-135530355D02*
X200125150Y-135475190D01*
X200039628Y-135411756D01*
X199805150Y-135370412D01*
X199703089Y-135400769D01*
X199647925Y-135439396D01*
X199584491Y-135524918D01*
X199567953Y-135618709D01*
X199590042Y-135767665D01*
X200053562Y-136429640D01*
X199443919Y-136322144D01*
X199225864Y-135364975D02*
X199187238Y-135309811D01*
X199101715Y-135246377D01*
X198867237Y-135205032D01*
X198765177Y-135235390D01*
X198710013Y-135274017D01*
X198646579Y-135359539D01*
X198630041Y-135453330D01*
X198652130Y-135602286D01*
X199115650Y-136264261D01*
X198506007Y-136156764D01*
G04 #@! TO.C,D23*
X197644578Y-155356750D02*
X197818227Y-154371943D01*
X197583748Y-154330598D01*
X197434793Y-154352686D01*
X197324464Y-154429940D01*
X197261030Y-154515462D01*
X197181059Y-154694775D01*
X197156252Y-154835462D01*
X197170071Y-155031314D01*
X197200429Y-155133374D01*
X197277682Y-155243703D01*
X197410100Y-155315405D01*
X197644578Y-155356750D01*
X196863776Y-154300355D02*
X196825150Y-154245190D01*
X196739628Y-154181756D01*
X196505150Y-154140412D01*
X196403089Y-154170769D01*
X196347925Y-154209396D01*
X196284491Y-154294918D01*
X196267953Y-154388709D01*
X196290042Y-154537665D01*
X196753562Y-155199640D01*
X196143919Y-155092144D01*
X195989298Y-154049453D02*
X195379655Y-153941957D01*
X195641773Y-154375004D01*
X195501086Y-154350197D01*
X195399026Y-154380555D01*
X195343861Y-154419182D01*
X195280427Y-154504704D01*
X195239083Y-154739182D01*
X195269440Y-154841242D01*
X195308067Y-154896407D01*
X195393589Y-154959840D01*
X195674963Y-155009454D01*
X195777023Y-154979096D01*
X195832188Y-154940470D01*
G04 #@! TO.C,D24*
X194314578Y-174126750D02*
X194488227Y-173141943D01*
X194253748Y-173100598D01*
X194104793Y-173122686D01*
X193994464Y-173199940D01*
X193931030Y-173285462D01*
X193851059Y-173464775D01*
X193826252Y-173605462D01*
X193840071Y-173801314D01*
X193870429Y-173903374D01*
X193947682Y-174013703D01*
X194080100Y-174085405D01*
X194314578Y-174126750D01*
X193533776Y-173070355D02*
X193495150Y-173015190D01*
X193409628Y-172951756D01*
X193175150Y-172910412D01*
X193073089Y-172940769D01*
X193017925Y-172979396D01*
X192954491Y-173064918D01*
X192937953Y-173158709D01*
X192960042Y-173307665D01*
X193423562Y-173969640D01*
X192813919Y-173862144D01*
X192085563Y-173056764D02*
X191969798Y-173713302D01*
X192386193Y-172722944D02*
X192496637Y-173467723D01*
X191886994Y-173360226D01*
G04 #@! TO.C,D25*
X191044578Y-192876750D02*
X191218227Y-191891943D01*
X190983748Y-191850598D01*
X190834793Y-191872686D01*
X190724464Y-191949940D01*
X190661030Y-192035462D01*
X190581059Y-192214775D01*
X190556252Y-192355462D01*
X190570071Y-192551314D01*
X190600429Y-192653374D01*
X190677682Y-192763703D01*
X190810100Y-192835405D01*
X191044578Y-192876750D01*
X190263776Y-191820355D02*
X190225150Y-191765190D01*
X190139628Y-191701756D01*
X189905150Y-191660412D01*
X189803089Y-191690769D01*
X189747925Y-191729396D01*
X189684491Y-191814918D01*
X189667953Y-191908709D01*
X189690042Y-192057665D01*
X190153562Y-192719640D01*
X189543919Y-192612144D01*
X188826551Y-191470226D02*
X189295507Y-191552915D01*
X189259713Y-192030140D01*
X189221086Y-191974976D01*
X189135564Y-191911542D01*
X188901086Y-191870197D01*
X188799026Y-191900555D01*
X188743861Y-191939182D01*
X188680427Y-192024704D01*
X188639083Y-192259182D01*
X188669440Y-192361242D01*
X188708067Y-192416407D01*
X188793589Y-192479840D01*
X189028067Y-192521185D01*
X189130127Y-192490827D01*
X189185292Y-192452201D01*
G04 #@! TO.C,D26*
X196420371Y-228921024D02*
X196762392Y-227981331D01*
X196538655Y-227899898D01*
X196388127Y-227895785D01*
X196266059Y-227952706D01*
X196188738Y-228025914D01*
X196078844Y-228188616D01*
X196029984Y-228322858D01*
X196009585Y-228518134D01*
X196021759Y-228623915D01*
X196078680Y-228745983D01*
X196196635Y-228839590D01*
X196420371Y-228921024D01*
X195834873Y-227745092D02*
X195806412Y-227684058D01*
X195733204Y-227606738D01*
X195509468Y-227525304D01*
X195403687Y-227537478D01*
X195342653Y-227565939D01*
X195265332Y-227639147D01*
X195232759Y-227728641D01*
X195228646Y-227879170D01*
X195570173Y-228611577D01*
X194988459Y-228399850D01*
X194525028Y-227166997D02*
X194704017Y-227232144D01*
X194777225Y-227309465D01*
X194805686Y-227370499D01*
X194846320Y-227537314D01*
X194825921Y-227732590D01*
X194695627Y-228090568D01*
X194618307Y-228163776D01*
X194557273Y-228192236D01*
X194451492Y-228204410D01*
X194272503Y-228139263D01*
X194199295Y-228061943D01*
X194170834Y-228000909D01*
X194158660Y-227895128D01*
X194240094Y-227671391D01*
X194317414Y-227598183D01*
X194378448Y-227569723D01*
X194484229Y-227557549D01*
X194663218Y-227622696D01*
X194736426Y-227700016D01*
X194764887Y-227761050D01*
X194777061Y-227866831D01*
G04 #@! TO.C,D27*
X245677097Y-133745033D02*
X245503448Y-132760226D01*
X245268970Y-132801570D01*
X245136553Y-132873273D01*
X245059299Y-132983602D01*
X245028942Y-133085662D01*
X245015122Y-133281514D01*
X245039929Y-133422200D01*
X245119900Y-133601514D01*
X245183334Y-133687036D01*
X245293663Y-133764289D01*
X245442619Y-133786378D01*
X245677097Y-133745033D01*
X244582074Y-133019396D02*
X244526910Y-132980769D01*
X244424849Y-132950412D01*
X244190371Y-132991756D01*
X244104849Y-133055190D01*
X244066223Y-133110355D01*
X244035865Y-133212415D01*
X244052403Y-133306206D01*
X244124105Y-133438624D01*
X244786080Y-133902144D01*
X244176437Y-134009640D01*
X243674520Y-133082715D02*
X243017981Y-133198480D01*
X243613690Y-134108868D01*
G04 #@! TO.C,D28*
X248917097Y-152495033D02*
X248743448Y-151510226D01*
X248508970Y-151551570D01*
X248376553Y-151623273D01*
X248299299Y-151733602D01*
X248268942Y-151835662D01*
X248255122Y-152031514D01*
X248279929Y-152172200D01*
X248359900Y-152351514D01*
X248423334Y-152437036D01*
X248533663Y-152514289D01*
X248682619Y-152536378D01*
X248917097Y-152495033D01*
X247822074Y-151769396D02*
X247766910Y-151730769D01*
X247664849Y-151700412D01*
X247430371Y-151741756D01*
X247344849Y-151805190D01*
X247306223Y-151860355D01*
X247275865Y-151962415D01*
X247292403Y-152056206D01*
X247364105Y-152188624D01*
X248026080Y-152652144D01*
X247416437Y-152759640D01*
X246754462Y-152296120D02*
X246839985Y-152232687D01*
X246878611Y-152177522D01*
X246908969Y-152075462D01*
X246900700Y-152028566D01*
X246837266Y-151943044D01*
X246782102Y-151904417D01*
X246680042Y-151874060D01*
X246492459Y-151907136D01*
X246406937Y-151970569D01*
X246368310Y-152025734D01*
X246337953Y-152127794D01*
X246346222Y-152174690D01*
X246409655Y-152260212D01*
X246464820Y-152298838D01*
X246566880Y-152329196D01*
X246754462Y-152296120D01*
X246856523Y-152326478D01*
X246911687Y-152365105D01*
X246975121Y-152450627D01*
X247008196Y-152638209D01*
X246977839Y-152740269D01*
X246939212Y-152795434D01*
X246853690Y-152858868D01*
X246666107Y-152891943D01*
X246564047Y-152861586D01*
X246508883Y-152822959D01*
X246445449Y-152737437D01*
X246412373Y-152549854D01*
X246442731Y-152447794D01*
X246481358Y-152392630D01*
X246566880Y-152329196D01*
G04 #@! TO.C,D29*
X252267097Y-171295033D02*
X252093448Y-170310226D01*
X251858970Y-170351570D01*
X251726553Y-170423273D01*
X251649299Y-170533602D01*
X251618942Y-170635662D01*
X251605122Y-170831514D01*
X251629929Y-170972200D01*
X251709900Y-171151514D01*
X251773334Y-171237036D01*
X251883663Y-171314289D01*
X252032619Y-171336378D01*
X252267097Y-171295033D01*
X251172074Y-170569396D02*
X251116910Y-170530769D01*
X251014849Y-170500412D01*
X250780371Y-170541756D01*
X250694849Y-170605190D01*
X250656223Y-170660355D01*
X250625865Y-170762415D01*
X250642403Y-170856206D01*
X250714105Y-170988624D01*
X251376080Y-171452144D01*
X250766437Y-171559640D01*
X250297481Y-171642330D02*
X250109899Y-171675405D01*
X250007839Y-171645048D01*
X249952674Y-171606421D01*
X249834076Y-171482272D01*
X249754104Y-171302959D01*
X249687953Y-170927794D01*
X249718310Y-170825734D01*
X249756937Y-170770569D01*
X249842459Y-170707136D01*
X250030042Y-170674060D01*
X250132102Y-170704417D01*
X250187266Y-170743044D01*
X250250700Y-170828566D01*
X250292045Y-171063044D01*
X250261687Y-171165105D01*
X250223060Y-171220269D01*
X250137538Y-171283703D01*
X249949956Y-171316779D01*
X249847896Y-171286421D01*
X249792731Y-171247794D01*
X249729298Y-171162272D01*
G04 #@! TO.C,D30*
X255597097Y-190045033D02*
X255423448Y-189060226D01*
X255188970Y-189101570D01*
X255056553Y-189173273D01*
X254979299Y-189283602D01*
X254948942Y-189385662D01*
X254935122Y-189581514D01*
X254959929Y-189722200D01*
X255039900Y-189901514D01*
X255103334Y-189987036D01*
X255213663Y-190064289D01*
X255362619Y-190086378D01*
X255597097Y-190045033D01*
X254532432Y-189217336D02*
X253922789Y-189324832D01*
X254317210Y-189642114D01*
X254176523Y-189666921D01*
X254091001Y-189730355D01*
X254052374Y-189785519D01*
X254022017Y-189887580D01*
X254063361Y-190122058D01*
X254126795Y-190207580D01*
X254181959Y-190246206D01*
X254284020Y-190276564D01*
X254565393Y-190226950D01*
X254650916Y-190163517D01*
X254689542Y-190108352D01*
X253313146Y-189432329D02*
X253219355Y-189448867D01*
X253133833Y-189512300D01*
X253095206Y-189567465D01*
X253064848Y-189669525D01*
X253051029Y-189865376D01*
X253092373Y-190099854D01*
X253172345Y-190279168D01*
X253235778Y-190364690D01*
X253290943Y-190403317D01*
X253393003Y-190433674D01*
X253486794Y-190417137D01*
X253572317Y-190353703D01*
X253610943Y-190298538D01*
X253641301Y-190196478D01*
X253655121Y-190000627D01*
X253613776Y-189766149D01*
X253533804Y-189586835D01*
X253470371Y-189501313D01*
X253415206Y-189462686D01*
X253313146Y-189432329D01*
G04 #@! TO.C,D31*
X249461738Y-223360403D02*
X249119718Y-222420711D01*
X248895982Y-222502144D01*
X248778027Y-222595751D01*
X248721105Y-222717819D01*
X248708932Y-222823600D01*
X248729331Y-223018876D01*
X248778191Y-223153118D01*
X248888085Y-223315820D01*
X248965406Y-223389028D01*
X249087473Y-223445949D01*
X249238002Y-223441837D01*
X249461738Y-223360403D01*
X248269520Y-222730158D02*
X247687806Y-222941884D01*
X248131330Y-223185856D01*
X247997088Y-223234716D01*
X247923880Y-223312036D01*
X247895420Y-223373070D01*
X247883246Y-223478852D01*
X247964679Y-223702588D01*
X248042000Y-223775796D01*
X248103034Y-223804256D01*
X248208815Y-223816430D01*
X248477298Y-223718710D01*
X248550506Y-223641390D01*
X248578967Y-223580356D01*
X247134880Y-224207310D02*
X247671848Y-224011870D01*
X247403364Y-224109590D02*
X247061344Y-223169898D01*
X247199698Y-223271566D01*
X247321766Y-223328487D01*
X247427547Y-223340661D01*
G04 #@! TO.C,D32*
X263227097Y-123685033D02*
X263053448Y-122700226D01*
X262818970Y-122741570D01*
X262686553Y-122813273D01*
X262609299Y-122923602D01*
X262578942Y-123025662D01*
X262565122Y-123221514D01*
X262589929Y-123362200D01*
X262669900Y-123541514D01*
X262733334Y-123627036D01*
X262843663Y-123704289D01*
X262992619Y-123726378D01*
X263227097Y-123685033D01*
X262162432Y-122857336D02*
X261552789Y-122964832D01*
X261947210Y-123282114D01*
X261806523Y-123306921D01*
X261721001Y-123370355D01*
X261682374Y-123425519D01*
X261652017Y-123527580D01*
X261693361Y-123762058D01*
X261756795Y-123847580D01*
X261811959Y-123886206D01*
X261914020Y-123916564D01*
X262195393Y-123866950D01*
X262280916Y-123803517D01*
X262319542Y-123748352D01*
X261194162Y-123124775D02*
X261138997Y-123086149D01*
X261036937Y-123055791D01*
X260802459Y-123097136D01*
X260716937Y-123160569D01*
X260678310Y-123215734D01*
X260647953Y-123317794D01*
X260664491Y-123411585D01*
X260736193Y-123544003D01*
X261398168Y-124007523D01*
X260788525Y-124115019D01*
G04 #@! TO.C,D33*
X266557097Y-142475033D02*
X266383448Y-141490226D01*
X266148970Y-141531570D01*
X266016553Y-141603273D01*
X265939299Y-141713602D01*
X265908942Y-141815662D01*
X265895122Y-142011514D01*
X265919929Y-142152200D01*
X265999900Y-142331514D01*
X266063334Y-142417036D01*
X266173663Y-142494289D01*
X266322619Y-142516378D01*
X266557097Y-142475033D01*
X265492432Y-141647336D02*
X264882789Y-141754832D01*
X265277210Y-142072114D01*
X265136523Y-142096921D01*
X265051001Y-142160355D01*
X265012374Y-142215519D01*
X264982017Y-142317580D01*
X265023361Y-142552058D01*
X265086795Y-142637580D01*
X265141959Y-142676206D01*
X265244020Y-142706564D01*
X265525393Y-142656950D01*
X265610916Y-142593517D01*
X265649542Y-142538352D01*
X264554520Y-141812715D02*
X263944877Y-141920211D01*
X264339298Y-142237494D01*
X264198611Y-142262300D01*
X264113089Y-142325734D01*
X264074462Y-142380899D01*
X264044104Y-142482959D01*
X264085449Y-142717437D01*
X264148883Y-142802959D01*
X264204047Y-142841586D01*
X264306107Y-142871943D01*
X264587481Y-142822330D01*
X264673003Y-142758896D01*
X264711630Y-142703732D01*
G04 #@! TO.C,D34*
X269847097Y-161225033D02*
X269673448Y-160240226D01*
X269438970Y-160281570D01*
X269306553Y-160353273D01*
X269229299Y-160463602D01*
X269198942Y-160565662D01*
X269185122Y-160761514D01*
X269209929Y-160902200D01*
X269289900Y-161081514D01*
X269353334Y-161167036D01*
X269463663Y-161244289D01*
X269612619Y-161266378D01*
X269847097Y-161225033D01*
X268782432Y-160397336D02*
X268172789Y-160504832D01*
X268567210Y-160822114D01*
X268426523Y-160846921D01*
X268341001Y-160910355D01*
X268302374Y-160965519D01*
X268272017Y-161067580D01*
X268313361Y-161302058D01*
X268376795Y-161387580D01*
X268431959Y-161426206D01*
X268534020Y-161456564D01*
X268815393Y-161406950D01*
X268900916Y-161343517D01*
X268939542Y-161288352D01*
X267386551Y-160981943D02*
X267502316Y-161638481D01*
X267554877Y-160565433D02*
X267913390Y-161227522D01*
X267303747Y-161335019D01*
G04 #@! TO.C,D35*
X273207097Y-180145033D02*
X273033448Y-179160226D01*
X272798970Y-179201570D01*
X272666553Y-179273273D01*
X272589299Y-179383602D01*
X272558942Y-179485662D01*
X272545122Y-179681514D01*
X272569929Y-179822200D01*
X272649900Y-180001514D01*
X272713334Y-180087036D01*
X272823663Y-180164289D01*
X272972619Y-180186378D01*
X273207097Y-180145033D01*
X272142432Y-179317336D02*
X271532789Y-179424832D01*
X271927210Y-179742114D01*
X271786523Y-179766921D01*
X271701001Y-179830355D01*
X271662374Y-179885519D01*
X271632017Y-179987580D01*
X271673361Y-180222058D01*
X271736795Y-180307580D01*
X271791959Y-180346206D01*
X271894020Y-180376564D01*
X272175393Y-180326950D01*
X272260916Y-180263517D01*
X272299542Y-180208352D01*
X270641772Y-179581943D02*
X271110729Y-179499253D01*
X271240314Y-179959940D01*
X271185149Y-179921313D01*
X271083089Y-179890956D01*
X270848611Y-179932300D01*
X270763089Y-179995734D01*
X270724462Y-180050899D01*
X270694104Y-180152959D01*
X270735449Y-180387437D01*
X270798883Y-180472959D01*
X270854047Y-180511586D01*
X270956107Y-180541943D01*
X271190586Y-180500599D01*
X271276108Y-180437165D01*
X271314734Y-180382000D01*
G04 #@! TO.C,D36*
X267352356Y-210450834D02*
X267093537Y-209484908D01*
X266863555Y-209546531D01*
X266737890Y-209629502D01*
X266670547Y-209746144D01*
X266649200Y-209850462D01*
X266652502Y-210046773D01*
X266689476Y-210184762D01*
X266784772Y-210356423D01*
X266855417Y-210436091D01*
X266972060Y-210503435D01*
X267122374Y-210512457D01*
X267352356Y-210450834D01*
X266219604Y-209719077D02*
X265621650Y-209879299D01*
X266042223Y-210160998D01*
X265904234Y-210197972D01*
X265824566Y-210268618D01*
X265790894Y-210326939D01*
X265769547Y-210431256D01*
X265831170Y-210661239D01*
X265901816Y-210740907D01*
X265960137Y-210774579D01*
X266064455Y-210795926D01*
X266340434Y-210721977D01*
X266420102Y-210651332D01*
X266453774Y-210593010D01*
X264793714Y-210101144D02*
X264977700Y-210051845D01*
X265082017Y-210073192D01*
X265140339Y-210106864D01*
X265269306Y-210220204D01*
X265364601Y-210391865D01*
X265463199Y-210759836D01*
X265441852Y-210864154D01*
X265408180Y-210922475D01*
X265328512Y-210993121D01*
X265144526Y-211042420D01*
X265040208Y-211021073D01*
X264981887Y-210987401D01*
X264911241Y-210907733D01*
X264849617Y-210677751D01*
X264870964Y-210573433D01*
X264904636Y-210515112D01*
X264984304Y-210444466D01*
X265168290Y-210395167D01*
X265272608Y-210416514D01*
X265330929Y-210450186D01*
X265401575Y-210529854D01*
G04 #@! TO.C,D37*
X280857097Y-113845033D02*
X280683448Y-112860226D01*
X280448970Y-112901570D01*
X280316553Y-112973273D01*
X280239299Y-113083602D01*
X280208942Y-113185662D01*
X280195122Y-113381514D01*
X280219929Y-113522200D01*
X280299900Y-113701514D01*
X280363334Y-113787036D01*
X280473663Y-113864289D01*
X280622619Y-113886378D01*
X280857097Y-113845033D01*
X279792432Y-113017336D02*
X279182789Y-113124832D01*
X279577210Y-113442114D01*
X279436523Y-113466921D01*
X279351001Y-113530355D01*
X279312374Y-113585519D01*
X279282017Y-113687580D01*
X279323361Y-113922058D01*
X279386795Y-114007580D01*
X279441959Y-114046206D01*
X279544020Y-114076564D01*
X279825393Y-114026950D01*
X279910916Y-113963517D01*
X279949542Y-113908352D01*
X278854520Y-113182715D02*
X278197981Y-113298480D01*
X278793690Y-114208868D01*
G04 #@! TO.C,D38*
X284157097Y-132605033D02*
X283983448Y-131620226D01*
X283748970Y-131661570D01*
X283616553Y-131733273D01*
X283539299Y-131843602D01*
X283508942Y-131945662D01*
X283495122Y-132141514D01*
X283519929Y-132282200D01*
X283599900Y-132461514D01*
X283663334Y-132547036D01*
X283773663Y-132624289D01*
X283922619Y-132646378D01*
X284157097Y-132605033D01*
X283092432Y-131777336D02*
X282482789Y-131884832D01*
X282877210Y-132202114D01*
X282736523Y-132226921D01*
X282651001Y-132290355D01*
X282612374Y-132345519D01*
X282582017Y-132447580D01*
X282623361Y-132682058D01*
X282686795Y-132767580D01*
X282741959Y-132806206D01*
X282844020Y-132836564D01*
X283125393Y-132786950D01*
X283210916Y-132723517D01*
X283249542Y-132668352D01*
X281994462Y-132406120D02*
X282079985Y-132342687D01*
X282118611Y-132287522D01*
X282148969Y-132185462D01*
X282140700Y-132138566D01*
X282077266Y-132053044D01*
X282022102Y-132014417D01*
X281920042Y-131984060D01*
X281732459Y-132017136D01*
X281646937Y-132080569D01*
X281608310Y-132135734D01*
X281577953Y-132237794D01*
X281586222Y-132284690D01*
X281649655Y-132370212D01*
X281704820Y-132408838D01*
X281806880Y-132439196D01*
X281994462Y-132406120D01*
X282096523Y-132436478D01*
X282151687Y-132475105D01*
X282215121Y-132560627D01*
X282248196Y-132748209D01*
X282217839Y-132850269D01*
X282179212Y-132905434D01*
X282093690Y-132968868D01*
X281906107Y-133001943D01*
X281804047Y-132971586D01*
X281748883Y-132932959D01*
X281685449Y-132847437D01*
X281652373Y-132659854D01*
X281682731Y-132557794D01*
X281721358Y-132502630D01*
X281806880Y-132439196D01*
G04 #@! TO.C,D39*
X287457097Y-151355033D02*
X287283448Y-150370226D01*
X287048970Y-150411570D01*
X286916553Y-150483273D01*
X286839299Y-150593602D01*
X286808942Y-150695662D01*
X286795122Y-150891514D01*
X286819929Y-151032200D01*
X286899900Y-151211514D01*
X286963334Y-151297036D01*
X287073663Y-151374289D01*
X287222619Y-151396378D01*
X287457097Y-151355033D01*
X286392432Y-150527336D02*
X285782789Y-150634832D01*
X286177210Y-150952114D01*
X286036523Y-150976921D01*
X285951001Y-151040355D01*
X285912374Y-151095519D01*
X285882017Y-151197580D01*
X285923361Y-151432058D01*
X285986795Y-151517580D01*
X286041959Y-151556206D01*
X286144020Y-151586564D01*
X286425393Y-151536950D01*
X286510916Y-151473517D01*
X286549542Y-151418352D01*
X285487481Y-151702330D02*
X285299899Y-151735405D01*
X285197839Y-151705048D01*
X285142674Y-151666421D01*
X285024076Y-151542272D01*
X284944104Y-151362959D01*
X284877953Y-150987794D01*
X284908310Y-150885734D01*
X284946937Y-150830569D01*
X285032459Y-150767136D01*
X285220042Y-150734060D01*
X285322102Y-150764417D01*
X285377266Y-150803044D01*
X285440700Y-150888566D01*
X285482045Y-151123044D01*
X285451687Y-151225105D01*
X285413060Y-151280269D01*
X285327538Y-151343703D01*
X285139956Y-151376779D01*
X285037896Y-151346421D01*
X284982731Y-151307794D01*
X284919298Y-151222272D01*
G04 #@! TO.C,D40*
X290777097Y-170125033D02*
X290603448Y-169140226D01*
X290368970Y-169181570D01*
X290236553Y-169253273D01*
X290159299Y-169363602D01*
X290128942Y-169465662D01*
X290115122Y-169661514D01*
X290139929Y-169802200D01*
X290219900Y-169981514D01*
X290283334Y-170067036D01*
X290393663Y-170144289D01*
X290542619Y-170166378D01*
X290777097Y-170125033D01*
X289254463Y-169716564D02*
X289370228Y-170373102D01*
X289422789Y-169300054D02*
X289781302Y-169962143D01*
X289171659Y-170069640D01*
X288493146Y-169512329D02*
X288399355Y-169528867D01*
X288313833Y-169592300D01*
X288275206Y-169647465D01*
X288244848Y-169749525D01*
X288231029Y-169945376D01*
X288272373Y-170179854D01*
X288352345Y-170359168D01*
X288415778Y-170444690D01*
X288470943Y-170483317D01*
X288573003Y-170513674D01*
X288666794Y-170497137D01*
X288752317Y-170433703D01*
X288790943Y-170378538D01*
X288821301Y-170276478D01*
X288835121Y-170080627D01*
X288793776Y-169846149D01*
X288713804Y-169666835D01*
X288650371Y-169581313D01*
X288595206Y-169542686D01*
X288493146Y-169512329D01*
G04 #@! TO.C,D41*
X286667097Y-201605033D02*
X286493448Y-200620226D01*
X286258970Y-200661570D01*
X286126553Y-200733273D01*
X286049299Y-200843602D01*
X286018942Y-200945662D01*
X286005122Y-201141514D01*
X286029929Y-201282200D01*
X286109900Y-201461514D01*
X286173334Y-201547036D01*
X286283663Y-201624289D01*
X286432619Y-201646378D01*
X286667097Y-201605033D01*
X285144463Y-201196564D02*
X285260228Y-201853102D01*
X285312789Y-200780054D02*
X285671302Y-201442143D01*
X285061659Y-201549640D01*
X284228525Y-202035019D02*
X284791272Y-201935792D01*
X284509899Y-201985405D02*
X284336251Y-201000598D01*
X284454849Y-201124747D01*
X284565178Y-201202000D01*
X284667238Y-201232358D01*
G04 #@! TO.C,D42*
X300777097Y-117085033D02*
X300603448Y-116100226D01*
X300368970Y-116141570D01*
X300236553Y-116213273D01*
X300159299Y-116323602D01*
X300128942Y-116425662D01*
X300115122Y-116621514D01*
X300139929Y-116762200D01*
X300219900Y-116941514D01*
X300283334Y-117027036D01*
X300393663Y-117104289D01*
X300542619Y-117126378D01*
X300777097Y-117085033D01*
X299254463Y-116676564D02*
X299370228Y-117333102D01*
X299422789Y-116260054D02*
X299781302Y-116922143D01*
X299171659Y-117029640D01*
X298744162Y-116524775D02*
X298688997Y-116486149D01*
X298586937Y-116455791D01*
X298352459Y-116497136D01*
X298266937Y-116560569D01*
X298228310Y-116615734D01*
X298197953Y-116717794D01*
X298214491Y-116811585D01*
X298286193Y-116944003D01*
X298948168Y-117407523D01*
X298338525Y-117515019D01*
G04 #@! TO.C,D43*
X304087097Y-135845033D02*
X303913448Y-134860226D01*
X303678970Y-134901570D01*
X303546553Y-134973273D01*
X303469299Y-135083602D01*
X303438942Y-135185662D01*
X303425122Y-135381514D01*
X303449929Y-135522200D01*
X303529900Y-135701514D01*
X303593334Y-135787036D01*
X303703663Y-135864289D01*
X303852619Y-135886378D01*
X304087097Y-135845033D01*
X302564463Y-135436564D02*
X302680228Y-136093102D01*
X302732789Y-135020054D02*
X303091302Y-135682143D01*
X302481659Y-135789640D01*
X302084520Y-135182715D02*
X301474877Y-135290211D01*
X301869298Y-135607494D01*
X301728611Y-135632300D01*
X301643089Y-135695734D01*
X301604462Y-135750899D01*
X301574104Y-135852959D01*
X301615449Y-136087437D01*
X301678883Y-136172959D01*
X301734047Y-136211586D01*
X301836107Y-136241943D01*
X302117481Y-136192330D01*
X302203003Y-136128896D01*
X302241630Y-136073732D01*
G04 #@! TO.C,D44*
X307397097Y-154625033D02*
X307223448Y-153640226D01*
X306988970Y-153681570D01*
X306856553Y-153753273D01*
X306779299Y-153863602D01*
X306748942Y-153965662D01*
X306735122Y-154161514D01*
X306759929Y-154302200D01*
X306839900Y-154481514D01*
X306903334Y-154567036D01*
X307013663Y-154644289D01*
X307162619Y-154666378D01*
X307397097Y-154625033D01*
X305874463Y-154216564D02*
X305990228Y-154873102D01*
X306042789Y-153800054D02*
X306401302Y-154462143D01*
X305791659Y-154569640D01*
X304936551Y-154381943D02*
X305052316Y-155038481D01*
X305104877Y-153965433D02*
X305463390Y-154627522D01*
X304853747Y-154735019D01*
G04 #@! TO.C,D45*
X310727097Y-173575033D02*
X310553448Y-172590226D01*
X310318970Y-172631570D01*
X310186553Y-172703273D01*
X310109299Y-172813602D01*
X310078942Y-172915662D01*
X310065122Y-173111514D01*
X310089929Y-173252200D01*
X310169900Y-173431514D01*
X310233334Y-173517036D01*
X310343663Y-173594289D01*
X310492619Y-173616378D01*
X310727097Y-173575033D01*
X309204463Y-173166564D02*
X309320228Y-173823102D01*
X309372789Y-172750054D02*
X309731302Y-173412143D01*
X309121659Y-173519640D01*
X308161772Y-173011943D02*
X308630729Y-172929253D01*
X308760314Y-173389940D01*
X308705149Y-173351313D01*
X308603089Y-173320956D01*
X308368611Y-173362300D01*
X308283089Y-173425734D01*
X308244462Y-173480899D01*
X308214104Y-173582959D01*
X308255449Y-173817437D01*
X308318883Y-173902959D01*
X308374047Y-173941586D01*
X308476107Y-173971943D01*
X308710586Y-173930599D01*
X308796108Y-173867165D01*
X308834734Y-173812000D01*
G04 #@! TO.C,D46*
X320377097Y-118475033D02*
X320203448Y-117490226D01*
X319968970Y-117531570D01*
X319836553Y-117603273D01*
X319759299Y-117713602D01*
X319728942Y-117815662D01*
X319715122Y-118011514D01*
X319739929Y-118152200D01*
X319819900Y-118331514D01*
X319883334Y-118417036D01*
X319993663Y-118494289D01*
X320142619Y-118516378D01*
X320377097Y-118475033D01*
X318854463Y-118066564D02*
X318970228Y-118723102D01*
X319022789Y-117650054D02*
X319381302Y-118312143D01*
X318771659Y-118419640D01*
X317858668Y-117903674D02*
X318046251Y-117870598D01*
X318148311Y-117900955D01*
X318203475Y-117939582D01*
X318322073Y-118063731D01*
X318402045Y-118243044D01*
X318468196Y-118618209D01*
X318437839Y-118720269D01*
X318399212Y-118775434D01*
X318313690Y-118838868D01*
X318126107Y-118871943D01*
X318024047Y-118841586D01*
X317968883Y-118802959D01*
X317905449Y-118717437D01*
X317864104Y-118482959D01*
X317894462Y-118380899D01*
X317933089Y-118325734D01*
X318018611Y-118262300D01*
X318206193Y-118229225D01*
X318308254Y-118259582D01*
X318363418Y-118298209D01*
X318426852Y-118383731D01*
G04 #@! TO.C,D47*
X323657097Y-137235033D02*
X323483448Y-136250226D01*
X323248970Y-136291570D01*
X323116553Y-136363273D01*
X323039299Y-136473602D01*
X323008942Y-136575662D01*
X322995122Y-136771514D01*
X323019929Y-136912200D01*
X323099900Y-137091514D01*
X323163334Y-137177036D01*
X323273663Y-137254289D01*
X323422619Y-137276378D01*
X323657097Y-137235033D01*
X322134463Y-136826564D02*
X322250228Y-137483102D01*
X322302789Y-136410054D02*
X322661302Y-137072143D01*
X322051659Y-137179640D01*
X321654520Y-136572715D02*
X320997981Y-136688480D01*
X321593690Y-137598868D01*
G04 #@! TO.C,D48*
X326957097Y-156015033D02*
X326783448Y-155030226D01*
X326548970Y-155071570D01*
X326416553Y-155143273D01*
X326339299Y-155253602D01*
X326308942Y-155355662D01*
X326295122Y-155551514D01*
X326319929Y-155692200D01*
X326399900Y-155871514D01*
X326463334Y-155957036D01*
X326573663Y-156034289D01*
X326722619Y-156056378D01*
X326957097Y-156015033D01*
X325434463Y-155606564D02*
X325550228Y-156263102D01*
X325602789Y-155190054D02*
X325961302Y-155852143D01*
X325351659Y-155959640D01*
X324794462Y-155816120D02*
X324879985Y-155752687D01*
X324918611Y-155697522D01*
X324948969Y-155595462D01*
X324940700Y-155548566D01*
X324877266Y-155463044D01*
X324822102Y-155424417D01*
X324720042Y-155394060D01*
X324532459Y-155427136D01*
X324446937Y-155490569D01*
X324408310Y-155545734D01*
X324377953Y-155647794D01*
X324386222Y-155694690D01*
X324449655Y-155780212D01*
X324504820Y-155818838D01*
X324606880Y-155849196D01*
X324794462Y-155816120D01*
X324896523Y-155846478D01*
X324951687Y-155885105D01*
X325015121Y-155970627D01*
X325048196Y-156158209D01*
X325017839Y-156260269D01*
X324979212Y-156315434D01*
X324893690Y-156378868D01*
X324706107Y-156411943D01*
X324604047Y-156381586D01*
X324548883Y-156342959D01*
X324485449Y-156257437D01*
X324452373Y-156069854D01*
X324482731Y-155967794D01*
X324521358Y-155912630D01*
X324606880Y-155849196D01*
G04 #@! TO.C,D49*
X330307097Y-174775033D02*
X330133448Y-173790226D01*
X329898970Y-173831570D01*
X329766553Y-173903273D01*
X329689299Y-174013602D01*
X329658942Y-174115662D01*
X329645122Y-174311514D01*
X329669929Y-174452200D01*
X329749900Y-174631514D01*
X329813334Y-174717036D01*
X329923663Y-174794289D01*
X330072619Y-174816378D01*
X330307097Y-174775033D01*
X328784463Y-174366564D02*
X328900228Y-175023102D01*
X328952789Y-173950054D02*
X329311302Y-174612143D01*
X328701659Y-174719640D01*
X328337481Y-175122330D02*
X328149899Y-175155405D01*
X328047839Y-175125048D01*
X327992674Y-175086421D01*
X327874076Y-174962272D01*
X327794104Y-174782959D01*
X327727953Y-174407794D01*
X327758310Y-174305734D01*
X327796937Y-174250569D01*
X327882459Y-174187136D01*
X328070042Y-174154060D01*
X328172102Y-174184417D01*
X328227266Y-174223044D01*
X328290700Y-174308566D01*
X328332045Y-174543044D01*
X328301687Y-174645105D01*
X328263060Y-174700269D01*
X328177538Y-174763703D01*
X327989956Y-174796779D01*
X327887896Y-174766421D01*
X327832731Y-174727794D01*
X327769298Y-174642272D01*
G04 #@! TO.C,D50*
X342427097Y-133935033D02*
X342253448Y-132950226D01*
X342018970Y-132991570D01*
X341886553Y-133063273D01*
X341809299Y-133173602D01*
X341778942Y-133275662D01*
X341765122Y-133471514D01*
X341789929Y-133612200D01*
X341869900Y-133791514D01*
X341933334Y-133877036D01*
X342043663Y-133954289D01*
X342192619Y-133976378D01*
X342427097Y-133935033D01*
X340799685Y-133206563D02*
X341268641Y-133123874D01*
X341398226Y-133584561D01*
X341343061Y-133545934D01*
X341241001Y-133515576D01*
X341006523Y-133556921D01*
X340921001Y-133620355D01*
X340882374Y-133675519D01*
X340852017Y-133777580D01*
X340893361Y-134012058D01*
X340956795Y-134097580D01*
X341011959Y-134136206D01*
X341114020Y-134166564D01*
X341348498Y-134125219D01*
X341434020Y-134061786D01*
X341472647Y-134006621D01*
X340143146Y-133322329D02*
X340049355Y-133338867D01*
X339963833Y-133402300D01*
X339925206Y-133457465D01*
X339894848Y-133559525D01*
X339881029Y-133755376D01*
X339922373Y-133989854D01*
X340002345Y-134169168D01*
X340065778Y-134254690D01*
X340120943Y-134293317D01*
X340223003Y-134323674D01*
X340316794Y-134307137D01*
X340402317Y-134243703D01*
X340440943Y-134188538D01*
X340471301Y-134086478D01*
X340485121Y-133890627D01*
X340443776Y-133656149D01*
X340363804Y-133476835D01*
X340300371Y-133391313D01*
X340245206Y-133352686D01*
X340143146Y-133322329D01*
G04 #@! TO.C,D51*
X345727097Y-152685033D02*
X345553448Y-151700226D01*
X345318970Y-151741570D01*
X345186553Y-151813273D01*
X345109299Y-151923602D01*
X345078942Y-152025662D01*
X345065122Y-152221514D01*
X345089929Y-152362200D01*
X345169900Y-152541514D01*
X345233334Y-152627036D01*
X345343663Y-152704289D01*
X345492619Y-152726378D01*
X345727097Y-152685033D01*
X344099685Y-151956563D02*
X344568641Y-151873874D01*
X344698226Y-152334561D01*
X344643061Y-152295934D01*
X344541001Y-152265576D01*
X344306523Y-152306921D01*
X344221001Y-152370355D01*
X344182374Y-152425519D01*
X344152017Y-152527580D01*
X344193361Y-152762058D01*
X344256795Y-152847580D01*
X344311959Y-152886206D01*
X344414020Y-152916564D01*
X344648498Y-152875219D01*
X344734020Y-152811786D01*
X344772647Y-152756621D01*
X343288525Y-153115019D02*
X343851272Y-153015792D01*
X343569899Y-153065405D02*
X343396251Y-152080598D01*
X343514849Y-152204747D01*
X343625178Y-152282000D01*
X343727238Y-152312358D01*
G04 #@! TO.C,D52*
X349027097Y-171455033D02*
X348853448Y-170470226D01*
X348618970Y-170511570D01*
X348486553Y-170583273D01*
X348409299Y-170693602D01*
X348378942Y-170795662D01*
X348365122Y-170991514D01*
X348389929Y-171132200D01*
X348469900Y-171311514D01*
X348533334Y-171397036D01*
X348643663Y-171474289D01*
X348792619Y-171496378D01*
X349027097Y-171455033D01*
X347399685Y-170726563D02*
X347868641Y-170643874D01*
X347998226Y-171104561D01*
X347943061Y-171065934D01*
X347841001Y-171035576D01*
X347606523Y-171076921D01*
X347521001Y-171140355D01*
X347482374Y-171195519D01*
X347452017Y-171297580D01*
X347493361Y-171532058D01*
X347556795Y-171617580D01*
X347611959Y-171656206D01*
X347714020Y-171686564D01*
X347948498Y-171645219D01*
X348034020Y-171581786D01*
X348072647Y-171526621D01*
X346994162Y-170894775D02*
X346938997Y-170856149D01*
X346836937Y-170825791D01*
X346602459Y-170867136D01*
X346516937Y-170930569D01*
X346478310Y-170985734D01*
X346447953Y-171087794D01*
X346464491Y-171181585D01*
X346536193Y-171314003D01*
X347198168Y-171777523D01*
X346588525Y-171885019D01*
G04 #@! TO.C,SW53*
X216869380Y-186862380D02*
X217202714Y-186386190D01*
X217440809Y-186862380D02*
X217440809Y-185862380D01*
X217059857Y-185862380D01*
X216964619Y-185910000D01*
X216917000Y-185957619D01*
X216869380Y-186052857D01*
X216869380Y-186195714D01*
X216917000Y-186290952D01*
X216964619Y-186338571D01*
X217059857Y-186386190D01*
X217440809Y-186386190D01*
X216440809Y-186338571D02*
X216107476Y-186338571D01*
X215964619Y-186862380D02*
X216440809Y-186862380D01*
X216440809Y-185862380D01*
X215964619Y-185862380D01*
X215583666Y-186814761D02*
X215440809Y-186862380D01*
X215202714Y-186862380D01*
X215107476Y-186814761D01*
X215059857Y-186767142D01*
X215012238Y-186671904D01*
X215012238Y-186576666D01*
X215059857Y-186481428D01*
X215107476Y-186433809D01*
X215202714Y-186386190D01*
X215393190Y-186338571D01*
X215488428Y-186290952D01*
X215536047Y-186243333D01*
X215583666Y-186148095D01*
X215583666Y-186052857D01*
X215536047Y-185957619D01*
X215488428Y-185910000D01*
X215393190Y-185862380D01*
X215155095Y-185862380D01*
X215012238Y-185910000D01*
X214583666Y-186338571D02*
X214250333Y-186338571D01*
X214107476Y-186862380D02*
X214583666Y-186862380D01*
X214583666Y-185862380D01*
X214107476Y-185862380D01*
X213821761Y-185862380D02*
X213250333Y-185862380D01*
X213536047Y-186862380D02*
X213536047Y-185862380D01*
G04 #@! TO.C,U1*
D13*
X210710952Y-164541285D02*
X210877619Y-164184142D01*
X210996666Y-164541285D02*
X210996666Y-163791285D01*
X210806190Y-163791285D01*
X210758571Y-163827000D01*
X210734761Y-163862714D01*
X210710952Y-163934142D01*
X210710952Y-164041285D01*
X210734761Y-164112714D01*
X210758571Y-164148428D01*
X210806190Y-164184142D01*
X210996666Y-164184142D01*
X210401428Y-163791285D02*
X210306190Y-163791285D01*
X210258571Y-163827000D01*
X210210952Y-163898428D01*
X210187142Y-164041285D01*
X210187142Y-164291285D01*
X210210952Y-164434142D01*
X210258571Y-164505571D01*
X210306190Y-164541285D01*
X210401428Y-164541285D01*
X210449047Y-164505571D01*
X210496666Y-164434142D01*
X210520476Y-164291285D01*
X210520476Y-164041285D01*
X210496666Y-163898428D01*
X210449047Y-163827000D01*
X210401428Y-163791285D01*
X210020476Y-163791285D02*
X209901428Y-164541285D01*
X209806190Y-164005571D01*
X209710952Y-164541285D01*
X209591904Y-163791285D01*
X209139523Y-164541285D02*
X209425238Y-164541285D01*
X209282380Y-164541285D02*
X209282380Y-163791285D01*
X209330000Y-163898428D01*
X209377619Y-163969857D01*
X209425238Y-164005571D01*
X225827619Y-167017857D02*
X225851428Y-167053571D01*
X225922857Y-167089285D01*
X225970476Y-167089285D01*
X226041904Y-167053571D01*
X226089523Y-166982142D01*
X226113333Y-166910714D01*
X226137142Y-166767857D01*
X226137142Y-166660714D01*
X226113333Y-166517857D01*
X226089523Y-166446428D01*
X226041904Y-166375000D01*
X225970476Y-166339285D01*
X225922857Y-166339285D01*
X225851428Y-166375000D01*
X225827619Y-166410714D01*
X225518095Y-166339285D02*
X225422857Y-166339285D01*
X225375238Y-166375000D01*
X225327619Y-166446428D01*
X225303809Y-166589285D01*
X225303809Y-166839285D01*
X225327619Y-166982142D01*
X225375238Y-167053571D01*
X225422857Y-167089285D01*
X225518095Y-167089285D01*
X225565714Y-167053571D01*
X225613333Y-166982142D01*
X225637142Y-166839285D01*
X225637142Y-166589285D01*
X225613333Y-166446428D01*
X225565714Y-166375000D01*
X225518095Y-166339285D01*
X224851428Y-167089285D02*
X225089523Y-167089285D01*
X225089523Y-166339285D01*
X224470476Y-166589285D02*
X224470476Y-167089285D01*
X224589523Y-166303571D02*
X224708571Y-166839285D01*
X224399047Y-166839285D01*
X210760952Y-167089285D02*
X210927619Y-166732142D01*
X211046666Y-167089285D02*
X211046666Y-166339285D01*
X210856190Y-166339285D01*
X210808571Y-166375000D01*
X210784761Y-166410714D01*
X210760952Y-166482142D01*
X210760952Y-166589285D01*
X210784761Y-166660714D01*
X210808571Y-166696428D01*
X210856190Y-166732142D01*
X211046666Y-166732142D01*
X210451428Y-166339285D02*
X210356190Y-166339285D01*
X210308571Y-166375000D01*
X210260952Y-166446428D01*
X210237142Y-166589285D01*
X210237142Y-166839285D01*
X210260952Y-166982142D01*
X210308571Y-167053571D01*
X210356190Y-167089285D01*
X210451428Y-167089285D01*
X210499047Y-167053571D01*
X210546666Y-166982142D01*
X210570476Y-166839285D01*
X210570476Y-166589285D01*
X210546666Y-166446428D01*
X210499047Y-166375000D01*
X210451428Y-166339285D01*
X210070476Y-166339285D02*
X209951428Y-167089285D01*
X209856190Y-166553571D01*
X209760952Y-167089285D01*
X209641904Y-166339285D01*
X209475238Y-166410714D02*
X209451428Y-166375000D01*
X209403809Y-166339285D01*
X209284761Y-166339285D01*
X209237142Y-166375000D01*
X209213333Y-166410714D01*
X209189523Y-166482142D01*
X209189523Y-166553571D01*
X209213333Y-166660714D01*
X209499047Y-167089285D01*
X209189523Y-167089285D01*
X225827619Y-169613357D02*
X225851428Y-169649071D01*
X225922857Y-169684785D01*
X225970476Y-169684785D01*
X226041904Y-169649071D01*
X226089523Y-169577642D01*
X226113333Y-169506214D01*
X226137142Y-169363357D01*
X226137142Y-169256214D01*
X226113333Y-169113357D01*
X226089523Y-169041928D01*
X226041904Y-168970500D01*
X225970476Y-168934785D01*
X225922857Y-168934785D01*
X225851428Y-168970500D01*
X225827619Y-169006214D01*
X225518095Y-168934785D02*
X225422857Y-168934785D01*
X225375238Y-168970500D01*
X225327619Y-169041928D01*
X225303809Y-169184785D01*
X225303809Y-169434785D01*
X225327619Y-169577642D01*
X225375238Y-169649071D01*
X225422857Y-169684785D01*
X225518095Y-169684785D01*
X225565714Y-169649071D01*
X225613333Y-169577642D01*
X225637142Y-169434785D01*
X225637142Y-169184785D01*
X225613333Y-169041928D01*
X225565714Y-168970500D01*
X225518095Y-168934785D01*
X224851428Y-169684785D02*
X225089523Y-169684785D01*
X225089523Y-168934785D01*
X224446666Y-168934785D02*
X224684761Y-168934785D01*
X224708571Y-169291928D01*
X224684761Y-169256214D01*
X224637142Y-169220500D01*
X224518095Y-169220500D01*
X224470476Y-169256214D01*
X224446666Y-169291928D01*
X224422857Y-169363357D01*
X224422857Y-169541928D01*
X224446666Y-169613357D01*
X224470476Y-169649071D01*
X224518095Y-169684785D01*
X224637142Y-169684785D01*
X224684761Y-169649071D01*
X224708571Y-169613357D01*
X210760952Y-169684785D02*
X210927619Y-169327642D01*
X211046666Y-169684785D02*
X211046666Y-168934785D01*
X210856190Y-168934785D01*
X210808571Y-168970500D01*
X210784761Y-169006214D01*
X210760952Y-169077642D01*
X210760952Y-169184785D01*
X210784761Y-169256214D01*
X210808571Y-169291928D01*
X210856190Y-169327642D01*
X211046666Y-169327642D01*
X210451428Y-168934785D02*
X210356190Y-168934785D01*
X210308571Y-168970500D01*
X210260952Y-169041928D01*
X210237142Y-169184785D01*
X210237142Y-169434785D01*
X210260952Y-169577642D01*
X210308571Y-169649071D01*
X210356190Y-169684785D01*
X210451428Y-169684785D01*
X210499047Y-169649071D01*
X210546666Y-169577642D01*
X210570476Y-169434785D01*
X210570476Y-169184785D01*
X210546666Y-169041928D01*
X210499047Y-168970500D01*
X210451428Y-168934785D01*
X210070476Y-168934785D02*
X209951428Y-169684785D01*
X209856190Y-169149071D01*
X209760952Y-169684785D01*
X209641904Y-168934785D01*
X209499047Y-168934785D02*
X209189523Y-168934785D01*
X209356190Y-169220500D01*
X209284761Y-169220500D01*
X209237142Y-169256214D01*
X209213333Y-169291928D01*
X209189523Y-169363357D01*
X209189523Y-169541928D01*
X209213333Y-169613357D01*
X209237142Y-169649071D01*
X209284761Y-169684785D01*
X209427619Y-169684785D01*
X209475238Y-169649071D01*
X209499047Y-169613357D01*
X225482380Y-171796428D02*
X225410952Y-171832142D01*
X225387142Y-171867857D01*
X225363333Y-171939285D01*
X225363333Y-172046428D01*
X225387142Y-172117857D01*
X225410952Y-172153571D01*
X225458571Y-172189285D01*
X225649047Y-172189285D01*
X225649047Y-171439285D01*
X225482380Y-171439285D01*
X225434761Y-171475000D01*
X225410952Y-171510714D01*
X225387142Y-171582142D01*
X225387142Y-171653571D01*
X225410952Y-171725000D01*
X225434761Y-171760714D01*
X225482380Y-171796428D01*
X225649047Y-171796428D01*
X225172857Y-171510714D02*
X225149047Y-171475000D01*
X225101428Y-171439285D01*
X224982380Y-171439285D01*
X224934761Y-171475000D01*
X224910952Y-171510714D01*
X224887142Y-171582142D01*
X224887142Y-171653571D01*
X224910952Y-171760714D01*
X225196666Y-172189285D01*
X224887142Y-172189285D01*
X210332380Y-171768428D02*
X210260952Y-171804142D01*
X210237142Y-171839857D01*
X210213333Y-171911285D01*
X210213333Y-172018428D01*
X210237142Y-172089857D01*
X210260952Y-172125571D01*
X210308571Y-172161285D01*
X210499047Y-172161285D01*
X210499047Y-171411285D01*
X210332380Y-171411285D01*
X210284761Y-171447000D01*
X210260952Y-171482714D01*
X210237142Y-171554142D01*
X210237142Y-171625571D01*
X210260952Y-171697000D01*
X210284761Y-171732714D01*
X210332380Y-171768428D01*
X210499047Y-171768428D01*
X209784761Y-171661285D02*
X209784761Y-172161285D01*
X209903809Y-171375571D02*
X210022857Y-171911285D01*
X209713333Y-171911285D01*
X210332380Y-174371928D02*
X210260952Y-174407642D01*
X210237142Y-174443357D01*
X210213333Y-174514785D01*
X210213333Y-174621928D01*
X210237142Y-174693357D01*
X210260952Y-174729071D01*
X210308571Y-174764785D01*
X210499047Y-174764785D01*
X210499047Y-174014785D01*
X210332380Y-174014785D01*
X210284761Y-174050500D01*
X210260952Y-174086214D01*
X210237142Y-174157642D01*
X210237142Y-174229071D01*
X210260952Y-174300500D01*
X210284761Y-174336214D01*
X210332380Y-174371928D01*
X210499047Y-174371928D01*
X209760952Y-174014785D02*
X209999047Y-174014785D01*
X210022857Y-174371928D01*
X209999047Y-174336214D01*
X209951428Y-174300500D01*
X209832380Y-174300500D01*
X209784761Y-174336214D01*
X209760952Y-174371928D01*
X209737142Y-174443357D01*
X209737142Y-174621928D01*
X209760952Y-174693357D01*
X209784761Y-174729071D01*
X209832380Y-174764785D01*
X209951428Y-174764785D01*
X209999047Y-174729071D01*
X210022857Y-174693357D01*
X225582380Y-174346428D02*
X225510952Y-174382142D01*
X225487142Y-174417857D01*
X225463333Y-174489285D01*
X225463333Y-174596428D01*
X225487142Y-174667857D01*
X225510952Y-174703571D01*
X225558571Y-174739285D01*
X225749047Y-174739285D01*
X225749047Y-173989285D01*
X225582380Y-173989285D01*
X225534761Y-174025000D01*
X225510952Y-174060714D01*
X225487142Y-174132142D01*
X225487142Y-174203571D01*
X225510952Y-174275000D01*
X225534761Y-174310714D01*
X225582380Y-174346428D01*
X225749047Y-174346428D01*
X225034761Y-173989285D02*
X225130000Y-173989285D01*
X225177619Y-174025000D01*
X225201428Y-174060714D01*
X225249047Y-174167857D01*
X225272857Y-174310714D01*
X225272857Y-174596428D01*
X225249047Y-174667857D01*
X225225238Y-174703571D01*
X225177619Y-174739285D01*
X225082380Y-174739285D01*
X225034761Y-174703571D01*
X225010952Y-174667857D01*
X224987142Y-174596428D01*
X224987142Y-174417857D01*
X225010952Y-174346428D01*
X225034761Y-174310714D01*
X225082380Y-174275000D01*
X225177619Y-174275000D01*
X225225238Y-174310714D01*
X225249047Y-174346428D01*
X225272857Y-174417857D01*
X225777619Y-156867857D02*
X225801428Y-156903571D01*
X225872857Y-156939285D01*
X225920476Y-156939285D01*
X225991904Y-156903571D01*
X226039523Y-156832142D01*
X226063333Y-156760714D01*
X226087142Y-156617857D01*
X226087142Y-156510714D01*
X226063333Y-156367857D01*
X226039523Y-156296428D01*
X225991904Y-156225000D01*
X225920476Y-156189285D01*
X225872857Y-156189285D01*
X225801428Y-156225000D01*
X225777619Y-156260714D01*
X225468095Y-156189285D02*
X225372857Y-156189285D01*
X225325238Y-156225000D01*
X225277619Y-156296428D01*
X225253809Y-156439285D01*
X225253809Y-156689285D01*
X225277619Y-156832142D01*
X225325238Y-156903571D01*
X225372857Y-156939285D01*
X225468095Y-156939285D01*
X225515714Y-156903571D01*
X225563333Y-156832142D01*
X225587142Y-156689285D01*
X225587142Y-156439285D01*
X225563333Y-156296428D01*
X225515714Y-156225000D01*
X225468095Y-156189285D01*
X224801428Y-156939285D02*
X225039523Y-156939285D01*
X225039523Y-156189285D01*
X224539523Y-156189285D02*
X224491904Y-156189285D01*
X224444285Y-156225000D01*
X224420476Y-156260714D01*
X224396666Y-156332142D01*
X224372857Y-156475000D01*
X224372857Y-156653571D01*
X224396666Y-156796428D01*
X224420476Y-156867857D01*
X224444285Y-156903571D01*
X224491904Y-156939285D01*
X224539523Y-156939285D01*
X224587142Y-156903571D01*
X224610952Y-156867857D01*
X224634761Y-156796428D01*
X224658571Y-156653571D01*
X224658571Y-156475000D01*
X224634761Y-156332142D01*
X224610952Y-156260714D01*
X224587142Y-156225000D01*
X224539523Y-156189285D01*
X210476142Y-156885571D02*
X210404714Y-156921285D01*
X210285666Y-156921285D01*
X210238047Y-156885571D01*
X210214238Y-156849857D01*
X210190428Y-156778428D01*
X210190428Y-156707000D01*
X210214238Y-156635571D01*
X210238047Y-156599857D01*
X210285666Y-156564142D01*
X210380904Y-156528428D01*
X210428523Y-156492714D01*
X210452333Y-156457000D01*
X210476142Y-156385571D01*
X210476142Y-156314142D01*
X210452333Y-156242714D01*
X210428523Y-156207000D01*
X210380904Y-156171285D01*
X210261857Y-156171285D01*
X210190428Y-156207000D01*
X209976142Y-156921285D02*
X209976142Y-156171285D01*
X209857095Y-156171285D01*
X209785666Y-156207000D01*
X209738047Y-156278428D01*
X209714238Y-156349857D01*
X209690428Y-156492714D01*
X209690428Y-156599857D01*
X209714238Y-156742714D01*
X209738047Y-156814142D01*
X209785666Y-156885571D01*
X209857095Y-156921285D01*
X209976142Y-156921285D01*
X209499952Y-156707000D02*
X209261857Y-156707000D01*
X209547571Y-156921285D02*
X209380904Y-156171285D01*
X209214238Y-156921285D01*
X225727619Y-159389857D02*
X225751428Y-159425571D01*
X225822857Y-159461285D01*
X225870476Y-159461285D01*
X225941904Y-159425571D01*
X225989523Y-159354142D01*
X226013333Y-159282714D01*
X226037142Y-159139857D01*
X226037142Y-159032714D01*
X226013333Y-158889857D01*
X225989523Y-158818428D01*
X225941904Y-158747000D01*
X225870476Y-158711285D01*
X225822857Y-158711285D01*
X225751428Y-158747000D01*
X225727619Y-158782714D01*
X225418095Y-158711285D02*
X225322857Y-158711285D01*
X225275238Y-158747000D01*
X225227619Y-158818428D01*
X225203809Y-158961285D01*
X225203809Y-159211285D01*
X225227619Y-159354142D01*
X225275238Y-159425571D01*
X225322857Y-159461285D01*
X225418095Y-159461285D01*
X225465714Y-159425571D01*
X225513333Y-159354142D01*
X225537142Y-159211285D01*
X225537142Y-158961285D01*
X225513333Y-158818428D01*
X225465714Y-158747000D01*
X225418095Y-158711285D01*
X224751428Y-159461285D02*
X224989523Y-159461285D01*
X224989523Y-158711285D01*
X224322857Y-159461285D02*
X224608571Y-159461285D01*
X224465714Y-159461285D02*
X224465714Y-158711285D01*
X224513333Y-158818428D01*
X224560952Y-158889857D01*
X224608571Y-158925571D01*
X210464238Y-159425571D02*
X210392809Y-159461285D01*
X210273761Y-159461285D01*
X210226142Y-159425571D01*
X210202333Y-159389857D01*
X210178523Y-159318428D01*
X210178523Y-159247000D01*
X210202333Y-159175571D01*
X210226142Y-159139857D01*
X210273761Y-159104142D01*
X210369000Y-159068428D01*
X210416619Y-159032714D01*
X210440428Y-158997000D01*
X210464238Y-158925571D01*
X210464238Y-158854142D01*
X210440428Y-158782714D01*
X210416619Y-158747000D01*
X210369000Y-158711285D01*
X210249952Y-158711285D01*
X210178523Y-158747000D01*
X209678523Y-159389857D02*
X209702333Y-159425571D01*
X209773761Y-159461285D01*
X209821380Y-159461285D01*
X209892809Y-159425571D01*
X209940428Y-159354142D01*
X209964238Y-159282714D01*
X209988047Y-159139857D01*
X209988047Y-159032714D01*
X209964238Y-158889857D01*
X209940428Y-158818428D01*
X209892809Y-158747000D01*
X209821380Y-158711285D01*
X209773761Y-158711285D01*
X209702333Y-158747000D01*
X209678523Y-158782714D01*
X209226142Y-159461285D02*
X209464238Y-159461285D01*
X209464238Y-158711285D01*
X225777619Y-161929857D02*
X225801428Y-161965571D01*
X225872857Y-162001285D01*
X225920476Y-162001285D01*
X225991904Y-161965571D01*
X226039523Y-161894142D01*
X226063333Y-161822714D01*
X226087142Y-161679857D01*
X226087142Y-161572714D01*
X226063333Y-161429857D01*
X226039523Y-161358428D01*
X225991904Y-161287000D01*
X225920476Y-161251285D01*
X225872857Y-161251285D01*
X225801428Y-161287000D01*
X225777619Y-161322714D01*
X225468095Y-161251285D02*
X225372857Y-161251285D01*
X225325238Y-161287000D01*
X225277619Y-161358428D01*
X225253809Y-161501285D01*
X225253809Y-161751285D01*
X225277619Y-161894142D01*
X225325238Y-161965571D01*
X225372857Y-162001285D01*
X225468095Y-162001285D01*
X225515714Y-161965571D01*
X225563333Y-161894142D01*
X225587142Y-161751285D01*
X225587142Y-161501285D01*
X225563333Y-161358428D01*
X225515714Y-161287000D01*
X225468095Y-161251285D01*
X224801428Y-162001285D02*
X225039523Y-162001285D01*
X225039523Y-161251285D01*
X224658571Y-161322714D02*
X224634761Y-161287000D01*
X224587142Y-161251285D01*
X224468095Y-161251285D01*
X224420476Y-161287000D01*
X224396666Y-161322714D01*
X224372857Y-161394142D01*
X224372857Y-161465571D01*
X224396666Y-161572714D01*
X224682380Y-162001285D01*
X224372857Y-162001285D01*
X210760952Y-162039285D02*
X210927619Y-161682142D01*
X211046666Y-162039285D02*
X211046666Y-161289285D01*
X210856190Y-161289285D01*
X210808571Y-161325000D01*
X210784761Y-161360714D01*
X210760952Y-161432142D01*
X210760952Y-161539285D01*
X210784761Y-161610714D01*
X210808571Y-161646428D01*
X210856190Y-161682142D01*
X211046666Y-161682142D01*
X210451428Y-161289285D02*
X210356190Y-161289285D01*
X210308571Y-161325000D01*
X210260952Y-161396428D01*
X210237142Y-161539285D01*
X210237142Y-161789285D01*
X210260952Y-161932142D01*
X210308571Y-162003571D01*
X210356190Y-162039285D01*
X210451428Y-162039285D01*
X210499047Y-162003571D01*
X210546666Y-161932142D01*
X210570476Y-161789285D01*
X210570476Y-161539285D01*
X210546666Y-161396428D01*
X210499047Y-161325000D01*
X210451428Y-161289285D01*
X210070476Y-161289285D02*
X209951428Y-162039285D01*
X209856190Y-161503571D01*
X209760952Y-162039285D01*
X209641904Y-161289285D01*
X209356190Y-161289285D02*
X209308571Y-161289285D01*
X209260952Y-161325000D01*
X209237142Y-161360714D01*
X209213333Y-161432142D01*
X209189523Y-161575000D01*
X209189523Y-161753571D01*
X209213333Y-161896428D01*
X209237142Y-161967857D01*
X209260952Y-162003571D01*
X209308571Y-162039285D01*
X209356190Y-162039285D01*
X209403809Y-162003571D01*
X209427619Y-161967857D01*
X209451428Y-161896428D01*
X209475238Y-161753571D01*
X209475238Y-161575000D01*
X209451428Y-161432142D01*
X209427619Y-161360714D01*
X209403809Y-161325000D01*
X209356190Y-161289285D01*
X225877619Y-164517857D02*
X225901428Y-164553571D01*
X225972857Y-164589285D01*
X226020476Y-164589285D01*
X226091904Y-164553571D01*
X226139523Y-164482142D01*
X226163333Y-164410714D01*
X226187142Y-164267857D01*
X226187142Y-164160714D01*
X226163333Y-164017857D01*
X226139523Y-163946428D01*
X226091904Y-163875000D01*
X226020476Y-163839285D01*
X225972857Y-163839285D01*
X225901428Y-163875000D01*
X225877619Y-163910714D01*
X225568095Y-163839285D02*
X225472857Y-163839285D01*
X225425238Y-163875000D01*
X225377619Y-163946428D01*
X225353809Y-164089285D01*
X225353809Y-164339285D01*
X225377619Y-164482142D01*
X225425238Y-164553571D01*
X225472857Y-164589285D01*
X225568095Y-164589285D01*
X225615714Y-164553571D01*
X225663333Y-164482142D01*
X225687142Y-164339285D01*
X225687142Y-164089285D01*
X225663333Y-163946428D01*
X225615714Y-163875000D01*
X225568095Y-163839285D01*
X224901428Y-164589285D02*
X225139523Y-164589285D01*
X225139523Y-163839285D01*
X224782380Y-163839285D02*
X224472857Y-163839285D01*
X224639523Y-164125000D01*
X224568095Y-164125000D01*
X224520476Y-164160714D01*
X224496666Y-164196428D01*
X224472857Y-164267857D01*
X224472857Y-164446428D01*
X224496666Y-164517857D01*
X224520476Y-164553571D01*
X224568095Y-164589285D01*
X224710952Y-164589285D01*
X224758571Y-164553571D01*
X224782380Y-164517857D01*
X210249952Y-153730500D02*
X210297571Y-153694785D01*
X210369000Y-153694785D01*
X210440428Y-153730500D01*
X210488047Y-153801928D01*
X210511857Y-153873357D01*
X210535666Y-154016214D01*
X210535666Y-154123357D01*
X210511857Y-154266214D01*
X210488047Y-154337642D01*
X210440428Y-154409071D01*
X210369000Y-154444785D01*
X210321380Y-154444785D01*
X210249952Y-154409071D01*
X210226142Y-154373357D01*
X210226142Y-154123357D01*
X210321380Y-154123357D01*
X210011857Y-154444785D02*
X210011857Y-153694785D01*
X209726142Y-154444785D01*
X209726142Y-153694785D01*
X209488047Y-154444785D02*
X209488047Y-153694785D01*
X209369000Y-153694785D01*
X209297571Y-153730500D01*
X209249952Y-153801928D01*
X209226142Y-153873357D01*
X209202333Y-154016214D01*
X209202333Y-154123357D01*
X209226142Y-154266214D01*
X209249952Y-154337642D01*
X209297571Y-154409071D01*
X209369000Y-154444785D01*
X209488047Y-154444785D01*
X225712166Y-153631285D02*
X225545500Y-154381285D01*
X225378833Y-153631285D01*
X224926452Y-154309857D02*
X224950261Y-154345571D01*
X225021690Y-154381285D01*
X225069309Y-154381285D01*
X225140738Y-154345571D01*
X225188357Y-154274142D01*
X225212166Y-154202714D01*
X225235976Y-154059857D01*
X225235976Y-153952714D01*
X225212166Y-153809857D01*
X225188357Y-153738428D01*
X225140738Y-153667000D01*
X225069309Y-153631285D01*
X225021690Y-153631285D01*
X224950261Y-153667000D01*
X224926452Y-153702714D01*
X224426452Y-154309857D02*
X224450261Y-154345571D01*
X224521690Y-154381285D01*
X224569309Y-154381285D01*
X224640738Y-154345571D01*
X224688357Y-154274142D01*
X224712166Y-154202714D01*
X224735976Y-154059857D01*
X224735976Y-153952714D01*
X224712166Y-153809857D01*
X224688357Y-153738428D01*
X224640738Y-153667000D01*
X224569309Y-153631285D01*
X224521690Y-153631285D01*
X224450261Y-153667000D01*
X224426452Y-153702714D01*
X210186452Y-151190500D02*
X210234071Y-151154785D01*
X210305500Y-151154785D01*
X210376928Y-151190500D01*
X210424547Y-151261928D01*
X210448357Y-151333357D01*
X210472166Y-151476214D01*
X210472166Y-151583357D01*
X210448357Y-151726214D01*
X210424547Y-151797642D01*
X210376928Y-151869071D01*
X210305500Y-151904785D01*
X210257880Y-151904785D01*
X210186452Y-151869071D01*
X210162642Y-151833357D01*
X210162642Y-151583357D01*
X210257880Y-151583357D01*
X209948357Y-151904785D02*
X209948357Y-151154785D01*
X209662642Y-151904785D01*
X209662642Y-151154785D01*
X209424547Y-151904785D02*
X209424547Y-151154785D01*
X209305500Y-151154785D01*
X209234071Y-151190500D01*
X209186452Y-151261928D01*
X209162642Y-151333357D01*
X209138833Y-151476214D01*
X209138833Y-151583357D01*
X209162642Y-151726214D01*
X209186452Y-151797642D01*
X209234071Y-151869071D01*
X209305500Y-151904785D01*
X209424547Y-151904785D01*
X225319309Y-151904785D02*
X225485976Y-151547642D01*
X225605023Y-151904785D02*
X225605023Y-151154785D01*
X225414547Y-151154785D01*
X225366928Y-151190500D01*
X225343119Y-151226214D01*
X225319309Y-151297642D01*
X225319309Y-151404785D01*
X225343119Y-151476214D01*
X225366928Y-151511928D01*
X225414547Y-151547642D01*
X225605023Y-151547642D01*
X225128833Y-151869071D02*
X225057404Y-151904785D01*
X224938357Y-151904785D01*
X224890738Y-151869071D01*
X224866928Y-151833357D01*
X224843119Y-151761928D01*
X224843119Y-151690500D01*
X224866928Y-151619071D01*
X224890738Y-151583357D01*
X224938357Y-151547642D01*
X225033595Y-151511928D01*
X225081214Y-151476214D01*
X225105023Y-151440500D01*
X225128833Y-151369071D01*
X225128833Y-151297642D01*
X225105023Y-151226214D01*
X225081214Y-151190500D01*
X225033595Y-151154785D01*
X224914547Y-151154785D01*
X224843119Y-151190500D01*
X224700261Y-151154785D02*
X224414547Y-151154785D01*
X224557404Y-151904785D02*
X224557404Y-151154785D01*
X210730000Y-149289285D02*
X210730000Y-148539285D01*
X210610952Y-148539285D01*
X210539523Y-148575000D01*
X210491904Y-148646428D01*
X210468095Y-148717857D01*
X210444285Y-148860714D01*
X210444285Y-148967857D01*
X210468095Y-149110714D01*
X210491904Y-149182142D01*
X210539523Y-149253571D01*
X210610952Y-149289285D01*
X210730000Y-149289285D01*
X210253809Y-149075000D02*
X210015714Y-149075000D01*
X210301428Y-149289285D02*
X210134761Y-148539285D01*
X209968095Y-149289285D01*
X209872857Y-148539285D02*
X209587142Y-148539285D01*
X209730000Y-149289285D02*
X209730000Y-148539285D01*
X209444285Y-149075000D02*
X209206190Y-149075000D01*
X209491904Y-149289285D02*
X209325238Y-148539285D01*
X209158571Y-149289285D01*
X225426452Y-148587000D02*
X225474071Y-148551285D01*
X225545500Y-148551285D01*
X225616928Y-148587000D01*
X225664547Y-148658428D01*
X225688357Y-148729857D01*
X225712166Y-148872714D01*
X225712166Y-148979857D01*
X225688357Y-149122714D01*
X225664547Y-149194142D01*
X225616928Y-149265571D01*
X225545500Y-149301285D01*
X225497880Y-149301285D01*
X225426452Y-149265571D01*
X225402642Y-149229857D01*
X225402642Y-148979857D01*
X225497880Y-148979857D01*
X225188357Y-149301285D02*
X225188357Y-148551285D01*
X224902642Y-149301285D01*
X224902642Y-148551285D01*
X224664547Y-149301285D02*
X224664547Y-148551285D01*
X224545500Y-148551285D01*
X224474071Y-148587000D01*
X224426452Y-148658428D01*
X224402642Y-148729857D01*
X224378833Y-148872714D01*
X224378833Y-148979857D01*
X224402642Y-149122714D01*
X224426452Y-149194142D01*
X224474071Y-149265571D01*
X224545500Y-149301285D01*
X224664547Y-149301285D01*
X210151428Y-146761285D02*
X210389523Y-146761285D01*
X210389523Y-146011285D01*
X209984761Y-146368428D02*
X209818095Y-146368428D01*
X209746666Y-146761285D02*
X209984761Y-146761285D01*
X209984761Y-146011285D01*
X209746666Y-146011285D01*
X209532380Y-146761285D02*
X209532380Y-146011285D01*
X209413333Y-146011285D01*
X209341904Y-146047000D01*
X209294285Y-146118428D01*
X209270476Y-146189857D01*
X209246666Y-146332714D01*
X209246666Y-146439857D01*
X209270476Y-146582714D01*
X209294285Y-146654142D01*
X209341904Y-146725571D01*
X209413333Y-146761285D01*
X209532380Y-146761285D01*
X225390738Y-146761285D02*
X225557404Y-146404142D01*
X225676452Y-146761285D02*
X225676452Y-146011285D01*
X225485976Y-146011285D01*
X225438357Y-146047000D01*
X225414547Y-146082714D01*
X225390738Y-146154142D01*
X225390738Y-146261285D01*
X225414547Y-146332714D01*
X225438357Y-146368428D01*
X225485976Y-146404142D01*
X225676452Y-146404142D01*
X225200261Y-146547000D02*
X224962166Y-146547000D01*
X225247880Y-146761285D02*
X225081214Y-146011285D01*
X224914547Y-146761285D01*
X224795500Y-146011285D02*
X224676452Y-146761285D01*
X224581214Y-146225571D01*
X224485976Y-146761285D01*
X224366928Y-146011285D01*
D10*
G04 #@! TD*
M02*
