G04 #@! TF.GenerationSoftware,KiCad,Pcbnew,(5.0.2)-1*
G04 #@! TF.CreationDate,2019-02-25T13:46:33+08:00*
G04 #@! TF.ProjectId,Kisaragi,4b697361-7261-4676-992e-6b696361645f,rev?*
G04 #@! TF.SameCoordinates,Original*
G04 #@! TF.FileFunction,Legend,Top*
G04 #@! TF.FilePolarity,Positive*
%FSLAX46Y46*%
G04 Gerber Fmt 4.6, Leading zero omitted, Abs format (unit mm)*
G04 Created by KiCad (PCBNEW (5.0.2)-1) date 25/02/2019 13:46:33*
%MOMM*%
%LPD*%
G01*
G04 APERTURE LIST*
%ADD10C,0.300000*%
%ADD11C,0.381000*%
%ADD12C,0.150000*%
%ADD13C,0.010000*%
%ADD14C,0.203200*%
G04 APERTURE END LIST*
D10*
X202387142Y-199263571D02*
X202387142Y-197763571D01*
X203244285Y-199263571D02*
X202601428Y-198406428D01*
X203244285Y-197763571D02*
X202387142Y-198620714D01*
X203887142Y-199263571D02*
X203887142Y-198263571D01*
X203887142Y-197763571D02*
X203815714Y-197835000D01*
X203887142Y-197906428D01*
X203958571Y-197835000D01*
X203887142Y-197763571D01*
X203887142Y-197906428D01*
X204530000Y-199192142D02*
X204672857Y-199263571D01*
X204958571Y-199263571D01*
X205101428Y-199192142D01*
X205172857Y-199049285D01*
X205172857Y-198977857D01*
X205101428Y-198835000D01*
X204958571Y-198763571D01*
X204744285Y-198763571D01*
X204601428Y-198692142D01*
X204530000Y-198549285D01*
X204530000Y-198477857D01*
X204601428Y-198335000D01*
X204744285Y-198263571D01*
X204958571Y-198263571D01*
X205101428Y-198335000D01*
X206458571Y-199263571D02*
X206458571Y-198477857D01*
X206387142Y-198335000D01*
X206244285Y-198263571D01*
X205958571Y-198263571D01*
X205815714Y-198335000D01*
X206458571Y-199192142D02*
X206315714Y-199263571D01*
X205958571Y-199263571D01*
X205815714Y-199192142D01*
X205744285Y-199049285D01*
X205744285Y-198906428D01*
X205815714Y-198763571D01*
X205958571Y-198692142D01*
X206315714Y-198692142D01*
X206458571Y-198620714D01*
X207172857Y-199263571D02*
X207172857Y-198263571D01*
X207172857Y-198549285D02*
X207244285Y-198406428D01*
X207315714Y-198335000D01*
X207458571Y-198263571D01*
X207601428Y-198263571D01*
X208744285Y-199263571D02*
X208744285Y-198477857D01*
X208672857Y-198335000D01*
X208530000Y-198263571D01*
X208244285Y-198263571D01*
X208101428Y-198335000D01*
X208744285Y-199192142D02*
X208601428Y-199263571D01*
X208244285Y-199263571D01*
X208101428Y-199192142D01*
X208030000Y-199049285D01*
X208030000Y-198906428D01*
X208101428Y-198763571D01*
X208244285Y-198692142D01*
X208601428Y-198692142D01*
X208744285Y-198620714D01*
X210101428Y-198263571D02*
X210101428Y-199477857D01*
X210030000Y-199620714D01*
X209958571Y-199692142D01*
X209815714Y-199763571D01*
X209601428Y-199763571D01*
X209458571Y-199692142D01*
X210101428Y-199192142D02*
X209958571Y-199263571D01*
X209672857Y-199263571D01*
X209530000Y-199192142D01*
X209458571Y-199120714D01*
X209387142Y-198977857D01*
X209387142Y-198549285D01*
X209458571Y-198406428D01*
X209530000Y-198335000D01*
X209672857Y-198263571D01*
X209958571Y-198263571D01*
X210101428Y-198335000D01*
X210815714Y-199263571D02*
X210815714Y-198263571D01*
X210815714Y-197763571D02*
X210744285Y-197835000D01*
X210815714Y-197906428D01*
X210887142Y-197835000D01*
X210815714Y-197763571D01*
X210815714Y-197906428D01*
X212672857Y-199263571D02*
X212672857Y-197763571D01*
X212672857Y-198335000D02*
X212815714Y-198263571D01*
X213101428Y-198263571D01*
X213244285Y-198335000D01*
X213315714Y-198406428D01*
X213387142Y-198549285D01*
X213387142Y-198977857D01*
X213315714Y-199120714D01*
X213244285Y-199192142D01*
X213101428Y-199263571D01*
X212815714Y-199263571D01*
X212672857Y-199192142D01*
X213887142Y-198263571D02*
X214244285Y-199263571D01*
X214601428Y-198263571D02*
X214244285Y-199263571D01*
X214101428Y-199620714D01*
X214030000Y-199692142D01*
X213887142Y-199763571D01*
X216887142Y-199192142D02*
X216744285Y-199263571D01*
X216458571Y-199263571D01*
X216315714Y-199192142D01*
X216244285Y-199049285D01*
X216244285Y-198477857D01*
X216315714Y-198335000D01*
X216458571Y-198263571D01*
X216744285Y-198263571D01*
X216887142Y-198335000D01*
X216958571Y-198477857D01*
X216958571Y-198620714D01*
X216244285Y-198763571D01*
X217601428Y-199263571D02*
X217601428Y-198263571D01*
X217601428Y-198406428D02*
X217672857Y-198335000D01*
X217815714Y-198263571D01*
X218030000Y-198263571D01*
X218172857Y-198335000D01*
X218244285Y-198477857D01*
X218244285Y-199263571D01*
X218244285Y-198477857D02*
X218315714Y-198335000D01*
X218458571Y-198263571D01*
X218672857Y-198263571D01*
X218815714Y-198335000D01*
X218887142Y-198477857D01*
X218887142Y-199263571D01*
X219601428Y-198263571D02*
X219601428Y-199763571D01*
X219601428Y-198335000D02*
X219744285Y-198263571D01*
X220030000Y-198263571D01*
X220172857Y-198335000D01*
X220244285Y-198406428D01*
X220315714Y-198549285D01*
X220315714Y-198977857D01*
X220244285Y-199120714D01*
X220172857Y-199192142D01*
X220030000Y-199263571D01*
X219744285Y-199263571D01*
X219601428Y-199192142D01*
X220744285Y-198263571D02*
X221315714Y-198263571D01*
X220958571Y-197763571D02*
X220958571Y-199049285D01*
X221030000Y-199192142D01*
X221172857Y-199263571D01*
X221315714Y-199263571D01*
X221672857Y-198263571D02*
X222030000Y-199263571D01*
X222387142Y-198263571D02*
X222030000Y-199263571D01*
X221887142Y-199620714D01*
X221815714Y-199692142D01*
X221672857Y-199763571D01*
X222887142Y-199192142D02*
X223030000Y-199263571D01*
X223315714Y-199263571D01*
X223458571Y-199192142D01*
X223530000Y-199049285D01*
X223530000Y-198977857D01*
X223458571Y-198835000D01*
X223315714Y-198763571D01*
X223101428Y-198763571D01*
X222958571Y-198692142D01*
X222887142Y-198549285D01*
X222887142Y-198477857D01*
X222958571Y-198335000D01*
X223101428Y-198263571D01*
X223315714Y-198263571D01*
X223458571Y-198335000D01*
X223958571Y-198263571D02*
X224530000Y-198263571D01*
X224172857Y-197763571D02*
X224172857Y-199049285D01*
X224244285Y-199192142D01*
X224387142Y-199263571D01*
X224530000Y-199263571D01*
X225030000Y-199263571D02*
X225030000Y-198263571D01*
X225030000Y-198549285D02*
X225101428Y-198406428D01*
X225172857Y-198335000D01*
X225315714Y-198263571D01*
X225458571Y-198263571D01*
X225958571Y-199263571D02*
X225958571Y-198263571D01*
X225958571Y-197763571D02*
X225887142Y-197835000D01*
X225958571Y-197906428D01*
X226030000Y-197835000D01*
X225958571Y-197763571D01*
X225958571Y-197906428D01*
X226672857Y-198263571D02*
X226672857Y-199263571D01*
X226672857Y-198406428D02*
X226744285Y-198335000D01*
X226887142Y-198263571D01*
X227101428Y-198263571D01*
X227244285Y-198335000D01*
X227315714Y-198477857D01*
X227315714Y-199263571D01*
X228672857Y-198263571D02*
X228672857Y-199477857D01*
X228601428Y-199620714D01*
X228530000Y-199692142D01*
X228387142Y-199763571D01*
X228172857Y-199763571D01*
X228030000Y-199692142D01*
X228672857Y-199192142D02*
X228530000Y-199263571D01*
X228244285Y-199263571D01*
X228101428Y-199192142D01*
X228030000Y-199120714D01*
X227958571Y-198977857D01*
X227958571Y-198549285D01*
X228030000Y-198406428D01*
X228101428Y-198335000D01*
X228244285Y-198263571D01*
X228530000Y-198263571D01*
X228672857Y-198335000D01*
X206565714Y-201099285D02*
X206494285Y-201027857D01*
X206351428Y-200956428D01*
X206208571Y-200956428D01*
X206065714Y-201027857D01*
X205994285Y-201099285D01*
X205922857Y-201242142D01*
X205922857Y-201385000D01*
X205994285Y-201527857D01*
X206065714Y-201599285D01*
X206208571Y-201670714D01*
X206351428Y-201670714D01*
X206494285Y-201599285D01*
X206565714Y-201527857D01*
X206565714Y-200956428D02*
X206565714Y-201527857D01*
X206637142Y-201599285D01*
X206708571Y-201599285D01*
X206851428Y-201527857D01*
X206922857Y-201385000D01*
X206922857Y-201027857D01*
X206780000Y-200813571D01*
X206565714Y-200670714D01*
X206280000Y-200599285D01*
X205994285Y-200670714D01*
X205780000Y-200813571D01*
X205637142Y-201027857D01*
X205565714Y-201313571D01*
X205637142Y-201599285D01*
X205780000Y-201813571D01*
X205994285Y-201956428D01*
X206280000Y-202027857D01*
X206565714Y-201956428D01*
X206780000Y-201813571D01*
X207494285Y-201742142D02*
X207708571Y-201813571D01*
X208065714Y-201813571D01*
X208208571Y-201742142D01*
X208280000Y-201670714D01*
X208351428Y-201527857D01*
X208351428Y-201385000D01*
X208280000Y-201242142D01*
X208208571Y-201170714D01*
X208065714Y-201099285D01*
X207780000Y-201027857D01*
X207637142Y-200956428D01*
X207565714Y-200885000D01*
X207494285Y-200742142D01*
X207494285Y-200599285D01*
X207565714Y-200456428D01*
X207637142Y-200385000D01*
X207780000Y-200313571D01*
X208137142Y-200313571D01*
X208351428Y-200385000D01*
X208922857Y-201385000D02*
X209637142Y-201385000D01*
X208780000Y-201813571D02*
X209280000Y-200313571D01*
X209780000Y-201813571D01*
X209922857Y-201956428D02*
X211065714Y-201956428D01*
X211422857Y-201027857D02*
X211922857Y-201027857D01*
X212137142Y-201813571D02*
X211422857Y-201813571D01*
X211422857Y-200313571D01*
X212137142Y-200313571D01*
X212780000Y-200813571D02*
X212780000Y-201813571D01*
X212780000Y-200956428D02*
X212851428Y-200885000D01*
X212994285Y-200813571D01*
X213208571Y-200813571D01*
X213351428Y-200885000D01*
X213422857Y-201027857D01*
X213422857Y-201813571D01*
X214780000Y-201813571D02*
X214780000Y-200313571D01*
X214780000Y-201742142D02*
X214637142Y-201813571D01*
X214351428Y-201813571D01*
X214208571Y-201742142D01*
X214137142Y-201670714D01*
X214065714Y-201527857D01*
X214065714Y-201099285D01*
X214137142Y-200956428D01*
X214208571Y-200885000D01*
X214351428Y-200813571D01*
X214637142Y-200813571D01*
X214780000Y-200885000D01*
X215708571Y-201813571D02*
X215565714Y-201742142D01*
X215494285Y-201599285D01*
X215494285Y-200313571D01*
X216851428Y-201742142D02*
X216708571Y-201813571D01*
X216422857Y-201813571D01*
X216280000Y-201742142D01*
X216208571Y-201599285D01*
X216208571Y-201027857D01*
X216280000Y-200885000D01*
X216422857Y-200813571D01*
X216708571Y-200813571D01*
X216851428Y-200885000D01*
X216922857Y-201027857D01*
X216922857Y-201170714D01*
X216208571Y-201313571D01*
X217494285Y-201742142D02*
X217637142Y-201813571D01*
X217922857Y-201813571D01*
X218065714Y-201742142D01*
X218137142Y-201599285D01*
X218137142Y-201527857D01*
X218065714Y-201385000D01*
X217922857Y-201313571D01*
X217708571Y-201313571D01*
X217565714Y-201242142D01*
X217494285Y-201099285D01*
X217494285Y-201027857D01*
X217565714Y-200885000D01*
X217708571Y-200813571D01*
X217922857Y-200813571D01*
X218065714Y-200885000D01*
X218708571Y-201742142D02*
X218851428Y-201813571D01*
X219137142Y-201813571D01*
X219280000Y-201742142D01*
X219351428Y-201599285D01*
X219351428Y-201527857D01*
X219280000Y-201385000D01*
X219137142Y-201313571D01*
X218922857Y-201313571D01*
X218780000Y-201242142D01*
X218708571Y-201099285D01*
X218708571Y-201027857D01*
X218780000Y-200885000D01*
X218922857Y-200813571D01*
X219137142Y-200813571D01*
X219280000Y-200885000D01*
X220780000Y-200385000D02*
X220637142Y-200313571D01*
X220422857Y-200313571D01*
X220208571Y-200385000D01*
X220065714Y-200527857D01*
X219994285Y-200670714D01*
X219922857Y-200956428D01*
X219922857Y-201170714D01*
X219994285Y-201456428D01*
X220065714Y-201599285D01*
X220208571Y-201742142D01*
X220422857Y-201813571D01*
X220565714Y-201813571D01*
X220780000Y-201742142D01*
X220851428Y-201670714D01*
X220851428Y-201170714D01*
X220565714Y-201170714D01*
X222137142Y-201813571D02*
X222137142Y-201027857D01*
X222065714Y-200885000D01*
X221922857Y-200813571D01*
X221637142Y-200813571D01*
X221494285Y-200885000D01*
X222137142Y-201742142D02*
X221994285Y-201813571D01*
X221637142Y-201813571D01*
X221494285Y-201742142D01*
X221422857Y-201599285D01*
X221422857Y-201456428D01*
X221494285Y-201313571D01*
X221637142Y-201242142D01*
X221994285Y-201242142D01*
X222137142Y-201170714D01*
X222851428Y-201813571D02*
X222851428Y-200813571D01*
X222851428Y-200956428D02*
X222922857Y-200885000D01*
X223065714Y-200813571D01*
X223280000Y-200813571D01*
X223422857Y-200885000D01*
X223494285Y-201027857D01*
X223494285Y-201813571D01*
X223494285Y-201027857D02*
X223565714Y-200885000D01*
X223708571Y-200813571D01*
X223922857Y-200813571D01*
X224065714Y-200885000D01*
X224137142Y-201027857D01*
X224137142Y-201813571D01*
X225422857Y-201742142D02*
X225280000Y-201813571D01*
X224994285Y-201813571D01*
X224851428Y-201742142D01*
X224780000Y-201599285D01*
X224780000Y-201027857D01*
X224851428Y-200885000D01*
X224994285Y-200813571D01*
X225280000Y-200813571D01*
X225422857Y-200885000D01*
X225494285Y-201027857D01*
X225494285Y-201170714D01*
X224780000Y-201313571D01*
X377586942Y-157915511D02*
X377580771Y-157058391D01*
X377583856Y-157486951D02*
X379083817Y-157476152D01*
X378868509Y-157334842D01*
X378724627Y-157193017D01*
X378652172Y-157050677D01*
X378596171Y-159193993D02*
X377596197Y-159201192D01*
X379165014Y-158832746D02*
X378091042Y-158483326D01*
X378097727Y-159411873D01*
X379106957Y-160690355D02*
X379101815Y-159976088D01*
X378387033Y-159909803D01*
X378458974Y-159980716D01*
X378531429Y-160123055D01*
X378534001Y-160480188D01*
X378463602Y-160623556D01*
X378392690Y-160695497D01*
X378250351Y-160767952D01*
X377893217Y-160770523D01*
X377749849Y-160700125D01*
X377677908Y-160629212D01*
X377605453Y-160486873D01*
X377602882Y-160129740D01*
X377673280Y-159986372D01*
X377744193Y-159914431D01*
X377754991Y-161414392D02*
X377684079Y-161486333D01*
X377612138Y-161415421D01*
X377683050Y-161343480D01*
X377754991Y-161414392D01*
X377612138Y-161415421D01*
X378475943Y-162337797D02*
X378546342Y-162194430D01*
X378617254Y-162122489D01*
X378759593Y-162050034D01*
X378831020Y-162049519D01*
X378974388Y-162119918D01*
X379046329Y-162190830D01*
X379118784Y-162333169D01*
X379120841Y-162618876D01*
X379050442Y-162762244D01*
X378979530Y-162834185D01*
X378837191Y-162906640D01*
X378765764Y-162907154D01*
X378622396Y-162836756D01*
X378550455Y-162765844D01*
X378478000Y-162623504D01*
X378475943Y-162337797D01*
X378403488Y-162195458D01*
X378331547Y-162124546D01*
X378188180Y-162054147D01*
X377902473Y-162056204D01*
X377760134Y-162128659D01*
X377689221Y-162200600D01*
X377618823Y-162343968D01*
X377620880Y-162629675D01*
X377693335Y-162772014D01*
X377765276Y-162842927D01*
X377908643Y-162913325D01*
X378194350Y-162911268D01*
X378336689Y-162838813D01*
X378407602Y-162766872D01*
X378478000Y-162623504D01*
X379132668Y-164261691D02*
X379127526Y-163547424D01*
X378412744Y-163481139D01*
X378484685Y-163552052D01*
X378557140Y-163694391D01*
X378559711Y-164051524D01*
X378489313Y-164194892D01*
X378418400Y-164266833D01*
X378276061Y-164339288D01*
X377918928Y-164341859D01*
X377775560Y-164271461D01*
X377703619Y-164200548D01*
X377631164Y-164058209D01*
X377628593Y-163701076D01*
X377698991Y-163557708D01*
X377769904Y-163485767D01*
X378642451Y-165622398D02*
X377642477Y-165629597D01*
X379211293Y-165261151D02*
X378137321Y-164911730D01*
X378144006Y-165840278D01*
X377656360Y-167558119D02*
X378656334Y-167550920D01*
X378513481Y-167551948D02*
X378585422Y-167622860D01*
X378657877Y-167765200D01*
X378659420Y-167979480D01*
X378589021Y-168122848D01*
X378446682Y-168195303D01*
X377660988Y-168200959D01*
X378446682Y-168195303D02*
X378590050Y-168265701D01*
X378662505Y-168408040D01*
X378664048Y-168622320D01*
X378593649Y-168765688D01*
X378451310Y-168838143D01*
X377665616Y-168843800D01*
X377670758Y-169558067D02*
X378670732Y-169550868D01*
X378527879Y-169551896D02*
X378599820Y-169622809D01*
X378672275Y-169765148D01*
X378673818Y-169979428D01*
X378603419Y-170122796D01*
X378461080Y-170195251D01*
X377675386Y-170200907D01*
X378461080Y-170195251D02*
X378604448Y-170265649D01*
X378676903Y-170407988D01*
X378678446Y-170622269D01*
X378608047Y-170765636D01*
X378465708Y-170838091D01*
X377680014Y-170843748D01*
X375684258Y-91072016D02*
X376734258Y-236922016D01*
X250950000Y-91970000D02*
X376270663Y-91067794D01*
X252000000Y-237820000D02*
X377320663Y-236917794D01*
X376734258Y-236922016D02*
X376139743Y-235799763D01*
X376734258Y-236922016D02*
X377312554Y-235791320D01*
X375684258Y-91072016D02*
X375105962Y-92202712D01*
X375684258Y-91072016D02*
X376278773Y-92194269D01*
X208389118Y-246097709D02*
X208460578Y-246026312D01*
X208603466Y-245954945D01*
X208960609Y-245955100D01*
X209103435Y-246026590D01*
X209174832Y-246098050D01*
X209246199Y-246240938D01*
X209246137Y-246383795D01*
X209174615Y-246598050D01*
X208317101Y-247454821D01*
X209245672Y-247455224D01*
X209959958Y-247455534D02*
X210245672Y-247455658D01*
X210388560Y-247384291D01*
X210460020Y-247312893D01*
X210602970Y-247098670D01*
X210674522Y-246812986D01*
X210674770Y-246241558D01*
X210603404Y-246098670D01*
X210532006Y-246027210D01*
X210389180Y-245955720D01*
X210103466Y-245955596D01*
X209960578Y-246026962D01*
X209889118Y-246098360D01*
X209817627Y-246241186D01*
X209817472Y-246598329D01*
X209888839Y-246741217D01*
X209960237Y-246812677D01*
X210103063Y-246884167D01*
X210388777Y-246884291D01*
X210531665Y-246812924D01*
X210603125Y-246741527D01*
X210674615Y-246598701D01*
X211388529Y-247456153D02*
X211674243Y-247456277D01*
X211817131Y-247384911D01*
X211888591Y-247313513D01*
X212031541Y-247099290D01*
X212103094Y-246813606D01*
X212103342Y-246242178D01*
X212031975Y-246099290D01*
X211960577Y-246027830D01*
X211817751Y-245956340D01*
X211532037Y-245956216D01*
X211389149Y-246027582D01*
X211317689Y-246098980D01*
X211246199Y-246241806D01*
X211246044Y-246598949D01*
X211317410Y-246741837D01*
X211388808Y-246813296D01*
X211531634Y-246884787D01*
X211817348Y-246884911D01*
X211960236Y-246813544D01*
X212031696Y-246742147D01*
X212103187Y-246599321D01*
X212745734Y-247313885D02*
X212817131Y-247385345D01*
X212745672Y-247456742D01*
X212674274Y-247385283D01*
X212745734Y-247313885D01*
X212745672Y-247456742D01*
X214103465Y-245957331D02*
X213817751Y-245957207D01*
X213674863Y-246028574D01*
X213603403Y-246099971D01*
X213460453Y-246314195D01*
X213388901Y-246599878D01*
X213388653Y-247171307D01*
X213460019Y-247314195D01*
X213531417Y-247385655D01*
X213674243Y-247457145D01*
X213959957Y-247457269D01*
X214102845Y-247385902D01*
X214174305Y-247314505D01*
X214245796Y-247171679D01*
X214245951Y-246814536D01*
X214174584Y-246671648D01*
X214103186Y-246600188D01*
X213960360Y-246528698D01*
X213674646Y-246528574D01*
X213531758Y-246599940D01*
X213460298Y-246671338D01*
X213388808Y-246814164D01*
X215531820Y-246457951D02*
X215531386Y-247457951D01*
X215174925Y-245886367D02*
X214817317Y-246957641D01*
X215745888Y-246958044D01*
X216603465Y-245958416D02*
X216746322Y-245958478D01*
X216889148Y-246029968D01*
X216960546Y-246101428D01*
X217031912Y-246244316D01*
X217103217Y-246530061D01*
X217103062Y-246887204D01*
X217031510Y-247172887D01*
X216960019Y-247315713D01*
X216888560Y-247387111D01*
X216745671Y-247458478D01*
X216602814Y-247458416D01*
X216459988Y-247386925D01*
X216388591Y-247315466D01*
X216317224Y-247172577D01*
X216245919Y-246886832D01*
X216246074Y-246529689D01*
X216317627Y-246244006D01*
X216389117Y-246101180D01*
X216460577Y-246029782D01*
X216603465Y-245958416D01*
X218888528Y-247459407D02*
X218888962Y-246459407D01*
X218888900Y-246602265D02*
X218960360Y-246530867D01*
X219103248Y-246459500D01*
X219317534Y-246459593D01*
X219460360Y-246531084D01*
X219531726Y-246673972D01*
X219531385Y-247459686D01*
X219531726Y-246673972D02*
X219603217Y-246531146D01*
X219746105Y-246459779D01*
X219960391Y-246459872D01*
X220103217Y-246531363D01*
X220174583Y-246674251D01*
X220174242Y-247459965D01*
X220888528Y-247460275D02*
X220888962Y-246460275D01*
X220888900Y-246603132D02*
X220960360Y-246531735D01*
X221103248Y-246460368D01*
X221317533Y-246460461D01*
X221460360Y-246531952D01*
X221531726Y-246674840D01*
X221531385Y-247460554D01*
X221531726Y-246674840D02*
X221603217Y-246532014D01*
X221746105Y-246460647D01*
X221960390Y-246460740D01*
X222103217Y-246532231D01*
X222174583Y-246675119D01*
X222174242Y-247460833D01*
X65498306Y-244614287D02*
X365138306Y-244744287D01*
X65510000Y-217660000D02*
X65498051Y-245200708D01*
X365150000Y-217790000D02*
X365138051Y-245330708D01*
X365138306Y-244744287D02*
X364011548Y-245330219D01*
X365138306Y-244744287D02*
X364012057Y-244157378D01*
X65498306Y-244614287D02*
X66624555Y-245201196D01*
X65498306Y-244614287D02*
X66625064Y-244028355D01*
D11*
G04 #@! TO.C,SW4*
X113930390Y-107794793D02*
X114239137Y-106043805D01*
X112033805Y-118550863D02*
X112342551Y-116799875D01*
X113784793Y-118859610D02*
X112033805Y-118550863D01*
X124540863Y-120756195D02*
X122789875Y-120447449D01*
X124849610Y-119005207D02*
X124540863Y-120756195D01*
X126746195Y-108249137D02*
X126437449Y-110000125D01*
X124995207Y-107940390D02*
X126746195Y-108249137D01*
X114239137Y-106043805D02*
X115990125Y-106352551D01*
G04 #@! TO.C,SW1*
X92169137Y-121493805D02*
X93920125Y-121802551D01*
X102925207Y-123390390D02*
X104676195Y-123699137D01*
X104676195Y-123699137D02*
X104367449Y-125450125D01*
X102779610Y-134455207D02*
X102470863Y-136206195D01*
X102470863Y-136206195D02*
X100719875Y-135897449D01*
X91714793Y-134309610D02*
X89963805Y-134000863D01*
X89963805Y-134000863D02*
X90272551Y-132249875D01*
X91860390Y-123244793D02*
X92169137Y-121493805D01*
G04 #@! TO.C,SW5*
X110617907Y-126557214D02*
X110926654Y-124806226D01*
X108721322Y-137313284D02*
X109030068Y-135562296D01*
X110472310Y-137622031D02*
X108721322Y-137313284D01*
X121228380Y-139518616D02*
X119477392Y-139209870D01*
X121537127Y-137767628D02*
X121228380Y-139518616D01*
X123433712Y-127011558D02*
X123124966Y-128762546D01*
X121682724Y-126702811D02*
X123433712Y-127011558D01*
X110926654Y-124806226D02*
X112677642Y-125114972D01*
G04 #@! TO.C,SW6*
X107619137Y-143563805D02*
X109370125Y-143872551D01*
X118375207Y-145460390D02*
X120126195Y-145769137D01*
X120126195Y-145769137D02*
X119817449Y-147520125D01*
X118229610Y-156525207D02*
X117920863Y-158276195D01*
X117920863Y-158276195D02*
X116169875Y-157967449D01*
X107164793Y-156379610D02*
X105413805Y-156070863D01*
X105413805Y-156070863D02*
X105722551Y-154319875D01*
X107310390Y-145314793D02*
X107619137Y-143563805D01*
G04 #@! TO.C,SW7*
X104000390Y-164074793D02*
X104309137Y-162323805D01*
X102103805Y-174830863D02*
X102412551Y-173079875D01*
X103854793Y-175139610D02*
X102103805Y-174830863D01*
X114610863Y-177036195D02*
X112859875Y-176727449D01*
X114919610Y-175285207D02*
X114610863Y-177036195D01*
X116816195Y-164529137D02*
X116507449Y-166280125D01*
X115065207Y-164220390D02*
X116816195Y-164529137D01*
X104309137Y-162323805D02*
X106060125Y-162632551D01*
G04 #@! TO.C,SW8*
X133829137Y-104663805D02*
X135580125Y-104972551D01*
X144585207Y-106560390D02*
X146336195Y-106869137D01*
X146336195Y-106869137D02*
X146027449Y-108620125D01*
X144439610Y-117625207D02*
X144130863Y-119376195D01*
X144130863Y-119376195D02*
X142379875Y-119067449D01*
X133374793Y-117479610D02*
X131623805Y-117170863D01*
X131623805Y-117170863D02*
X131932551Y-115419875D01*
X133520390Y-106414793D02*
X133829137Y-104663805D01*
G04 #@! TO.C,SW9*
X130210390Y-125174793D02*
X130519137Y-123423805D01*
X128313805Y-135930863D02*
X128622551Y-134179875D01*
X130064793Y-136239610D02*
X128313805Y-135930863D01*
X140820863Y-138136195D02*
X139069875Y-137827449D01*
X141129610Y-136385207D02*
X140820863Y-138136195D01*
X143026195Y-125629137D02*
X142717449Y-127380125D01*
X141275207Y-125320390D02*
X143026195Y-125629137D01*
X130519137Y-123423805D02*
X132270125Y-123732551D01*
G04 #@! TO.C,SW10*
X127209137Y-142173805D02*
X128960125Y-142482551D01*
X137965207Y-144070390D02*
X139716195Y-144379137D01*
X139716195Y-144379137D02*
X139407449Y-146130125D01*
X137819610Y-155135207D02*
X137510863Y-156886195D01*
X137510863Y-156886195D02*
X135759875Y-156577449D01*
X126754793Y-154989610D02*
X125003805Y-154680863D01*
X125003805Y-154680863D02*
X125312551Y-152929875D01*
X126900390Y-143924793D02*
X127209137Y-142173805D01*
G04 #@! TO.C,SW11*
X123560390Y-162874793D02*
X123869137Y-161123805D01*
X121663805Y-173630863D02*
X121972551Y-171879875D01*
X123414793Y-173939610D02*
X121663805Y-173630863D01*
X134170863Y-175836195D02*
X132419875Y-175527449D01*
X134479610Y-174085207D02*
X134170863Y-175836195D01*
X136376195Y-163329137D02*
X136067449Y-165080125D01*
X134625207Y-163020390D02*
X136376195Y-163329137D01*
X123869137Y-161123805D02*
X125620125Y-161432551D01*
G04 #@! TO.C,SW12*
X153739137Y-101403805D02*
X155490125Y-101712551D01*
X164495207Y-103300390D02*
X166246195Y-103609137D01*
X166246195Y-103609137D02*
X165937449Y-105360125D01*
X164349610Y-114365207D02*
X164040863Y-116116195D01*
X164040863Y-116116195D02*
X162289875Y-115807449D01*
X153284793Y-114219610D02*
X151533805Y-113910863D01*
X151533805Y-113910863D02*
X151842551Y-112159875D01*
X153430390Y-103154793D02*
X153739137Y-101403805D01*
G04 #@! TO.C,SW13*
X150120390Y-121904793D02*
X150429137Y-120153805D01*
X148223805Y-132660863D02*
X148532551Y-130909875D01*
X149974793Y-132969610D02*
X148223805Y-132660863D01*
X160730863Y-134866195D02*
X158979875Y-134557449D01*
X161039610Y-133115207D02*
X160730863Y-134866195D01*
X162936195Y-122359137D02*
X162627449Y-124110125D01*
X161185207Y-122050390D02*
X162936195Y-122359137D01*
X150429137Y-120153805D02*
X152180125Y-120462551D01*
G04 #@! TO.C,SW14*
X147129137Y-138913805D02*
X148880125Y-139222551D01*
X157885207Y-140810390D02*
X159636195Y-141119137D01*
X159636195Y-141119137D02*
X159327449Y-142870125D01*
X157739610Y-151875207D02*
X157430863Y-153626195D01*
X157430863Y-153626195D02*
X155679875Y-153317449D01*
X146674793Y-151729610D02*
X144923805Y-151420863D01*
X144923805Y-151420863D02*
X145232551Y-149669875D01*
X146820390Y-140664793D02*
X147129137Y-138913805D01*
G04 #@! TO.C,SW15*
X143510390Y-159434793D02*
X143819137Y-157683805D01*
X141613805Y-170190863D02*
X141922551Y-168439875D01*
X143364793Y-170499610D02*
X141613805Y-170190863D01*
X154120863Y-172396195D02*
X152369875Y-172087449D01*
X154429610Y-170645207D02*
X154120863Y-172396195D01*
X156326195Y-159889137D02*
X156017449Y-161640125D01*
X154575207Y-159580390D02*
X156326195Y-159889137D01*
X143819137Y-157683805D02*
X145570125Y-157992551D01*
G04 #@! TO.C,SW16*
X147939137Y-189163805D02*
X149690125Y-189472551D01*
X158695207Y-191060390D02*
X160446195Y-191369137D01*
X160446195Y-191369137D02*
X160137449Y-193120125D01*
X158549610Y-202125207D02*
X158240863Y-203876195D01*
X158240863Y-203876195D02*
X156489875Y-203567449D01*
X147484793Y-201979610D02*
X145733805Y-201670863D01*
X145733805Y-201670863D02*
X146042551Y-199919875D01*
X147630390Y-190914793D02*
X147939137Y-189163805D01*
G04 #@! TO.C,SW17*
X171040390Y-113024793D02*
X171349137Y-111273805D01*
X169143805Y-123780863D02*
X169452551Y-122029875D01*
X170894793Y-124089610D02*
X169143805Y-123780863D01*
X181650863Y-125986195D02*
X179899875Y-125677449D01*
X181959610Y-124235207D02*
X181650863Y-125986195D01*
X183856195Y-113479137D02*
X183547449Y-115230125D01*
X182105207Y-113170390D02*
X183856195Y-113479137D01*
X171349137Y-111273805D02*
X173100125Y-111582551D01*
G04 #@! TO.C,SW18*
X168039137Y-130033805D02*
X169790125Y-130342551D01*
X178795207Y-131930390D02*
X180546195Y-132239137D01*
X180546195Y-132239137D02*
X180237449Y-133990125D01*
X178649610Y-142995207D02*
X178340863Y-144746195D01*
X178340863Y-144746195D02*
X176589875Y-144437449D01*
X167584793Y-142849610D02*
X165833805Y-142540863D01*
X165833805Y-142540863D02*
X166142551Y-140789875D01*
X167730390Y-131784793D02*
X168039137Y-130033805D01*
G04 #@! TO.C,SW19*
X164420390Y-150544793D02*
X164729137Y-148793805D01*
X162523805Y-161300863D02*
X162832551Y-159549875D01*
X164274793Y-161609610D02*
X162523805Y-161300863D01*
X175030863Y-163506195D02*
X173279875Y-163197449D01*
X175339610Y-161755207D02*
X175030863Y-163506195D01*
X177236195Y-150999137D02*
X176927449Y-152750125D01*
X175485207Y-150690390D02*
X177236195Y-150999137D01*
X164729137Y-148793805D02*
X166480125Y-149102551D01*
G04 #@! TO.C,SW20*
X161389137Y-167743805D02*
X163140125Y-168052551D01*
X172145207Y-169640390D02*
X173896195Y-169949137D01*
X173896195Y-169949137D02*
X173587449Y-171700125D01*
X171999610Y-180705207D02*
X171690863Y-182456195D01*
X171690863Y-182456195D02*
X169939875Y-182147449D01*
X160934793Y-180559610D02*
X159183805Y-180250863D01*
X159183805Y-180250863D02*
X159492551Y-178499875D01*
X161080390Y-169494793D02*
X161389137Y-167743805D01*
G04 #@! TO.C,SW21*
X167859692Y-200120286D02*
X168319872Y-198402870D01*
X165032870Y-210670128D02*
X165493050Y-208952712D01*
X166750286Y-211130308D02*
X165032870Y-210670128D01*
X177300128Y-213957130D02*
X175582712Y-213496950D01*
X177760308Y-212239714D02*
X177300128Y-213957130D01*
X180587130Y-201689872D02*
X180126950Y-203407288D01*
X178869714Y-201229692D02*
X180587130Y-201689872D01*
X168319872Y-198402870D02*
X170037288Y-198863050D01*
G04 #@! TO.C,SW22*
X188909137Y-121343805D02*
X190660125Y-121652551D01*
X199665207Y-123240390D02*
X201416195Y-123549137D01*
X201416195Y-123549137D02*
X201107449Y-125300125D01*
X199519610Y-134305207D02*
X199210863Y-136056195D01*
X199210863Y-136056195D02*
X197459875Y-135747449D01*
X188454793Y-134159610D02*
X186703805Y-133850863D01*
X186703805Y-133850863D02*
X187012551Y-132099875D01*
X188600390Y-123094793D02*
X188909137Y-121343805D01*
G04 #@! TO.C,SW23*
X185300390Y-141844793D02*
X185609137Y-140093805D01*
X183403805Y-152600863D02*
X183712551Y-150849875D01*
X185154793Y-152909610D02*
X183403805Y-152600863D01*
X195910863Y-154806195D02*
X194159875Y-154497449D01*
X196219610Y-153055207D02*
X195910863Y-154806195D01*
X198116195Y-142299137D02*
X197807449Y-144050125D01*
X196365207Y-141990390D02*
X198116195Y-142299137D01*
X185609137Y-140093805D02*
X187360125Y-140402551D01*
G04 #@! TO.C,SW24*
X182299137Y-158863805D02*
X184050125Y-159172551D01*
X193055207Y-160760390D02*
X194806195Y-161069137D01*
X194806195Y-161069137D02*
X194497449Y-162820125D01*
X192909610Y-171825207D02*
X192600863Y-173576195D01*
X192600863Y-173576195D02*
X190849875Y-173267449D01*
X181844793Y-171679610D02*
X180093805Y-171370863D01*
X180093805Y-171370863D02*
X180402551Y-169619875D01*
X181990390Y-160614793D02*
X182299137Y-158863805D01*
G04 #@! TO.C,SW25*
X178680390Y-179374793D02*
X178989137Y-177623805D01*
X176783805Y-190130863D02*
X177092551Y-188379875D01*
X178534793Y-190439610D02*
X176783805Y-190130863D01*
X189290863Y-192336195D02*
X187539875Y-192027449D01*
X189599610Y-190585207D02*
X189290863Y-192336195D01*
X191496195Y-179829137D02*
X191187449Y-181580125D01*
X189745207Y-179520390D02*
X191496195Y-179829137D01*
X178989137Y-177623805D02*
X180740125Y-177932551D01*
G04 #@! TO.C,SW26*
X187224780Y-211811124D02*
X188895553Y-212419236D01*
X197488103Y-215546668D02*
X199158876Y-216154780D01*
X199158876Y-216154780D02*
X198550764Y-217825553D01*
X195423332Y-226418103D02*
X194815220Y-228088876D01*
X194815220Y-228088876D02*
X193144447Y-227480764D01*
X184551897Y-224353332D02*
X182881124Y-223745220D01*
X182881124Y-223745220D02*
X183489236Y-222074447D01*
X186616668Y-213481897D02*
X187224780Y-211811124D01*
G04 #@! TO.C,SW27*
X229452551Y-125290125D02*
X229143805Y-123539137D01*
X231349137Y-136046195D02*
X231040390Y-134295207D01*
X233100125Y-135737449D02*
X231349137Y-136046195D01*
X243856195Y-133840863D02*
X242105207Y-134149610D01*
X243547449Y-132089875D02*
X243856195Y-133840863D01*
X241650863Y-121333805D02*
X241959610Y-123084793D01*
X239899875Y-121642551D02*
X241650863Y-121333805D01*
X229143805Y-123539137D02*
X230894793Y-123230390D01*
G04 #@! TO.C,SW28*
X232443805Y-142299137D02*
X234194793Y-141990390D01*
X243199875Y-140402551D02*
X244950863Y-140093805D01*
X244950863Y-140093805D02*
X245259610Y-141844793D01*
X246847449Y-150849875D02*
X247156195Y-152600863D01*
X247156195Y-152600863D02*
X245405207Y-152909610D01*
X236400125Y-154497449D02*
X234649137Y-154806195D01*
X234649137Y-154806195D02*
X234340390Y-153055207D01*
X232752551Y-144050125D02*
X232443805Y-142299137D01*
G04 #@! TO.C,SW29*
X236072551Y-162810125D02*
X235763805Y-161059137D01*
X237969137Y-173566195D02*
X237660390Y-171815207D01*
X239720125Y-173257449D02*
X237969137Y-173566195D01*
X250476195Y-171360863D02*
X248725207Y-171669610D01*
X250167449Y-169609875D02*
X250476195Y-171360863D01*
X248270863Y-158853805D02*
X248579610Y-160604793D01*
X246519875Y-159162551D02*
X248270863Y-158853805D01*
X235763805Y-161059137D02*
X237514793Y-160750390D01*
G04 #@! TO.C,SW30*
X239063805Y-179829137D02*
X240814793Y-179520390D01*
X249819875Y-177932551D02*
X251570863Y-177623805D01*
X251570863Y-177623805D02*
X251879610Y-179374793D01*
X253467449Y-188379875D02*
X253776195Y-190130863D01*
X253776195Y-190130863D02*
X252025207Y-190439610D01*
X243020125Y-192027449D02*
X241269137Y-192336195D01*
X241269137Y-192336195D02*
X240960390Y-190585207D01*
X239372551Y-181580125D02*
X239063805Y-179829137D01*
G04 #@! TO.C,SW31*
X232019236Y-217825553D02*
X231411124Y-216154780D01*
X235754780Y-228088876D02*
X235146668Y-226418103D01*
X237425553Y-227480764D02*
X235754780Y-228088876D01*
X247688876Y-223745220D02*
X246018103Y-224353332D01*
X247080764Y-222074447D02*
X247688876Y-223745220D01*
X243345220Y-211811124D02*
X243953332Y-213481897D01*
X241674447Y-212419236D02*
X243345220Y-211811124D01*
X231411124Y-216154780D02*
X233081897Y-215546668D01*
G04 #@! TO.C,SW32*
X246713805Y-113479137D02*
X248464793Y-113170390D01*
X257469875Y-111582551D02*
X259220863Y-111273805D01*
X259220863Y-111273805D02*
X259529610Y-113024793D01*
X261117449Y-122029875D02*
X261426195Y-123780863D01*
X261426195Y-123780863D02*
X259675207Y-124089610D01*
X250670125Y-125677449D02*
X248919137Y-125986195D01*
X248919137Y-125986195D02*
X248610390Y-124235207D01*
X247022551Y-115230125D02*
X246713805Y-113479137D01*
G04 #@! TO.C,SW33*
X250332551Y-133990125D02*
X250023805Y-132239137D01*
X252229137Y-144746195D02*
X251920390Y-142995207D01*
X253980125Y-144437449D02*
X252229137Y-144746195D01*
X264736195Y-142540863D02*
X262985207Y-142849610D01*
X264427449Y-140789875D02*
X264736195Y-142540863D01*
X262530863Y-130033805D02*
X262839610Y-131784793D01*
X260779875Y-130342551D02*
X262530863Y-130033805D01*
X250023805Y-132239137D02*
X251774793Y-131930390D01*
G04 #@! TO.C,SW34*
X253323805Y-150999137D02*
X255074793Y-150690390D01*
X264079875Y-149102551D02*
X265830863Y-148793805D01*
X265830863Y-148793805D02*
X266139610Y-150544793D01*
X267727449Y-159549875D02*
X268036195Y-161300863D01*
X268036195Y-161300863D02*
X266285207Y-161609610D01*
X257280125Y-163197449D02*
X255529137Y-163506195D01*
X255529137Y-163506195D02*
X255220390Y-161755207D01*
X253632551Y-152750125D02*
X253323805Y-150999137D01*
G04 #@! TO.C,SW35*
X256982551Y-171700125D02*
X256673805Y-169949137D01*
X258879137Y-182456195D02*
X258570390Y-180705207D01*
X260630125Y-182147449D02*
X258879137Y-182456195D01*
X271386195Y-180250863D02*
X269635207Y-180559610D01*
X271077449Y-178499875D02*
X271386195Y-180250863D01*
X269180863Y-167743805D02*
X269489610Y-169494793D01*
X267429875Y-168052551D02*
X269180863Y-167743805D01*
X256673805Y-169949137D02*
X258424793Y-169640390D01*
G04 #@! TO.C,SW36*
X249982870Y-201689872D02*
X251700286Y-201229692D01*
X260532712Y-198863050D02*
X262250128Y-198402870D01*
X262250128Y-198402870D02*
X262710308Y-200120286D01*
X265076950Y-208952712D02*
X265537130Y-210670128D01*
X265537130Y-210670128D02*
X263819714Y-211130308D01*
X254987288Y-213496950D02*
X253269872Y-213957130D01*
X253269872Y-213957130D02*
X252809692Y-212239714D01*
X250443050Y-203407288D02*
X249982870Y-201689872D01*
G04 #@! TO.C,SW37*
X264622551Y-105360125D02*
X264313805Y-103609137D01*
X266519137Y-116116195D02*
X266210390Y-114365207D01*
X268270125Y-115807449D02*
X266519137Y-116116195D01*
X279026195Y-113910863D02*
X277275207Y-114219610D01*
X278717449Y-112159875D02*
X279026195Y-113910863D01*
X276820863Y-101403805D02*
X277129610Y-103154793D01*
X275069875Y-101712551D02*
X276820863Y-101403805D01*
X264313805Y-103609137D02*
X266064793Y-103300390D01*
G04 #@! TO.C,SW38*
X267623805Y-122359137D02*
X269374793Y-122050390D01*
X278379875Y-120462551D02*
X280130863Y-120153805D01*
X280130863Y-120153805D02*
X280439610Y-121904793D01*
X282027449Y-130909875D02*
X282336195Y-132660863D01*
X282336195Y-132660863D02*
X280585207Y-132969610D01*
X271580125Y-134557449D02*
X269829137Y-134866195D01*
X269829137Y-134866195D02*
X269520390Y-133115207D01*
X267932551Y-124110125D02*
X267623805Y-122359137D01*
G04 #@! TO.C,SW39*
X271242551Y-142880125D02*
X270933805Y-141129137D01*
X273139137Y-153636195D02*
X272830390Y-151885207D01*
X274890125Y-153327449D02*
X273139137Y-153636195D01*
X285646195Y-151430863D02*
X283895207Y-151739610D01*
X285337449Y-149679875D02*
X285646195Y-151430863D01*
X283440863Y-138923805D02*
X283749610Y-140674793D01*
X281689875Y-139232551D02*
X283440863Y-138923805D01*
X270933805Y-141129137D02*
X272684793Y-140820390D01*
G04 #@! TO.C,SW40*
X274233805Y-159889137D02*
X275984793Y-159580390D01*
X284989875Y-157992551D02*
X286740863Y-157683805D01*
X286740863Y-157683805D02*
X287049610Y-159434793D01*
X288637449Y-168439875D02*
X288946195Y-170190863D01*
X288946195Y-170190863D02*
X287195207Y-170499610D01*
X278190125Y-172087449D02*
X276439137Y-172396195D01*
X276439137Y-172396195D02*
X276130390Y-170645207D01*
X274542551Y-161640125D02*
X274233805Y-159889137D01*
G04 #@! TO.C,SW41*
X270432551Y-193120125D02*
X270123805Y-191369137D01*
X272329137Y-203876195D02*
X272020390Y-202125207D01*
X274080125Y-203567449D02*
X272329137Y-203876195D01*
X284836195Y-201670863D02*
X283085207Y-201979610D01*
X284527449Y-199919875D02*
X284836195Y-201670863D01*
X282630863Y-189163805D02*
X282939610Y-190914793D01*
X280879875Y-189472551D02*
X282630863Y-189163805D01*
X270123805Y-191369137D02*
X271874793Y-191060390D01*
G04 #@! TO.C,SW42*
X284233805Y-106869137D02*
X285984793Y-106560390D01*
X294989875Y-104972551D02*
X296740863Y-104663805D01*
X296740863Y-104663805D02*
X297049610Y-106414793D01*
X298637449Y-115419875D02*
X298946195Y-117170863D01*
X298946195Y-117170863D02*
X297195207Y-117479610D01*
X288190125Y-119067449D02*
X286439137Y-119376195D01*
X286439137Y-119376195D02*
X286130390Y-117625207D01*
X284542551Y-108620125D02*
X284233805Y-106869137D01*
G04 #@! TO.C,SW43*
X287852551Y-127370125D02*
X287543805Y-125619137D01*
X289749137Y-138126195D02*
X289440390Y-136375207D01*
X291500125Y-137817449D02*
X289749137Y-138126195D01*
X302256195Y-135920863D02*
X300505207Y-136229610D01*
X301947449Y-134169875D02*
X302256195Y-135920863D01*
X300050863Y-123413805D02*
X300359610Y-125164793D01*
X298299875Y-123722551D02*
X300050863Y-123413805D01*
X287543805Y-125619137D02*
X289294793Y-125310390D01*
G04 #@! TO.C,SW44*
X290853805Y-144389137D02*
X292604793Y-144080390D01*
X301609875Y-142492551D02*
X303360863Y-142183805D01*
X303360863Y-142183805D02*
X303669610Y-143934793D01*
X305257449Y-152939875D02*
X305566195Y-154690863D01*
X305566195Y-154690863D02*
X303815207Y-154999610D01*
X294810125Y-156587449D02*
X293059137Y-156896195D01*
X293059137Y-156896195D02*
X292750390Y-155145207D01*
X291162551Y-146140125D02*
X290853805Y-144389137D01*
G04 #@! TO.C,SW45*
X294492551Y-165080125D02*
X294183805Y-163329137D01*
X296389137Y-175836195D02*
X296080390Y-174085207D01*
X298140125Y-175527449D02*
X296389137Y-175836195D01*
X308896195Y-173630863D02*
X307145207Y-173939610D01*
X308587449Y-171879875D02*
X308896195Y-173630863D01*
X306690863Y-161123805D02*
X306999610Y-162874793D01*
X304939875Y-161432551D02*
X306690863Y-161123805D01*
X294183805Y-163329137D02*
X295934793Y-163020390D01*
G04 #@! TO.C,SW46*
X303823805Y-108239137D02*
X305574793Y-107930390D01*
X314579875Y-106342551D02*
X316330863Y-106033805D01*
X316330863Y-106033805D02*
X316639610Y-107784793D01*
X318227449Y-116789875D02*
X318536195Y-118540863D01*
X318536195Y-118540863D02*
X316785207Y-118849610D01*
X307780125Y-120437449D02*
X306029137Y-120746195D01*
X306029137Y-120746195D02*
X305720390Y-118995207D01*
X304132551Y-109990125D02*
X303823805Y-108239137D01*
G04 #@! TO.C,SW47*
X307432551Y-128760125D02*
X307123805Y-127009137D01*
X309329137Y-139516195D02*
X309020390Y-137765207D01*
X311080125Y-139207449D02*
X309329137Y-139516195D01*
X321836195Y-137310863D02*
X320085207Y-137619610D01*
X321527449Y-135559875D02*
X321836195Y-137310863D01*
X319630863Y-124803805D02*
X319939610Y-126554793D01*
X317879875Y-125112551D02*
X319630863Y-124803805D01*
X307123805Y-127009137D02*
X308874793Y-126700390D01*
G04 #@! TO.C,SW48*
X310443805Y-145769137D02*
X312194793Y-145460390D01*
X321199875Y-143872551D02*
X322950863Y-143563805D01*
X322950863Y-143563805D02*
X323259610Y-145314793D01*
X324847449Y-154319875D02*
X325156195Y-156070863D01*
X325156195Y-156070863D02*
X323405207Y-156379610D01*
X314400125Y-157967449D02*
X312649137Y-158276195D01*
X312649137Y-158276195D02*
X312340390Y-156525207D01*
X310752551Y-147520125D02*
X310443805Y-145769137D01*
G04 #@! TO.C,SW49*
X314062551Y-166290125D02*
X313753805Y-164539137D01*
X315959137Y-177046195D02*
X315650390Y-175295207D01*
X317710125Y-176737449D02*
X315959137Y-177046195D01*
X328466195Y-174840863D02*
X326715207Y-175149610D01*
X328157449Y-173089875D02*
X328466195Y-174840863D01*
X326260863Y-162333805D02*
X326569610Y-164084793D01*
X324509875Y-162642551D02*
X326260863Y-162333805D01*
X313753805Y-164539137D02*
X315504793Y-164230390D01*
G04 #@! TO.C,SW50*
X325893805Y-123699137D02*
X327644793Y-123390390D01*
X336649875Y-121802551D02*
X338400863Y-121493805D01*
X338400863Y-121493805D02*
X338709610Y-123244793D01*
X340297449Y-132249875D02*
X340606195Y-134000863D01*
X340606195Y-134000863D02*
X338855207Y-134309610D01*
X329850125Y-135897449D02*
X328099137Y-136206195D01*
X328099137Y-136206195D02*
X327790390Y-134455207D01*
X326202551Y-125450125D02*
X325893805Y-123699137D01*
G04 #@! TO.C,SW51*
X329502551Y-144210125D02*
X329193805Y-142459137D01*
X331399137Y-154966195D02*
X331090390Y-153215207D01*
X333150125Y-154657449D02*
X331399137Y-154966195D01*
X343906195Y-152760863D02*
X342155207Y-153069610D01*
X343597449Y-151009875D02*
X343906195Y-152760863D01*
X341700863Y-140253805D02*
X342009610Y-142004793D01*
X339949875Y-140562551D02*
X341700863Y-140253805D01*
X329193805Y-142459137D02*
X330944793Y-142150390D01*
G04 #@! TO.C,SW52*
X332503805Y-161219137D02*
X334254793Y-160910390D01*
X343259875Y-159322551D02*
X345010863Y-159013805D01*
X345010863Y-159013805D02*
X345319610Y-160764793D01*
X346907449Y-169769875D02*
X347216195Y-171520863D01*
X347216195Y-171520863D02*
X345465207Y-171829610D01*
X336460125Y-173417449D02*
X334709137Y-173726195D01*
X334709137Y-173726195D02*
X334400390Y-171975207D01*
X332812551Y-162970125D02*
X332503805Y-161219137D01*
G04 #@! TO.C,SW3*
X85240390Y-160774793D02*
X85549137Y-159023805D01*
X83343805Y-171530863D02*
X83652551Y-169779875D01*
X85094793Y-171839610D02*
X83343805Y-171530863D01*
X95850863Y-173736195D02*
X94099875Y-173427449D01*
X96159610Y-171985207D02*
X95850863Y-173736195D01*
X98056195Y-161229137D02*
X97747449Y-162980125D01*
X96305207Y-160920390D02*
X98056195Y-161229137D01*
X85549137Y-159023805D02*
X87300125Y-159332551D01*
G04 #@! TO.C,SW2*
X88859137Y-140253805D02*
X90610125Y-140562551D01*
X99615207Y-142150390D02*
X101366195Y-142459137D01*
X101366195Y-142459137D02*
X101057449Y-144210125D01*
X99469610Y-153215207D02*
X99160863Y-154966195D01*
X99160863Y-154966195D02*
X97409875Y-154657449D01*
X88404793Y-153069610D02*
X86653805Y-152760863D01*
X86653805Y-152760863D02*
X86962551Y-151009875D01*
X88550390Y-142004793D02*
X88859137Y-140253805D01*
D12*
G04 #@! TO.C,SW53*
X212290000Y-188160000D02*
X218290000Y-188160000D01*
X218290000Y-188160000D02*
X218290000Y-187910000D01*
X212290000Y-188160000D02*
X212290000Y-187910000D01*
X212290000Y-184660000D02*
X212290000Y-184910000D01*
X212290000Y-184660000D02*
X218290000Y-184660000D01*
X218290000Y-184660000D02*
X218290000Y-184910000D01*
D13*
G04 #@! TO.C,G\002A\002A\002A*
G36*
X122712500Y-107688750D02*
X122553750Y-107847500D01*
X122395000Y-107688750D01*
X122553750Y-107530000D01*
X122712500Y-107688750D01*
X122712500Y-107688750D01*
G37*
X122712500Y-107688750D02*
X122553750Y-107847500D01*
X122395000Y-107688750D01*
X122553750Y-107530000D01*
X122712500Y-107688750D01*
G36*
X296067500Y-108006250D02*
X295908750Y-108165000D01*
X295750000Y-108006250D01*
X295908750Y-107847500D01*
X296067500Y-108006250D01*
X296067500Y-108006250D01*
G37*
X296067500Y-108006250D02*
X295908750Y-108165000D01*
X295750000Y-108006250D01*
X295908750Y-107847500D01*
X296067500Y-108006250D01*
G36*
X281145000Y-108006250D02*
X280986250Y-108165000D01*
X280827500Y-108006250D01*
X280986250Y-107847500D01*
X281145000Y-108006250D01*
X281145000Y-108006250D01*
G37*
X281145000Y-108006250D02*
X280986250Y-108165000D01*
X280827500Y-108006250D01*
X280986250Y-107847500D01*
X281145000Y-108006250D01*
G36*
X151287500Y-108323750D02*
X151128750Y-108482500D01*
X150970000Y-108323750D01*
X151128750Y-108165000D01*
X151287500Y-108323750D01*
X151287500Y-108323750D01*
G37*
X151287500Y-108323750D02*
X151128750Y-108482500D01*
X150970000Y-108323750D01*
X151128750Y-108165000D01*
X151287500Y-108323750D01*
G36*
X225900000Y-109276250D02*
X225741250Y-109435000D01*
X225582500Y-109276250D01*
X225741250Y-109117500D01*
X225900000Y-109276250D01*
X225900000Y-109276250D01*
G37*
X225900000Y-109276250D02*
X225741250Y-109435000D01*
X225582500Y-109276250D01*
X225741250Y-109117500D01*
X225900000Y-109276250D01*
G36*
X169702500Y-109911250D02*
X169543750Y-110070000D01*
X169385000Y-109911250D01*
X169543750Y-109752500D01*
X169702500Y-109911250D01*
X169702500Y-109911250D01*
G37*
X169702500Y-109911250D02*
X169543750Y-110070000D01*
X169385000Y-109911250D01*
X169543750Y-109752500D01*
X169702500Y-109911250D01*
G36*
X308132500Y-111498750D02*
X307973750Y-111657500D01*
X307815000Y-111498750D01*
X307973750Y-111340000D01*
X308132500Y-111498750D01*
X308132500Y-111498750D01*
G37*
X308132500Y-111498750D02*
X307973750Y-111657500D01*
X307815000Y-111498750D01*
X307973750Y-111340000D01*
X308132500Y-111498750D01*
G36*
X270667500Y-111816250D02*
X270508750Y-111975000D01*
X270350000Y-111816250D01*
X270508750Y-111657500D01*
X270667500Y-111816250D01*
X270667500Y-111816250D01*
G37*
X270667500Y-111816250D02*
X270508750Y-111975000D01*
X270350000Y-111816250D01*
X270508750Y-111657500D01*
X270667500Y-111816250D01*
G36*
X147160000Y-111816250D02*
X147001250Y-111975000D01*
X146842500Y-111816250D01*
X147001250Y-111657500D01*
X147160000Y-111816250D01*
X147160000Y-111816250D01*
G37*
X147160000Y-111816250D02*
X147001250Y-111975000D01*
X146842500Y-111816250D01*
X147001250Y-111657500D01*
X147160000Y-111816250D01*
G36*
X210025000Y-112768750D02*
X209866250Y-112927500D01*
X209707500Y-112768750D01*
X209866250Y-112610000D01*
X210025000Y-112768750D01*
X210025000Y-112768750D01*
G37*
X210025000Y-112768750D02*
X209866250Y-112927500D01*
X209707500Y-112768750D01*
X209866250Y-112610000D01*
X210025000Y-112768750D01*
G36*
X293527500Y-113403750D02*
X293368750Y-113562500D01*
X293210000Y-113403750D01*
X293368750Y-113245000D01*
X293527500Y-113403750D01*
X293527500Y-113403750D01*
G37*
X293527500Y-113403750D02*
X293368750Y-113562500D01*
X293210000Y-113403750D01*
X293368750Y-113245000D01*
X293527500Y-113403750D01*
G36*
X316705000Y-114038750D02*
X316546250Y-114197500D01*
X316387500Y-114038750D01*
X316546250Y-113880000D01*
X316705000Y-114038750D01*
X316705000Y-114038750D01*
G37*
X316705000Y-114038750D02*
X316546250Y-114197500D01*
X316387500Y-114038750D01*
X316546250Y-113880000D01*
X316705000Y-114038750D01*
G36*
X278922500Y-114038750D02*
X278763750Y-114197500D01*
X278605000Y-114038750D01*
X278763750Y-113880000D01*
X278922500Y-114038750D01*
X278922500Y-114038750D01*
G37*
X278922500Y-114038750D02*
X278763750Y-114197500D01*
X278605000Y-114038750D01*
X278763750Y-113880000D01*
X278922500Y-114038750D01*
G36*
X308450000Y-114991250D02*
X308291250Y-115150000D01*
X308132500Y-114991250D01*
X308291250Y-114832500D01*
X308450000Y-114991250D01*
X308450000Y-114991250D01*
G37*
X308450000Y-114991250D02*
X308291250Y-115150000D01*
X308132500Y-114991250D01*
X308291250Y-114832500D01*
X308450000Y-114991250D01*
G36*
X244315000Y-114991250D02*
X244156250Y-115150000D01*
X243997500Y-114991250D01*
X244156250Y-114832500D01*
X244315000Y-114991250D01*
X244315000Y-114991250D01*
G37*
X244315000Y-114991250D02*
X244156250Y-115150000D01*
X243997500Y-114991250D01*
X244156250Y-114832500D01*
X244315000Y-114991250D01*
G36*
X210977500Y-114991250D02*
X210818750Y-115150000D01*
X210660000Y-114991250D01*
X210818750Y-114832500D01*
X210977500Y-114991250D01*
X210977500Y-114991250D01*
G37*
X210977500Y-114991250D02*
X210818750Y-115150000D01*
X210660000Y-114991250D01*
X210818750Y-114832500D01*
X210977500Y-114991250D01*
G36*
X299560000Y-115308750D02*
X299401250Y-115467500D01*
X299242500Y-115308750D01*
X299401250Y-115150000D01*
X299560000Y-115308750D01*
X299560000Y-115308750D01*
G37*
X299560000Y-115308750D02*
X299401250Y-115467500D01*
X299242500Y-115308750D01*
X299401250Y-115150000D01*
X299560000Y-115308750D01*
G36*
X294480000Y-115626250D02*
X294321250Y-115785000D01*
X294162500Y-115626250D01*
X294321250Y-115467500D01*
X294480000Y-115626250D01*
X294480000Y-115626250D01*
G37*
X294480000Y-115626250D02*
X294321250Y-115785000D01*
X294162500Y-115626250D01*
X294321250Y-115467500D01*
X294480000Y-115626250D01*
G36*
X305275000Y-116261250D02*
X305116250Y-116420000D01*
X304957500Y-116261250D01*
X305116250Y-116102500D01*
X305275000Y-116261250D01*
X305275000Y-116261250D01*
G37*
X305275000Y-116261250D02*
X305116250Y-116420000D01*
X304957500Y-116261250D01*
X305116250Y-116102500D01*
X305275000Y-116261250D01*
G36*
X178910000Y-116261250D02*
X178751250Y-116420000D01*
X178592500Y-116261250D01*
X178751250Y-116102500D01*
X178910000Y-116261250D01*
X178910000Y-116261250D01*
G37*
X178910000Y-116261250D02*
X178751250Y-116420000D01*
X178592500Y-116261250D01*
X178751250Y-116102500D01*
X178910000Y-116261250D01*
G36*
X245585000Y-117213750D02*
X245426250Y-117372500D01*
X245267500Y-117213750D01*
X245426250Y-117055000D01*
X245585000Y-117213750D01*
X245585000Y-117213750D01*
G37*
X245585000Y-117213750D02*
X245426250Y-117372500D01*
X245267500Y-117213750D01*
X245426250Y-117055000D01*
X245585000Y-117213750D01*
G36*
X310672500Y-119436250D02*
X310513750Y-119595000D01*
X310355000Y-119436250D01*
X310513750Y-119277500D01*
X310672500Y-119436250D01*
X310672500Y-119436250D01*
G37*
X310672500Y-119436250D02*
X310513750Y-119595000D01*
X310355000Y-119436250D01*
X310513750Y-119277500D01*
X310672500Y-119436250D01*
G36*
X138270000Y-119436250D02*
X138111250Y-119595000D01*
X137952500Y-119436250D01*
X138111250Y-119277500D01*
X138270000Y-119436250D01*
X138270000Y-119436250D01*
G37*
X138270000Y-119436250D02*
X138111250Y-119595000D01*
X137952500Y-119436250D01*
X138111250Y-119277500D01*
X138270000Y-119436250D01*
G36*
X145572500Y-120071250D02*
X145413750Y-120230000D01*
X145255000Y-120071250D01*
X145413750Y-119912500D01*
X145572500Y-120071250D01*
X145572500Y-120071250D01*
G37*
X145572500Y-120071250D02*
X145413750Y-120230000D01*
X145255000Y-120071250D01*
X145413750Y-119912500D01*
X145572500Y-120071250D01*
G36*
X210660000Y-122293750D02*
X210501250Y-122452500D01*
X210342500Y-122293750D01*
X210501250Y-122135000D01*
X210660000Y-122293750D01*
X210660000Y-122293750D01*
G37*
X210660000Y-122293750D02*
X210501250Y-122452500D01*
X210342500Y-122293750D01*
X210501250Y-122135000D01*
X210660000Y-122293750D01*
G36*
X313212500Y-123246250D02*
X313053750Y-123405000D01*
X312895000Y-123246250D01*
X313053750Y-123087500D01*
X313212500Y-123246250D01*
X313212500Y-123246250D01*
G37*
X313212500Y-123246250D02*
X313053750Y-123405000D01*
X312895000Y-123246250D01*
X313053750Y-123087500D01*
X313212500Y-123246250D01*
G36*
X121125000Y-123246250D02*
X120966250Y-123405000D01*
X120807500Y-123246250D01*
X120966250Y-123087500D01*
X121125000Y-123246250D01*
X121125000Y-123246250D01*
G37*
X121125000Y-123246250D02*
X120966250Y-123405000D01*
X120807500Y-123246250D01*
X120966250Y-123087500D01*
X121125000Y-123246250D01*
G36*
X316070000Y-123563750D02*
X315911250Y-123722500D01*
X315752500Y-123563750D01*
X315911250Y-123405000D01*
X316070000Y-123563750D01*
X316070000Y-123563750D01*
G37*
X316070000Y-123563750D02*
X315911250Y-123722500D01*
X315752500Y-123563750D01*
X315911250Y-123405000D01*
X316070000Y-123563750D01*
G36*
X146842500Y-123563750D02*
X146683750Y-123722500D01*
X146525000Y-123563750D01*
X146683750Y-123405000D01*
X146842500Y-123563750D01*
X146842500Y-123563750D01*
G37*
X146842500Y-123563750D02*
X146683750Y-123722500D01*
X146525000Y-123563750D01*
X146683750Y-123405000D01*
X146842500Y-123563750D01*
G36*
X137635000Y-124198750D02*
X137476250Y-124357500D01*
X137317500Y-124198750D01*
X137476250Y-124040000D01*
X137635000Y-124198750D01*
X137635000Y-124198750D01*
G37*
X137635000Y-124198750D02*
X137476250Y-124357500D01*
X137317500Y-124198750D01*
X137476250Y-124040000D01*
X137635000Y-124198750D01*
G36*
X205580000Y-125151250D02*
X205421250Y-125310000D01*
X205262500Y-125151250D01*
X205421250Y-124992500D01*
X205580000Y-125151250D01*
X205580000Y-125151250D01*
G37*
X205580000Y-125151250D02*
X205421250Y-125310000D01*
X205262500Y-125151250D01*
X205421250Y-124992500D01*
X205580000Y-125151250D01*
G36*
X149382500Y-125151250D02*
X149223750Y-125310000D01*
X149065000Y-125151250D01*
X149223750Y-124992500D01*
X149382500Y-125151250D01*
X149382500Y-125151250D01*
G37*
X149382500Y-125151250D02*
X149223750Y-125310000D01*
X149065000Y-125151250D01*
X149223750Y-124992500D01*
X149382500Y-125151250D01*
G36*
X308450000Y-126103750D02*
X308291250Y-126262500D01*
X308132500Y-126103750D01*
X308291250Y-125945000D01*
X308450000Y-126103750D01*
X308450000Y-126103750D01*
G37*
X308450000Y-126103750D02*
X308291250Y-126262500D01*
X308132500Y-126103750D01*
X308291250Y-125945000D01*
X308450000Y-126103750D01*
G36*
X202722500Y-126738750D02*
X202563750Y-126897500D01*
X202405000Y-126738750D01*
X202563750Y-126580000D01*
X202722500Y-126738750D01*
X202722500Y-126738750D01*
G37*
X202722500Y-126738750D02*
X202563750Y-126897500D01*
X202405000Y-126738750D01*
X202563750Y-126580000D01*
X202722500Y-126738750D01*
G36*
X311942500Y-127056250D02*
X311783750Y-127215000D01*
X311625000Y-127056250D01*
X311783750Y-126897500D01*
X311942500Y-127056250D01*
X311942500Y-127056250D01*
G37*
X311942500Y-127056250D02*
X311783750Y-127215000D01*
X311625000Y-127056250D01*
X311783750Y-126897500D01*
X311942500Y-127056250D01*
G36*
X314800000Y-127373750D02*
X314641250Y-127532500D01*
X314482500Y-127373750D01*
X314641250Y-127215000D01*
X314800000Y-127373750D01*
X314800000Y-127373750D01*
G37*
X314800000Y-127373750D02*
X314641250Y-127532500D01*
X314482500Y-127373750D01*
X314641250Y-127215000D01*
X314800000Y-127373750D01*
G36*
X316070000Y-128008750D02*
X315911250Y-128167500D01*
X315752500Y-128008750D01*
X315911250Y-127850000D01*
X316070000Y-128008750D01*
X316070000Y-128008750D01*
G37*
X316070000Y-128008750D02*
X315911250Y-128167500D01*
X315752500Y-128008750D01*
X315911250Y-127850000D01*
X316070000Y-128008750D01*
G36*
X294797500Y-128643750D02*
X294638750Y-128802500D01*
X294480000Y-128643750D01*
X294638750Y-128485000D01*
X294797500Y-128643750D01*
X294797500Y-128643750D01*
G37*
X294797500Y-128643750D02*
X294638750Y-128802500D01*
X294480000Y-128643750D01*
X294638750Y-128485000D01*
X294797500Y-128643750D01*
G36*
X183355000Y-128643750D02*
X183196250Y-128802500D01*
X183037500Y-128643750D01*
X183196250Y-128485000D01*
X183355000Y-128643750D01*
X183355000Y-128643750D01*
G37*
X183355000Y-128643750D02*
X183196250Y-128802500D01*
X183037500Y-128643750D01*
X183196250Y-128485000D01*
X183355000Y-128643750D01*
G36*
X312260000Y-129596250D02*
X312101250Y-129755000D01*
X311942500Y-129596250D01*
X312101250Y-129437500D01*
X312260000Y-129596250D01*
X312260000Y-129596250D01*
G37*
X312260000Y-129596250D02*
X312101250Y-129755000D01*
X311942500Y-129596250D01*
X312101250Y-129437500D01*
X312260000Y-129596250D01*
G36*
X139540000Y-129596250D02*
X139381250Y-129755000D01*
X139222500Y-129596250D01*
X139381250Y-129437500D01*
X139540000Y-129596250D01*
X139540000Y-129596250D01*
G37*
X139540000Y-129596250D02*
X139381250Y-129755000D01*
X139222500Y-129596250D01*
X139381250Y-129437500D01*
X139540000Y-129596250D01*
G36*
X312895000Y-131501250D02*
X312736250Y-131660000D01*
X312577500Y-131501250D01*
X312736250Y-131342500D01*
X312895000Y-131501250D01*
X312895000Y-131501250D01*
G37*
X312895000Y-131501250D02*
X312736250Y-131660000D01*
X312577500Y-131501250D01*
X312736250Y-131342500D01*
X312895000Y-131501250D01*
G36*
X292892500Y-131501250D02*
X292733750Y-131660000D01*
X292575000Y-131501250D01*
X292733750Y-131342500D01*
X292892500Y-131501250D01*
X292892500Y-131501250D01*
G37*
X292892500Y-131501250D02*
X292733750Y-131660000D01*
X292575000Y-131501250D01*
X292733750Y-131342500D01*
X292892500Y-131501250D01*
G36*
X279557500Y-131501250D02*
X279398750Y-131660000D01*
X279240000Y-131501250D01*
X279398750Y-131342500D01*
X279557500Y-131501250D01*
X279557500Y-131501250D01*
G37*
X279557500Y-131501250D02*
X279398750Y-131660000D01*
X279240000Y-131501250D01*
X279398750Y-131342500D01*
X279557500Y-131501250D01*
G36*
X206532500Y-131501250D02*
X206373750Y-131660000D01*
X206215000Y-131501250D01*
X206373750Y-131342500D01*
X206532500Y-131501250D01*
X206532500Y-131501250D01*
G37*
X206532500Y-131501250D02*
X206373750Y-131660000D01*
X206215000Y-131501250D01*
X206373750Y-131342500D01*
X206532500Y-131501250D01*
G36*
X307815000Y-131818750D02*
X307656250Y-131977500D01*
X307497500Y-131818750D01*
X307656250Y-131660000D01*
X307815000Y-131818750D01*
X307815000Y-131818750D01*
G37*
X307815000Y-131818750D02*
X307656250Y-131977500D01*
X307497500Y-131818750D01*
X307656250Y-131660000D01*
X307815000Y-131818750D01*
G36*
X304957500Y-132136250D02*
X304798750Y-132295000D01*
X304640000Y-132136250D01*
X304798750Y-131977500D01*
X304957500Y-132136250D01*
X304957500Y-132136250D01*
G37*
X304957500Y-132136250D02*
X304798750Y-132295000D01*
X304640000Y-132136250D01*
X304798750Y-131977500D01*
X304957500Y-132136250D01*
G36*
X315117500Y-132771250D02*
X314958750Y-132930000D01*
X314800000Y-132771250D01*
X314958750Y-132612500D01*
X315117500Y-132771250D01*
X315117500Y-132771250D01*
G37*
X315117500Y-132771250D02*
X314958750Y-132930000D01*
X314800000Y-132771250D01*
X314958750Y-132612500D01*
X315117500Y-132771250D01*
G36*
X174465000Y-133088750D02*
X174306250Y-133247500D01*
X174147500Y-133088750D01*
X174306250Y-132930000D01*
X174465000Y-133088750D01*
X174465000Y-133088750D01*
G37*
X174465000Y-133088750D02*
X174306250Y-133247500D01*
X174147500Y-133088750D01*
X174306250Y-132930000D01*
X174465000Y-133088750D01*
G36*
X130650000Y-133088750D02*
X130491250Y-133247500D01*
X130332500Y-133088750D01*
X130491250Y-132930000D01*
X130650000Y-133088750D01*
X130650000Y-133088750D01*
G37*
X130650000Y-133088750D02*
X130491250Y-133247500D01*
X130332500Y-133088750D01*
X130491250Y-132930000D01*
X130650000Y-133088750D01*
G36*
X301782500Y-133723750D02*
X301623750Y-133882500D01*
X301465000Y-133723750D01*
X301623750Y-133565000D01*
X301782500Y-133723750D01*
X301782500Y-133723750D01*
G37*
X301782500Y-133723750D02*
X301623750Y-133882500D01*
X301465000Y-133723750D01*
X301623750Y-133565000D01*
X301782500Y-133723750D01*
G36*
X312895000Y-134041250D02*
X312736250Y-134200000D01*
X312577500Y-134041250D01*
X312736250Y-133882500D01*
X312895000Y-134041250D01*
X312895000Y-134041250D01*
G37*
X312895000Y-134041250D02*
X312736250Y-134200000D01*
X312577500Y-134041250D01*
X312736250Y-133882500D01*
X312895000Y-134041250D01*
G36*
X115410000Y-134358750D02*
X115251250Y-134517500D01*
X115092500Y-134358750D01*
X115251250Y-134200000D01*
X115410000Y-134358750D01*
X115410000Y-134358750D01*
G37*
X115410000Y-134358750D02*
X115251250Y-134517500D01*
X115092500Y-134358750D01*
X115251250Y-134200000D01*
X115410000Y-134358750D01*
G36*
X189387500Y-134676250D02*
X189228750Y-134835000D01*
X189070000Y-134676250D01*
X189228750Y-134517500D01*
X189387500Y-134676250D01*
X189387500Y-134676250D01*
G37*
X189387500Y-134676250D02*
X189228750Y-134835000D01*
X189070000Y-134676250D01*
X189228750Y-134517500D01*
X189387500Y-134676250D01*
G36*
X303687500Y-135628750D02*
X303528750Y-135787500D01*
X303370000Y-135628750D01*
X303528750Y-135470000D01*
X303687500Y-135628750D01*
X303687500Y-135628750D01*
G37*
X303687500Y-135628750D02*
X303528750Y-135787500D01*
X303370000Y-135628750D01*
X303528750Y-135470000D01*
X303687500Y-135628750D01*
G36*
X299560000Y-136263750D02*
X299401250Y-136422500D01*
X299242500Y-136263750D01*
X299401250Y-136105000D01*
X299560000Y-136263750D01*
X299560000Y-136263750D01*
G37*
X299560000Y-136263750D02*
X299401250Y-136422500D01*
X299242500Y-136263750D01*
X299401250Y-136105000D01*
X299560000Y-136263750D01*
G36*
X315752500Y-136581250D02*
X315593750Y-136740000D01*
X315435000Y-136581250D01*
X315593750Y-136422500D01*
X315752500Y-136581250D01*
X315752500Y-136581250D01*
G37*
X315752500Y-136581250D02*
X315593750Y-136740000D01*
X315435000Y-136581250D01*
X315593750Y-136422500D01*
X315752500Y-136581250D01*
G36*
X149382500Y-137216250D02*
X149223750Y-137375000D01*
X149065000Y-137216250D01*
X149223750Y-137057500D01*
X149382500Y-137216250D01*
X149382500Y-137216250D01*
G37*
X149382500Y-137216250D02*
X149223750Y-137375000D01*
X149065000Y-137216250D01*
X149223750Y-137057500D01*
X149382500Y-137216250D01*
G36*
X290035000Y-138486250D02*
X289876250Y-138645000D01*
X289717500Y-138486250D01*
X289876250Y-138327500D01*
X290035000Y-138486250D01*
X290035000Y-138486250D01*
G37*
X290035000Y-138486250D02*
X289876250Y-138645000D01*
X289717500Y-138486250D01*
X289876250Y-138327500D01*
X290035000Y-138486250D01*
G36*
X156050000Y-138486250D02*
X155891250Y-138645000D01*
X155732500Y-138486250D01*
X155891250Y-138327500D01*
X156050000Y-138486250D01*
X156050000Y-138486250D01*
G37*
X156050000Y-138486250D02*
X155891250Y-138645000D01*
X155732500Y-138486250D01*
X155891250Y-138327500D01*
X156050000Y-138486250D01*
G36*
X312260000Y-139121250D02*
X312101250Y-139280000D01*
X311942500Y-139121250D01*
X312101250Y-138962500D01*
X312260000Y-139121250D01*
X312260000Y-139121250D01*
G37*
X312260000Y-139121250D02*
X312101250Y-139280000D01*
X311942500Y-139121250D01*
X312101250Y-138962500D01*
X312260000Y-139121250D01*
G36*
X240505000Y-141978750D02*
X240346250Y-142137500D01*
X240187500Y-141978750D01*
X240346250Y-141820000D01*
X240505000Y-141978750D01*
X240505000Y-141978750D01*
G37*
X240505000Y-141978750D02*
X240346250Y-142137500D01*
X240187500Y-141978750D01*
X240346250Y-141820000D01*
X240505000Y-141978750D01*
G36*
X312895000Y-142613750D02*
X312736250Y-142772500D01*
X312577500Y-142613750D01*
X312736250Y-142455000D01*
X312895000Y-142613750D01*
X312895000Y-142613750D01*
G37*
X312895000Y-142613750D02*
X312736250Y-142772500D01*
X312577500Y-142613750D01*
X312736250Y-142455000D01*
X312895000Y-142613750D01*
G36*
X289082500Y-142613750D02*
X288923750Y-142772500D01*
X288765000Y-142613750D01*
X288923750Y-142455000D01*
X289082500Y-142613750D01*
X289082500Y-142613750D01*
G37*
X289082500Y-142613750D02*
X288923750Y-142772500D01*
X288765000Y-142613750D01*
X288923750Y-142455000D01*
X289082500Y-142613750D01*
G36*
X153192500Y-142613750D02*
X153033750Y-142772500D01*
X152875000Y-142613750D01*
X153033750Y-142455000D01*
X153192500Y-142613750D01*
X153192500Y-142613750D01*
G37*
X153192500Y-142613750D02*
X153033750Y-142772500D01*
X152875000Y-142613750D01*
X153033750Y-142455000D01*
X153192500Y-142613750D01*
G36*
X296067500Y-142931250D02*
X295908750Y-143090000D01*
X295750000Y-142931250D01*
X295908750Y-142772500D01*
X296067500Y-142931250D01*
X296067500Y-142931250D01*
G37*
X296067500Y-142931250D02*
X295908750Y-143090000D01*
X295750000Y-142931250D01*
X295908750Y-142772500D01*
X296067500Y-142931250D01*
G36*
X152557500Y-143883750D02*
X152398750Y-144042500D01*
X152240000Y-143883750D01*
X152398750Y-143725000D01*
X152557500Y-143883750D01*
X152557500Y-143883750D01*
G37*
X152557500Y-143883750D02*
X152398750Y-144042500D01*
X152240000Y-143883750D01*
X152398750Y-143725000D01*
X152557500Y-143883750D01*
G36*
X155097500Y-144201250D02*
X154938750Y-144360000D01*
X154780000Y-144201250D01*
X154938750Y-144042500D01*
X155097500Y-144201250D01*
X155097500Y-144201250D01*
G37*
X155097500Y-144201250D02*
X154938750Y-144360000D01*
X154780000Y-144201250D01*
X154938750Y-144042500D01*
X155097500Y-144201250D01*
G36*
X315117500Y-144518750D02*
X314958750Y-144677500D01*
X314800000Y-144518750D01*
X314958750Y-144360000D01*
X315117500Y-144518750D01*
X315117500Y-144518750D01*
G37*
X315117500Y-144518750D02*
X314958750Y-144677500D01*
X314800000Y-144518750D01*
X314958750Y-144360000D01*
X315117500Y-144518750D01*
G36*
X116362500Y-144518750D02*
X116203750Y-144677500D01*
X116045000Y-144518750D01*
X116203750Y-144360000D01*
X116362500Y-144518750D01*
X116362500Y-144518750D01*
G37*
X116362500Y-144518750D02*
X116203750Y-144677500D01*
X116045000Y-144518750D01*
X116203750Y-144360000D01*
X116362500Y-144518750D01*
G36*
X311942500Y-144836250D02*
X311783750Y-144995000D01*
X311625000Y-144836250D01*
X311783750Y-144677500D01*
X311942500Y-144836250D01*
X311942500Y-144836250D01*
G37*
X311942500Y-144836250D02*
X311783750Y-144995000D01*
X311625000Y-144836250D01*
X311783750Y-144677500D01*
X311942500Y-144836250D01*
G36*
X305910000Y-144836250D02*
X305751250Y-144995000D01*
X305592500Y-144836250D01*
X305751250Y-144677500D01*
X305910000Y-144836250D01*
X305910000Y-144836250D01*
G37*
X305910000Y-144836250D02*
X305751250Y-144995000D01*
X305592500Y-144836250D01*
X305751250Y-144677500D01*
X305910000Y-144836250D01*
G36*
X314482500Y-146741250D02*
X314323750Y-146900000D01*
X314165000Y-146741250D01*
X314323750Y-146582500D01*
X314482500Y-146741250D01*
X314482500Y-146741250D01*
G37*
X314482500Y-146741250D02*
X314323750Y-146900000D01*
X314165000Y-146741250D01*
X314323750Y-146582500D01*
X314482500Y-146741250D01*
G36*
X153510000Y-147058750D02*
X153351250Y-147217500D01*
X153192500Y-147058750D01*
X153351250Y-146900000D01*
X153510000Y-147058750D01*
X153510000Y-147058750D01*
G37*
X153510000Y-147058750D02*
X153351250Y-147217500D01*
X153192500Y-147058750D01*
X153351250Y-146900000D01*
X153510000Y-147058750D01*
G36*
X298925000Y-147376250D02*
X298766250Y-147535000D01*
X298607500Y-147376250D01*
X298766250Y-147217500D01*
X298925000Y-147376250D01*
X298925000Y-147376250D01*
G37*
X298925000Y-147376250D02*
X298766250Y-147535000D01*
X298607500Y-147376250D01*
X298766250Y-147217500D01*
X298925000Y-147376250D01*
G36*
X216692500Y-147693750D02*
X216533750Y-147852500D01*
X216375000Y-147693750D01*
X216533750Y-147535000D01*
X216692500Y-147693750D01*
X216692500Y-147693750D01*
G37*
X216692500Y-147693750D02*
X216533750Y-147852500D01*
X216375000Y-147693750D01*
X216533750Y-147535000D01*
X216692500Y-147693750D01*
G36*
X304005000Y-148328750D02*
X303846250Y-148487500D01*
X303687500Y-148328750D01*
X303846250Y-148170000D01*
X304005000Y-148328750D01*
X304005000Y-148328750D01*
G37*
X304005000Y-148328750D02*
X303846250Y-148487500D01*
X303687500Y-148328750D01*
X303846250Y-148170000D01*
X304005000Y-148328750D01*
G36*
X122395000Y-148328750D02*
X122236250Y-148487500D01*
X122077500Y-148328750D01*
X122236250Y-148170000D01*
X122395000Y-148328750D01*
X122395000Y-148328750D01*
G37*
X122395000Y-148328750D02*
X122236250Y-148487500D01*
X122077500Y-148328750D01*
X122236250Y-148170000D01*
X122395000Y-148328750D01*
G36*
X129380000Y-149598750D02*
X129221250Y-149757500D01*
X129062500Y-149598750D01*
X129221250Y-149440000D01*
X129380000Y-149598750D01*
X129380000Y-149598750D01*
G37*
X129380000Y-149598750D02*
X129221250Y-149757500D01*
X129062500Y-149598750D01*
X129221250Y-149440000D01*
X129380000Y-149598750D01*
G36*
X303052500Y-152138750D02*
X302893750Y-152297500D01*
X302735000Y-152138750D01*
X302893750Y-151980000D01*
X303052500Y-152138750D01*
X303052500Y-152138750D01*
G37*
X303052500Y-152138750D02*
X302893750Y-152297500D01*
X302735000Y-152138750D01*
X302893750Y-151980000D01*
X303052500Y-152138750D01*
G36*
X295750000Y-153091250D02*
X295591250Y-153250000D01*
X295432500Y-153091250D01*
X295591250Y-152932500D01*
X295750000Y-153091250D01*
X295750000Y-153091250D01*
G37*
X295750000Y-153091250D02*
X295591250Y-153250000D01*
X295432500Y-153091250D01*
X295591250Y-152932500D01*
X295750000Y-153091250D01*
G36*
X233837500Y-153726250D02*
X233678750Y-153885000D01*
X233520000Y-153726250D01*
X233678750Y-153567500D01*
X233837500Y-153726250D01*
X233837500Y-153726250D01*
G37*
X233837500Y-153726250D02*
X233678750Y-153885000D01*
X233520000Y-153726250D01*
X233678750Y-153567500D01*
X233837500Y-153726250D01*
G36*
X317340000Y-154043750D02*
X317181250Y-154202500D01*
X317022500Y-154043750D01*
X317181250Y-153885000D01*
X317340000Y-154043750D01*
X317340000Y-154043750D01*
G37*
X317340000Y-154043750D02*
X317181250Y-154202500D01*
X317022500Y-154043750D01*
X317181250Y-153885000D01*
X317340000Y-154043750D01*
G36*
X311307500Y-154361250D02*
X311148750Y-154520000D01*
X310990000Y-154361250D01*
X311148750Y-154202500D01*
X311307500Y-154361250D01*
X311307500Y-154361250D01*
G37*
X311307500Y-154361250D02*
X311148750Y-154520000D01*
X310990000Y-154361250D01*
X311148750Y-154202500D01*
X311307500Y-154361250D01*
G36*
X296067500Y-154996250D02*
X295908750Y-155155000D01*
X295750000Y-154996250D01*
X295908750Y-154837500D01*
X296067500Y-154996250D01*
X296067500Y-154996250D01*
G37*
X296067500Y-154996250D02*
X295908750Y-155155000D01*
X295750000Y-154996250D01*
X295908750Y-154837500D01*
X296067500Y-154996250D01*
G36*
X233837500Y-156583750D02*
X233678750Y-156742500D01*
X233520000Y-156583750D01*
X233678750Y-156425000D01*
X233837500Y-156583750D01*
X233837500Y-156583750D01*
G37*
X233837500Y-156583750D02*
X233678750Y-156742500D01*
X233520000Y-156583750D01*
X233678750Y-156425000D01*
X233837500Y-156583750D01*
G36*
X174147500Y-157218750D02*
X173988750Y-157377500D01*
X173830000Y-157218750D01*
X173988750Y-157060000D01*
X174147500Y-157218750D01*
X174147500Y-157218750D01*
G37*
X174147500Y-157218750D02*
X173988750Y-157377500D01*
X173830000Y-157218750D01*
X173988750Y-157060000D01*
X174147500Y-157218750D01*
G36*
X129380000Y-159123750D02*
X129221250Y-159282500D01*
X129062500Y-159123750D01*
X129221250Y-158965000D01*
X129380000Y-159123750D01*
X129380000Y-159123750D01*
G37*
X129380000Y-159123750D02*
X129221250Y-159282500D01*
X129062500Y-159123750D01*
X129221250Y-158965000D01*
X129380000Y-159123750D01*
G36*
X291305000Y-160711250D02*
X291146250Y-160870000D01*
X290987500Y-160711250D01*
X291146250Y-160552500D01*
X291305000Y-160711250D01*
X291305000Y-160711250D01*
G37*
X291305000Y-160711250D02*
X291146250Y-160870000D01*
X290987500Y-160711250D01*
X291146250Y-160552500D01*
X291305000Y-160711250D01*
G36*
X234155000Y-160711250D02*
X233996250Y-160870000D01*
X233837500Y-160711250D01*
X233996250Y-160552500D01*
X234155000Y-160711250D01*
X234155000Y-160711250D01*
G37*
X234155000Y-160711250D02*
X233996250Y-160870000D01*
X233837500Y-160711250D01*
X233996250Y-160552500D01*
X234155000Y-160711250D01*
G36*
X237012500Y-161981250D02*
X236853750Y-162140000D01*
X236695000Y-161981250D01*
X236853750Y-161822500D01*
X237012500Y-161981250D01*
X237012500Y-161981250D01*
G37*
X237012500Y-161981250D02*
X236853750Y-162140000D01*
X236695000Y-161981250D01*
X236853750Y-161822500D01*
X237012500Y-161981250D01*
G36*
X153827500Y-162933750D02*
X153668750Y-163092500D01*
X153510000Y-162933750D01*
X153668750Y-162775000D01*
X153827500Y-162933750D01*
X153827500Y-162933750D01*
G37*
X153827500Y-162933750D02*
X153668750Y-163092500D01*
X153510000Y-162933750D01*
X153668750Y-162775000D01*
X153827500Y-162933750D01*
G36*
X278287500Y-163251250D02*
X278128750Y-163410000D01*
X277970000Y-163251250D01*
X278128750Y-163092500D01*
X278287500Y-163251250D01*
X278287500Y-163251250D01*
G37*
X278287500Y-163251250D02*
X278128750Y-163410000D01*
X277970000Y-163251250D01*
X278128750Y-163092500D01*
X278287500Y-163251250D01*
G36*
X228440000Y-163251250D02*
X228281250Y-163410000D01*
X228122500Y-163251250D01*
X228281250Y-163092500D01*
X228440000Y-163251250D01*
X228440000Y-163251250D01*
G37*
X228440000Y-163251250D02*
X228281250Y-163410000D01*
X228122500Y-163251250D01*
X228281250Y-163092500D01*
X228440000Y-163251250D01*
G36*
X181132500Y-163251250D02*
X180973750Y-163410000D01*
X180815000Y-163251250D01*
X180973750Y-163092500D01*
X181132500Y-163251250D01*
X181132500Y-163251250D01*
G37*
X181132500Y-163251250D02*
X180973750Y-163410000D01*
X180815000Y-163251250D01*
X180973750Y-163092500D01*
X181132500Y-163251250D01*
G36*
X116045000Y-165156250D02*
X115886250Y-165315000D01*
X115727500Y-165156250D01*
X115886250Y-164997500D01*
X116045000Y-165156250D01*
X116045000Y-165156250D01*
G37*
X116045000Y-165156250D02*
X115886250Y-165315000D01*
X115727500Y-165156250D01*
X115886250Y-164997500D01*
X116045000Y-165156250D01*
G36*
X313847500Y-166108750D02*
X313688750Y-166267500D01*
X313530000Y-166108750D01*
X313688750Y-165950000D01*
X313847500Y-166108750D01*
X313847500Y-166108750D01*
G37*
X313847500Y-166108750D02*
X313688750Y-166267500D01*
X313530000Y-166108750D01*
X313688750Y-165950000D01*
X313847500Y-166108750D01*
G36*
X116997500Y-166426250D02*
X116838750Y-166585000D01*
X116680000Y-166426250D01*
X116838750Y-166267500D01*
X116997500Y-166426250D01*
X116997500Y-166426250D01*
G37*
X116997500Y-166426250D02*
X116838750Y-166585000D01*
X116680000Y-166426250D01*
X116838750Y-166267500D01*
X116997500Y-166426250D01*
G36*
X114457500Y-168331250D02*
X114298750Y-168490000D01*
X114140000Y-168331250D01*
X114298750Y-168172500D01*
X114457500Y-168331250D01*
X114457500Y-168331250D01*
G37*
X114457500Y-168331250D02*
X114298750Y-168490000D01*
X114140000Y-168331250D01*
X114298750Y-168172500D01*
X114457500Y-168331250D01*
G36*
X315117500Y-168966250D02*
X314958750Y-169125000D01*
X314800000Y-168966250D01*
X314958750Y-168807500D01*
X315117500Y-168966250D01*
X315117500Y-168966250D01*
G37*
X315117500Y-168966250D02*
X314958750Y-169125000D01*
X314800000Y-168966250D01*
X314958750Y-168807500D01*
X315117500Y-168966250D01*
G36*
X225900000Y-168966250D02*
X225741250Y-169125000D01*
X225582500Y-168966250D01*
X225741250Y-168807500D01*
X225900000Y-168966250D01*
X225900000Y-168966250D01*
G37*
X225900000Y-168966250D02*
X225741250Y-169125000D01*
X225582500Y-168966250D01*
X225741250Y-168807500D01*
X225900000Y-168966250D01*
G36*
X120490000Y-169283750D02*
X120331250Y-169442500D01*
X120172500Y-169283750D01*
X120331250Y-169125000D01*
X120490000Y-169283750D01*
X120490000Y-169283750D01*
G37*
X120490000Y-169283750D02*
X120331250Y-169442500D01*
X120172500Y-169283750D01*
X120331250Y-169125000D01*
X120490000Y-169283750D01*
G36*
X174316809Y-158933258D02*
X175300012Y-159211466D01*
X176933074Y-159849538D01*
X177985772Y-160592165D01*
X178510017Y-161485106D01*
X178592500Y-162113889D01*
X178472629Y-162845081D01*
X178184546Y-163621904D01*
X177835541Y-164202104D01*
X177596627Y-164362500D01*
X177271508Y-164574887D01*
X176625577Y-165141912D01*
X175775940Y-165958369D01*
X175405653Y-166330847D01*
X173473623Y-168299194D01*
X174207436Y-168863787D01*
X174864438Y-169278665D01*
X175319387Y-169435440D01*
X175812676Y-169651968D01*
X175875961Y-169731217D01*
X175745672Y-170054468D01*
X175099274Y-170469106D01*
X174041143Y-170931542D01*
X172675659Y-171398182D01*
X171107200Y-171825437D01*
X170561658Y-171950620D01*
X169224998Y-172229261D01*
X168367674Y-172359812D01*
X167852820Y-172347547D01*
X167543568Y-172197734D01*
X167422139Y-172071532D01*
X167147075Y-171547602D01*
X166781573Y-170598078D01*
X166396926Y-169411425D01*
X166331556Y-169188565D01*
X165991088Y-167947653D01*
X165835677Y-167144457D01*
X165853329Y-166613044D01*
X166032049Y-166187478D01*
X166106099Y-166069597D01*
X166773506Y-165454395D01*
X167433653Y-165166429D01*
X168024046Y-164882131D01*
X168838524Y-164306138D01*
X169724563Y-163572109D01*
X170529641Y-162813704D01*
X171101232Y-162164581D01*
X171290000Y-161787037D01*
X170992929Y-161681743D01*
X170183155Y-161597984D01*
X168982836Y-161543990D01*
X167514130Y-161527987D01*
X167448141Y-161528271D01*
X165955589Y-161525531D01*
X164711487Y-161504222D01*
X163843526Y-161467869D01*
X163479398Y-161420001D01*
X163477758Y-161418591D01*
X163643559Y-161211753D01*
X164263422Y-160851003D01*
X165194729Y-160399674D01*
X166294861Y-159921101D01*
X167421199Y-159478619D01*
X168431124Y-159135563D01*
X168908750Y-159006782D01*
X170873176Y-158661132D01*
X172577548Y-158633475D01*
X174316809Y-158933258D01*
X174316809Y-158933258D01*
G37*
X174316809Y-158933258D02*
X175300012Y-159211466D01*
X176933074Y-159849538D01*
X177985772Y-160592165D01*
X178510017Y-161485106D01*
X178592500Y-162113889D01*
X178472629Y-162845081D01*
X178184546Y-163621904D01*
X177835541Y-164202104D01*
X177596627Y-164362500D01*
X177271508Y-164574887D01*
X176625577Y-165141912D01*
X175775940Y-165958369D01*
X175405653Y-166330847D01*
X173473623Y-168299194D01*
X174207436Y-168863787D01*
X174864438Y-169278665D01*
X175319387Y-169435440D01*
X175812676Y-169651968D01*
X175875961Y-169731217D01*
X175745672Y-170054468D01*
X175099274Y-170469106D01*
X174041143Y-170931542D01*
X172675659Y-171398182D01*
X171107200Y-171825437D01*
X170561658Y-171950620D01*
X169224998Y-172229261D01*
X168367674Y-172359812D01*
X167852820Y-172347547D01*
X167543568Y-172197734D01*
X167422139Y-172071532D01*
X167147075Y-171547602D01*
X166781573Y-170598078D01*
X166396926Y-169411425D01*
X166331556Y-169188565D01*
X165991088Y-167947653D01*
X165835677Y-167144457D01*
X165853329Y-166613044D01*
X166032049Y-166187478D01*
X166106099Y-166069597D01*
X166773506Y-165454395D01*
X167433653Y-165166429D01*
X168024046Y-164882131D01*
X168838524Y-164306138D01*
X169724563Y-163572109D01*
X170529641Y-162813704D01*
X171101232Y-162164581D01*
X171290000Y-161787037D01*
X170992929Y-161681743D01*
X170183155Y-161597984D01*
X168982836Y-161543990D01*
X167514130Y-161527987D01*
X167448141Y-161528271D01*
X165955589Y-161525531D01*
X164711487Y-161504222D01*
X163843526Y-161467869D01*
X163479398Y-161420001D01*
X163477758Y-161418591D01*
X163643559Y-161211753D01*
X164263422Y-160851003D01*
X165194729Y-160399674D01*
X166294861Y-159921101D01*
X167421199Y-159478619D01*
X168431124Y-159135563D01*
X168908750Y-159006782D01*
X170873176Y-158661132D01*
X172577548Y-158633475D01*
X174316809Y-158933258D01*
G36*
X314165000Y-173093750D02*
X314006250Y-173252500D01*
X313847500Y-173093750D01*
X314006250Y-172935000D01*
X314165000Y-173093750D01*
X314165000Y-173093750D01*
G37*
X314165000Y-173093750D02*
X314006250Y-173252500D01*
X313847500Y-173093750D01*
X314006250Y-172935000D01*
X314165000Y-173093750D01*
G36*
X157855714Y-161170801D02*
X158425677Y-161972952D01*
X159108442Y-163034149D01*
X159837556Y-164256415D01*
X160426010Y-165315000D01*
X161034180Y-166555603D01*
X161645188Y-167982858D01*
X162213471Y-169465010D01*
X162693472Y-170870301D01*
X163039629Y-172066977D01*
X163206383Y-172923282D01*
X163178979Y-173276399D01*
X162658297Y-173779225D01*
X162039680Y-173983932D01*
X161576529Y-173814611D01*
X161543826Y-173766240D01*
X161036473Y-173335626D01*
X160674572Y-173208178D01*
X160178439Y-172844815D01*
X159683354Y-171928487D01*
X159182793Y-170439372D01*
X158670227Y-168357647D01*
X158139130Y-165663490D01*
X158078159Y-165322465D01*
X157800773Y-163735517D01*
X157568917Y-162368129D01*
X157403114Y-161344464D01*
X157323887Y-160788685D01*
X157320000Y-160735542D01*
X157465003Y-160725672D01*
X157855714Y-161170801D01*
X157855714Y-161170801D01*
G37*
X157855714Y-161170801D02*
X158425677Y-161972952D01*
X159108442Y-163034149D01*
X159837556Y-164256415D01*
X160426010Y-165315000D01*
X161034180Y-166555603D01*
X161645188Y-167982858D01*
X162213471Y-169465010D01*
X162693472Y-170870301D01*
X163039629Y-172066977D01*
X163206383Y-172923282D01*
X163178979Y-173276399D01*
X162658297Y-173779225D01*
X162039680Y-173983932D01*
X161576529Y-173814611D01*
X161543826Y-173766240D01*
X161036473Y-173335626D01*
X160674572Y-173208178D01*
X160178439Y-172844815D01*
X159683354Y-171928487D01*
X159182793Y-170439372D01*
X158670227Y-168357647D01*
X158139130Y-165663490D01*
X158078159Y-165322465D01*
X157800773Y-163735517D01*
X157568917Y-162368129D01*
X157403114Y-161344464D01*
X157323887Y-160788685D01*
X157320000Y-160735542D01*
X157465003Y-160725672D01*
X157855714Y-161170801D01*
G36*
X317340000Y-175633750D02*
X317181250Y-175792500D01*
X317022500Y-175633750D01*
X317181250Y-175475000D01*
X317340000Y-175633750D01*
X317340000Y-175633750D01*
G37*
X317340000Y-175633750D02*
X317181250Y-175792500D01*
X317022500Y-175633750D01*
X317181250Y-175475000D01*
X317340000Y-175633750D01*
G36*
X272255000Y-178173750D02*
X272096250Y-178332500D01*
X271937500Y-178173750D01*
X272096250Y-178015000D01*
X272255000Y-178173750D01*
X272255000Y-178173750D01*
G37*
X272255000Y-178173750D02*
X272096250Y-178332500D01*
X271937500Y-178173750D01*
X272096250Y-178015000D01*
X272255000Y-178173750D01*
G36*
X270667500Y-178808750D02*
X270508750Y-178967500D01*
X270350000Y-178808750D01*
X270508750Y-178650000D01*
X270667500Y-178808750D01*
X270667500Y-178808750D01*
G37*
X270667500Y-178808750D02*
X270508750Y-178967500D01*
X270350000Y-178808750D01*
X270508750Y-178650000D01*
X270667500Y-178808750D01*
G36*
X290987500Y-180713750D02*
X290828750Y-180872500D01*
X290670000Y-180713750D01*
X290828750Y-180555000D01*
X290987500Y-180713750D01*
X290987500Y-180713750D01*
G37*
X290987500Y-180713750D02*
X290828750Y-180872500D01*
X290670000Y-180713750D01*
X290828750Y-180555000D01*
X290987500Y-180713750D01*
G36*
X306862500Y-181666250D02*
X306703750Y-181825000D01*
X306545000Y-181666250D01*
X306703750Y-181507500D01*
X306862500Y-181666250D01*
X306862500Y-181666250D01*
G37*
X306862500Y-181666250D02*
X306703750Y-181825000D01*
X306545000Y-181666250D01*
X306703750Y-181507500D01*
X306862500Y-181666250D01*
G36*
X314482500Y-182936250D02*
X314323750Y-183095000D01*
X314165000Y-182936250D01*
X314323750Y-182777500D01*
X314482500Y-182936250D01*
X314482500Y-182936250D01*
G37*
X314482500Y-182936250D02*
X314323750Y-183095000D01*
X314165000Y-182936250D01*
X314323750Y-182777500D01*
X314482500Y-182936250D01*
G36*
X139322040Y-146805723D02*
X139601371Y-147141320D01*
X140105157Y-147688643D01*
X140861946Y-148379846D01*
X141127500Y-148601064D01*
X142195299Y-149602092D01*
X142847110Y-150620381D01*
X143154404Y-151839655D01*
X143188654Y-153443640D01*
X143167876Y-153846031D01*
X143007953Y-155451417D01*
X142734183Y-157253952D01*
X142436057Y-158726920D01*
X142193776Y-159869021D01*
X142068073Y-160729314D01*
X142078249Y-161162507D01*
X142109183Y-161187499D01*
X142463741Y-161024477D01*
X143233242Y-160581321D01*
X144302132Y-159926899D01*
X145478644Y-159179340D01*
X146879984Y-158288890D01*
X148243609Y-157447306D01*
X149391731Y-156763013D01*
X150017500Y-156411284D01*
X150947051Y-155895346D01*
X151692726Y-155444025D01*
X151922500Y-155285598D01*
X152464736Y-154928416D01*
X153331163Y-154414624D01*
X153915142Y-154086578D01*
X155431535Y-153253347D01*
X154708892Y-154283548D01*
X154208599Y-154959040D01*
X153860476Y-155361517D01*
X153812142Y-155398244D01*
X153365182Y-155690557D01*
X152597352Y-156256349D01*
X151677051Y-156964326D01*
X150772677Y-157683193D01*
X150052631Y-158281657D01*
X149718058Y-158590242D01*
X149265800Y-159000090D01*
X148436652Y-159683703D01*
X147362151Y-160534421D01*
X146525000Y-161179435D01*
X145315139Y-162109911D01*
X144215321Y-162971661D01*
X143374605Y-163647076D01*
X143032500Y-163935036D01*
X142180485Y-164680916D01*
X141445000Y-165318537D01*
X141056558Y-165704588D01*
X140820494Y-166147898D01*
X140699375Y-166808868D01*
X140655774Y-167847899D01*
X140651250Y-168720047D01*
X140651250Y-171437971D01*
X141762500Y-171823630D01*
X142961649Y-172234762D01*
X143705004Y-172430297D01*
X144140763Y-172390645D01*
X144417122Y-172096218D01*
X144682279Y-171527426D01*
X144723701Y-171432203D01*
X145468286Y-169271487D01*
X145677457Y-167405227D01*
X145409101Y-165936824D01*
X145026102Y-164606424D01*
X144978791Y-163754671D01*
X145267984Y-163409290D01*
X145334375Y-163402940D01*
X145848499Y-163215218D01*
X146525000Y-162775000D01*
X147319893Y-162324351D01*
X148033125Y-162147059D01*
X148318550Y-162149749D01*
X148523535Y-162225258D01*
X148663392Y-162464944D01*
X148753429Y-162960162D01*
X148808956Y-163802269D01*
X148845284Y-165082619D01*
X148877723Y-166892570D01*
X148883279Y-167220000D01*
X148927001Y-168683864D01*
X149025535Y-169888441D01*
X149214735Y-171028509D01*
X149530455Y-172298847D01*
X150008549Y-173894234D01*
X150255247Y-174673181D01*
X150789156Y-176165029D01*
X151366319Y-177261312D01*
X152141825Y-178191539D01*
X153270760Y-179185219D01*
X153344555Y-179244956D01*
X153706931Y-179640139D01*
X153547556Y-180012083D01*
X153407768Y-180158302D01*
X152771263Y-180423814D01*
X151811404Y-180461442D01*
X150785750Y-180299748D01*
X149951858Y-179967295D01*
X149687085Y-179745689D01*
X149179059Y-179352542D01*
X148926382Y-179285000D01*
X148540521Y-179048724D01*
X147947178Y-178440229D01*
X147489409Y-177872145D01*
X146667818Y-176858882D01*
X146037040Y-176373466D01*
X145463625Y-176397775D01*
X144814122Y-176913691D01*
X144338631Y-177444333D01*
X142562057Y-179425697D01*
X140944930Y-181019711D01*
X139533361Y-182187724D01*
X138373460Y-182891089D01*
X137597146Y-183095000D01*
X137045124Y-182809730D01*
X136470520Y-182043111D01*
X136395640Y-181904375D01*
X135768431Y-180902821D01*
X134961223Y-179865054D01*
X134722312Y-179600902D01*
X133934029Y-178753556D01*
X133220763Y-177960113D01*
X133031250Y-177741235D01*
X132396250Y-176994415D01*
X133983750Y-177742832D01*
X134878702Y-178196312D01*
X135500928Y-178570915D01*
X135677083Y-178729375D01*
X136096840Y-178954205D01*
X136920994Y-178878379D01*
X138006346Y-178522741D01*
X138439586Y-178327253D01*
X139376648Y-177767501D01*
X140354621Y-177017905D01*
X141228074Y-176212192D01*
X141851576Y-175484089D01*
X142080000Y-174979802D01*
X141789340Y-174524574D01*
X140995406Y-174255773D01*
X140293350Y-174205000D01*
X139525150Y-173985833D01*
X138763908Y-173457704D01*
X138753883Y-173447747D01*
X138206243Y-172682971D01*
X137759160Y-171685392D01*
X137484970Y-170678704D01*
X137456006Y-169886605D01*
X137533375Y-169673299D01*
X137788972Y-169038833D01*
X137877583Y-168368146D01*
X137780698Y-167917695D01*
X137664599Y-167855000D01*
X137225300Y-168086843D01*
X137152396Y-168182779D01*
X136841037Y-168494014D01*
X136130548Y-169116229D01*
X135119265Y-169965748D01*
X133905521Y-170958893D01*
X133607818Y-171199029D01*
X132405829Y-172177609D01*
X131427052Y-172996906D01*
X130754880Y-173585345D01*
X130472703Y-173871349D01*
X130475614Y-173887500D01*
X130404333Y-174068589D01*
X129967334Y-174519013D01*
X129794579Y-174675534D01*
X129245349Y-175224809D01*
X129156825Y-175559579D01*
X129370805Y-175769521D01*
X129689835Y-176088807D01*
X129476761Y-176330761D01*
X128683821Y-176540043D01*
X128513551Y-176571089D01*
X127515024Y-176799342D01*
X126722165Y-177046943D01*
X125972654Y-177126968D01*
X125515558Y-176777086D01*
X125354186Y-176132761D01*
X125491849Y-175329457D01*
X125931858Y-174502638D01*
X126643111Y-173811581D01*
X127590823Y-173075109D01*
X128491757Y-172271199D01*
X128501465Y-172261657D01*
X129290940Y-171531294D01*
X130443278Y-170523816D01*
X131821256Y-169353434D01*
X133287648Y-168134363D01*
X134705233Y-166980814D01*
X135936785Y-166007001D01*
X136761875Y-165386417D01*
X137582741Y-164714252D01*
X138138260Y-164102086D01*
X138288822Y-163777091D01*
X138318819Y-163217533D01*
X138380666Y-162224945D01*
X138461807Y-160999744D01*
X138474072Y-160819898D01*
X138534672Y-159455572D01*
X138476741Y-158536899D01*
X138279053Y-157882030D01*
X138092712Y-157552517D01*
X137737279Y-156810728D01*
X137815100Y-156140402D01*
X137900655Y-155935743D01*
X138255732Y-155358633D01*
X138537032Y-155155000D01*
X138696914Y-154886584D01*
X138680766Y-154281875D01*
X138597933Y-153297889D01*
X138607932Y-152615000D01*
X138639796Y-151926821D01*
X138666542Y-150817736D01*
X138683324Y-149501840D01*
X138685218Y-149201875D01*
X138719321Y-147789700D01*
X138820559Y-146956205D01*
X139013331Y-146646507D01*
X139322040Y-146805723D01*
X139322040Y-146805723D01*
G37*
X139322040Y-146805723D02*
X139601371Y-147141320D01*
X140105157Y-147688643D01*
X140861946Y-148379846D01*
X141127500Y-148601064D01*
X142195299Y-149602092D01*
X142847110Y-150620381D01*
X143154404Y-151839655D01*
X143188654Y-153443640D01*
X143167876Y-153846031D01*
X143007953Y-155451417D01*
X142734183Y-157253952D01*
X142436057Y-158726920D01*
X142193776Y-159869021D01*
X142068073Y-160729314D01*
X142078249Y-161162507D01*
X142109183Y-161187499D01*
X142463741Y-161024477D01*
X143233242Y-160581321D01*
X144302132Y-159926899D01*
X145478644Y-159179340D01*
X146879984Y-158288890D01*
X148243609Y-157447306D01*
X149391731Y-156763013D01*
X150017500Y-156411284D01*
X150947051Y-155895346D01*
X151692726Y-155444025D01*
X151922500Y-155285598D01*
X152464736Y-154928416D01*
X153331163Y-154414624D01*
X153915142Y-154086578D01*
X155431535Y-153253347D01*
X154708892Y-154283548D01*
X154208599Y-154959040D01*
X153860476Y-155361517D01*
X153812142Y-155398244D01*
X153365182Y-155690557D01*
X152597352Y-156256349D01*
X151677051Y-156964326D01*
X150772677Y-157683193D01*
X150052631Y-158281657D01*
X149718058Y-158590242D01*
X149265800Y-159000090D01*
X148436652Y-159683703D01*
X147362151Y-160534421D01*
X146525000Y-161179435D01*
X145315139Y-162109911D01*
X144215321Y-162971661D01*
X143374605Y-163647076D01*
X143032500Y-163935036D01*
X142180485Y-164680916D01*
X141445000Y-165318537D01*
X141056558Y-165704588D01*
X140820494Y-166147898D01*
X140699375Y-166808868D01*
X140655774Y-167847899D01*
X140651250Y-168720047D01*
X140651250Y-171437971D01*
X141762500Y-171823630D01*
X142961649Y-172234762D01*
X143705004Y-172430297D01*
X144140763Y-172390645D01*
X144417122Y-172096218D01*
X144682279Y-171527426D01*
X144723701Y-171432203D01*
X145468286Y-169271487D01*
X145677457Y-167405227D01*
X145409101Y-165936824D01*
X145026102Y-164606424D01*
X144978791Y-163754671D01*
X145267984Y-163409290D01*
X145334375Y-163402940D01*
X145848499Y-163215218D01*
X146525000Y-162775000D01*
X147319893Y-162324351D01*
X148033125Y-162147059D01*
X148318550Y-162149749D01*
X148523535Y-162225258D01*
X148663392Y-162464944D01*
X148753429Y-162960162D01*
X148808956Y-163802269D01*
X148845284Y-165082619D01*
X148877723Y-166892570D01*
X148883279Y-167220000D01*
X148927001Y-168683864D01*
X149025535Y-169888441D01*
X149214735Y-171028509D01*
X149530455Y-172298847D01*
X150008549Y-173894234D01*
X150255247Y-174673181D01*
X150789156Y-176165029D01*
X151366319Y-177261312D01*
X152141825Y-178191539D01*
X153270760Y-179185219D01*
X153344555Y-179244956D01*
X153706931Y-179640139D01*
X153547556Y-180012083D01*
X153407768Y-180158302D01*
X152771263Y-180423814D01*
X151811404Y-180461442D01*
X150785750Y-180299748D01*
X149951858Y-179967295D01*
X149687085Y-179745689D01*
X149179059Y-179352542D01*
X148926382Y-179285000D01*
X148540521Y-179048724D01*
X147947178Y-178440229D01*
X147489409Y-177872145D01*
X146667818Y-176858882D01*
X146037040Y-176373466D01*
X145463625Y-176397775D01*
X144814122Y-176913691D01*
X144338631Y-177444333D01*
X142562057Y-179425697D01*
X140944930Y-181019711D01*
X139533361Y-182187724D01*
X138373460Y-182891089D01*
X137597146Y-183095000D01*
X137045124Y-182809730D01*
X136470520Y-182043111D01*
X136395640Y-181904375D01*
X135768431Y-180902821D01*
X134961223Y-179865054D01*
X134722312Y-179600902D01*
X133934029Y-178753556D01*
X133220763Y-177960113D01*
X133031250Y-177741235D01*
X132396250Y-176994415D01*
X133983750Y-177742832D01*
X134878702Y-178196312D01*
X135500928Y-178570915D01*
X135677083Y-178729375D01*
X136096840Y-178954205D01*
X136920994Y-178878379D01*
X138006346Y-178522741D01*
X138439586Y-178327253D01*
X139376648Y-177767501D01*
X140354621Y-177017905D01*
X141228074Y-176212192D01*
X141851576Y-175484089D01*
X142080000Y-174979802D01*
X141789340Y-174524574D01*
X140995406Y-174255773D01*
X140293350Y-174205000D01*
X139525150Y-173985833D01*
X138763908Y-173457704D01*
X138753883Y-173447747D01*
X138206243Y-172682971D01*
X137759160Y-171685392D01*
X137484970Y-170678704D01*
X137456006Y-169886605D01*
X137533375Y-169673299D01*
X137788972Y-169038833D01*
X137877583Y-168368146D01*
X137780698Y-167917695D01*
X137664599Y-167855000D01*
X137225300Y-168086843D01*
X137152396Y-168182779D01*
X136841037Y-168494014D01*
X136130548Y-169116229D01*
X135119265Y-169965748D01*
X133905521Y-170958893D01*
X133607818Y-171199029D01*
X132405829Y-172177609D01*
X131427052Y-172996906D01*
X130754880Y-173585345D01*
X130472703Y-173871349D01*
X130475614Y-173887500D01*
X130404333Y-174068589D01*
X129967334Y-174519013D01*
X129794579Y-174675534D01*
X129245349Y-175224809D01*
X129156825Y-175559579D01*
X129370805Y-175769521D01*
X129689835Y-176088807D01*
X129476761Y-176330761D01*
X128683821Y-176540043D01*
X128513551Y-176571089D01*
X127515024Y-176799342D01*
X126722165Y-177046943D01*
X125972654Y-177126968D01*
X125515558Y-176777086D01*
X125354186Y-176132761D01*
X125491849Y-175329457D01*
X125931858Y-174502638D01*
X126643111Y-173811581D01*
X127590823Y-173075109D01*
X128491757Y-172271199D01*
X128501465Y-172261657D01*
X129290940Y-171531294D01*
X130443278Y-170523816D01*
X131821256Y-169353434D01*
X133287648Y-168134363D01*
X134705233Y-166980814D01*
X135936785Y-166007001D01*
X136761875Y-165386417D01*
X137582741Y-164714252D01*
X138138260Y-164102086D01*
X138288822Y-163777091D01*
X138318819Y-163217533D01*
X138380666Y-162224945D01*
X138461807Y-160999744D01*
X138474072Y-160819898D01*
X138534672Y-159455572D01*
X138476741Y-158536899D01*
X138279053Y-157882030D01*
X138092712Y-157552517D01*
X137737279Y-156810728D01*
X137815100Y-156140402D01*
X137900655Y-155935743D01*
X138255732Y-155358633D01*
X138537032Y-155155000D01*
X138696914Y-154886584D01*
X138680766Y-154281875D01*
X138597933Y-153297889D01*
X138607932Y-152615000D01*
X138639796Y-151926821D01*
X138666542Y-150817736D01*
X138683324Y-149501840D01*
X138685218Y-149201875D01*
X138719321Y-147789700D01*
X138820559Y-146956205D01*
X139013331Y-146646507D01*
X139322040Y-146805723D01*
G36*
X292892500Y-185158750D02*
X292733750Y-185317500D01*
X292575000Y-185158750D01*
X292733750Y-185000000D01*
X292892500Y-185158750D01*
X292892500Y-185158750D01*
G37*
X292892500Y-185158750D02*
X292733750Y-185317500D01*
X292575000Y-185158750D01*
X292733750Y-185000000D01*
X292892500Y-185158750D01*
G36*
X302417500Y-185476250D02*
X302258750Y-185635000D01*
X302100000Y-185476250D01*
X302258750Y-185317500D01*
X302417500Y-185476250D01*
X302417500Y-185476250D01*
G37*
X302417500Y-185476250D02*
X302258750Y-185635000D01*
X302100000Y-185476250D01*
X302258750Y-185317500D01*
X302417500Y-185476250D01*
G36*
X312895000Y-185793750D02*
X312736250Y-185952500D01*
X312577500Y-185793750D01*
X312736250Y-185635000D01*
X312895000Y-185793750D01*
X312895000Y-185793750D01*
G37*
X312895000Y-185793750D02*
X312736250Y-185952500D01*
X312577500Y-185793750D01*
X312736250Y-185635000D01*
X312895000Y-185793750D01*
G36*
X264238125Y-146753831D02*
X264801132Y-146977195D01*
X265761827Y-147340664D01*
X266920598Y-147768801D01*
X267016250Y-147803722D01*
X268103425Y-148227254D01*
X268927266Y-148599037D01*
X269330439Y-148847124D01*
X269344583Y-148868422D01*
X269708415Y-149085272D01*
X270019642Y-149122500D01*
X270366197Y-149243189D01*
X270578199Y-149696926D01*
X270711881Y-150621210D01*
X270733650Y-150868382D01*
X270834456Y-151947295D01*
X270969597Y-152554626D01*
X271228580Y-152851389D01*
X271700915Y-152998601D01*
X271944652Y-153046817D01*
X273006033Y-153332099D01*
X274305158Y-153795255D01*
X275689016Y-154367229D01*
X277004595Y-154978966D01*
X278098885Y-155561411D01*
X278818877Y-156045508D01*
X278988654Y-156225859D01*
X279010228Y-156735553D01*
X278909279Y-156882720D01*
X278698615Y-157389062D01*
X278605262Y-158198411D01*
X278605000Y-158242608D01*
X278486381Y-159059201D01*
X278043997Y-159500083D01*
X277842091Y-159588274D01*
X277208100Y-159914939D01*
X276752534Y-160429611D01*
X276340618Y-161310427D01*
X276151726Y-161822500D01*
X275876266Y-162628716D01*
X275839743Y-163119106D01*
X276132658Y-163482416D01*
X276845516Y-163907388D01*
X277259013Y-164131749D01*
X278766655Y-165128219D01*
X279790815Y-166189446D01*
X280260406Y-167240865D01*
X280267457Y-167287463D01*
X280417662Y-168000864D01*
X280538892Y-168331250D01*
X280674056Y-168895337D01*
X280689603Y-169283750D01*
X280571268Y-169705977D01*
X280136231Y-169839678D01*
X279564530Y-169807857D01*
X278008942Y-169528493D01*
X276842385Y-168974193D01*
X275894706Y-168026294D01*
X275042898Y-166654500D01*
X274101991Y-164750857D01*
X273558010Y-163259402D01*
X273394341Y-162110438D01*
X273594370Y-161234273D01*
X273704764Y-161041236D01*
X274149173Y-160149085D01*
X274466973Y-159170424D01*
X274574005Y-158535602D01*
X274457686Y-158112443D01*
X274001646Y-157729713D01*
X273167479Y-157258257D01*
X272300307Y-156800081D01*
X271691395Y-156497430D01*
X271511119Y-156425000D01*
X271421155Y-156718089D01*
X271312459Y-157501166D01*
X271196672Y-158629948D01*
X271085435Y-159960149D01*
X270990392Y-161347485D01*
X270923182Y-162647671D01*
X270895449Y-163716422D01*
X270897613Y-164028594D01*
X270835886Y-165266235D01*
X270599404Y-165994284D01*
X270508001Y-166092344D01*
X270272540Y-166513686D01*
X269935714Y-167424580D01*
X269540314Y-168696154D01*
X269129128Y-170199541D01*
X269079343Y-170395000D01*
X268638780Y-172139222D01*
X268325935Y-173373868D01*
X268112437Y-174204877D01*
X267969914Y-174738190D01*
X267869995Y-175079747D01*
X267784309Y-175335487D01*
X267684484Y-175611351D01*
X267676379Y-175633750D01*
X266889108Y-177779535D01*
X266245694Y-179451272D01*
X265692968Y-180778575D01*
X265177763Y-181891055D01*
X264825280Y-182584222D01*
X264054104Y-184040113D01*
X263496450Y-185033435D01*
X263070852Y-185663946D01*
X262695844Y-186031398D01*
X262289958Y-186235549D01*
X261771730Y-186376152D01*
X261718253Y-186388755D01*
X260865256Y-186589494D01*
X262134482Y-183881037D01*
X263254694Y-181277886D01*
X264154250Y-178675556D01*
X264859645Y-175950474D01*
X265397374Y-172979069D01*
X265793934Y-169637768D01*
X266075821Y-165802998D01*
X266098376Y-165394080D01*
X266307386Y-161504411D01*
X265445478Y-160826434D01*
X264852610Y-160177418D01*
X264746996Y-159636103D01*
X264951679Y-159039102D01*
X265278687Y-158126770D01*
X265436645Y-157695000D01*
X265811548Y-156371698D01*
X265948166Y-155180961D01*
X265841243Y-154281645D01*
X265563158Y-153869956D01*
X265311605Y-153402873D01*
X265148228Y-152454263D01*
X265107427Y-151767845D01*
X264893858Y-150057747D01*
X264370955Y-148805000D01*
X263865119Y-147821730D01*
X263683196Y-147093292D01*
X263831492Y-146717078D01*
X264238125Y-146753831D01*
X264238125Y-146753831D01*
G37*
X264238125Y-146753831D02*
X264801132Y-146977195D01*
X265761827Y-147340664D01*
X266920598Y-147768801D01*
X267016250Y-147803722D01*
X268103425Y-148227254D01*
X268927266Y-148599037D01*
X269330439Y-148847124D01*
X269344583Y-148868422D01*
X269708415Y-149085272D01*
X270019642Y-149122500D01*
X270366197Y-149243189D01*
X270578199Y-149696926D01*
X270711881Y-150621210D01*
X270733650Y-150868382D01*
X270834456Y-151947295D01*
X270969597Y-152554626D01*
X271228580Y-152851389D01*
X271700915Y-152998601D01*
X271944652Y-153046817D01*
X273006033Y-153332099D01*
X274305158Y-153795255D01*
X275689016Y-154367229D01*
X277004595Y-154978966D01*
X278098885Y-155561411D01*
X278818877Y-156045508D01*
X278988654Y-156225859D01*
X279010228Y-156735553D01*
X278909279Y-156882720D01*
X278698615Y-157389062D01*
X278605262Y-158198411D01*
X278605000Y-158242608D01*
X278486381Y-159059201D01*
X278043997Y-159500083D01*
X277842091Y-159588274D01*
X277208100Y-159914939D01*
X276752534Y-160429611D01*
X276340618Y-161310427D01*
X276151726Y-161822500D01*
X275876266Y-162628716D01*
X275839743Y-163119106D01*
X276132658Y-163482416D01*
X276845516Y-163907388D01*
X277259013Y-164131749D01*
X278766655Y-165128219D01*
X279790815Y-166189446D01*
X280260406Y-167240865D01*
X280267457Y-167287463D01*
X280417662Y-168000864D01*
X280538892Y-168331250D01*
X280674056Y-168895337D01*
X280689603Y-169283750D01*
X280571268Y-169705977D01*
X280136231Y-169839678D01*
X279564530Y-169807857D01*
X278008942Y-169528493D01*
X276842385Y-168974193D01*
X275894706Y-168026294D01*
X275042898Y-166654500D01*
X274101991Y-164750857D01*
X273558010Y-163259402D01*
X273394341Y-162110438D01*
X273594370Y-161234273D01*
X273704764Y-161041236D01*
X274149173Y-160149085D01*
X274466973Y-159170424D01*
X274574005Y-158535602D01*
X274457686Y-158112443D01*
X274001646Y-157729713D01*
X273167479Y-157258257D01*
X272300307Y-156800081D01*
X271691395Y-156497430D01*
X271511119Y-156425000D01*
X271421155Y-156718089D01*
X271312459Y-157501166D01*
X271196672Y-158629948D01*
X271085435Y-159960149D01*
X270990392Y-161347485D01*
X270923182Y-162647671D01*
X270895449Y-163716422D01*
X270897613Y-164028594D01*
X270835886Y-165266235D01*
X270599404Y-165994284D01*
X270508001Y-166092344D01*
X270272540Y-166513686D01*
X269935714Y-167424580D01*
X269540314Y-168696154D01*
X269129128Y-170199541D01*
X269079343Y-170395000D01*
X268638780Y-172139222D01*
X268325935Y-173373868D01*
X268112437Y-174204877D01*
X267969914Y-174738190D01*
X267869995Y-175079747D01*
X267784309Y-175335487D01*
X267684484Y-175611351D01*
X267676379Y-175633750D01*
X266889108Y-177779535D01*
X266245694Y-179451272D01*
X265692968Y-180778575D01*
X265177763Y-181891055D01*
X264825280Y-182584222D01*
X264054104Y-184040113D01*
X263496450Y-185033435D01*
X263070852Y-185663946D01*
X262695844Y-186031398D01*
X262289958Y-186235549D01*
X261771730Y-186376152D01*
X261718253Y-186388755D01*
X260865256Y-186589494D01*
X262134482Y-183881037D01*
X263254694Y-181277886D01*
X264154250Y-178675556D01*
X264859645Y-175950474D01*
X265397374Y-172979069D01*
X265793934Y-169637768D01*
X266075821Y-165802998D01*
X266098376Y-165394080D01*
X266307386Y-161504411D01*
X265445478Y-160826434D01*
X264852610Y-160177418D01*
X264746996Y-159636103D01*
X264951679Y-159039102D01*
X265278687Y-158126770D01*
X265436645Y-157695000D01*
X265811548Y-156371698D01*
X265948166Y-155180961D01*
X265841243Y-154281645D01*
X265563158Y-153869956D01*
X265311605Y-153402873D01*
X265148228Y-152454263D01*
X265107427Y-151767845D01*
X264893858Y-150057747D01*
X264370955Y-148805000D01*
X263865119Y-147821730D01*
X263683196Y-147093292D01*
X263831492Y-146717078D01*
X264238125Y-146753831D01*
G36*
X153192500Y-186428750D02*
X153033750Y-186587500D01*
X152875000Y-186428750D01*
X153033750Y-186270000D01*
X153192500Y-186428750D01*
X153192500Y-186428750D01*
G37*
X153192500Y-186428750D02*
X153033750Y-186587500D01*
X152875000Y-186428750D01*
X153033750Y-186270000D01*
X153192500Y-186428750D01*
G36*
X306545000Y-188016250D02*
X306386250Y-188175000D01*
X306227500Y-188016250D01*
X306386250Y-187857500D01*
X306545000Y-188016250D01*
X306545000Y-188016250D01*
G37*
X306545000Y-188016250D02*
X306386250Y-188175000D01*
X306227500Y-188016250D01*
X306386250Y-187857500D01*
X306545000Y-188016250D01*
G36*
X197325000Y-188016250D02*
X197166250Y-188175000D01*
X197007500Y-188016250D01*
X197166250Y-187857500D01*
X197325000Y-188016250D01*
X197325000Y-188016250D01*
G37*
X197325000Y-188016250D02*
X197166250Y-188175000D01*
X197007500Y-188016250D01*
X197166250Y-187857500D01*
X197325000Y-188016250D01*
G36*
X149065000Y-189603750D02*
X148906250Y-189762500D01*
X148747500Y-189603750D01*
X148906250Y-189445000D01*
X149065000Y-189603750D01*
X149065000Y-189603750D01*
G37*
X149065000Y-189603750D02*
X148906250Y-189762500D01*
X148747500Y-189603750D01*
X148906250Y-189445000D01*
X149065000Y-189603750D01*
G36*
X150017500Y-189921250D02*
X149858750Y-190080000D01*
X149700000Y-189921250D01*
X149858750Y-189762500D01*
X150017500Y-189921250D01*
X150017500Y-189921250D01*
G37*
X150017500Y-189921250D02*
X149858750Y-190080000D01*
X149700000Y-189921250D01*
X149858750Y-189762500D01*
X150017500Y-189921250D01*
G36*
X283474018Y-140785613D02*
X284051180Y-141229495D01*
X284906137Y-141810029D01*
X285869558Y-142421964D01*
X286772115Y-142960045D01*
X287444479Y-143319021D01*
X287692061Y-143407499D01*
X288034609Y-143592932D01*
X288641910Y-144050915D01*
X288786811Y-144170881D01*
X289495345Y-144721363D01*
X290048337Y-145074539D01*
X290102644Y-145099209D01*
X290337133Y-145307022D01*
X290068845Y-145573329D01*
X289773111Y-146132081D01*
X289814420Y-146601332D01*
X289833006Y-147411612D01*
X289551532Y-148118168D01*
X289077022Y-148478214D01*
X288982968Y-148487500D01*
X288706646Y-148777087D01*
X288301593Y-149578351D01*
X287805053Y-150790039D01*
X287254269Y-152310902D01*
X286686484Y-154039690D01*
X286138941Y-155875152D01*
X285783077Y-157186865D01*
X285401873Y-158897028D01*
X285192227Y-160534431D01*
X285123564Y-162386720D01*
X285129936Y-163331373D01*
X285232704Y-166691624D01*
X285426903Y-170151537D01*
X285696121Y-173475965D01*
X286023948Y-176429755D01*
X286066019Y-176745000D01*
X286389534Y-179022278D01*
X286696255Y-180997962D01*
X286962762Y-182522732D01*
X287010976Y-182769420D01*
X287237819Y-183683377D01*
X287582289Y-184835337D01*
X287981183Y-186039390D01*
X288371296Y-187109628D01*
X288689424Y-187860140D01*
X288814216Y-188073482D01*
X288870071Y-188477295D01*
X288452801Y-188807162D01*
X287815151Y-189383193D01*
X287487660Y-189940554D01*
X287130184Y-190512067D01*
X286788483Y-190690845D01*
X286334597Y-190548462D01*
X285468169Y-190188794D01*
X284344879Y-189678017D01*
X283843750Y-189439087D01*
X282082454Y-188525867D01*
X280808280Y-187729962D01*
X280062797Y-187080204D01*
X279875000Y-186686543D01*
X279658548Y-186287243D01*
X279293373Y-185913119D01*
X278937026Y-185396159D01*
X278481535Y-184440197D01*
X278004581Y-183216115D01*
X277817979Y-182667557D01*
X277403136Y-181460788D01*
X277038657Y-180523911D01*
X276779173Y-179991948D01*
X276706272Y-179920000D01*
X276510748Y-179662622D01*
X276488333Y-179460052D01*
X276625877Y-179260855D01*
X277083626Y-179511917D01*
X277371700Y-179743409D01*
X278100817Y-180203272D01*
X279217490Y-180736890D01*
X280499766Y-181239916D01*
X280704578Y-181310290D01*
X282167212Y-181761267D01*
X283132186Y-181907420D01*
X283685599Y-181693821D01*
X283913553Y-181065542D01*
X283902148Y-179967655D01*
X283842160Y-179308657D01*
X283720675Y-178224133D01*
X283609820Y-177414823D01*
X283536877Y-177067127D01*
X283456604Y-176687772D01*
X283342882Y-175868933D01*
X283243228Y-174998750D01*
X283110459Y-173821481D01*
X282979112Y-172791163D01*
X282905462Y-172300000D01*
X282796391Y-171503094D01*
X282650364Y-170191134D01*
X282479640Y-168482152D01*
X282296475Y-166494183D01*
X282262510Y-166108750D01*
X282176947Y-165158060D01*
X282052983Y-163812533D01*
X281911422Y-162294534D01*
X281773065Y-160826428D01*
X281658717Y-159630582D01*
X281609036Y-159123750D01*
X281541874Y-158272177D01*
X281470634Y-157096896D01*
X281429750Y-156269676D01*
X281247790Y-154770540D01*
X280862601Y-153855259D01*
X280803694Y-153786304D01*
X280441520Y-153165619D01*
X280070176Y-152167807D01*
X279844091Y-151322253D01*
X279569437Y-150325612D01*
X279215121Y-149711863D01*
X278693906Y-149476581D01*
X277918550Y-149615346D01*
X276801816Y-150123733D01*
X275256464Y-150997321D01*
X275112500Y-151082383D01*
X274092527Y-151600823D01*
X273125929Y-151956347D01*
X272758952Y-152033480D01*
X272149485Y-152034920D01*
X271789570Y-151753998D01*
X271503050Y-151033639D01*
X271452741Y-150868750D01*
X270922551Y-149086468D01*
X270562879Y-147824490D01*
X270354189Y-146997228D01*
X270276944Y-146519094D01*
X270311607Y-146304500D01*
X270401868Y-146265000D01*
X270859194Y-146062000D01*
X271189107Y-145788750D01*
X271814387Y-145468596D01*
X272714420Y-145314830D01*
X272833303Y-145312457D01*
X273648053Y-145191723D01*
X274641737Y-144792099D01*
X275942030Y-144057367D01*
X276541250Y-143679795D01*
X278218483Y-142609761D01*
X279449086Y-141851304D01*
X280315148Y-141364316D01*
X280898757Y-141108690D01*
X281282001Y-141044318D01*
X281546969Y-141131094D01*
X281630942Y-141193043D01*
X282028573Y-141327461D01*
X282390958Y-140911422D01*
X282420001Y-140858155D01*
X282709692Y-140396807D01*
X282997141Y-140394321D01*
X283474018Y-140785613D01*
X283474018Y-140785613D01*
G37*
X283474018Y-140785613D02*
X284051180Y-141229495D01*
X284906137Y-141810029D01*
X285869558Y-142421964D01*
X286772115Y-142960045D01*
X287444479Y-143319021D01*
X287692061Y-143407499D01*
X288034609Y-143592932D01*
X288641910Y-144050915D01*
X288786811Y-144170881D01*
X289495345Y-144721363D01*
X290048337Y-145074539D01*
X290102644Y-145099209D01*
X290337133Y-145307022D01*
X290068845Y-145573329D01*
X289773111Y-146132081D01*
X289814420Y-146601332D01*
X289833006Y-147411612D01*
X289551532Y-148118168D01*
X289077022Y-148478214D01*
X288982968Y-148487500D01*
X288706646Y-148777087D01*
X288301593Y-149578351D01*
X287805053Y-150790039D01*
X287254269Y-152310902D01*
X286686484Y-154039690D01*
X286138941Y-155875152D01*
X285783077Y-157186865D01*
X285401873Y-158897028D01*
X285192227Y-160534431D01*
X285123564Y-162386720D01*
X285129936Y-163331373D01*
X285232704Y-166691624D01*
X285426903Y-170151537D01*
X285696121Y-173475965D01*
X286023948Y-176429755D01*
X286066019Y-176745000D01*
X286389534Y-179022278D01*
X286696255Y-180997962D01*
X286962762Y-182522732D01*
X287010976Y-182769420D01*
X287237819Y-183683377D01*
X287582289Y-184835337D01*
X287981183Y-186039390D01*
X288371296Y-187109628D01*
X288689424Y-187860140D01*
X288814216Y-188073482D01*
X288870071Y-188477295D01*
X288452801Y-188807162D01*
X287815151Y-189383193D01*
X287487660Y-189940554D01*
X287130184Y-190512067D01*
X286788483Y-190690845D01*
X286334597Y-190548462D01*
X285468169Y-190188794D01*
X284344879Y-189678017D01*
X283843750Y-189439087D01*
X282082454Y-188525867D01*
X280808280Y-187729962D01*
X280062797Y-187080204D01*
X279875000Y-186686543D01*
X279658548Y-186287243D01*
X279293373Y-185913119D01*
X278937026Y-185396159D01*
X278481535Y-184440197D01*
X278004581Y-183216115D01*
X277817979Y-182667557D01*
X277403136Y-181460788D01*
X277038657Y-180523911D01*
X276779173Y-179991948D01*
X276706272Y-179920000D01*
X276510748Y-179662622D01*
X276488333Y-179460052D01*
X276625877Y-179260855D01*
X277083626Y-179511917D01*
X277371700Y-179743409D01*
X278100817Y-180203272D01*
X279217490Y-180736890D01*
X280499766Y-181239916D01*
X280704578Y-181310290D01*
X282167212Y-181761267D01*
X283132186Y-181907420D01*
X283685599Y-181693821D01*
X283913553Y-181065542D01*
X283902148Y-179967655D01*
X283842160Y-179308657D01*
X283720675Y-178224133D01*
X283609820Y-177414823D01*
X283536877Y-177067127D01*
X283456604Y-176687772D01*
X283342882Y-175868933D01*
X283243228Y-174998750D01*
X283110459Y-173821481D01*
X282979112Y-172791163D01*
X282905462Y-172300000D01*
X282796391Y-171503094D01*
X282650364Y-170191134D01*
X282479640Y-168482152D01*
X282296475Y-166494183D01*
X282262510Y-166108750D01*
X282176947Y-165158060D01*
X282052983Y-163812533D01*
X281911422Y-162294534D01*
X281773065Y-160826428D01*
X281658717Y-159630582D01*
X281609036Y-159123750D01*
X281541874Y-158272177D01*
X281470634Y-157096896D01*
X281429750Y-156269676D01*
X281247790Y-154770540D01*
X280862601Y-153855259D01*
X280803694Y-153786304D01*
X280441520Y-153165619D01*
X280070176Y-152167807D01*
X279844091Y-151322253D01*
X279569437Y-150325612D01*
X279215121Y-149711863D01*
X278693906Y-149476581D01*
X277918550Y-149615346D01*
X276801816Y-150123733D01*
X275256464Y-150997321D01*
X275112500Y-151082383D01*
X274092527Y-151600823D01*
X273125929Y-151956347D01*
X272758952Y-152033480D01*
X272149485Y-152034920D01*
X271789570Y-151753998D01*
X271503050Y-151033639D01*
X271452741Y-150868750D01*
X270922551Y-149086468D01*
X270562879Y-147824490D01*
X270354189Y-146997228D01*
X270276944Y-146519094D01*
X270311607Y-146304500D01*
X270401868Y-146265000D01*
X270859194Y-146062000D01*
X271189107Y-145788750D01*
X271814387Y-145468596D01*
X272714420Y-145314830D01*
X272833303Y-145312457D01*
X273648053Y-145191723D01*
X274641737Y-144792099D01*
X275942030Y-144057367D01*
X276541250Y-143679795D01*
X278218483Y-142609761D01*
X279449086Y-141851304D01*
X280315148Y-141364316D01*
X280898757Y-141108690D01*
X281282001Y-141044318D01*
X281546969Y-141131094D01*
X281630942Y-141193043D01*
X282028573Y-141327461D01*
X282390958Y-140911422D01*
X282420001Y-140858155D01*
X282709692Y-140396807D01*
X282997141Y-140394321D01*
X283474018Y-140785613D01*
G36*
X140492500Y-190556250D02*
X140333750Y-190715000D01*
X140175000Y-190556250D01*
X140333750Y-190397500D01*
X140492500Y-190556250D01*
X140492500Y-190556250D01*
G37*
X140492500Y-190556250D02*
X140333750Y-190715000D01*
X140175000Y-190556250D01*
X140333750Y-190397500D01*
X140492500Y-190556250D01*
G36*
X204627500Y-191508750D02*
X204468750Y-191667500D01*
X204310000Y-191508750D01*
X204468750Y-191350000D01*
X204627500Y-191508750D01*
X204627500Y-191508750D01*
G37*
X204627500Y-191508750D02*
X204468750Y-191667500D01*
X204310000Y-191508750D01*
X204468750Y-191350000D01*
X204627500Y-191508750D01*
G36*
X136047500Y-191508750D02*
X135888750Y-191667500D01*
X135730000Y-191508750D01*
X135888750Y-191350000D01*
X136047500Y-191508750D01*
X136047500Y-191508750D01*
G37*
X136047500Y-191508750D02*
X135888750Y-191667500D01*
X135730000Y-191508750D01*
X135888750Y-191350000D01*
X136047500Y-191508750D01*
G36*
X312260000Y-192143750D02*
X312101250Y-192302500D01*
X311942500Y-192143750D01*
X312101250Y-191985000D01*
X312260000Y-192143750D01*
X312260000Y-192143750D01*
G37*
X312260000Y-192143750D02*
X312101250Y-192302500D01*
X311942500Y-192143750D01*
X312101250Y-191985000D01*
X312260000Y-192143750D01*
G36*
X115727500Y-192143750D02*
X115568750Y-192302500D01*
X115410000Y-192143750D01*
X115568750Y-191985000D01*
X115727500Y-192143750D01*
X115727500Y-192143750D01*
G37*
X115727500Y-192143750D02*
X115568750Y-192302500D01*
X115410000Y-192143750D01*
X115568750Y-191985000D01*
X115727500Y-192143750D01*
G36*
X317340000Y-192778750D02*
X317181250Y-192937500D01*
X317022500Y-192778750D01*
X317181250Y-192620000D01*
X317340000Y-192778750D01*
X317340000Y-192778750D01*
G37*
X317340000Y-192778750D02*
X317181250Y-192937500D01*
X317022500Y-192778750D01*
X317181250Y-192620000D01*
X317340000Y-192778750D01*
G36*
X144570943Y-193065931D02*
X144909119Y-193361074D01*
X144937500Y-193432487D01*
X144786822Y-193562984D01*
X144473112Y-193270575D01*
X144430931Y-193205943D01*
X144393509Y-192988679D01*
X144570943Y-193065931D01*
X144570943Y-193065931D01*
G37*
X144570943Y-193065931D02*
X144909119Y-193361074D01*
X144937500Y-193432487D01*
X144786822Y-193562984D01*
X144473112Y-193270575D01*
X144430931Y-193205943D01*
X144393509Y-192988679D01*
X144570943Y-193065931D01*
G36*
X286542500Y-193731250D02*
X286383750Y-193890000D01*
X286225000Y-193731250D01*
X286383750Y-193572500D01*
X286542500Y-193731250D01*
X286542500Y-193731250D01*
G37*
X286542500Y-193731250D02*
X286383750Y-193890000D01*
X286225000Y-193731250D01*
X286383750Y-193572500D01*
X286542500Y-193731250D01*
G36*
X316387500Y-195001250D02*
X316228750Y-195160000D01*
X316070000Y-195001250D01*
X316228750Y-194842500D01*
X316387500Y-195001250D01*
X316387500Y-195001250D01*
G37*
X316387500Y-195001250D02*
X316228750Y-195160000D01*
X316070000Y-195001250D01*
X316228750Y-194842500D01*
X316387500Y-195001250D01*
G36*
X230345000Y-195001250D02*
X230186250Y-195160000D01*
X230027500Y-195001250D01*
X230186250Y-194842500D01*
X230345000Y-195001250D01*
X230345000Y-195001250D01*
G37*
X230345000Y-195001250D02*
X230186250Y-195160000D01*
X230027500Y-195001250D01*
X230186250Y-194842500D01*
X230345000Y-195001250D01*
G36*
X207167500Y-195318750D02*
X207008750Y-195477500D01*
X206850000Y-195318750D01*
X207008750Y-195160000D01*
X207167500Y-195318750D01*
X207167500Y-195318750D01*
G37*
X207167500Y-195318750D02*
X207008750Y-195477500D01*
X206850000Y-195318750D01*
X207008750Y-195160000D01*
X207167500Y-195318750D01*
G36*
X286860000Y-195636250D02*
X286701250Y-195795000D01*
X286542500Y-195636250D01*
X286701250Y-195477500D01*
X286860000Y-195636250D01*
X286860000Y-195636250D01*
G37*
X286860000Y-195636250D02*
X286701250Y-195795000D01*
X286542500Y-195636250D01*
X286701250Y-195477500D01*
X286860000Y-195636250D01*
G36*
X206215000Y-195636250D02*
X206056250Y-195795000D01*
X205897500Y-195636250D01*
X206056250Y-195477500D01*
X206215000Y-195636250D01*
X206215000Y-195636250D01*
G37*
X206215000Y-195636250D02*
X206056250Y-195795000D01*
X205897500Y-195636250D01*
X206056250Y-195477500D01*
X206215000Y-195636250D01*
G36*
X287177500Y-196588750D02*
X287018750Y-196747500D01*
X286860000Y-196588750D01*
X287018750Y-196430000D01*
X287177500Y-196588750D01*
X287177500Y-196588750D01*
G37*
X287177500Y-196588750D02*
X287018750Y-196747500D01*
X286860000Y-196588750D01*
X287018750Y-196430000D01*
X287177500Y-196588750D01*
G36*
X282415000Y-196588750D02*
X282256250Y-196747500D01*
X282097500Y-196588750D01*
X282256250Y-196430000D01*
X282415000Y-196588750D01*
X282415000Y-196588750D01*
G37*
X282415000Y-196588750D02*
X282256250Y-196747500D01*
X282097500Y-196588750D01*
X282256250Y-196430000D01*
X282415000Y-196588750D01*
G36*
X294480000Y-198176250D02*
X294321250Y-198335000D01*
X294162500Y-198176250D01*
X294321250Y-198017500D01*
X294480000Y-198176250D01*
X294480000Y-198176250D01*
G37*
X294480000Y-198176250D02*
X294321250Y-198335000D01*
X294162500Y-198176250D01*
X294321250Y-198017500D01*
X294480000Y-198176250D01*
G36*
X143032500Y-198176250D02*
X142873750Y-198335000D01*
X142715000Y-198176250D01*
X142873750Y-198017500D01*
X143032500Y-198176250D01*
X143032500Y-198176250D01*
G37*
X143032500Y-198176250D02*
X142873750Y-198335000D01*
X142715000Y-198176250D01*
X142873750Y-198017500D01*
X143032500Y-198176250D01*
G36*
X165575000Y-198493750D02*
X165416250Y-198652500D01*
X165257500Y-198493750D01*
X165416250Y-198335000D01*
X165575000Y-198493750D01*
X165575000Y-198493750D01*
G37*
X165575000Y-198493750D02*
X165416250Y-198652500D01*
X165257500Y-198493750D01*
X165416250Y-198335000D01*
X165575000Y-198493750D01*
G36*
X159225000Y-199128750D02*
X159066250Y-199287500D01*
X158907500Y-199128750D01*
X159066250Y-198970000D01*
X159225000Y-199128750D01*
X159225000Y-199128750D01*
G37*
X159225000Y-199128750D02*
X159066250Y-199287500D01*
X158907500Y-199128750D01*
X159066250Y-198970000D01*
X159225000Y-199128750D01*
G36*
X136365000Y-201351250D02*
X136206250Y-201510000D01*
X136047500Y-201351250D01*
X136206250Y-201192500D01*
X136365000Y-201351250D01*
X136365000Y-201351250D01*
G37*
X136365000Y-201351250D02*
X136206250Y-201510000D01*
X136047500Y-201351250D01*
X136206250Y-201192500D01*
X136365000Y-201351250D01*
G36*
X141445000Y-202303750D02*
X141286250Y-202462500D01*
X141127500Y-202303750D01*
X141286250Y-202145000D01*
X141445000Y-202303750D01*
X141445000Y-202303750D01*
G37*
X141445000Y-202303750D02*
X141286250Y-202462500D01*
X141127500Y-202303750D01*
X141286250Y-202145000D01*
X141445000Y-202303750D01*
G36*
X188435000Y-203256250D02*
X188276250Y-203415000D01*
X188117500Y-203256250D01*
X188276250Y-203097500D01*
X188435000Y-203256250D01*
X188435000Y-203256250D01*
G37*
X188435000Y-203256250D02*
X188276250Y-203415000D01*
X188117500Y-203256250D01*
X188276250Y-203097500D01*
X188435000Y-203256250D01*
G36*
X137317500Y-203256250D02*
X137158750Y-203415000D01*
X137000000Y-203256250D01*
X137158750Y-203097500D01*
X137317500Y-203256250D01*
X137317500Y-203256250D01*
G37*
X137317500Y-203256250D02*
X137158750Y-203415000D01*
X137000000Y-203256250D01*
X137158750Y-203097500D01*
X137317500Y-203256250D01*
G36*
X298925000Y-204526250D02*
X298766250Y-204685000D01*
X298607500Y-204526250D01*
X298766250Y-204367500D01*
X298925000Y-204526250D01*
X298925000Y-204526250D01*
G37*
X298925000Y-204526250D02*
X298766250Y-204685000D01*
X298607500Y-204526250D01*
X298766250Y-204367500D01*
X298925000Y-204526250D01*
G36*
X191927500Y-204843750D02*
X191768750Y-205002500D01*
X191610000Y-204843750D01*
X191768750Y-204685000D01*
X191927500Y-204843750D01*
X191927500Y-204843750D01*
G37*
X191927500Y-204843750D02*
X191768750Y-205002500D01*
X191610000Y-204843750D01*
X191768750Y-204685000D01*
X191927500Y-204843750D01*
G36*
X182085000Y-205161250D02*
X181926250Y-205320000D01*
X181767500Y-205161250D01*
X181926250Y-205002500D01*
X182085000Y-205161250D01*
X182085000Y-205161250D01*
G37*
X182085000Y-205161250D02*
X181926250Y-205320000D01*
X181767500Y-205161250D01*
X181926250Y-205002500D01*
X182085000Y-205161250D01*
G36*
X132872500Y-205161250D02*
X132713750Y-205320000D01*
X132555000Y-205161250D01*
X132713750Y-205002500D01*
X132872500Y-205161250D01*
X132872500Y-205161250D01*
G37*
X132872500Y-205161250D02*
X132713750Y-205320000D01*
X132555000Y-205161250D01*
X132713750Y-205002500D01*
X132872500Y-205161250D01*
G36*
X170020000Y-206748750D02*
X169861250Y-206907500D01*
X169702500Y-206748750D01*
X169861250Y-206590000D01*
X170020000Y-206748750D01*
X170020000Y-206748750D01*
G37*
X170020000Y-206748750D02*
X169861250Y-206907500D01*
X169702500Y-206748750D01*
X169861250Y-206590000D01*
X170020000Y-206748750D01*
G36*
X178275000Y-208018750D02*
X178116250Y-208177500D01*
X177957500Y-208018750D01*
X178116250Y-207860000D01*
X178275000Y-208018750D01*
X178275000Y-208018750D01*
G37*
X178275000Y-208018750D02*
X178116250Y-208177500D01*
X177957500Y-208018750D01*
X178116250Y-207860000D01*
X178275000Y-208018750D01*
G36*
X296385000Y-208336250D02*
X296226250Y-208495000D01*
X296067500Y-208336250D01*
X296226250Y-208177500D01*
X296385000Y-208336250D01*
X296385000Y-208336250D01*
G37*
X296385000Y-208336250D02*
X296226250Y-208495000D01*
X296067500Y-208336250D01*
X296226250Y-208177500D01*
X296385000Y-208336250D01*
G36*
X129380000Y-209288750D02*
X129221250Y-209447500D01*
X129062500Y-209288750D01*
X129221250Y-209130000D01*
X129380000Y-209288750D01*
X129380000Y-209288750D01*
G37*
X129380000Y-209288750D02*
X129221250Y-209447500D01*
X129062500Y-209288750D01*
X129221250Y-209130000D01*
X129380000Y-209288750D01*
G36*
X313530000Y-209606250D02*
X313371250Y-209765000D01*
X313212500Y-209606250D01*
X313371250Y-209447500D01*
X313530000Y-209606250D01*
X313530000Y-209606250D01*
G37*
X313530000Y-209606250D02*
X313371250Y-209765000D01*
X313212500Y-209606250D01*
X313371250Y-209447500D01*
X313530000Y-209606250D01*
G36*
X131285000Y-211828750D02*
X131126250Y-211987500D01*
X130967500Y-211828750D01*
X131126250Y-211670000D01*
X131285000Y-211828750D01*
X131285000Y-211828750D01*
G37*
X131285000Y-211828750D02*
X131126250Y-211987500D01*
X130967500Y-211828750D01*
X131126250Y-211670000D01*
X131285000Y-211828750D01*
G36*
X124300000Y-211828750D02*
X124141250Y-211987500D01*
X123982500Y-211828750D01*
X124141250Y-211670000D01*
X124300000Y-211828750D01*
X124300000Y-211828750D01*
G37*
X124300000Y-211828750D02*
X124141250Y-211987500D01*
X123982500Y-211828750D01*
X124141250Y-211670000D01*
X124300000Y-211828750D01*
G36*
X158907500Y-212463750D02*
X158748750Y-212622500D01*
X158590000Y-212463750D01*
X158748750Y-212305000D01*
X158907500Y-212463750D01*
X158907500Y-212463750D01*
G37*
X158907500Y-212463750D02*
X158748750Y-212622500D01*
X158590000Y-212463750D01*
X158748750Y-212305000D01*
X158907500Y-212463750D01*
G36*
X120172500Y-215321250D02*
X120013750Y-215480000D01*
X119855000Y-215321250D01*
X120013750Y-215162500D01*
X120172500Y-215321250D01*
X120172500Y-215321250D01*
G37*
X120172500Y-215321250D02*
X120013750Y-215480000D01*
X119855000Y-215321250D01*
X120013750Y-215162500D01*
X120172500Y-215321250D01*
G36*
X131285000Y-217543750D02*
X131126250Y-217702500D01*
X130967500Y-217543750D01*
X131126250Y-217385000D01*
X131285000Y-217543750D01*
X131285000Y-217543750D01*
G37*
X131285000Y-217543750D02*
X131126250Y-217702500D01*
X130967500Y-217543750D01*
X131126250Y-217385000D01*
X131285000Y-217543750D01*
G36*
X283050000Y-218496250D02*
X282891250Y-218655000D01*
X282732500Y-218496250D01*
X282891250Y-218337500D01*
X283050000Y-218496250D01*
X283050000Y-218496250D01*
G37*
X283050000Y-218496250D02*
X282891250Y-218655000D01*
X282732500Y-218496250D01*
X282891250Y-218337500D01*
X283050000Y-218496250D01*
G36*
X228122500Y-218496250D02*
X227963750Y-218655000D01*
X227805000Y-218496250D01*
X227963750Y-218337500D01*
X228122500Y-218496250D01*
X228122500Y-218496250D01*
G37*
X228122500Y-218496250D02*
X227963750Y-218655000D01*
X227805000Y-218496250D01*
X227963750Y-218337500D01*
X228122500Y-218496250D01*
G36*
X186530000Y-218496250D02*
X186371250Y-218655000D01*
X186212500Y-218496250D01*
X186371250Y-218337500D01*
X186530000Y-218496250D01*
X186530000Y-218496250D01*
G37*
X186530000Y-218496250D02*
X186371250Y-218655000D01*
X186212500Y-218496250D01*
X186371250Y-218337500D01*
X186530000Y-218496250D01*
G36*
X156367500Y-218496250D02*
X156208750Y-218655000D01*
X156050000Y-218496250D01*
X156208750Y-218337500D01*
X156367500Y-218496250D01*
X156367500Y-218496250D01*
G37*
X156367500Y-218496250D02*
X156208750Y-218655000D01*
X156050000Y-218496250D01*
X156208750Y-218337500D01*
X156367500Y-218496250D01*
G36*
X125887500Y-218496250D02*
X125728750Y-218655000D01*
X125570000Y-218496250D01*
X125728750Y-218337500D01*
X125887500Y-218496250D01*
X125887500Y-218496250D01*
G37*
X125887500Y-218496250D02*
X125728750Y-218655000D01*
X125570000Y-218496250D01*
X125728750Y-218337500D01*
X125887500Y-218496250D01*
G36*
X166845000Y-218813750D02*
X166686250Y-218972500D01*
X166527500Y-218813750D01*
X166686250Y-218655000D01*
X166845000Y-218813750D01*
X166845000Y-218813750D01*
G37*
X166845000Y-218813750D02*
X166686250Y-218972500D01*
X166527500Y-218813750D01*
X166686250Y-218655000D01*
X166845000Y-218813750D01*
G36*
X181450000Y-219131250D02*
X181291250Y-219290000D01*
X181132500Y-219131250D01*
X181291250Y-218972500D01*
X181450000Y-219131250D01*
X181450000Y-219131250D01*
G37*
X181450000Y-219131250D02*
X181291250Y-219290000D01*
X181132500Y-219131250D01*
X181291250Y-218972500D01*
X181450000Y-219131250D01*
G36*
X135095000Y-219131250D02*
X134936250Y-219290000D01*
X134777500Y-219131250D01*
X134936250Y-218972500D01*
X135095000Y-219131250D01*
X135095000Y-219131250D01*
G37*
X135095000Y-219131250D02*
X134936250Y-219290000D01*
X134777500Y-219131250D01*
X134936250Y-218972500D01*
X135095000Y-219131250D01*
G36*
X288765000Y-219766250D02*
X288606250Y-219925000D01*
X288447500Y-219766250D01*
X288606250Y-219607500D01*
X288765000Y-219766250D01*
X288765000Y-219766250D01*
G37*
X288765000Y-219766250D02*
X288606250Y-219925000D01*
X288447500Y-219766250D01*
X288606250Y-219607500D01*
X288765000Y-219766250D01*
G36*
X225900000Y-220718750D02*
X225741250Y-220877500D01*
X225582500Y-220718750D01*
X225741250Y-220560000D01*
X225900000Y-220718750D01*
X225900000Y-220718750D01*
G37*
X225900000Y-220718750D02*
X225741250Y-220877500D01*
X225582500Y-220718750D01*
X225741250Y-220560000D01*
X225900000Y-220718750D01*
G36*
X159225000Y-220718750D02*
X159066250Y-220877500D01*
X158907500Y-220718750D01*
X159066250Y-220560000D01*
X159225000Y-220718750D01*
X159225000Y-220718750D01*
G37*
X159225000Y-220718750D02*
X159066250Y-220877500D01*
X158907500Y-220718750D01*
X159066250Y-220560000D01*
X159225000Y-220718750D01*
G36*
X127157500Y-220718750D02*
X126998750Y-220877500D01*
X126840000Y-220718750D01*
X126998750Y-220560000D01*
X127157500Y-220718750D01*
X127157500Y-220718750D01*
G37*
X127157500Y-220718750D02*
X126998750Y-220877500D01*
X126840000Y-220718750D01*
X126998750Y-220560000D01*
X127157500Y-220718750D01*
G36*
X190022500Y-221036250D02*
X189863750Y-221195000D01*
X189705000Y-221036250D01*
X189863750Y-220877500D01*
X190022500Y-221036250D01*
X190022500Y-221036250D01*
G37*
X190022500Y-221036250D02*
X189863750Y-221195000D01*
X189705000Y-221036250D01*
X189863750Y-220877500D01*
X190022500Y-221036250D01*
G36*
X315117500Y-221671250D02*
X314958750Y-221830000D01*
X314800000Y-221671250D01*
X314958750Y-221512500D01*
X315117500Y-221671250D01*
X315117500Y-221671250D01*
G37*
X315117500Y-221671250D02*
X314958750Y-221830000D01*
X314800000Y-221671250D01*
X314958750Y-221512500D01*
X315117500Y-221671250D01*
G04 #@! TO.C,SW4*
D14*
X116748274Y-116680149D02*
X116952179Y-116777513D01*
X117309523Y-116840522D01*
X117462963Y-116806168D01*
X117544933Y-116759213D01*
X117637405Y-116652700D01*
X117658408Y-116533585D01*
X117607943Y-116401868D01*
X117546975Y-116329709D01*
X117414539Y-116244948D01*
X117139165Y-116134983D01*
X117006729Y-116050222D01*
X116945762Y-115978062D01*
X116895296Y-115846346D01*
X116916299Y-115727231D01*
X117008771Y-115620718D01*
X117090742Y-115573762D01*
X117244181Y-115539409D01*
X117601525Y-115602418D01*
X117805431Y-115699781D01*
X118316215Y-115728437D02*
X118453026Y-117042152D01*
X118896425Y-116199199D01*
X119024777Y-117142968D01*
X119602655Y-115955271D01*
X120744115Y-116586405D02*
X120597093Y-117420209D01*
X120470783Y-116046937D02*
X119955915Y-116877288D01*
X120885011Y-117041113D01*
G04 #@! TO.C,SW1*
X94678274Y-132130149D02*
X94882179Y-132227513D01*
X95239523Y-132290522D01*
X95392963Y-132256168D01*
X95474933Y-132209213D01*
X95567405Y-132102700D01*
X95588408Y-131983585D01*
X95537943Y-131851868D01*
X95476975Y-131779709D01*
X95344539Y-131694948D01*
X95069165Y-131584983D01*
X94936729Y-131500222D01*
X94875762Y-131428062D01*
X94825296Y-131296346D01*
X94846299Y-131177231D01*
X94938771Y-131070718D01*
X95020742Y-131023762D01*
X95174181Y-130989409D01*
X95531525Y-131052418D01*
X95735431Y-131149781D01*
X96246215Y-131178437D02*
X96383026Y-132492152D01*
X96826425Y-131649199D01*
X96954777Y-132592968D01*
X97532655Y-131405271D01*
X98670031Y-132895413D02*
X97812404Y-132744190D01*
X98241217Y-132819802D02*
X98461751Y-131569096D01*
X98287308Y-131722564D01*
X98123367Y-131816475D01*
X97969928Y-131850829D01*
G04 #@! TO.C,SW5*
X113435791Y-135442570D02*
X113639696Y-135539934D01*
X113997040Y-135602943D01*
X114150480Y-135568589D01*
X114232450Y-135521634D01*
X114324922Y-135415121D01*
X114345925Y-135296006D01*
X114295460Y-135164289D01*
X114234492Y-135092130D01*
X114102056Y-135007369D01*
X113826682Y-134897404D01*
X113694246Y-134812643D01*
X113633279Y-134740483D01*
X113582813Y-134608767D01*
X113603816Y-134489652D01*
X113696288Y-134383139D01*
X113778259Y-134336183D01*
X113931698Y-134301830D01*
X114289042Y-134364839D01*
X114492948Y-134462202D01*
X115003732Y-134490858D02*
X115140543Y-135804573D01*
X115583942Y-134961620D01*
X115712294Y-135905389D01*
X116290172Y-134717692D01*
X117576612Y-134944526D02*
X116861923Y-134818507D01*
X116685438Y-135401480D01*
X116767409Y-135354524D01*
X116920848Y-135320171D01*
X117278193Y-135383180D01*
X117410629Y-135467941D01*
X117471596Y-135540101D01*
X117522062Y-135671817D01*
X117469554Y-135969604D01*
X117377082Y-136076117D01*
X117295112Y-136123073D01*
X117141672Y-136157427D01*
X116784328Y-136094417D01*
X116651891Y-136009656D01*
X116590924Y-135937497D01*
G04 #@! TO.C,SW6*
X110128274Y-154200149D02*
X110332179Y-154297513D01*
X110689523Y-154360522D01*
X110842963Y-154326168D01*
X110924933Y-154279213D01*
X111017405Y-154172700D01*
X111038408Y-154053585D01*
X110987943Y-153921868D01*
X110926975Y-153849709D01*
X110794539Y-153764948D01*
X110519165Y-153654983D01*
X110386729Y-153570222D01*
X110325762Y-153498062D01*
X110275296Y-153366346D01*
X110296299Y-153247231D01*
X110388771Y-153140718D01*
X110470742Y-153093762D01*
X110624181Y-153059409D01*
X110981525Y-153122418D01*
X111185431Y-153219781D01*
X111696215Y-153248437D02*
X111833026Y-154562152D01*
X112276425Y-153719199D01*
X112404777Y-154662968D01*
X112982655Y-153475271D01*
X114197626Y-153689503D02*
X113911751Y-153639096D01*
X113758311Y-153673450D01*
X113676341Y-153720405D01*
X113501898Y-153873873D01*
X113388423Y-154099501D01*
X113304410Y-154575961D01*
X113354876Y-154707677D01*
X113415843Y-154779837D01*
X113548280Y-154864598D01*
X113834155Y-154915006D01*
X113987595Y-154880652D01*
X114069565Y-154833696D01*
X114162037Y-154727183D01*
X114214545Y-154429396D01*
X114164079Y-154297680D01*
X114103112Y-154225520D01*
X113970676Y-154140759D01*
X113684800Y-154090351D01*
X113531361Y-154124705D01*
X113449390Y-154171661D01*
X113356918Y-154278174D01*
G04 #@! TO.C,SW7*
X106818274Y-172960149D02*
X107022179Y-173057513D01*
X107379523Y-173120522D01*
X107532963Y-173086168D01*
X107614933Y-173039213D01*
X107707405Y-172932700D01*
X107728408Y-172813585D01*
X107677943Y-172681868D01*
X107616975Y-172609709D01*
X107484539Y-172524948D01*
X107209165Y-172414983D01*
X107076729Y-172330222D01*
X107015762Y-172258062D01*
X106965296Y-172126346D01*
X106986299Y-172007231D01*
X107078771Y-171900718D01*
X107160742Y-171853762D01*
X107314181Y-171819409D01*
X107671525Y-171882418D01*
X107875431Y-171979781D01*
X108386215Y-172008437D02*
X108523026Y-173322152D01*
X108966425Y-172479199D01*
X109094777Y-173422968D01*
X109672655Y-172235271D01*
X110101468Y-172310883D02*
X111102033Y-172487309D01*
X110238280Y-173624598D01*
G04 #@! TO.C,SW8*
X136338274Y-115300149D02*
X136542179Y-115397513D01*
X136899523Y-115460522D01*
X137052963Y-115426168D01*
X137134933Y-115379213D01*
X137227405Y-115272700D01*
X137248408Y-115153585D01*
X137197943Y-115021868D01*
X137136975Y-114949709D01*
X137004539Y-114864948D01*
X136729165Y-114754983D01*
X136596729Y-114670222D01*
X136535762Y-114598062D01*
X136485296Y-114466346D01*
X136506299Y-114347231D01*
X136598771Y-114240718D01*
X136680742Y-114193762D01*
X136834181Y-114159409D01*
X137191525Y-114222418D01*
X137395431Y-114319781D01*
X137906215Y-114348437D02*
X138043026Y-115662152D01*
X138486425Y-114819199D01*
X138614777Y-115762968D01*
X139192655Y-114575271D01*
X139884299Y-115249909D02*
X139751862Y-115165148D01*
X139690895Y-115092988D01*
X139640429Y-114961272D01*
X139650931Y-114901714D01*
X139743403Y-114795201D01*
X139825373Y-114748246D01*
X139978813Y-114713892D01*
X140264688Y-114764300D01*
X140397125Y-114849061D01*
X140458092Y-114921220D01*
X140508558Y-115052937D01*
X140498056Y-115112494D01*
X140405584Y-115219007D01*
X140323614Y-115265963D01*
X140170174Y-115300316D01*
X139884299Y-115249909D01*
X139730859Y-115284263D01*
X139648889Y-115331218D01*
X139556417Y-115437731D01*
X139514410Y-115675961D01*
X139564876Y-115807677D01*
X139625843Y-115879837D01*
X139758280Y-115964598D01*
X140044155Y-116015006D01*
X140197595Y-115980652D01*
X140279565Y-115933696D01*
X140372037Y-115827183D01*
X140414043Y-115588954D01*
X140363578Y-115457237D01*
X140302610Y-115385078D01*
X140170174Y-115300316D01*
G04 #@! TO.C,SW9*
X133028274Y-134060149D02*
X133232179Y-134157513D01*
X133589523Y-134220522D01*
X133742963Y-134186168D01*
X133824933Y-134139213D01*
X133917405Y-134032700D01*
X133938408Y-133913585D01*
X133887943Y-133781868D01*
X133826975Y-133709709D01*
X133694539Y-133624948D01*
X133419165Y-133514983D01*
X133286729Y-133430222D01*
X133225762Y-133358062D01*
X133175296Y-133226346D01*
X133196299Y-133107231D01*
X133288771Y-133000718D01*
X133370742Y-132953762D01*
X133524181Y-132919409D01*
X133881525Y-132982418D01*
X134085431Y-133079781D01*
X134596215Y-133108437D02*
X134733026Y-134422152D01*
X135176425Y-133579199D01*
X135304777Y-134522968D01*
X135882655Y-133335271D01*
X136305342Y-134699394D02*
X136591217Y-134749802D01*
X136744657Y-134715448D01*
X136826627Y-134668493D01*
X137001070Y-134515024D01*
X137114545Y-134289396D01*
X137198558Y-133812937D01*
X137148092Y-133681220D01*
X137087125Y-133609061D01*
X136954688Y-133524300D01*
X136668813Y-133473892D01*
X136515373Y-133508246D01*
X136433403Y-133555201D01*
X136340931Y-133661714D01*
X136288423Y-133959501D01*
X136338889Y-134091218D01*
X136399856Y-134163377D01*
X136532292Y-134248139D01*
X136818168Y-134298546D01*
X136971607Y-134264193D01*
X137053578Y-134217237D01*
X137146050Y-134110724D01*
G04 #@! TO.C,SW10*
X129003585Y-152684131D02*
X129207490Y-152781494D01*
X129564834Y-152844503D01*
X129718274Y-152810149D01*
X129800244Y-152763194D01*
X129892716Y-152656681D01*
X129913719Y-152537566D01*
X129863254Y-152405849D01*
X129802286Y-152333690D01*
X129669850Y-152248929D01*
X129394476Y-152138964D01*
X129262040Y-152054203D01*
X129201073Y-151982043D01*
X129150607Y-151850327D01*
X129171610Y-151731212D01*
X129264082Y-151624699D01*
X129346052Y-151577743D01*
X129499492Y-151543390D01*
X129856836Y-151606399D01*
X130060742Y-151703762D01*
X130571525Y-151732418D02*
X130708337Y-153046133D01*
X131151736Y-152203180D01*
X131280088Y-153146949D01*
X131857966Y-151959252D01*
X132995342Y-153449394D02*
X132137715Y-153298171D01*
X132566528Y-153373783D02*
X132787062Y-152123077D01*
X132612619Y-152276545D01*
X132448678Y-152370456D01*
X132295239Y-152404810D01*
X134144971Y-152362513D02*
X134287909Y-152387717D01*
X134420345Y-152472478D01*
X134481312Y-152544637D01*
X134531778Y-152676354D01*
X134561240Y-152927186D01*
X134508733Y-153224973D01*
X134395257Y-153450600D01*
X134302785Y-153557113D01*
X134220815Y-153604069D01*
X134067375Y-153638423D01*
X133924438Y-153613219D01*
X133792001Y-153528458D01*
X133731034Y-153456298D01*
X133680568Y-153324582D01*
X133651106Y-153073750D01*
X133703614Y-152775963D01*
X133817089Y-152550335D01*
X133909561Y-152443822D01*
X133991531Y-152396867D01*
X134144971Y-152362513D01*
G04 #@! TO.C,SW11*
X125663585Y-171634131D02*
X125867490Y-171731494D01*
X126224834Y-171794503D01*
X126378274Y-171760149D01*
X126460244Y-171713194D01*
X126552716Y-171606681D01*
X126573719Y-171487566D01*
X126523254Y-171355849D01*
X126462286Y-171283690D01*
X126329850Y-171198929D01*
X126054476Y-171088964D01*
X125922040Y-171004203D01*
X125861073Y-170932043D01*
X125810607Y-170800327D01*
X125831610Y-170681212D01*
X125924082Y-170574699D01*
X126006052Y-170527743D01*
X126159492Y-170493390D01*
X126516836Y-170556399D01*
X126720742Y-170653762D01*
X127231525Y-170682418D02*
X127368337Y-171996133D01*
X127811736Y-171153180D01*
X127940088Y-172096949D01*
X128517966Y-170909252D01*
X129655342Y-172399394D02*
X128797715Y-172248171D01*
X129226528Y-172323783D02*
X129447062Y-171073077D01*
X129272619Y-171226545D01*
X129108678Y-171320456D01*
X128955239Y-171354810D01*
X131084720Y-172651432D02*
X130227093Y-172500209D01*
X130655906Y-172575821D02*
X130876440Y-171325115D01*
X130701997Y-171478583D01*
X130538056Y-171572494D01*
X130384617Y-171606848D01*
G04 #@! TO.C,SW12*
X155533585Y-111914131D02*
X155737490Y-112011494D01*
X156094834Y-112074503D01*
X156248274Y-112040149D01*
X156330244Y-111993194D01*
X156422716Y-111886681D01*
X156443719Y-111767566D01*
X156393254Y-111635849D01*
X156332286Y-111563690D01*
X156199850Y-111478929D01*
X155924476Y-111368964D01*
X155792040Y-111284203D01*
X155731073Y-111212043D01*
X155680607Y-111080327D01*
X155701610Y-110961212D01*
X155794082Y-110854699D01*
X155876052Y-110807743D01*
X156029492Y-110773390D01*
X156386836Y-110836399D01*
X156590742Y-110933762D01*
X157101525Y-110962418D02*
X157238337Y-112276133D01*
X157681736Y-111433180D01*
X157810088Y-112376949D01*
X158387966Y-111189252D01*
X159525342Y-112679394D02*
X158667715Y-112528171D01*
X159096528Y-112603783D02*
X159317062Y-111353077D01*
X159142619Y-111506545D01*
X158978678Y-111600456D01*
X158825239Y-111634810D01*
X160296623Y-111648618D02*
X160378594Y-111601663D01*
X160532033Y-111567309D01*
X160889377Y-111630319D01*
X161021814Y-111715080D01*
X161082781Y-111787239D01*
X161133247Y-111918956D01*
X161112244Y-112038071D01*
X161009270Y-112204141D01*
X160025624Y-112767607D01*
X160954720Y-112931432D01*
G04 #@! TO.C,SW13*
X152223585Y-130664131D02*
X152427490Y-130761494D01*
X152784834Y-130824503D01*
X152938274Y-130790149D01*
X153020244Y-130743194D01*
X153112716Y-130636681D01*
X153133719Y-130517566D01*
X153083254Y-130385849D01*
X153022286Y-130313690D01*
X152889850Y-130228929D01*
X152614476Y-130118964D01*
X152482040Y-130034203D01*
X152421073Y-129962043D01*
X152370607Y-129830327D01*
X152391610Y-129711212D01*
X152484082Y-129604699D01*
X152566052Y-129557743D01*
X152719492Y-129523390D01*
X153076836Y-129586399D01*
X153280742Y-129683762D01*
X153791525Y-129712418D02*
X153928337Y-131026133D01*
X154371736Y-130183180D01*
X154500088Y-131126949D01*
X155077966Y-129939252D01*
X156215342Y-131429394D02*
X155357715Y-131278171D01*
X155786528Y-131353783D02*
X156007062Y-130103077D01*
X155832619Y-130256545D01*
X155668678Y-130350456D01*
X155515239Y-130384810D01*
X156936157Y-130266902D02*
X157865253Y-130430726D01*
X157280958Y-130818972D01*
X157495365Y-130856778D01*
X157627801Y-130941539D01*
X157688768Y-131013699D01*
X157739234Y-131145415D01*
X157686726Y-131443202D01*
X157594254Y-131549715D01*
X157512284Y-131596671D01*
X157358844Y-131631024D01*
X156930031Y-131555413D01*
X156797595Y-131470652D01*
X156736627Y-131398493D01*
G04 #@! TO.C,SW14*
X148923585Y-149424131D02*
X149127490Y-149521494D01*
X149484834Y-149584503D01*
X149638274Y-149550149D01*
X149720244Y-149503194D01*
X149812716Y-149396681D01*
X149833719Y-149277566D01*
X149783254Y-149145849D01*
X149722286Y-149073690D01*
X149589850Y-148988929D01*
X149314476Y-148878964D01*
X149182040Y-148794203D01*
X149121073Y-148722043D01*
X149070607Y-148590327D01*
X149091610Y-148471212D01*
X149184082Y-148364699D01*
X149266052Y-148317743D01*
X149419492Y-148283390D01*
X149776836Y-148346399D01*
X149980742Y-148443762D01*
X150491525Y-148472418D02*
X150628337Y-149786133D01*
X151071736Y-148943180D01*
X151200088Y-149886949D01*
X151777966Y-148699252D01*
X152915342Y-150189394D02*
X152057715Y-150038171D01*
X152486528Y-150113783D02*
X152707062Y-148863077D01*
X152532619Y-149016545D01*
X152368678Y-149110456D01*
X152215239Y-149144810D01*
X154348804Y-149582424D02*
X154201782Y-150416228D01*
X154075472Y-149042956D02*
X153560604Y-149873307D01*
X154489700Y-150037132D01*
G04 #@! TO.C,SW15*
X145613585Y-168194131D02*
X145817490Y-168291494D01*
X146174834Y-168354503D01*
X146328274Y-168320149D01*
X146410244Y-168273194D01*
X146502716Y-168166681D01*
X146523719Y-168047566D01*
X146473254Y-167915849D01*
X146412286Y-167843690D01*
X146279850Y-167758929D01*
X146004476Y-167648964D01*
X145872040Y-167564203D01*
X145811073Y-167492043D01*
X145760607Y-167360327D01*
X145781610Y-167241212D01*
X145874082Y-167134699D01*
X145956052Y-167087743D01*
X146109492Y-167053390D01*
X146466836Y-167116399D01*
X146670742Y-167213762D01*
X147181525Y-167242418D02*
X147318337Y-168556133D01*
X147761736Y-167713180D01*
X147890088Y-168656949D01*
X148467966Y-167469252D01*
X149605342Y-168959394D02*
X148747715Y-168808171D01*
X149176528Y-168883783D02*
X149397062Y-167633077D01*
X149222619Y-167786545D01*
X149058678Y-167880456D01*
X148905239Y-167914810D01*
X151183784Y-167948124D02*
X150469095Y-167822105D01*
X150292610Y-168405078D01*
X150374581Y-168358122D01*
X150528020Y-168323769D01*
X150885365Y-168386778D01*
X151017801Y-168471539D01*
X151078768Y-168543699D01*
X151129234Y-168675415D01*
X151076726Y-168973202D01*
X150984254Y-169079715D01*
X150902284Y-169126671D01*
X150748844Y-169161024D01*
X150391500Y-169098015D01*
X150259064Y-169013254D01*
X150198096Y-168941094D01*
G04 #@! TO.C,SW16*
X149733585Y-199674131D02*
X149937490Y-199771494D01*
X150294834Y-199834503D01*
X150448274Y-199800149D01*
X150530244Y-199753194D01*
X150622716Y-199646681D01*
X150643719Y-199527566D01*
X150593254Y-199395849D01*
X150532286Y-199323690D01*
X150399850Y-199238929D01*
X150124476Y-199128964D01*
X149992040Y-199044203D01*
X149931073Y-198972043D01*
X149880607Y-198840327D01*
X149901610Y-198721212D01*
X149994082Y-198614699D01*
X150076052Y-198567743D01*
X150229492Y-198533390D01*
X150586836Y-198596399D01*
X150790742Y-198693762D01*
X151301525Y-198722418D02*
X151438337Y-200036133D01*
X151881736Y-199193180D01*
X152010088Y-200136949D01*
X152587966Y-198949252D01*
X153725342Y-200439394D02*
X152867715Y-200288171D01*
X153296528Y-200363783D02*
X153517062Y-199113077D01*
X153342619Y-199266545D01*
X153178678Y-199360456D01*
X153025239Y-199394810D01*
X155232315Y-199415522D02*
X154946440Y-199365115D01*
X154793000Y-199399468D01*
X154711030Y-199446424D01*
X154536587Y-199599892D01*
X154423112Y-199825520D01*
X154339099Y-200301980D01*
X154389565Y-200433696D01*
X154450532Y-200505856D01*
X154582969Y-200590617D01*
X154868844Y-200641024D01*
X155022284Y-200606671D01*
X155104254Y-200559715D01*
X155196726Y-200453202D01*
X155249234Y-200155415D01*
X155198768Y-200023699D01*
X155137801Y-199951539D01*
X155005365Y-199866778D01*
X154719489Y-199816370D01*
X154566050Y-199850724D01*
X154484079Y-199897680D01*
X154391607Y-200004193D01*
G04 #@! TO.C,SW17*
X173143585Y-121784131D02*
X173347490Y-121881494D01*
X173704834Y-121944503D01*
X173858274Y-121910149D01*
X173940244Y-121863194D01*
X174032716Y-121756681D01*
X174053719Y-121637566D01*
X174003254Y-121505849D01*
X173942286Y-121433690D01*
X173809850Y-121348929D01*
X173534476Y-121238964D01*
X173402040Y-121154203D01*
X173341073Y-121082043D01*
X173290607Y-120950327D01*
X173311610Y-120831212D01*
X173404082Y-120724699D01*
X173486052Y-120677743D01*
X173639492Y-120643390D01*
X173996836Y-120706399D01*
X174200742Y-120803762D01*
X174711525Y-120832418D02*
X174848337Y-122146133D01*
X175291736Y-121303180D01*
X175420088Y-122246949D01*
X175997966Y-121059252D01*
X177135342Y-122549394D02*
X176277715Y-122398171D01*
X176706528Y-122473783D02*
X176927062Y-121223077D01*
X176752619Y-121376545D01*
X176588678Y-121470456D01*
X176435239Y-121504810D01*
X177856157Y-121386902D02*
X178856722Y-121563328D01*
X177992969Y-122700617D01*
G04 #@! TO.C,SW18*
X169833585Y-140544131D02*
X170037490Y-140641494D01*
X170394834Y-140704503D01*
X170548274Y-140670149D01*
X170630244Y-140623194D01*
X170722716Y-140516681D01*
X170743719Y-140397566D01*
X170693254Y-140265849D01*
X170632286Y-140193690D01*
X170499850Y-140108929D01*
X170224476Y-139998964D01*
X170092040Y-139914203D01*
X170031073Y-139842043D01*
X169980607Y-139710327D01*
X170001610Y-139591212D01*
X170094082Y-139484699D01*
X170176052Y-139437743D01*
X170329492Y-139403390D01*
X170686836Y-139466399D01*
X170890742Y-139563762D01*
X171401525Y-139592418D02*
X171538337Y-140906133D01*
X171981736Y-140063180D01*
X172110088Y-141006949D01*
X172687966Y-139819252D01*
X173825342Y-141309394D02*
X172967715Y-141158171D01*
X173396528Y-141233783D02*
X173617062Y-139983077D01*
X173442619Y-140136545D01*
X173278678Y-140230456D01*
X173125239Y-140264810D01*
X174808988Y-140745928D02*
X174676551Y-140661167D01*
X174615584Y-140589007D01*
X174565118Y-140457291D01*
X174575620Y-140397733D01*
X174668092Y-140291220D01*
X174750062Y-140244265D01*
X174903502Y-140209911D01*
X175189377Y-140260319D01*
X175321814Y-140345080D01*
X175382781Y-140417239D01*
X175433247Y-140548956D01*
X175422745Y-140608513D01*
X175330273Y-140715026D01*
X175248303Y-140761982D01*
X175094863Y-140796335D01*
X174808988Y-140745928D01*
X174655548Y-140780281D01*
X174573578Y-140827237D01*
X174481106Y-140933750D01*
X174439099Y-141171980D01*
X174489565Y-141303696D01*
X174550532Y-141375856D01*
X174682969Y-141460617D01*
X174968844Y-141511024D01*
X175122284Y-141476671D01*
X175204254Y-141429715D01*
X175296726Y-141323202D01*
X175338733Y-141084973D01*
X175288267Y-140953256D01*
X175227299Y-140881097D01*
X175094863Y-140796335D01*
G04 #@! TO.C,SW19*
X166523585Y-159304131D02*
X166727490Y-159401494D01*
X167084834Y-159464503D01*
X167238274Y-159430149D01*
X167320244Y-159383194D01*
X167412716Y-159276681D01*
X167433719Y-159157566D01*
X167383254Y-159025849D01*
X167322286Y-158953690D01*
X167189850Y-158868929D01*
X166914476Y-158758964D01*
X166782040Y-158674203D01*
X166721073Y-158602043D01*
X166670607Y-158470327D01*
X166691610Y-158351212D01*
X166784082Y-158244699D01*
X166866052Y-158197743D01*
X167019492Y-158163390D01*
X167376836Y-158226399D01*
X167580742Y-158323762D01*
X168091525Y-158352418D02*
X168228337Y-159666133D01*
X168671736Y-158823180D01*
X168800088Y-159766949D01*
X169377966Y-158579252D01*
X170515342Y-160069394D02*
X169657715Y-159918171D01*
X170086528Y-159993783D02*
X170307062Y-158743077D01*
X170132619Y-158896545D01*
X169968678Y-158990456D01*
X169815239Y-159024810D01*
X171230031Y-160195413D02*
X171515906Y-160245821D01*
X171669346Y-160211467D01*
X171751316Y-160164512D01*
X171925759Y-160011043D01*
X172039234Y-159785415D01*
X172123247Y-159308956D01*
X172072781Y-159177239D01*
X172011814Y-159105080D01*
X171879377Y-159020319D01*
X171593502Y-158969911D01*
X171440062Y-159004265D01*
X171358092Y-159051220D01*
X171265620Y-159157733D01*
X171213112Y-159455520D01*
X171263578Y-159587237D01*
X171324545Y-159659396D01*
X171456981Y-159744158D01*
X171742857Y-159794565D01*
X171896296Y-159760211D01*
X171978267Y-159713256D01*
X172070739Y-159606743D01*
G04 #@! TO.C,SW20*
X163183585Y-178254131D02*
X163387490Y-178351494D01*
X163744834Y-178414503D01*
X163898274Y-178380149D01*
X163980244Y-178333194D01*
X164072716Y-178226681D01*
X164093719Y-178107566D01*
X164043254Y-177975849D01*
X163982286Y-177903690D01*
X163849850Y-177818929D01*
X163574476Y-177708964D01*
X163442040Y-177624203D01*
X163381073Y-177552043D01*
X163330607Y-177420327D01*
X163351610Y-177301212D01*
X163444082Y-177194699D01*
X163526052Y-177147743D01*
X163679492Y-177113390D01*
X164036836Y-177176399D01*
X164240742Y-177273762D01*
X164751525Y-177302418D02*
X164888337Y-178616133D01*
X165331736Y-177773180D01*
X165460088Y-178716949D01*
X166037966Y-177529252D01*
X166517245Y-177736580D02*
X166599215Y-177689625D01*
X166752655Y-177655271D01*
X167109999Y-177718281D01*
X167242436Y-177803042D01*
X167303403Y-177875201D01*
X167353869Y-178006918D01*
X167332865Y-178126033D01*
X167229892Y-178292103D01*
X166246246Y-178855569D01*
X167175342Y-179019394D01*
X168324971Y-177932513D02*
X168467909Y-177957717D01*
X168600345Y-178042478D01*
X168661312Y-178114637D01*
X168711778Y-178246354D01*
X168741240Y-178497186D01*
X168688733Y-178794973D01*
X168575257Y-179020600D01*
X168482785Y-179127113D01*
X168400815Y-179174069D01*
X168247375Y-179208423D01*
X168104438Y-179183219D01*
X167972001Y-179098458D01*
X167911034Y-179026298D01*
X167860568Y-178894582D01*
X167831106Y-178643750D01*
X167883614Y-178345963D01*
X167997089Y-178120335D01*
X168089561Y-178013822D01*
X168171531Y-177966867D01*
X168324971Y-177932513D01*
G04 #@! TO.C,SW21*
X169191457Y-209029596D02*
X169386100Y-209144361D01*
X169736593Y-209238275D01*
X169892443Y-209217425D01*
X169978194Y-209177792D01*
X170079597Y-209079744D01*
X170110902Y-208962913D01*
X170072108Y-208827299D01*
X170017662Y-208750101D01*
X169893117Y-208654120D01*
X169628375Y-208520573D01*
X169503830Y-208424591D01*
X169449384Y-208347393D01*
X169410590Y-208211779D01*
X169441895Y-208094948D01*
X169543298Y-207996900D01*
X169629049Y-207957267D01*
X169784899Y-207936418D01*
X170135392Y-208030332D01*
X170330036Y-208145096D01*
X170836378Y-208218161D02*
X170858171Y-209538801D01*
X171373351Y-208737699D01*
X171418960Y-209689064D01*
X172098153Y-208556252D01*
X172557539Y-208804563D02*
X172643290Y-208764931D01*
X172799140Y-208744081D01*
X173149633Y-208837995D01*
X173274177Y-208933976D01*
X173328624Y-209011175D01*
X173367418Y-209146789D01*
X173336113Y-209263620D01*
X173219057Y-209420083D01*
X172190045Y-209895675D01*
X173101327Y-210139853D01*
X174503299Y-210515510D02*
X173662116Y-210290115D01*
X174082708Y-210402813D02*
X174411408Y-209176087D01*
X174224253Y-209313768D01*
X174052751Y-209393033D01*
X173896902Y-209413883D01*
G04 #@! TO.C,SW22*
X190703585Y-131854131D02*
X190907490Y-131951494D01*
X191264834Y-132014503D01*
X191418274Y-131980149D01*
X191500244Y-131933194D01*
X191592716Y-131826681D01*
X191613719Y-131707566D01*
X191563254Y-131575849D01*
X191502286Y-131503690D01*
X191369850Y-131418929D01*
X191094476Y-131308964D01*
X190962040Y-131224203D01*
X190901073Y-131152043D01*
X190850607Y-131020327D01*
X190871610Y-130901212D01*
X190964082Y-130794699D01*
X191046052Y-130747743D01*
X191199492Y-130713390D01*
X191556836Y-130776399D01*
X191760742Y-130873762D01*
X192271525Y-130902418D02*
X192408337Y-132216133D01*
X192851736Y-131373180D01*
X192980088Y-132316949D01*
X193557966Y-131129252D01*
X194037245Y-131336580D02*
X194119215Y-131289625D01*
X194272655Y-131255271D01*
X194629999Y-131318281D01*
X194762436Y-131403042D01*
X194823403Y-131475201D01*
X194873869Y-131606918D01*
X194852865Y-131726033D01*
X194749892Y-131892103D01*
X193766246Y-132455569D01*
X194695342Y-132619394D01*
X195466623Y-131588618D02*
X195548594Y-131541663D01*
X195702033Y-131507309D01*
X196059377Y-131570319D01*
X196191814Y-131655080D01*
X196252781Y-131727239D01*
X196303247Y-131858956D01*
X196282244Y-131978071D01*
X196179270Y-132144141D01*
X195195624Y-132707607D01*
X196124720Y-132871432D01*
G04 #@! TO.C,SW23*
X187403585Y-150604131D02*
X187607490Y-150701494D01*
X187964834Y-150764503D01*
X188118274Y-150730149D01*
X188200244Y-150683194D01*
X188292716Y-150576681D01*
X188313719Y-150457566D01*
X188263254Y-150325849D01*
X188202286Y-150253690D01*
X188069850Y-150168929D01*
X187794476Y-150058964D01*
X187662040Y-149974203D01*
X187601073Y-149902043D01*
X187550607Y-149770327D01*
X187571610Y-149651212D01*
X187664082Y-149544699D01*
X187746052Y-149497743D01*
X187899492Y-149463390D01*
X188256836Y-149526399D01*
X188460742Y-149623762D01*
X188971525Y-149652418D02*
X189108337Y-150966133D01*
X189551736Y-150123180D01*
X189680088Y-151066949D01*
X190257966Y-149879252D01*
X190737245Y-150086580D02*
X190819215Y-150039625D01*
X190972655Y-150005271D01*
X191329999Y-150068281D01*
X191462436Y-150153042D01*
X191523403Y-150225201D01*
X191573869Y-150356918D01*
X191552865Y-150476033D01*
X191449892Y-150642103D01*
X190466246Y-151205569D01*
X191395342Y-151369394D01*
X192116157Y-150206902D02*
X193045253Y-150370726D01*
X192460958Y-150758972D01*
X192675365Y-150796778D01*
X192807801Y-150881539D01*
X192868768Y-150953699D01*
X192919234Y-151085415D01*
X192866726Y-151383202D01*
X192774254Y-151489715D01*
X192692284Y-151536671D01*
X192538844Y-151571024D01*
X192110031Y-151495413D01*
X191977595Y-151410652D01*
X191916627Y-151338493D01*
G04 #@! TO.C,SW24*
X184093585Y-169374131D02*
X184297490Y-169471494D01*
X184654834Y-169534503D01*
X184808274Y-169500149D01*
X184890244Y-169453194D01*
X184982716Y-169346681D01*
X185003719Y-169227566D01*
X184953254Y-169095849D01*
X184892286Y-169023690D01*
X184759850Y-168938929D01*
X184484476Y-168828964D01*
X184352040Y-168744203D01*
X184291073Y-168672043D01*
X184240607Y-168540327D01*
X184261610Y-168421212D01*
X184354082Y-168314699D01*
X184436052Y-168267743D01*
X184589492Y-168233390D01*
X184946836Y-168296399D01*
X185150742Y-168393762D01*
X185661525Y-168422418D02*
X185798337Y-169736133D01*
X186241736Y-168893180D01*
X186370088Y-169836949D01*
X186947966Y-168649252D01*
X187427245Y-168856580D02*
X187509215Y-168809625D01*
X187662655Y-168775271D01*
X188019999Y-168838281D01*
X188152436Y-168923042D01*
X188213403Y-168995201D01*
X188263869Y-169126918D01*
X188242865Y-169246033D01*
X188139892Y-169412103D01*
X187156246Y-169975569D01*
X188085342Y-170139394D01*
X189518804Y-169532424D02*
X189371782Y-170366228D01*
X189245472Y-168992956D02*
X188730604Y-169823307D01*
X189659700Y-169987132D01*
G04 #@! TO.C,SW25*
X180783585Y-188134131D02*
X180987490Y-188231494D01*
X181344834Y-188294503D01*
X181498274Y-188260149D01*
X181580244Y-188213194D01*
X181672716Y-188106681D01*
X181693719Y-187987566D01*
X181643254Y-187855849D01*
X181582286Y-187783690D01*
X181449850Y-187698929D01*
X181174476Y-187588964D01*
X181042040Y-187504203D01*
X180981073Y-187432043D01*
X180930607Y-187300327D01*
X180951610Y-187181212D01*
X181044082Y-187074699D01*
X181126052Y-187027743D01*
X181279492Y-186993390D01*
X181636836Y-187056399D01*
X181840742Y-187153762D01*
X182351525Y-187182418D02*
X182488337Y-188496133D01*
X182931736Y-187653180D01*
X183060088Y-188596949D01*
X183637966Y-187409252D01*
X184117245Y-187616580D02*
X184199215Y-187569625D01*
X184352655Y-187535271D01*
X184709999Y-187598281D01*
X184842436Y-187683042D01*
X184903403Y-187755201D01*
X184953869Y-187886918D01*
X184932865Y-188006033D01*
X184829892Y-188172103D01*
X183846246Y-188735569D01*
X184775342Y-188899394D01*
X186353784Y-187888124D02*
X185639095Y-187762105D01*
X185462610Y-188345078D01*
X185544581Y-188298122D01*
X185698020Y-188263769D01*
X186055365Y-188326778D01*
X186187801Y-188411539D01*
X186248768Y-188483699D01*
X186299234Y-188615415D01*
X186246726Y-188913202D01*
X186154254Y-189019715D01*
X186072284Y-189066671D01*
X185918844Y-189101024D01*
X185561500Y-189038015D01*
X185429064Y-188953254D01*
X185368096Y-188881094D01*
G04 #@! TO.C,SW26*
X187166867Y-222473376D02*
X187350768Y-222604668D01*
X187691742Y-222728773D01*
X187848815Y-222721585D01*
X187937694Y-222689577D01*
X188047257Y-222600740D01*
X188088626Y-222487082D01*
X188061799Y-222348603D01*
X188014288Y-222266953D01*
X187898582Y-222160482D01*
X187646487Y-222004370D01*
X187530782Y-221897899D01*
X187483271Y-221816249D01*
X187456444Y-221677770D01*
X187497812Y-221564112D01*
X187607375Y-221475275D01*
X187696254Y-221443267D01*
X187853328Y-221436079D01*
X188194302Y-221560184D01*
X188378203Y-221691476D01*
X188876250Y-221808393D02*
X188782859Y-223125907D01*
X189365900Y-222372755D01*
X189328418Y-223324474D01*
X190103758Y-222255169D01*
X190539753Y-222542573D02*
X190628632Y-222510565D01*
X190785706Y-222503378D01*
X191126680Y-222627482D01*
X191242386Y-222733953D01*
X191289896Y-222815603D01*
X191316723Y-222954082D01*
X191275355Y-223067740D01*
X191145108Y-223213406D01*
X190078561Y-223597504D01*
X190965094Y-223920175D01*
X192626966Y-223173542D02*
X192354187Y-223074258D01*
X192197113Y-223081445D01*
X192108234Y-223113454D01*
X191909793Y-223234299D01*
X191758861Y-223436794D01*
X191593389Y-223891426D01*
X191620216Y-224029905D01*
X191667726Y-224111555D01*
X191783432Y-224218026D01*
X192056211Y-224317310D01*
X192213285Y-224310122D01*
X192302164Y-224278114D01*
X192411727Y-224189277D01*
X192515147Y-223905132D01*
X192488321Y-223766653D01*
X192440810Y-223685003D01*
X192325104Y-223578532D01*
X192052325Y-223479249D01*
X191895251Y-223486436D01*
X191806372Y-223518444D01*
X191696809Y-223607281D01*
G04 #@! TO.C,SW27*
X234424778Y-132801875D02*
X234649686Y-132823626D01*
X235007030Y-132760617D01*
X235139467Y-132675856D01*
X235200434Y-132603696D01*
X235250900Y-132471980D01*
X235229896Y-132352865D01*
X235137424Y-132246352D01*
X235055454Y-132199396D01*
X234902015Y-132165043D01*
X234605637Y-132155893D01*
X234452198Y-132121539D01*
X234370227Y-132074584D01*
X234277755Y-131968071D01*
X234256752Y-131848956D01*
X234307218Y-131717239D01*
X234368185Y-131645080D01*
X234500622Y-131560319D01*
X234857966Y-131497309D01*
X235082874Y-131519061D01*
X235572655Y-131371290D02*
X236150533Y-132558987D01*
X236278885Y-131615218D01*
X236722284Y-132458171D01*
X236859095Y-131144456D01*
X237380381Y-131175358D02*
X237441348Y-131103198D01*
X237573784Y-131018437D01*
X237931129Y-130955428D01*
X238084568Y-130989781D01*
X238166539Y-131036737D01*
X238259011Y-131143250D01*
X238280014Y-131262365D01*
X238240050Y-131453639D01*
X237508442Y-132319551D01*
X238437538Y-132155726D01*
X238717287Y-130816807D02*
X239717852Y-130640380D01*
X239295165Y-132004503D01*
G04 #@! TO.C,SW28*
X237724778Y-151561875D02*
X237949686Y-151583626D01*
X238307030Y-151520617D01*
X238439467Y-151435856D01*
X238500434Y-151363696D01*
X238550900Y-151231980D01*
X238529896Y-151112865D01*
X238437424Y-151006352D01*
X238355454Y-150959396D01*
X238202015Y-150925043D01*
X237905637Y-150915893D01*
X237752198Y-150881539D01*
X237670227Y-150834584D01*
X237577755Y-150728071D01*
X237556752Y-150608956D01*
X237607218Y-150477239D01*
X237668185Y-150405080D01*
X237800622Y-150320319D01*
X238157966Y-150257309D01*
X238382874Y-150279061D01*
X238872655Y-150131290D02*
X239450533Y-151318987D01*
X239578885Y-150375218D01*
X240022284Y-151218171D01*
X240159095Y-149904456D01*
X240680381Y-149935358D02*
X240741348Y-149863198D01*
X240873784Y-149778437D01*
X241231129Y-149715428D01*
X241384568Y-149749781D01*
X241466539Y-149796737D01*
X241559011Y-149903250D01*
X241580014Y-150022365D01*
X241540050Y-150213639D01*
X240808442Y-151079551D01*
X241737538Y-150915726D01*
X242469146Y-150049814D02*
X242315706Y-150015460D01*
X242233736Y-149968505D01*
X242141264Y-149861992D01*
X242130762Y-149802435D01*
X242181228Y-149670718D01*
X242242195Y-149598558D01*
X242374631Y-149513797D01*
X242660507Y-149463390D01*
X242813947Y-149497743D01*
X242895917Y-149544699D01*
X242988389Y-149651212D01*
X242998891Y-149710769D01*
X242948425Y-149842486D01*
X242887458Y-149914645D01*
X242755021Y-149999406D01*
X242469146Y-150049814D01*
X242336709Y-150134575D01*
X242275742Y-150206735D01*
X242225276Y-150338451D01*
X242267283Y-150576681D01*
X242359755Y-150683194D01*
X242441725Y-150730149D01*
X242595165Y-150764503D01*
X242881040Y-150714096D01*
X243013477Y-150629334D01*
X243074444Y-150557175D01*
X243124910Y-150425458D01*
X243082903Y-150187229D01*
X242990431Y-150080716D01*
X242908461Y-150033760D01*
X242755021Y-149999406D01*
G04 #@! TO.C,SW29*
X241044778Y-170321875D02*
X241269686Y-170343626D01*
X241627030Y-170280617D01*
X241759467Y-170195856D01*
X241820434Y-170123696D01*
X241870900Y-169991980D01*
X241849896Y-169872865D01*
X241757424Y-169766352D01*
X241675454Y-169719396D01*
X241522015Y-169685043D01*
X241225637Y-169675893D01*
X241072198Y-169641539D01*
X240990227Y-169594584D01*
X240897755Y-169488071D01*
X240876752Y-169368956D01*
X240927218Y-169237239D01*
X240988185Y-169165080D01*
X241120622Y-169080319D01*
X241477966Y-169017309D01*
X241702874Y-169039061D01*
X242192655Y-168891290D02*
X242770533Y-170078987D01*
X242898885Y-169135218D01*
X243342284Y-169978171D01*
X243479095Y-168664456D01*
X244000381Y-168695358D02*
X244061348Y-168623198D01*
X244193784Y-168538437D01*
X244551129Y-168475428D01*
X244704568Y-168509781D01*
X244786539Y-168556737D01*
X244879011Y-168663250D01*
X244900014Y-168782365D01*
X244860050Y-168973639D01*
X244128442Y-169839551D01*
X245057538Y-169675726D01*
X245772227Y-169549707D02*
X246058102Y-169499299D01*
X246190539Y-169414538D01*
X246251506Y-169342379D01*
X246362939Y-169138503D01*
X246392402Y-168887671D01*
X246308389Y-168411212D01*
X246215917Y-168304699D01*
X246133947Y-168257743D01*
X245980507Y-168223390D01*
X245694631Y-168273797D01*
X245562195Y-168358558D01*
X245501228Y-168430718D01*
X245450762Y-168562435D01*
X245503270Y-168860222D01*
X245595742Y-168966735D01*
X245677713Y-169013690D01*
X245831152Y-169048044D01*
X246117028Y-168997636D01*
X246249464Y-168912875D01*
X246310431Y-168840716D01*
X246360897Y-168708999D01*
G04 #@! TO.C,SW30*
X244344778Y-189091875D02*
X244569686Y-189113626D01*
X244927030Y-189050617D01*
X245059467Y-188965856D01*
X245120434Y-188893696D01*
X245170900Y-188761980D01*
X245149896Y-188642865D01*
X245057424Y-188536352D01*
X244975454Y-188489396D01*
X244822015Y-188455043D01*
X244525637Y-188445893D01*
X244372198Y-188411539D01*
X244290227Y-188364584D01*
X244197755Y-188258071D01*
X244176752Y-188138956D01*
X244227218Y-188007239D01*
X244288185Y-187935080D01*
X244420622Y-187850319D01*
X244777966Y-187787309D01*
X245002874Y-187809061D01*
X245492655Y-187661290D02*
X246070533Y-188848987D01*
X246198885Y-187905218D01*
X246642284Y-188748171D01*
X246779095Y-187434456D01*
X247207909Y-187358845D02*
X248137005Y-187195020D01*
X247720735Y-187759693D01*
X247935142Y-187721887D01*
X248088581Y-187756241D01*
X248170552Y-187803196D01*
X248263024Y-187909709D01*
X248315531Y-188207496D01*
X248265066Y-188339213D01*
X248204098Y-188411372D01*
X248071662Y-188496133D01*
X247642849Y-188571745D01*
X247489409Y-188537391D01*
X247407439Y-188490436D01*
X249066100Y-187031195D02*
X249209038Y-187005992D01*
X249362478Y-187040345D01*
X249444448Y-187087301D01*
X249536920Y-187193814D01*
X249650395Y-187419441D01*
X249702903Y-187717229D01*
X249673441Y-187968060D01*
X249622975Y-188099777D01*
X249562008Y-188171936D01*
X249429571Y-188256697D01*
X249286634Y-188281901D01*
X249133194Y-188247548D01*
X249051224Y-188200592D01*
X248958752Y-188094079D01*
X248845276Y-187868451D01*
X248792769Y-187570664D01*
X248822231Y-187319833D01*
X248872697Y-187188116D01*
X248933664Y-187115957D01*
X249066100Y-187031195D01*
G04 #@! TO.C,SW31*
X238220324Y-224359764D02*
X238445593Y-224342130D01*
X238786567Y-224218026D01*
X238902273Y-224111555D01*
X238949783Y-224029905D01*
X238976610Y-223891426D01*
X238935242Y-223777768D01*
X238825679Y-223688931D01*
X238736800Y-223656923D01*
X238579726Y-223649736D01*
X238286263Y-223692190D01*
X238129189Y-223685003D01*
X238040310Y-223652995D01*
X237930747Y-223564158D01*
X237889379Y-223450500D01*
X237916206Y-223312021D01*
X237963717Y-223230371D01*
X238079422Y-223123900D01*
X238420396Y-222999795D01*
X238645665Y-222982162D01*
X239102345Y-222751587D02*
X239877685Y-223820892D01*
X239840203Y-222869173D01*
X240423243Y-223622325D01*
X240329852Y-222304811D01*
X240739021Y-222155885D02*
X241625554Y-221833214D01*
X241313662Y-222461592D01*
X241518247Y-222387129D01*
X241675321Y-222394317D01*
X241764200Y-222426325D01*
X241873763Y-222515162D01*
X241977183Y-222799307D01*
X241950356Y-222937786D01*
X241902846Y-223019436D01*
X241787140Y-223125907D01*
X241377971Y-223274832D01*
X241220897Y-223267645D01*
X241132018Y-223235637D01*
X243423816Y-222530205D02*
X242605478Y-222828056D01*
X243014647Y-222679131D02*
X242580281Y-221485721D01*
X242505944Y-221705850D01*
X242410922Y-221869150D01*
X242295217Y-221975621D01*
G04 #@! TO.C,SW32*
X251994778Y-122741875D02*
X252219686Y-122763626D01*
X252577030Y-122700617D01*
X252709467Y-122615856D01*
X252770434Y-122543696D01*
X252820900Y-122411980D01*
X252799896Y-122292865D01*
X252707424Y-122186352D01*
X252625454Y-122139396D01*
X252472015Y-122105043D01*
X252175637Y-122095893D01*
X252022198Y-122061539D01*
X251940227Y-122014584D01*
X251847755Y-121908071D01*
X251826752Y-121788956D01*
X251877218Y-121657239D01*
X251938185Y-121585080D01*
X252070622Y-121500319D01*
X252427966Y-121437309D01*
X252652874Y-121459061D01*
X253142655Y-121311290D02*
X253720533Y-122498987D01*
X253848885Y-121555218D01*
X254292284Y-122398171D01*
X254429095Y-121084456D01*
X254857909Y-121008845D02*
X255787005Y-120845020D01*
X255370735Y-121409693D01*
X255585142Y-121371887D01*
X255738581Y-121406241D01*
X255820552Y-121453196D01*
X255913024Y-121559709D01*
X255965531Y-121857496D01*
X255915066Y-121989213D01*
X255854098Y-122061372D01*
X255721662Y-122146133D01*
X255292849Y-122221745D01*
X255139409Y-122187391D01*
X255057439Y-122140436D01*
X256379759Y-120863320D02*
X256440726Y-120791160D01*
X256573163Y-120706399D01*
X256930507Y-120643390D01*
X257083947Y-120677743D01*
X257165917Y-120724699D01*
X257258389Y-120831212D01*
X257279392Y-120950327D01*
X257239428Y-121141601D01*
X256507820Y-122007513D01*
X257436916Y-121843688D01*
G04 #@! TO.C,SW33*
X255304778Y-141501875D02*
X255529686Y-141523626D01*
X255887030Y-141460617D01*
X256019467Y-141375856D01*
X256080434Y-141303696D01*
X256130900Y-141171980D01*
X256109896Y-141052865D01*
X256017424Y-140946352D01*
X255935454Y-140899396D01*
X255782015Y-140865043D01*
X255485637Y-140855893D01*
X255332198Y-140821539D01*
X255250227Y-140774584D01*
X255157755Y-140668071D01*
X255136752Y-140548956D01*
X255187218Y-140417239D01*
X255248185Y-140345080D01*
X255380622Y-140260319D01*
X255737966Y-140197309D01*
X255962874Y-140219061D01*
X256452655Y-140071290D02*
X257030533Y-141258987D01*
X257158885Y-140315218D01*
X257602284Y-141158171D01*
X257739095Y-139844456D01*
X258167909Y-139768845D02*
X259097005Y-139605020D01*
X258680735Y-140169693D01*
X258895142Y-140131887D01*
X259048581Y-140166241D01*
X259130552Y-140213196D01*
X259223024Y-140319709D01*
X259275531Y-140617496D01*
X259225066Y-140749213D01*
X259164098Y-140821372D01*
X259031662Y-140906133D01*
X258602849Y-140981745D01*
X258449409Y-140947391D01*
X258367439Y-140900436D01*
X259597287Y-139516807D02*
X260526383Y-139352982D01*
X260110113Y-139917655D01*
X260324520Y-139879849D01*
X260477959Y-139914203D01*
X260559930Y-139961158D01*
X260652402Y-140067671D01*
X260704910Y-140365458D01*
X260654444Y-140497175D01*
X260593477Y-140569334D01*
X260461040Y-140654096D01*
X260032227Y-140729707D01*
X259878787Y-140695353D01*
X259796817Y-140648398D01*
G04 #@! TO.C,SW34*
X258604778Y-160261875D02*
X258829686Y-160283626D01*
X259187030Y-160220617D01*
X259319467Y-160135856D01*
X259380434Y-160063696D01*
X259430900Y-159931980D01*
X259409896Y-159812865D01*
X259317424Y-159706352D01*
X259235454Y-159659396D01*
X259082015Y-159625043D01*
X258785637Y-159615893D01*
X258632198Y-159581539D01*
X258550227Y-159534584D01*
X258457755Y-159428071D01*
X258436752Y-159308956D01*
X258487218Y-159177239D01*
X258548185Y-159105080D01*
X258680622Y-159020319D01*
X259037966Y-158957309D01*
X259262874Y-158979061D01*
X259752655Y-158831290D02*
X260330533Y-160018987D01*
X260458885Y-159075218D01*
X260902284Y-159918171D01*
X261039095Y-158604456D01*
X261467909Y-158528845D02*
X262397005Y-158365020D01*
X261980735Y-158929693D01*
X262195142Y-158891887D01*
X262348581Y-158926241D01*
X262430552Y-158973196D01*
X262523024Y-159079709D01*
X262575531Y-159377496D01*
X262525066Y-159509213D01*
X262464098Y-159581372D01*
X262331662Y-159666133D01*
X261902849Y-159741745D01*
X261749409Y-159707391D01*
X261667439Y-159660436D01*
X263756956Y-158555088D02*
X263903978Y-159388892D01*
X263315599Y-158141638D02*
X263115778Y-159098009D01*
X264044874Y-158934184D01*
G04 #@! TO.C,SW35*
X261954778Y-179211875D02*
X262179686Y-179233626D01*
X262537030Y-179170617D01*
X262669467Y-179085856D01*
X262730434Y-179013696D01*
X262780900Y-178881980D01*
X262759896Y-178762865D01*
X262667424Y-178656352D01*
X262585454Y-178609396D01*
X262432015Y-178575043D01*
X262135637Y-178565893D01*
X261982198Y-178531539D01*
X261900227Y-178484584D01*
X261807755Y-178378071D01*
X261786752Y-178258956D01*
X261837218Y-178127239D01*
X261898185Y-178055080D01*
X262030622Y-177970319D01*
X262387966Y-177907309D01*
X262612874Y-177929061D01*
X263102655Y-177781290D02*
X263680533Y-178968987D01*
X263808885Y-178025218D01*
X264252284Y-178868171D01*
X264389095Y-177554456D01*
X264817909Y-177478845D02*
X265747005Y-177315020D01*
X265330735Y-177879693D01*
X265545142Y-177841887D01*
X265698581Y-177876241D01*
X265780552Y-177923196D01*
X265873024Y-178029709D01*
X265925531Y-178327496D01*
X265875066Y-178459213D01*
X265814098Y-178531372D01*
X265681662Y-178616133D01*
X265252849Y-178691745D01*
X265099409Y-178657391D01*
X265017439Y-178610436D01*
X267104914Y-177075584D02*
X266390225Y-177201603D01*
X266423772Y-177809779D01*
X266484739Y-177737620D01*
X266617175Y-177652859D01*
X266974520Y-177589849D01*
X267127959Y-177624203D01*
X267209930Y-177671158D01*
X267302402Y-177777671D01*
X267354910Y-178075458D01*
X267304444Y-178207175D01*
X267243477Y-178279334D01*
X267111040Y-178364096D01*
X266753696Y-178427105D01*
X266600256Y-178392751D01*
X266518286Y-178345796D01*
G04 #@! TO.C,SW36*
X256051047Y-210457094D02*
X256276996Y-210459161D01*
X256627489Y-210365247D01*
X256752034Y-210269266D01*
X256806480Y-210192067D01*
X256845274Y-210056453D01*
X256813969Y-209939622D01*
X256712565Y-209841574D01*
X256626814Y-209801942D01*
X256470965Y-209781092D01*
X256174918Y-209797808D01*
X256019068Y-209776958D01*
X255933317Y-209737325D01*
X255831914Y-209639277D01*
X255800609Y-209522446D01*
X255839403Y-209386832D01*
X255893849Y-209309634D01*
X256018394Y-209213653D01*
X256368887Y-209119738D01*
X256594835Y-209121805D01*
X257069873Y-208931910D02*
X257749067Y-210064721D01*
X257794675Y-209113357D01*
X258309856Y-209914458D01*
X258331648Y-208593818D01*
X258752240Y-208481121D02*
X259663522Y-208236943D01*
X259298051Y-208835748D01*
X259508347Y-208779399D01*
X259664196Y-208800249D01*
X259749947Y-208839881D01*
X259851351Y-208937930D01*
X259929613Y-209230007D01*
X259890819Y-209365621D01*
X259836373Y-209442819D01*
X259711828Y-209538801D01*
X259291236Y-209651498D01*
X259135387Y-209630648D01*
X259049636Y-209591016D01*
X260925297Y-207898852D02*
X260644903Y-207973983D01*
X260520358Y-208069965D01*
X260465912Y-208147163D01*
X260372672Y-208359975D01*
X260365183Y-208612420D01*
X260490402Y-209079744D01*
X260591805Y-209177792D01*
X260677556Y-209217425D01*
X260833406Y-209238275D01*
X261113800Y-209163143D01*
X261238345Y-209067162D01*
X261292791Y-208989964D01*
X261331585Y-208854350D01*
X261253323Y-208562272D01*
X261151920Y-208464224D01*
X261066169Y-208424591D01*
X260910319Y-208403742D01*
X260629925Y-208478873D01*
X260505380Y-208574854D01*
X260450934Y-208652053D01*
X260412140Y-208787667D01*
G04 #@! TO.C,SW37*
X269594778Y-112871875D02*
X269819686Y-112893626D01*
X270177030Y-112830617D01*
X270309467Y-112745856D01*
X270370434Y-112673696D01*
X270420900Y-112541980D01*
X270399896Y-112422865D01*
X270307424Y-112316352D01*
X270225454Y-112269396D01*
X270072015Y-112235043D01*
X269775637Y-112225893D01*
X269622198Y-112191539D01*
X269540227Y-112144584D01*
X269447755Y-112038071D01*
X269426752Y-111918956D01*
X269477218Y-111787239D01*
X269538185Y-111715080D01*
X269670622Y-111630319D01*
X270027966Y-111567309D01*
X270252874Y-111589061D01*
X270742655Y-111441290D02*
X271320533Y-112628987D01*
X271448885Y-111685218D01*
X271892284Y-112528171D01*
X272029095Y-111214456D01*
X272457909Y-111138845D02*
X273387005Y-110975020D01*
X272970735Y-111539693D01*
X273185142Y-111501887D01*
X273338581Y-111536241D01*
X273420552Y-111583196D01*
X273513024Y-111689709D01*
X273565531Y-111987496D01*
X273515066Y-112119213D01*
X273454098Y-112191372D01*
X273321662Y-112276133D01*
X272892849Y-112351745D01*
X272739409Y-112317391D01*
X272657439Y-112270436D01*
X273887287Y-110886807D02*
X274887852Y-110710380D01*
X274465165Y-112074503D01*
G04 #@! TO.C,SW38*
X272904778Y-131621875D02*
X273129686Y-131643626D01*
X273487030Y-131580617D01*
X273619467Y-131495856D01*
X273680434Y-131423696D01*
X273730900Y-131291980D01*
X273709896Y-131172865D01*
X273617424Y-131066352D01*
X273535454Y-131019396D01*
X273382015Y-130985043D01*
X273085637Y-130975893D01*
X272932198Y-130941539D01*
X272850227Y-130894584D01*
X272757755Y-130788071D01*
X272736752Y-130668956D01*
X272787218Y-130537239D01*
X272848185Y-130465080D01*
X272980622Y-130380319D01*
X273337966Y-130317309D01*
X273562874Y-130339061D01*
X274052655Y-130191290D02*
X274630533Y-131378987D01*
X274758885Y-130435218D01*
X275202284Y-131278171D01*
X275339095Y-129964456D01*
X275767909Y-129888845D02*
X276697005Y-129725020D01*
X276280735Y-130289693D01*
X276495142Y-130251887D01*
X276648581Y-130286241D01*
X276730552Y-130333196D01*
X276823024Y-130439709D01*
X276875531Y-130737496D01*
X276825066Y-130869213D01*
X276764098Y-130941372D01*
X276631662Y-131026133D01*
X276202849Y-131101745D01*
X276049409Y-131067391D01*
X275967439Y-131020436D01*
X277649146Y-130109814D02*
X277495706Y-130075460D01*
X277413736Y-130028505D01*
X277321264Y-129921992D01*
X277310762Y-129862435D01*
X277361228Y-129730718D01*
X277422195Y-129658558D01*
X277554631Y-129573797D01*
X277840507Y-129523390D01*
X277993947Y-129557743D01*
X278075917Y-129604699D01*
X278168389Y-129711212D01*
X278178891Y-129770769D01*
X278128425Y-129902486D01*
X278067458Y-129974645D01*
X277935021Y-130059406D01*
X277649146Y-130109814D01*
X277516709Y-130194575D01*
X277455742Y-130266735D01*
X277405276Y-130398451D01*
X277447283Y-130636681D01*
X277539755Y-130743194D01*
X277621725Y-130790149D01*
X277775165Y-130824503D01*
X278061040Y-130774096D01*
X278193477Y-130689334D01*
X278254444Y-130617175D01*
X278304910Y-130485458D01*
X278262903Y-130247229D01*
X278170431Y-130140716D01*
X278088461Y-130093760D01*
X277935021Y-130059406D01*
G04 #@! TO.C,SW39*
X276214778Y-150391875D02*
X276439686Y-150413626D01*
X276797030Y-150350617D01*
X276929467Y-150265856D01*
X276990434Y-150193696D01*
X277040900Y-150061980D01*
X277019896Y-149942865D01*
X276927424Y-149836352D01*
X276845454Y-149789396D01*
X276692015Y-149755043D01*
X276395637Y-149745893D01*
X276242198Y-149711539D01*
X276160227Y-149664584D01*
X276067755Y-149558071D01*
X276046752Y-149438956D01*
X276097218Y-149307239D01*
X276158185Y-149235080D01*
X276290622Y-149150319D01*
X276647966Y-149087309D01*
X276872874Y-149109061D01*
X277362655Y-148961290D02*
X277940533Y-150148987D01*
X278068885Y-149205218D01*
X278512284Y-150048171D01*
X278649095Y-148734456D01*
X279077909Y-148658845D02*
X280007005Y-148495020D01*
X279590735Y-149059693D01*
X279805142Y-149021887D01*
X279958581Y-149056241D01*
X280040552Y-149103196D01*
X280133024Y-149209709D01*
X280185531Y-149507496D01*
X280135066Y-149639213D01*
X280074098Y-149711372D01*
X279941662Y-149796133D01*
X279512849Y-149871745D01*
X279359409Y-149837391D01*
X279277439Y-149790436D01*
X280942227Y-149619707D02*
X281228102Y-149569299D01*
X281360539Y-149484538D01*
X281421506Y-149412379D01*
X281532939Y-149208503D01*
X281562402Y-148957671D01*
X281478389Y-148481212D01*
X281385917Y-148374699D01*
X281303947Y-148327743D01*
X281150507Y-148293390D01*
X280864631Y-148343797D01*
X280732195Y-148428558D01*
X280671228Y-148500718D01*
X280620762Y-148632435D01*
X280673270Y-148930222D01*
X280765742Y-149036735D01*
X280847713Y-149083690D01*
X281001152Y-149118044D01*
X281287028Y-149067636D01*
X281419464Y-148982875D01*
X281480431Y-148910716D01*
X281530897Y-148778999D01*
G04 #@! TO.C,SW40*
X279514778Y-169151875D02*
X279739686Y-169173626D01*
X280097030Y-169110617D01*
X280229467Y-169025856D01*
X280290434Y-168953696D01*
X280340900Y-168821980D01*
X280319896Y-168702865D01*
X280227424Y-168596352D01*
X280145454Y-168549396D01*
X279992015Y-168515043D01*
X279695637Y-168505893D01*
X279542198Y-168471539D01*
X279460227Y-168424584D01*
X279367755Y-168318071D01*
X279346752Y-168198956D01*
X279397218Y-168067239D01*
X279458185Y-167995080D01*
X279590622Y-167910319D01*
X279947966Y-167847309D01*
X280172874Y-167869061D01*
X280662655Y-167721290D02*
X281240533Y-168908987D01*
X281368885Y-167965218D01*
X281812284Y-168808171D01*
X281949095Y-167494456D01*
X283237578Y-167697126D02*
X283384600Y-168530930D01*
X282796221Y-167283676D02*
X282596400Y-168240047D01*
X283525496Y-168076222D01*
X284236100Y-167091195D02*
X284379038Y-167065992D01*
X284532478Y-167100345D01*
X284614448Y-167147301D01*
X284706920Y-167253814D01*
X284820395Y-167479441D01*
X284872903Y-167777229D01*
X284843441Y-168028060D01*
X284792975Y-168159777D01*
X284732008Y-168231936D01*
X284599571Y-168316697D01*
X284456634Y-168341901D01*
X284303194Y-168307548D01*
X284221224Y-168260592D01*
X284128752Y-168154079D01*
X284015276Y-167928451D01*
X283962769Y-167630664D01*
X283992231Y-167379833D01*
X284042697Y-167248116D01*
X284103664Y-167175957D01*
X284236100Y-167091195D01*
G04 #@! TO.C,SW41*
X275404778Y-200631875D02*
X275629686Y-200653626D01*
X275987030Y-200590617D01*
X276119467Y-200505856D01*
X276180434Y-200433696D01*
X276230900Y-200301980D01*
X276209896Y-200182865D01*
X276117424Y-200076352D01*
X276035454Y-200029396D01*
X275882015Y-199995043D01*
X275585637Y-199985893D01*
X275432198Y-199951539D01*
X275350227Y-199904584D01*
X275257755Y-199798071D01*
X275236752Y-199678956D01*
X275287218Y-199547239D01*
X275348185Y-199475080D01*
X275480622Y-199390319D01*
X275837966Y-199327309D01*
X276062874Y-199349061D01*
X276552655Y-199201290D02*
X277130533Y-200388987D01*
X277258885Y-199445218D01*
X277702284Y-200288171D01*
X277839095Y-198974456D01*
X279127578Y-199177126D02*
X279274600Y-200010930D01*
X278686221Y-198763676D02*
X278486400Y-199720047D01*
X279415496Y-199556222D01*
X280846916Y-199733688D02*
X279989289Y-199884911D01*
X280418102Y-199809299D02*
X280197569Y-198558593D01*
X280086136Y-198762470D01*
X279964202Y-198906788D01*
X279831765Y-198991549D01*
G04 #@! TO.C,SW42*
X289514778Y-116131875D02*
X289739686Y-116153626D01*
X290097030Y-116090617D01*
X290229467Y-116005856D01*
X290290434Y-115933696D01*
X290340900Y-115801980D01*
X290319896Y-115682865D01*
X290227424Y-115576352D01*
X290145454Y-115529396D01*
X289992015Y-115495043D01*
X289695637Y-115485893D01*
X289542198Y-115451539D01*
X289460227Y-115404584D01*
X289367755Y-115298071D01*
X289346752Y-115178956D01*
X289397218Y-115047239D01*
X289458185Y-114975080D01*
X289590622Y-114890319D01*
X289947966Y-114827309D01*
X290172874Y-114849061D01*
X290662655Y-114701290D02*
X291240533Y-115888987D01*
X291368885Y-114945218D01*
X291812284Y-115788171D01*
X291949095Y-114474456D01*
X293237578Y-114677126D02*
X293384600Y-115510930D01*
X292796221Y-114263676D02*
X292596400Y-115220047D01*
X293525496Y-115056222D01*
X293899759Y-114253320D02*
X293960726Y-114181160D01*
X294093163Y-114096399D01*
X294450507Y-114033390D01*
X294603947Y-114067743D01*
X294685917Y-114114699D01*
X294778389Y-114221212D01*
X294799392Y-114340327D01*
X294759428Y-114531601D01*
X294027820Y-115397513D01*
X294956916Y-115233688D01*
G04 #@! TO.C,SW43*
X292824778Y-134881875D02*
X293049686Y-134903626D01*
X293407030Y-134840617D01*
X293539467Y-134755856D01*
X293600434Y-134683696D01*
X293650900Y-134551980D01*
X293629896Y-134432865D01*
X293537424Y-134326352D01*
X293455454Y-134279396D01*
X293302015Y-134245043D01*
X293005637Y-134235893D01*
X292852198Y-134201539D01*
X292770227Y-134154584D01*
X292677755Y-134048071D01*
X292656752Y-133928956D01*
X292707218Y-133797239D01*
X292768185Y-133725080D01*
X292900622Y-133640319D01*
X293257966Y-133577309D01*
X293482874Y-133599061D01*
X293972655Y-133451290D02*
X294550533Y-134638987D01*
X294678885Y-133695218D01*
X295122284Y-134538171D01*
X295259095Y-133224456D01*
X296547578Y-133427126D02*
X296694600Y-134260930D01*
X296106221Y-133013676D02*
X295906400Y-133970047D01*
X296835496Y-133806222D01*
X297117287Y-132896807D02*
X298046383Y-132732982D01*
X297630113Y-133297655D01*
X297844520Y-133259849D01*
X297997959Y-133294203D01*
X298079930Y-133341158D01*
X298172402Y-133447671D01*
X298224910Y-133745458D01*
X298174444Y-133877175D01*
X298113477Y-133949334D01*
X297981040Y-134034096D01*
X297552227Y-134109707D01*
X297398787Y-134075353D01*
X297316817Y-134028398D01*
G04 #@! TO.C,SW44*
X296134778Y-153651875D02*
X296359686Y-153673626D01*
X296717030Y-153610617D01*
X296849467Y-153525856D01*
X296910434Y-153453696D01*
X296960900Y-153321980D01*
X296939896Y-153202865D01*
X296847424Y-153096352D01*
X296765454Y-153049396D01*
X296612015Y-153015043D01*
X296315637Y-153005893D01*
X296162198Y-152971539D01*
X296080227Y-152924584D01*
X295987755Y-152818071D01*
X295966752Y-152698956D01*
X296017218Y-152567239D01*
X296078185Y-152495080D01*
X296210622Y-152410319D01*
X296567966Y-152347309D01*
X296792874Y-152369061D01*
X297282655Y-152221290D02*
X297860533Y-153408987D01*
X297988885Y-152465218D01*
X298432284Y-153308171D01*
X298569095Y-151994456D01*
X299857578Y-152197126D02*
X300004600Y-153030930D01*
X299416221Y-151783676D02*
X299216400Y-152740047D01*
X300145496Y-152576222D01*
X301286956Y-151945088D02*
X301433978Y-152778892D01*
X300845599Y-151531638D02*
X300645778Y-152488009D01*
X301574874Y-152324184D01*
G04 #@! TO.C,SW45*
X299464778Y-172591875D02*
X299689686Y-172613626D01*
X300047030Y-172550617D01*
X300179467Y-172465856D01*
X300240434Y-172393696D01*
X300290900Y-172261980D01*
X300269896Y-172142865D01*
X300177424Y-172036352D01*
X300095454Y-171989396D01*
X299942015Y-171955043D01*
X299645637Y-171945893D01*
X299492198Y-171911539D01*
X299410227Y-171864584D01*
X299317755Y-171758071D01*
X299296752Y-171638956D01*
X299347218Y-171507239D01*
X299408185Y-171435080D01*
X299540622Y-171350319D01*
X299897966Y-171287309D01*
X300122874Y-171309061D01*
X300612655Y-171161290D02*
X301190533Y-172348987D01*
X301318885Y-171405218D01*
X301762284Y-172248171D01*
X301899095Y-170934456D01*
X303187578Y-171137126D02*
X303334600Y-171970930D01*
X302746221Y-170723676D02*
X302546400Y-171680047D01*
X303475496Y-171516222D01*
X304614914Y-170455584D02*
X303900225Y-170581603D01*
X303933772Y-171189779D01*
X303994739Y-171117620D01*
X304127175Y-171032859D01*
X304484520Y-170969849D01*
X304637959Y-171004203D01*
X304719930Y-171051158D01*
X304812402Y-171157671D01*
X304864910Y-171455458D01*
X304814444Y-171587175D01*
X304753477Y-171659334D01*
X304621040Y-171744096D01*
X304263696Y-171807105D01*
X304110256Y-171772751D01*
X304028286Y-171725796D01*
G04 #@! TO.C,SW46*
X309104778Y-117501875D02*
X309329686Y-117523626D01*
X309687030Y-117460617D01*
X309819467Y-117375856D01*
X309880434Y-117303696D01*
X309930900Y-117171980D01*
X309909896Y-117052865D01*
X309817424Y-116946352D01*
X309735454Y-116899396D01*
X309582015Y-116865043D01*
X309285637Y-116855893D01*
X309132198Y-116821539D01*
X309050227Y-116774584D01*
X308957755Y-116668071D01*
X308936752Y-116548956D01*
X308987218Y-116417239D01*
X309048185Y-116345080D01*
X309180622Y-116260319D01*
X309537966Y-116197309D01*
X309762874Y-116219061D01*
X310252655Y-116071290D02*
X310830533Y-117258987D01*
X310958885Y-116315218D01*
X311402284Y-117158171D01*
X311539095Y-115844456D01*
X312827578Y-116047126D02*
X312974600Y-116880930D01*
X312386221Y-115633676D02*
X312186400Y-116590047D01*
X313115496Y-116426222D01*
X314183445Y-115378186D02*
X313897569Y-115428593D01*
X313765133Y-115513355D01*
X313704166Y-115585514D01*
X313592733Y-115789390D01*
X313563270Y-116040222D01*
X313647283Y-116516681D01*
X313739755Y-116623194D01*
X313821725Y-116670149D01*
X313975165Y-116704503D01*
X314261040Y-116654096D01*
X314393477Y-116569334D01*
X314454444Y-116497175D01*
X314504910Y-116365458D01*
X314452402Y-116067671D01*
X314359930Y-115961158D01*
X314277959Y-115914203D01*
X314124520Y-115879849D01*
X313838644Y-115930257D01*
X313706208Y-116015018D01*
X313645241Y-116087177D01*
X313594775Y-116218894D01*
G04 #@! TO.C,SW47*
X312404778Y-136271875D02*
X312629686Y-136293626D01*
X312987030Y-136230617D01*
X313119467Y-136145856D01*
X313180434Y-136073696D01*
X313230900Y-135941980D01*
X313209896Y-135822865D01*
X313117424Y-135716352D01*
X313035454Y-135669396D01*
X312882015Y-135635043D01*
X312585637Y-135625893D01*
X312432198Y-135591539D01*
X312350227Y-135544584D01*
X312257755Y-135438071D01*
X312236752Y-135318956D01*
X312287218Y-135187239D01*
X312348185Y-135115080D01*
X312480622Y-135030319D01*
X312837966Y-134967309D01*
X313062874Y-134989061D01*
X313552655Y-134841290D02*
X314130533Y-136028987D01*
X314258885Y-135085218D01*
X314702284Y-135928171D01*
X314839095Y-134614456D01*
X316127578Y-134817126D02*
X316274600Y-135650930D01*
X315686221Y-134403676D02*
X315486400Y-135360047D01*
X316415496Y-135196222D01*
X316697287Y-134286807D02*
X317697852Y-134110380D01*
X317275165Y-135474503D01*
G04 #@! TO.C,SW48*
X315724778Y-155031875D02*
X315949686Y-155053626D01*
X316307030Y-154990617D01*
X316439467Y-154905856D01*
X316500434Y-154833696D01*
X316550900Y-154701980D01*
X316529896Y-154582865D01*
X316437424Y-154476352D01*
X316355454Y-154429396D01*
X316202015Y-154395043D01*
X315905637Y-154385893D01*
X315752198Y-154351539D01*
X315670227Y-154304584D01*
X315577755Y-154198071D01*
X315556752Y-154078956D01*
X315607218Y-153947239D01*
X315668185Y-153875080D01*
X315800622Y-153790319D01*
X316157966Y-153727309D01*
X316382874Y-153749061D01*
X316872655Y-153601290D02*
X317450533Y-154788987D01*
X317578885Y-153845218D01*
X318022284Y-154688171D01*
X318159095Y-153374456D01*
X319447578Y-153577126D02*
X319594600Y-154410930D01*
X319006221Y-153163676D02*
X318806400Y-154120047D01*
X319735496Y-153956222D01*
X320469146Y-153519814D02*
X320315706Y-153485460D01*
X320233736Y-153438505D01*
X320141264Y-153331992D01*
X320130762Y-153272435D01*
X320181228Y-153140718D01*
X320242195Y-153068558D01*
X320374631Y-152983797D01*
X320660507Y-152933390D01*
X320813947Y-152967743D01*
X320895917Y-153014699D01*
X320988389Y-153121212D01*
X320998891Y-153180769D01*
X320948425Y-153312486D01*
X320887458Y-153384645D01*
X320755021Y-153469406D01*
X320469146Y-153519814D01*
X320336709Y-153604575D01*
X320275742Y-153676735D01*
X320225276Y-153808451D01*
X320267283Y-154046681D01*
X320359755Y-154153194D01*
X320441725Y-154200149D01*
X320595165Y-154234503D01*
X320881040Y-154184096D01*
X321013477Y-154099334D01*
X321074444Y-154027175D01*
X321124910Y-153895458D01*
X321082903Y-153657229D01*
X320990431Y-153550716D01*
X320908461Y-153503760D01*
X320755021Y-153469406D01*
G04 #@! TO.C,SW49*
X319034778Y-173801875D02*
X319259686Y-173823626D01*
X319617030Y-173760617D01*
X319749467Y-173675856D01*
X319810434Y-173603696D01*
X319860900Y-173471980D01*
X319839896Y-173352865D01*
X319747424Y-173246352D01*
X319665454Y-173199396D01*
X319512015Y-173165043D01*
X319215637Y-173155893D01*
X319062198Y-173121539D01*
X318980227Y-173074584D01*
X318887755Y-172968071D01*
X318866752Y-172848956D01*
X318917218Y-172717239D01*
X318978185Y-172645080D01*
X319110622Y-172560319D01*
X319467966Y-172497309D01*
X319692874Y-172519061D01*
X320182655Y-172371290D02*
X320760533Y-173558987D01*
X320888885Y-172615218D01*
X321332284Y-173458171D01*
X321469095Y-172144456D01*
X322757578Y-172347126D02*
X322904600Y-173180930D01*
X322316221Y-171933676D02*
X322116400Y-172890047D01*
X323045496Y-172726222D01*
X323762227Y-173029707D02*
X324048102Y-172979299D01*
X324180539Y-172894538D01*
X324241506Y-172822379D01*
X324352939Y-172618503D01*
X324382402Y-172367671D01*
X324298389Y-171891212D01*
X324205917Y-171784699D01*
X324123947Y-171737743D01*
X323970507Y-171703390D01*
X323684631Y-171753797D01*
X323552195Y-171838558D01*
X323491228Y-171910718D01*
X323440762Y-172042435D01*
X323493270Y-172340222D01*
X323585742Y-172446735D01*
X323667713Y-172493690D01*
X323821152Y-172528044D01*
X324107028Y-172477636D01*
X324239464Y-172392875D01*
X324300431Y-172320716D01*
X324350897Y-172188999D01*
G04 #@! TO.C,SW50*
X331174778Y-132961875D02*
X331399686Y-132983626D01*
X331757030Y-132920617D01*
X331889467Y-132835856D01*
X331950434Y-132763696D01*
X332000900Y-132631980D01*
X331979896Y-132512865D01*
X331887424Y-132406352D01*
X331805454Y-132359396D01*
X331652015Y-132325043D01*
X331355637Y-132315893D01*
X331202198Y-132281539D01*
X331120227Y-132234584D01*
X331027755Y-132128071D01*
X331006752Y-132008956D01*
X331057218Y-131877239D01*
X331118185Y-131805080D01*
X331250622Y-131720319D01*
X331607966Y-131657309D01*
X331832874Y-131679061D01*
X332322655Y-131531290D02*
X332900533Y-132718987D01*
X333028885Y-131775218D01*
X333472284Y-132618171D01*
X333609095Y-131304456D01*
X334895536Y-131077622D02*
X334180847Y-131203641D01*
X334214394Y-131811817D01*
X334275361Y-131739658D01*
X334407797Y-131654896D01*
X334765142Y-131591887D01*
X334918581Y-131626241D01*
X335000552Y-131673196D01*
X335093024Y-131779709D01*
X335145531Y-132077496D01*
X335095066Y-132209213D01*
X335034098Y-132281372D01*
X334901662Y-132366133D01*
X334544318Y-132429143D01*
X334390878Y-132394789D01*
X334308908Y-132347834D01*
X335896100Y-130901195D02*
X336039038Y-130875992D01*
X336192478Y-130910345D01*
X336274448Y-130957301D01*
X336366920Y-131063814D01*
X336480395Y-131289441D01*
X336532903Y-131587229D01*
X336503441Y-131838060D01*
X336452975Y-131969777D01*
X336392008Y-132041936D01*
X336259571Y-132126697D01*
X336116634Y-132151901D01*
X335963194Y-132117548D01*
X335881224Y-132070592D01*
X335788752Y-131964079D01*
X335675276Y-131738451D01*
X335622769Y-131440664D01*
X335652231Y-131189833D01*
X335702697Y-131058116D01*
X335763664Y-130985957D01*
X335896100Y-130901195D01*
G04 #@! TO.C,SW51*
X334474778Y-151721875D02*
X334699686Y-151743626D01*
X335057030Y-151680617D01*
X335189467Y-151595856D01*
X335250434Y-151523696D01*
X335300900Y-151391980D01*
X335279896Y-151272865D01*
X335187424Y-151166352D01*
X335105454Y-151119396D01*
X334952015Y-151085043D01*
X334655637Y-151075893D01*
X334502198Y-151041539D01*
X334420227Y-150994584D01*
X334327755Y-150888071D01*
X334306752Y-150768956D01*
X334357218Y-150637239D01*
X334418185Y-150565080D01*
X334550622Y-150480319D01*
X334907966Y-150417309D01*
X335132874Y-150439061D01*
X335622655Y-150291290D02*
X336200533Y-151478987D01*
X336328885Y-150535218D01*
X336772284Y-151378171D01*
X336909095Y-150064456D01*
X338195536Y-149837622D02*
X337480847Y-149963641D01*
X337514394Y-150571817D01*
X337575361Y-150499658D01*
X337707797Y-150414896D01*
X338065142Y-150351887D01*
X338218581Y-150386241D01*
X338300552Y-150433196D01*
X338393024Y-150539709D01*
X338445531Y-150837496D01*
X338395066Y-150969213D01*
X338334098Y-151041372D01*
X338201662Y-151126133D01*
X337844318Y-151189143D01*
X337690878Y-151154789D01*
X337608908Y-151107834D01*
X339916916Y-150823688D02*
X339059289Y-150974911D01*
X339488102Y-150899299D02*
X339267569Y-149648593D01*
X339156136Y-149852470D01*
X339034202Y-149996788D01*
X338901765Y-150081549D01*
G04 #@! TO.C,SW52*
X337784778Y-170481875D02*
X338009686Y-170503626D01*
X338367030Y-170440617D01*
X338499467Y-170355856D01*
X338560434Y-170283696D01*
X338610900Y-170151980D01*
X338589896Y-170032865D01*
X338497424Y-169926352D01*
X338415454Y-169879396D01*
X338262015Y-169845043D01*
X337965637Y-169835893D01*
X337812198Y-169801539D01*
X337730227Y-169754584D01*
X337637755Y-169648071D01*
X337616752Y-169528956D01*
X337667218Y-169397239D01*
X337728185Y-169325080D01*
X337860622Y-169240319D01*
X338217966Y-169177309D01*
X338442874Y-169199061D01*
X338932655Y-169051290D02*
X339510533Y-170238987D01*
X339638885Y-169295218D01*
X340082284Y-170138171D01*
X340219095Y-168824456D01*
X341505536Y-168597622D02*
X340790847Y-168723641D01*
X340824394Y-169331817D01*
X340885361Y-169259658D01*
X341017797Y-169174896D01*
X341375142Y-169111887D01*
X341528581Y-169146241D01*
X341610552Y-169193196D01*
X341703024Y-169299709D01*
X341755531Y-169597496D01*
X341705066Y-169729213D01*
X341644098Y-169801372D01*
X341511662Y-169886133D01*
X341154318Y-169949143D01*
X341000878Y-169914789D01*
X340918908Y-169867834D01*
X342169759Y-168603320D02*
X342230726Y-168531160D01*
X342363163Y-168446399D01*
X342720507Y-168383390D01*
X342873947Y-168417743D01*
X342955917Y-168464699D01*
X343048389Y-168571212D01*
X343069392Y-168690327D01*
X343029428Y-168881601D01*
X342297820Y-169747513D01*
X343226916Y-169583688D01*
G04 #@! TO.C,SW3*
X88058274Y-169660149D02*
X88262179Y-169757513D01*
X88619523Y-169820522D01*
X88772963Y-169786168D01*
X88854933Y-169739213D01*
X88947405Y-169632700D01*
X88968408Y-169513585D01*
X88917943Y-169381868D01*
X88856975Y-169309709D01*
X88724539Y-169224948D01*
X88449165Y-169114983D01*
X88316729Y-169030222D01*
X88255762Y-168958062D01*
X88205296Y-168826346D01*
X88226299Y-168707231D01*
X88318771Y-168600718D01*
X88400742Y-168553762D01*
X88554181Y-168519409D01*
X88911525Y-168582418D01*
X89115431Y-168679781D01*
X89626215Y-168708437D02*
X89763026Y-170022152D01*
X90206425Y-169179199D01*
X90334777Y-170122968D01*
X90912655Y-168935271D01*
X91341468Y-169010883D02*
X92270564Y-169174707D01*
X91686269Y-169562953D01*
X91900676Y-169600759D01*
X92033112Y-169685520D01*
X92094079Y-169757680D01*
X92144545Y-169889396D01*
X92092037Y-170187183D01*
X91999565Y-170293696D01*
X91917595Y-170340652D01*
X91764155Y-170375006D01*
X91335342Y-170299394D01*
X91202906Y-170214633D01*
X91141938Y-170142474D01*
G04 #@! TO.C,SW2*
X91368274Y-150890149D02*
X91572179Y-150987513D01*
X91929523Y-151050522D01*
X92082963Y-151016168D01*
X92164933Y-150969213D01*
X92257405Y-150862700D01*
X92278408Y-150743585D01*
X92227943Y-150611868D01*
X92166975Y-150539709D01*
X92034539Y-150454948D01*
X91759165Y-150344983D01*
X91626729Y-150260222D01*
X91565762Y-150188062D01*
X91515296Y-150056346D01*
X91536299Y-149937231D01*
X91628771Y-149830718D01*
X91710742Y-149783762D01*
X91864181Y-149749409D01*
X92221525Y-149812418D01*
X92425431Y-149909781D01*
X92936215Y-149938437D02*
X93073026Y-151252152D01*
X93516425Y-150409199D01*
X93644777Y-151352968D01*
X94222655Y-150165271D01*
X94701934Y-150372599D02*
X94783904Y-150325644D01*
X94937344Y-150291290D01*
X95294688Y-150354300D01*
X95427125Y-150439061D01*
X95488092Y-150511220D01*
X95538558Y-150642937D01*
X95517555Y-150762052D01*
X95414581Y-150928122D01*
X94430935Y-151491588D01*
X95360031Y-151655413D01*
G04 #@! TO.C,SW53*
D12*
X213837619Y-186862380D02*
X213504285Y-186386190D01*
X213266190Y-186862380D02*
X213266190Y-185862380D01*
X213647142Y-185862380D01*
X213742380Y-185910000D01*
X213790000Y-185957619D01*
X213837619Y-186052857D01*
X213837619Y-186195714D01*
X213790000Y-186290952D01*
X213742380Y-186338571D01*
X213647142Y-186386190D01*
X213266190Y-186386190D01*
X214266190Y-186338571D02*
X214599523Y-186338571D01*
X214742380Y-186862380D02*
X214266190Y-186862380D01*
X214266190Y-185862380D01*
X214742380Y-185862380D01*
X215123333Y-186814761D02*
X215266190Y-186862380D01*
X215504285Y-186862380D01*
X215599523Y-186814761D01*
X215647142Y-186767142D01*
X215694761Y-186671904D01*
X215694761Y-186576666D01*
X215647142Y-186481428D01*
X215599523Y-186433809D01*
X215504285Y-186386190D01*
X215313809Y-186338571D01*
X215218571Y-186290952D01*
X215170952Y-186243333D01*
X215123333Y-186148095D01*
X215123333Y-186052857D01*
X215170952Y-185957619D01*
X215218571Y-185910000D01*
X215313809Y-185862380D01*
X215551904Y-185862380D01*
X215694761Y-185910000D01*
X216123333Y-186338571D02*
X216456666Y-186338571D01*
X216599523Y-186862380D02*
X216123333Y-186862380D01*
X216123333Y-185862380D01*
X216599523Y-185862380D01*
X216885238Y-185862380D02*
X217456666Y-185862380D01*
X217170952Y-186862380D02*
X217170952Y-185862380D01*
G04 #@! TO.C,U1*
X210850628Y-149338180D02*
X210850628Y-148338180D01*
X211088723Y-148338180D01*
X211231580Y-148385800D01*
X211326819Y-148481038D01*
X211374438Y-148576276D01*
X211422057Y-148766752D01*
X211422057Y-148909609D01*
X211374438Y-149100085D01*
X211326819Y-149195323D01*
X211231580Y-149290561D01*
X211088723Y-149338180D01*
X210850628Y-149338180D01*
X212041104Y-148338180D02*
X212231580Y-148338180D01*
X212326819Y-148385800D01*
X212422057Y-148481038D01*
X212469676Y-148671514D01*
X212469676Y-149004847D01*
X212422057Y-149195323D01*
X212326819Y-149290561D01*
X212231580Y-149338180D01*
X212041104Y-149338180D01*
X211945866Y-149290561D01*
X211850628Y-149195323D01*
X211803009Y-149004847D01*
X211803009Y-148671514D01*
X211850628Y-148481038D01*
X211945866Y-148385800D01*
X212041104Y-148338180D01*
X213660152Y-149338180D02*
X213660152Y-148338180D01*
X214231580Y-149338180D01*
X214231580Y-148338180D01*
X214898247Y-148338180D02*
X215088723Y-148338180D01*
X215183961Y-148385800D01*
X215279200Y-148481038D01*
X215326819Y-148671514D01*
X215326819Y-149004847D01*
X215279200Y-149195323D01*
X215183961Y-149290561D01*
X215088723Y-149338180D01*
X214898247Y-149338180D01*
X214803009Y-149290561D01*
X214707771Y-149195323D01*
X214660152Y-149004847D01*
X214660152Y-148671514D01*
X214707771Y-148481038D01*
X214803009Y-148385800D01*
X214898247Y-148338180D01*
X215612533Y-148338180D02*
X216183961Y-148338180D01*
X215898247Y-149338180D02*
X215898247Y-148338180D01*
X217279200Y-148338180D02*
X217279200Y-149147704D01*
X217326819Y-149242942D01*
X217374438Y-149290561D01*
X217469676Y-149338180D01*
X217660152Y-149338180D01*
X217755390Y-149290561D01*
X217803009Y-149242942D01*
X217850628Y-149147704D01*
X217850628Y-148338180D01*
X218279200Y-149290561D02*
X218422057Y-149338180D01*
X218660152Y-149338180D01*
X218755390Y-149290561D01*
X218803009Y-149242942D01*
X218850628Y-149147704D01*
X218850628Y-149052466D01*
X218803009Y-148957228D01*
X218755390Y-148909609D01*
X218660152Y-148861990D01*
X218469676Y-148814371D01*
X218374438Y-148766752D01*
X218326819Y-148719133D01*
X218279200Y-148623895D01*
X218279200Y-148528657D01*
X218326819Y-148433419D01*
X218374438Y-148385800D01*
X218469676Y-148338180D01*
X218707771Y-148338180D01*
X218850628Y-148385800D01*
X219279200Y-148814371D02*
X219612533Y-148814371D01*
X219755390Y-149338180D02*
X219279200Y-149338180D01*
X219279200Y-148338180D01*
X219755390Y-148338180D01*
X211707771Y-152859380D02*
X212279200Y-152859380D01*
X211993485Y-153859380D02*
X211993485Y-152859380D01*
X212612533Y-153859380D02*
X212612533Y-152859380D01*
X212612533Y-153335571D02*
X213183961Y-153335571D01*
X213183961Y-153859380D02*
X213183961Y-152859380D01*
X213660152Y-153859380D02*
X213660152Y-152859380D01*
X214088723Y-153811761D02*
X214231580Y-153859380D01*
X214469676Y-153859380D01*
X214564914Y-153811761D01*
X214612533Y-153764142D01*
X214660152Y-153668904D01*
X214660152Y-153573666D01*
X214612533Y-153478428D01*
X214564914Y-153430809D01*
X214469676Y-153383190D01*
X214279200Y-153335571D01*
X214183961Y-153287952D01*
X214136342Y-153240333D01*
X214088723Y-153145095D01*
X214088723Y-153049857D01*
X214136342Y-152954619D01*
X214183961Y-152907000D01*
X214279200Y-152859380D01*
X214517295Y-152859380D01*
X214660152Y-152907000D01*
X215803009Y-153811761D02*
X215945866Y-153859380D01*
X216183961Y-153859380D01*
X216279200Y-153811761D01*
X216326819Y-153764142D01*
X216374438Y-153668904D01*
X216374438Y-153573666D01*
X216326819Y-153478428D01*
X216279200Y-153430809D01*
X216183961Y-153383190D01*
X215993485Y-153335571D01*
X215898247Y-153287952D01*
X215850628Y-153240333D01*
X215803009Y-153145095D01*
X215803009Y-153049857D01*
X215850628Y-152954619D01*
X215898247Y-152907000D01*
X215993485Y-152859380D01*
X216231580Y-152859380D01*
X216374438Y-152907000D01*
X216803009Y-153859380D02*
X216803009Y-152859380D01*
X217279200Y-153859380D02*
X217279200Y-152859380D01*
X217517295Y-152859380D01*
X217660152Y-152907000D01*
X217755390Y-153002238D01*
X217803009Y-153097476D01*
X217850628Y-153287952D01*
X217850628Y-153430809D01*
X217803009Y-153621285D01*
X217755390Y-153716523D01*
X217660152Y-153811761D01*
X217517295Y-153859380D01*
X217279200Y-153859380D01*
X218279200Y-153335571D02*
X218612533Y-153335571D01*
X218755390Y-153859380D02*
X218279200Y-153859380D01*
X218279200Y-152859380D01*
X218755390Y-152859380D01*
G04 #@! TD*
M02*
