G04 #@! TF.GenerationSoftware,KiCad,Pcbnew,(5.0.2)-1*
G04 #@! TF.CreationDate,2019-02-25T13:46:33+08:00*
G04 #@! TF.ProjectId,Kisaragi,4b697361-7261-4676-992e-6b696361645f,rev?*
G04 #@! TF.SameCoordinates,Original*
G04 #@! TF.FileFunction,Soldermask,Bot*
G04 #@! TF.FilePolarity,Negative*
%FSLAX46Y46*%
G04 Gerber Fmt 4.6, Leading zero omitted, Abs format (unit mm)*
G04 Created by KiCad (PCBNEW (5.0.2)-1) date 25/02/2019 13:46:33*
%MOMM*%
%LPD*%
G01*
G04 APERTURE LIST*
%ADD10C,0.100000*%
G04 APERTURE END LIST*
D10*
G36*
X196993934Y-230083945D02*
X196993934Y-230083946D01*
X196548624Y-231307424D01*
X196548624Y-231307425D01*
X195607052Y-230964721D01*
X196052362Y-229741241D01*
X196993934Y-230083945D01*
X196993934Y-230083945D01*
G37*
G36*
X193892948Y-228955279D02*
X193892948Y-228955280D01*
X193447638Y-230178758D01*
X193447638Y-230178759D01*
X192506066Y-229836055D01*
X192951376Y-228612575D01*
X193892948Y-228955279D01*
X193892948Y-228955279D01*
G37*
G36*
X247992948Y-226234721D02*
X247051376Y-226577425D01*
X246606066Y-225353945D01*
X247547638Y-225011241D01*
X247992948Y-226234721D01*
X247992948Y-226234721D01*
G37*
G36*
X251093934Y-225106055D02*
X250152362Y-225448759D01*
X249929707Y-224837019D01*
X249707052Y-224225280D01*
X249707052Y-224225279D01*
X250648624Y-223882575D01*
X251093934Y-225106055D01*
X251093934Y-225106055D01*
G37*
G36*
X277752891Y-224010885D02*
X276151593Y-224293237D01*
X275869241Y-222691939D01*
X277470539Y-222409587D01*
X277752891Y-224010885D01*
X277752891Y-224010885D01*
G37*
G36*
X156060759Y-222481939D02*
X155778407Y-224083237D01*
X154177109Y-223800885D01*
X154459461Y-222199587D01*
X156060759Y-222481939D01*
X156060759Y-222481939D01*
G37*
G36*
X277311825Y-221509473D02*
X275710527Y-221791825D01*
X275428175Y-220190527D01*
X277029473Y-219908175D01*
X277311825Y-221509473D01*
X277311825Y-221509473D01*
G37*
G36*
X156501825Y-219980527D02*
X156219473Y-221581825D01*
X154618175Y-221299473D01*
X154900527Y-219698175D01*
X156501825Y-219980527D01*
X156501825Y-219980527D01*
G37*
G36*
X235449317Y-217718162D02*
X235666612Y-217808168D01*
X235862171Y-217938837D01*
X236028480Y-218105146D01*
X236159149Y-218300705D01*
X236249155Y-218518000D01*
X236295040Y-218748678D01*
X236295040Y-218983876D01*
X236249155Y-219214554D01*
X236159149Y-219431849D01*
X236028480Y-219627408D01*
X235862171Y-219793717D01*
X235666612Y-219924386D01*
X235449317Y-220014392D01*
X235218639Y-220060277D01*
X234983441Y-220060277D01*
X234752763Y-220014392D01*
X234535468Y-219924386D01*
X234339909Y-219793717D01*
X234173600Y-219627408D01*
X234042931Y-219431849D01*
X233952925Y-219214554D01*
X233907040Y-218983876D01*
X233907040Y-218748678D01*
X233952925Y-218518000D01*
X234042931Y-218300705D01*
X234173600Y-218105146D01*
X234339909Y-217938837D01*
X234535468Y-217808168D01*
X234752763Y-217718162D01*
X234983441Y-217672277D01*
X235218639Y-217672277D01*
X235449317Y-217718162D01*
X235449317Y-217718162D01*
G37*
G36*
X276870759Y-219008061D02*
X275269461Y-219290413D01*
X274987109Y-217689115D01*
X276588407Y-217406763D01*
X276870759Y-219008061D01*
X276870759Y-219008061D01*
G37*
G36*
X156942891Y-217479115D02*
X156660539Y-219080413D01*
X155059241Y-218798061D01*
X155341593Y-217196763D01*
X156942891Y-217479115D01*
X156942891Y-217479115D01*
G37*
G36*
X188656779Y-215111969D02*
X188874074Y-215201975D01*
X189069633Y-215332644D01*
X189235942Y-215498953D01*
X189366611Y-215694512D01*
X189456617Y-215911807D01*
X189502502Y-216142485D01*
X189502502Y-216377683D01*
X189456617Y-216608361D01*
X189366611Y-216825656D01*
X189235942Y-217021215D01*
X189069633Y-217187524D01*
X188874074Y-217318193D01*
X188660246Y-217406763D01*
X188656779Y-217408199D01*
X188426101Y-217454084D01*
X188190903Y-217454084D01*
X187960225Y-217408199D01*
X187956758Y-217406763D01*
X187742930Y-217318193D01*
X187547371Y-217187524D01*
X187381062Y-217021215D01*
X187250393Y-216825656D01*
X187160387Y-216608361D01*
X187114502Y-216377683D01*
X187114502Y-216142485D01*
X187160387Y-215911807D01*
X187250393Y-215694512D01*
X187381062Y-215498953D01*
X187547371Y-215332644D01*
X187742930Y-215201975D01*
X187960225Y-215111969D01*
X188190903Y-215066084D01*
X188426101Y-215066084D01*
X188656779Y-215111969D01*
X188656779Y-215111969D01*
G37*
G36*
X195492560Y-214896978D02*
X195709855Y-214986984D01*
X195905414Y-215117653D01*
X196071723Y-215283962D01*
X196202392Y-215479521D01*
X196292398Y-215696816D01*
X196338283Y-215927494D01*
X196338283Y-216162692D01*
X196292398Y-216393370D01*
X196202392Y-216610665D01*
X196071723Y-216806224D01*
X195905414Y-216972533D01*
X195709855Y-217103202D01*
X195506282Y-217187524D01*
X195492560Y-217193208D01*
X195261882Y-217239093D01*
X195026684Y-217239093D01*
X194796006Y-217193208D01*
X194782284Y-217187524D01*
X194578711Y-217103202D01*
X194383152Y-216972533D01*
X194216843Y-216806224D01*
X194086174Y-216610665D01*
X193996168Y-216393370D01*
X193950283Y-216162692D01*
X193950283Y-215927494D01*
X193996168Y-215696816D01*
X194086174Y-215479521D01*
X194216843Y-215283962D01*
X194383152Y-215117653D01*
X194578711Y-214986984D01*
X194796006Y-214896978D01*
X195026684Y-214851093D01*
X195261882Y-214851093D01*
X195492560Y-214896978D01*
X195492560Y-214896978D01*
G37*
G36*
X179656198Y-215767901D02*
X179319216Y-217025536D01*
X178351358Y-216766199D01*
X178688340Y-215508564D01*
X179656198Y-215767901D01*
X179656198Y-215767901D01*
G37*
G36*
X176468642Y-214913801D02*
X176131660Y-216171436D01*
X175163802Y-215912099D01*
X175500784Y-214654464D01*
X176468642Y-214913801D01*
X176468642Y-214913801D01*
G37*
G36*
X240547634Y-213159515D02*
X240764929Y-213249521D01*
X240960488Y-213380190D01*
X241126797Y-213546499D01*
X241257466Y-213742058D01*
X241347472Y-213959353D01*
X241393357Y-214190031D01*
X241393357Y-214425229D01*
X241347472Y-214655907D01*
X241257466Y-214873202D01*
X241126797Y-215068761D01*
X240960488Y-215235070D01*
X240764929Y-215365739D01*
X240547634Y-215455745D01*
X240316956Y-215501630D01*
X240081758Y-215501630D01*
X239851080Y-215455745D01*
X239633785Y-215365739D01*
X239438226Y-215235070D01*
X239271917Y-215068761D01*
X239141248Y-214873202D01*
X239051242Y-214655907D01*
X239005357Y-214425229D01*
X239005357Y-214190031D01*
X239051242Y-213959353D01*
X239141248Y-213742058D01*
X239271917Y-213546499D01*
X239438226Y-213380190D01*
X239633785Y-213249521D01*
X239851080Y-213159515D01*
X240081758Y-213113630D01*
X240316956Y-213113630D01*
X240547634Y-213159515D01*
X240547634Y-213159515D01*
G37*
G36*
X265638642Y-213186199D02*
X264670784Y-213445536D01*
X264333802Y-212187901D01*
X265301660Y-211928564D01*
X265638642Y-213186199D01*
X265638642Y-213186199D01*
G37*
G36*
X268826198Y-212332099D02*
X267858340Y-212591436D01*
X267521358Y-211333801D01*
X268489216Y-211074464D01*
X268826198Y-212332099D01*
X268826198Y-212332099D01*
G37*
G36*
X160736300Y-205488926D02*
X160510210Y-206771146D01*
X159523432Y-206597150D01*
X159749522Y-205314930D01*
X160736300Y-205488926D01*
X160736300Y-205488926D01*
G37*
G36*
X157486434Y-204915888D02*
X157260344Y-206198108D01*
X156273566Y-206024112D01*
X156499656Y-204741892D01*
X157486434Y-204915888D01*
X157486434Y-204915888D01*
G37*
G36*
X253770699Y-203564534D02*
X253987994Y-203654540D01*
X254183553Y-203785209D01*
X254349862Y-203951518D01*
X254480531Y-204147077D01*
X254570537Y-204364372D01*
X254616422Y-204595050D01*
X254616422Y-204830248D01*
X254570537Y-205060926D01*
X254480531Y-205278221D01*
X254349862Y-205473780D01*
X254183553Y-205640089D01*
X253987994Y-205770758D01*
X253770699Y-205860764D01*
X253540021Y-205906649D01*
X253304823Y-205906649D01*
X253074145Y-205860764D01*
X252856850Y-205770758D01*
X252661291Y-205640089D01*
X252494982Y-205473780D01*
X252364313Y-205278221D01*
X252274307Y-205060926D01*
X252228422Y-204830248D01*
X252228422Y-204595050D01*
X252274307Y-204364372D01*
X252364313Y-204147077D01*
X252494982Y-203951518D01*
X252661291Y-203785209D01*
X252856850Y-203654540D01*
X253074145Y-203564534D01*
X253304823Y-203518649D01*
X253540021Y-203518649D01*
X253770699Y-203564534D01*
X253770699Y-203564534D01*
G37*
G36*
X284721501Y-204180631D02*
X283734723Y-204354627D01*
X283508633Y-203072407D01*
X284495411Y-202898411D01*
X284721501Y-204180631D01*
X284721501Y-204180631D01*
G37*
G36*
X170135500Y-201592333D02*
X170352795Y-201682339D01*
X170548354Y-201813008D01*
X170714663Y-201979317D01*
X170845332Y-202174876D01*
X170935338Y-202392171D01*
X170981223Y-202622849D01*
X170981223Y-202858047D01*
X170935338Y-203088725D01*
X170845332Y-203306020D01*
X170714663Y-203501579D01*
X170548354Y-203667888D01*
X170352795Y-203798557D01*
X170135500Y-203888563D01*
X169904822Y-203934448D01*
X169669624Y-203934448D01*
X169438946Y-203888563D01*
X169221651Y-203798557D01*
X169026092Y-203667888D01*
X168859783Y-203501579D01*
X168729114Y-203306020D01*
X168639108Y-203088725D01*
X168593223Y-202858047D01*
X168593223Y-202622849D01*
X168639108Y-202392171D01*
X168729114Y-202174876D01*
X168859783Y-201979317D01*
X169026092Y-201813008D01*
X169221651Y-201682339D01*
X169438946Y-201592333D01*
X169669624Y-201546448D01*
X169904822Y-201546448D01*
X170135500Y-201592333D01*
X170135500Y-201592333D01*
G37*
G36*
X287971367Y-203607593D02*
X286984589Y-203781589D01*
X286758499Y-202499369D01*
X287745277Y-202325373D01*
X287971367Y-203607593D01*
X287971367Y-203607593D01*
G37*
G36*
X176926529Y-200782382D02*
X177143824Y-200872388D01*
X177339383Y-201003057D01*
X177505692Y-201169366D01*
X177636361Y-201364925D01*
X177726367Y-201582220D01*
X177772252Y-201812898D01*
X177772252Y-202048096D01*
X177726367Y-202278774D01*
X177636361Y-202496069D01*
X177505692Y-202691628D01*
X177339383Y-202857937D01*
X177143824Y-202988606D01*
X176926529Y-203078612D01*
X176695851Y-203124497D01*
X176460653Y-203124497D01*
X176229975Y-203078612D01*
X176012680Y-202988606D01*
X175817121Y-202857937D01*
X175650812Y-202691628D01*
X175520143Y-202496069D01*
X175430137Y-202278774D01*
X175384252Y-202048096D01*
X175384252Y-201812898D01*
X175430137Y-201582220D01*
X175520143Y-201364925D01*
X175650812Y-201169366D01*
X175817121Y-201003057D01*
X176012680Y-200872388D01*
X176229975Y-200782382D01*
X176460653Y-200736497D01*
X176695851Y-200736497D01*
X176926529Y-200782382D01*
X176926529Y-200782382D01*
G37*
G36*
X259246928Y-199467581D02*
X259464223Y-199557587D01*
X259659782Y-199688256D01*
X259826091Y-199854565D01*
X259956760Y-200050124D01*
X260046766Y-200267419D01*
X260092651Y-200498097D01*
X260092651Y-200733295D01*
X260046766Y-200963973D01*
X259956760Y-201181268D01*
X259826091Y-201376827D01*
X259659782Y-201543136D01*
X259464223Y-201673805D01*
X259246928Y-201763811D01*
X259016250Y-201809696D01*
X258781052Y-201809696D01*
X258550374Y-201763811D01*
X258333079Y-201673805D01*
X258137520Y-201543136D01*
X257971211Y-201376827D01*
X257840542Y-201181268D01*
X257750536Y-200963973D01*
X257704651Y-200733295D01*
X257704651Y-200498097D01*
X257750536Y-200267419D01*
X257840542Y-200050124D01*
X257971211Y-199854565D01*
X258137520Y-199688256D01*
X258333079Y-199557587D01*
X258550374Y-199467581D01*
X258781052Y-199421696D01*
X259016250Y-199421696D01*
X259246928Y-199467581D01*
X259246928Y-199467581D01*
G37*
G36*
X273635093Y-193532073D02*
X273852388Y-193622079D01*
X274047947Y-193752748D01*
X274214256Y-193919057D01*
X274344925Y-194114616D01*
X274434931Y-194331911D01*
X274480816Y-194562589D01*
X274480816Y-194797787D01*
X274434931Y-195028465D01*
X274344925Y-195245760D01*
X274214256Y-195441319D01*
X274047947Y-195607628D01*
X273852388Y-195738297D01*
X273635093Y-195828303D01*
X273404415Y-195874188D01*
X273169217Y-195874188D01*
X272938539Y-195828303D01*
X272721244Y-195738297D01*
X272525685Y-195607628D01*
X272359376Y-195441319D01*
X272228707Y-195245760D01*
X272138701Y-195028465D01*
X272092816Y-194797787D01*
X272092816Y-194562589D01*
X272138701Y-194331911D01*
X272228707Y-194114616D01*
X272359376Y-193919057D01*
X272525685Y-193752748D01*
X272721244Y-193622079D01*
X272938539Y-193532073D01*
X273169217Y-193486188D01*
X273404415Y-193486188D01*
X273635093Y-193532073D01*
X273635093Y-193532073D01*
G37*
G36*
X191811367Y-193922407D02*
X191585277Y-195204627D01*
X190598499Y-195030631D01*
X190824589Y-193748411D01*
X191811367Y-193922407D01*
X191811367Y-193922407D01*
G37*
G36*
X188561501Y-193349369D02*
X188335411Y-194631589D01*
X187348633Y-194457593D01*
X187574723Y-193175373D01*
X188561501Y-193349369D01*
X188561501Y-193349369D01*
G37*
G36*
X150127226Y-192208874D02*
X150344521Y-192298880D01*
X150540080Y-192429549D01*
X150706389Y-192595858D01*
X150837058Y-192791417D01*
X150927064Y-193008712D01*
X150972949Y-193239390D01*
X150972949Y-193474588D01*
X150927064Y-193705266D01*
X150837058Y-193922561D01*
X150706389Y-194118120D01*
X150540080Y-194284429D01*
X150344521Y-194415098D01*
X150241928Y-194457593D01*
X150127226Y-194505104D01*
X149896548Y-194550989D01*
X149661350Y-194550989D01*
X149430672Y-194505104D01*
X149315970Y-194457593D01*
X149213377Y-194415098D01*
X149017818Y-194284429D01*
X148851509Y-194118120D01*
X148720840Y-193922561D01*
X148630834Y-193705266D01*
X148584949Y-193474588D01*
X148584949Y-193239390D01*
X148630834Y-193008712D01*
X148720840Y-192791417D01*
X148851509Y-192595858D01*
X149017818Y-192429549D01*
X149213377Y-192298880D01*
X149430672Y-192208874D01*
X149661350Y-192162989D01*
X149896548Y-192162989D01*
X150127226Y-192208874D01*
X150127226Y-192208874D01*
G37*
G36*
X156821821Y-190810128D02*
X157039116Y-190900134D01*
X157234675Y-191030803D01*
X157400984Y-191197112D01*
X157531653Y-191392671D01*
X157621659Y-191609966D01*
X157667544Y-191840644D01*
X157667544Y-192075842D01*
X157621659Y-192306520D01*
X157531653Y-192523815D01*
X157400984Y-192719374D01*
X157234675Y-192885683D01*
X157039116Y-193016352D01*
X156821821Y-193106358D01*
X156591143Y-193152243D01*
X156355945Y-193152243D01*
X156125267Y-193106358D01*
X155907972Y-193016352D01*
X155712413Y-192885683D01*
X155546104Y-192719374D01*
X155415435Y-192523815D01*
X155325429Y-192306520D01*
X155279544Y-192075842D01*
X155279544Y-191840644D01*
X155325429Y-191609966D01*
X155415435Y-191392671D01*
X155546104Y-191197112D01*
X155712413Y-191030803D01*
X155907972Y-190900134D01*
X156125267Y-190810128D01*
X156355945Y-190764243D01*
X156591143Y-190764243D01*
X156821821Y-190810128D01*
X156821821Y-190810128D01*
G37*
G36*
X253651501Y-192620631D02*
X252664723Y-192794627D01*
X252438633Y-191512407D01*
X253425411Y-191338411D01*
X253651501Y-192620631D01*
X253651501Y-192620631D01*
G37*
G36*
X279447556Y-189927995D02*
X279664851Y-190018001D01*
X279860410Y-190148670D01*
X280026719Y-190314979D01*
X280157388Y-190510538D01*
X280247394Y-190727833D01*
X280293279Y-190958511D01*
X280293279Y-191193709D01*
X280247394Y-191424387D01*
X280157388Y-191641682D01*
X280026719Y-191837241D01*
X279860410Y-192003550D01*
X279664851Y-192134219D01*
X279447556Y-192224225D01*
X279216878Y-192270110D01*
X278981680Y-192270110D01*
X278751002Y-192224225D01*
X278533707Y-192134219D01*
X278338148Y-192003550D01*
X278171839Y-191837241D01*
X278041170Y-191641682D01*
X277951164Y-191424387D01*
X277905279Y-191193709D01*
X277905279Y-190958511D01*
X277951164Y-190727833D01*
X278041170Y-190510538D01*
X278171839Y-190314979D01*
X278338148Y-190148670D01*
X278533707Y-190018001D01*
X278751002Y-189927995D01*
X278981680Y-189882110D01*
X279216878Y-189882110D01*
X279447556Y-189927995D01*
X279447556Y-189927995D01*
G37*
G36*
X256901367Y-192047593D02*
X255914589Y-192221589D01*
X255688499Y-190939369D01*
X256675277Y-190765373D01*
X256901367Y-192047593D01*
X256901367Y-192047593D01*
G37*
G36*
X218846565Y-185399389D02*
X219037834Y-185478615D01*
X219209976Y-185593637D01*
X219356363Y-185740024D01*
X219471385Y-185912166D01*
X219550611Y-186103435D01*
X219591000Y-186306484D01*
X219591000Y-186513516D01*
X219550611Y-186716565D01*
X219471385Y-186907834D01*
X219356363Y-187079976D01*
X219209976Y-187226363D01*
X219037834Y-187341385D01*
X218846565Y-187420611D01*
X218643516Y-187461000D01*
X218436484Y-187461000D01*
X218233435Y-187420611D01*
X218042166Y-187341385D01*
X217870024Y-187226363D01*
X217723637Y-187079976D01*
X217608615Y-186907834D01*
X217529389Y-186716565D01*
X217489000Y-186513516D01*
X217489000Y-186306484D01*
X217529389Y-186103435D01*
X217608615Y-185912166D01*
X217723637Y-185740024D01*
X217870024Y-185593637D01*
X218042166Y-185478615D01*
X218233435Y-185399389D01*
X218436484Y-185359000D01*
X218643516Y-185359000D01*
X218846565Y-185399389D01*
X218846565Y-185399389D01*
G37*
G36*
X212346565Y-185399389D02*
X212537834Y-185478615D01*
X212709976Y-185593637D01*
X212856363Y-185740024D01*
X212971385Y-185912166D01*
X213050611Y-186103435D01*
X213091000Y-186306484D01*
X213091000Y-186513516D01*
X213050611Y-186716565D01*
X212971385Y-186907834D01*
X212856363Y-187079976D01*
X212709976Y-187226363D01*
X212537834Y-187341385D01*
X212346565Y-187420611D01*
X212143516Y-187461000D01*
X211936484Y-187461000D01*
X211733435Y-187420611D01*
X211542166Y-187341385D01*
X211370024Y-187226363D01*
X211223637Y-187079976D01*
X211108615Y-186907834D01*
X211029389Y-186716565D01*
X210989000Y-186513516D01*
X210989000Y-186306484D01*
X211029389Y-186103435D01*
X211108615Y-185912166D01*
X211223637Y-185740024D01*
X211370024Y-185593637D01*
X211542166Y-185478615D01*
X211733435Y-185399389D01*
X211936484Y-185359000D01*
X212143516Y-185359000D01*
X212346565Y-185399389D01*
X212346565Y-185399389D01*
G37*
G36*
X174191367Y-184042407D02*
X173965277Y-185324627D01*
X172978499Y-185150631D01*
X173204589Y-183868411D01*
X174191367Y-184042407D01*
X174191367Y-184042407D01*
G37*
G36*
X170941501Y-183469369D02*
X170715411Y-184751589D01*
X169728633Y-184577593D01*
X169954723Y-183295373D01*
X170941501Y-183469369D01*
X170941501Y-183469369D01*
G37*
G36*
X242575093Y-181992073D02*
X242792388Y-182082079D01*
X242987947Y-182212748D01*
X243154256Y-182379057D01*
X243284925Y-182574616D01*
X243374931Y-182791911D01*
X243420816Y-183022589D01*
X243420816Y-183257787D01*
X243374931Y-183488465D01*
X243284925Y-183705760D01*
X243154256Y-183901319D01*
X242987947Y-184067628D01*
X242792388Y-184198297D01*
X242575093Y-184288303D01*
X242344415Y-184334188D01*
X242109217Y-184334188D01*
X241878539Y-184288303D01*
X241661244Y-184198297D01*
X241465685Y-184067628D01*
X241299376Y-183901319D01*
X241168707Y-183705760D01*
X241078701Y-183488465D01*
X241032816Y-183257787D01*
X241032816Y-183022589D01*
X241078701Y-182791911D01*
X241168707Y-182574616D01*
X241299376Y-182379057D01*
X241465685Y-182212748D01*
X241661244Y-182082079D01*
X241878539Y-181992073D01*
X242109217Y-181946188D01*
X242344415Y-181946188D01*
X242575093Y-181992073D01*
X242575093Y-181992073D01*
G37*
G36*
X181177226Y-180668874D02*
X181394521Y-180758880D01*
X181590080Y-180889549D01*
X181756389Y-181055858D01*
X181887058Y-181251417D01*
X181977064Y-181468712D01*
X182022949Y-181699390D01*
X182022949Y-181934588D01*
X181977064Y-182165266D01*
X181887058Y-182382561D01*
X181756389Y-182578120D01*
X181590080Y-182744429D01*
X181394521Y-182875098D01*
X181177226Y-182965104D01*
X180946548Y-183010989D01*
X180711350Y-183010989D01*
X180480672Y-182965104D01*
X180263377Y-182875098D01*
X180067818Y-182744429D01*
X179901509Y-182578120D01*
X179770840Y-182382561D01*
X179680834Y-182165266D01*
X179634949Y-181934588D01*
X179634949Y-181699390D01*
X179680834Y-181468712D01*
X179770840Y-181251417D01*
X179901509Y-181055858D01*
X180067818Y-180889549D01*
X180263377Y-180758880D01*
X180480672Y-180668874D01*
X180711350Y-180622989D01*
X180946548Y-180622989D01*
X181177226Y-180668874D01*
X181177226Y-180668874D01*
G37*
G36*
X271261501Y-182720631D02*
X270274723Y-182894627D01*
X270048633Y-181612407D01*
X271035411Y-181438411D01*
X271261501Y-182720631D01*
X271261501Y-182720631D01*
G37*
G36*
X274511367Y-182147593D02*
X273524589Y-182321589D01*
X273298499Y-181039369D01*
X274285277Y-180865373D01*
X274511367Y-182147593D01*
X274511367Y-182147593D01*
G37*
G36*
X187871821Y-179270128D02*
X188089116Y-179360134D01*
X188284675Y-179490803D01*
X188450984Y-179657112D01*
X188581653Y-179852671D01*
X188671659Y-180069966D01*
X188717544Y-180300644D01*
X188717544Y-180535842D01*
X188671659Y-180766520D01*
X188581653Y-180983815D01*
X188450984Y-181179374D01*
X188284675Y-181345683D01*
X188089116Y-181476352D01*
X187871821Y-181566358D01*
X187641143Y-181612243D01*
X187405945Y-181612243D01*
X187175267Y-181566358D01*
X186957972Y-181476352D01*
X186762413Y-181345683D01*
X186596104Y-181179374D01*
X186465435Y-180983815D01*
X186375429Y-180766520D01*
X186329544Y-180535842D01*
X186329544Y-180300644D01*
X186375429Y-180069966D01*
X186465435Y-179852671D01*
X186596104Y-179657112D01*
X186762413Y-179490803D01*
X186957972Y-179360134D01*
X187175267Y-179270128D01*
X187405945Y-179224243D01*
X187641143Y-179224243D01*
X187871821Y-179270128D01*
X187871821Y-179270128D01*
G37*
G36*
X248387556Y-178387995D02*
X248604851Y-178478001D01*
X248800410Y-178608670D01*
X248966719Y-178774979D01*
X249097388Y-178970538D01*
X249187394Y-179187833D01*
X249233279Y-179418511D01*
X249233279Y-179653709D01*
X249187394Y-179884387D01*
X249097388Y-180101682D01*
X248966719Y-180297241D01*
X248800410Y-180463550D01*
X248604851Y-180594219D01*
X248387556Y-180684225D01*
X248156878Y-180730110D01*
X247921680Y-180730110D01*
X247691002Y-180684225D01*
X247473707Y-180594219D01*
X247278148Y-180463550D01*
X247111839Y-180297241D01*
X246981170Y-180101682D01*
X246891164Y-179884387D01*
X246845279Y-179653709D01*
X246845279Y-179418511D01*
X246891164Y-179187833D01*
X246981170Y-178970538D01*
X247111839Y-178774979D01*
X247278148Y-178608670D01*
X247473707Y-178478001D01*
X247691002Y-178387995D01*
X247921680Y-178342110D01*
X248156878Y-178342110D01*
X248387556Y-178387995D01*
X248387556Y-178387995D01*
G37*
G36*
X117051367Y-178552407D02*
X116825277Y-179834627D01*
X115838499Y-179660631D01*
X116064589Y-178378411D01*
X117051367Y-178552407D01*
X117051367Y-178552407D01*
G37*
G36*
X113801501Y-177979369D02*
X113575411Y-179261589D01*
X112588633Y-179087593D01*
X112814723Y-177805373D01*
X113801501Y-177979369D01*
X113801501Y-177979369D01*
G37*
G36*
X136671367Y-177422407D02*
X136445277Y-178704627D01*
X135458499Y-178530631D01*
X135684589Y-177248411D01*
X136671367Y-177422407D01*
X136671367Y-177422407D01*
G37*
G36*
X133421501Y-176849369D02*
X133195411Y-178131589D01*
X132208633Y-177957593D01*
X132434723Y-176675373D01*
X133421501Y-176849369D01*
X133421501Y-176849369D01*
G37*
G36*
X328361501Y-177350631D02*
X327374723Y-177524627D01*
X327148633Y-176242407D01*
X328135411Y-176068411D01*
X328361501Y-177350631D01*
X328361501Y-177350631D01*
G37*
G36*
X331611367Y-176777593D02*
X330624589Y-176951589D01*
X330398499Y-175669369D01*
X331385277Y-175495373D01*
X331611367Y-176777593D01*
X331611367Y-176777593D01*
G37*
G36*
X98331367Y-175302407D02*
X98105277Y-176584627D01*
X97118499Y-176410631D01*
X97344589Y-175128411D01*
X98331367Y-175302407D01*
X98331367Y-175302407D01*
G37*
G36*
X195081367Y-175172407D02*
X194855277Y-176454627D01*
X193868499Y-176280631D01*
X194094589Y-174998411D01*
X195081367Y-175172407D01*
X195081367Y-175172407D01*
G37*
G36*
X308781501Y-176150631D02*
X307794723Y-176324627D01*
X307568633Y-175042407D01*
X308555411Y-174868411D01*
X308781501Y-176150631D01*
X308781501Y-176150631D01*
G37*
G36*
X95081501Y-174729369D02*
X94855411Y-176011589D01*
X93868633Y-175837593D01*
X94094723Y-174555373D01*
X95081501Y-174729369D01*
X95081501Y-174729369D01*
G37*
G36*
X191831501Y-174599369D02*
X191605411Y-175881589D01*
X190618633Y-175707593D01*
X190844723Y-174425373D01*
X191831501Y-174599369D01*
X191831501Y-174599369D01*
G37*
G36*
X312031367Y-175577593D02*
X311044589Y-175751589D01*
X310818499Y-174469369D01*
X311805277Y-174295373D01*
X312031367Y-175577593D01*
X312031367Y-175577593D01*
G37*
G36*
X156611367Y-173982407D02*
X156385277Y-175264627D01*
X155398499Y-175090631D01*
X155624589Y-173808411D01*
X156611367Y-173982407D01*
X156611367Y-173982407D01*
G37*
G36*
X207910742Y-173580242D02*
X208058702Y-173641530D01*
X208191858Y-173730502D01*
X208305098Y-173843742D01*
X208394070Y-173976898D01*
X208455358Y-174124858D01*
X208486600Y-174281925D01*
X208486600Y-174442075D01*
X208455358Y-174599142D01*
X208407954Y-174713583D01*
X208394071Y-174747100D01*
X208305099Y-174880257D01*
X208191857Y-174993499D01*
X208125730Y-175037683D01*
X208058702Y-175082470D01*
X207910742Y-175143758D01*
X207753675Y-175175000D01*
X207593525Y-175175000D01*
X207436458Y-175143758D01*
X207288498Y-175082470D01*
X207221470Y-175037683D01*
X207155343Y-174993499D01*
X207042101Y-174880257D01*
X206953129Y-174747100D01*
X206939246Y-174713583D01*
X206891842Y-174599142D01*
X206860600Y-174442075D01*
X206860600Y-174281925D01*
X206891842Y-174124858D01*
X206953130Y-173976898D01*
X207042102Y-173843742D01*
X207155342Y-173730502D01*
X207288498Y-173641530D01*
X207436458Y-173580242D01*
X207593525Y-173549000D01*
X207753675Y-173549000D01*
X207910742Y-173580242D01*
X207910742Y-173580242D01*
G37*
G36*
X223130742Y-173580242D02*
X223278702Y-173641530D01*
X223411858Y-173730502D01*
X223525098Y-173843742D01*
X223614070Y-173976898D01*
X223675358Y-174124858D01*
X223706600Y-174281925D01*
X223706600Y-174442075D01*
X223675358Y-174599142D01*
X223627954Y-174713583D01*
X223614071Y-174747100D01*
X223525099Y-174880257D01*
X223411857Y-174993499D01*
X223345730Y-175037683D01*
X223278702Y-175082470D01*
X223130742Y-175143758D01*
X222973675Y-175175000D01*
X222813525Y-175175000D01*
X222656458Y-175143758D01*
X222508498Y-175082470D01*
X222441470Y-175037683D01*
X222375343Y-174993499D01*
X222262101Y-174880257D01*
X222173129Y-174747100D01*
X222159246Y-174713583D01*
X222111842Y-174599142D01*
X222080600Y-174442075D01*
X222080600Y-174281925D01*
X222111842Y-174124858D01*
X222173130Y-173976898D01*
X222262102Y-173843742D01*
X222375342Y-173730502D01*
X222508498Y-173641530D01*
X222656458Y-173580242D01*
X222813525Y-173549000D01*
X222973675Y-173549000D01*
X223130742Y-173580242D01*
X223130742Y-173580242D01*
G37*
G36*
X153361501Y-173409369D02*
X153135411Y-174691589D01*
X152148633Y-174517593D01*
X152374723Y-173235373D01*
X153361501Y-173409369D01*
X153361501Y-173409369D01*
G37*
G36*
X260185093Y-172112073D02*
X260402388Y-172202079D01*
X260597947Y-172332748D01*
X260764256Y-172499057D01*
X260894925Y-172694616D01*
X260984931Y-172911911D01*
X261030816Y-173142589D01*
X261030816Y-173377787D01*
X260984931Y-173608465D01*
X260894925Y-173825760D01*
X260764256Y-174021319D01*
X260597947Y-174187628D01*
X260402388Y-174318297D01*
X260185093Y-174408303D01*
X259954415Y-174454188D01*
X259719217Y-174454188D01*
X259488539Y-174408303D01*
X259271244Y-174318297D01*
X259075685Y-174187628D01*
X258909376Y-174021319D01*
X258778707Y-173825760D01*
X258688701Y-173608465D01*
X258642816Y-173377787D01*
X258642816Y-173142589D01*
X258688701Y-172911911D01*
X258778707Y-172694616D01*
X258909376Y-172499057D01*
X259075685Y-172332748D01*
X259271244Y-172202079D01*
X259488539Y-172112073D01*
X259719217Y-172066188D01*
X259954415Y-172066188D01*
X260185093Y-172112073D01*
X260185093Y-172112073D01*
G37*
G36*
X347081501Y-174030631D02*
X346094723Y-174204627D01*
X345868633Y-172922407D01*
X346855411Y-172748411D01*
X347081501Y-174030631D01*
X347081501Y-174030631D01*
G37*
G36*
X250321501Y-173870631D02*
X249334723Y-174044627D01*
X249108633Y-172762407D01*
X250095411Y-172588411D01*
X250321501Y-173870631D01*
X250321501Y-173870631D01*
G37*
G36*
X350331367Y-173457593D02*
X349344589Y-173631589D01*
X349118499Y-172349369D01*
X350105277Y-172175373D01*
X350331367Y-173457593D01*
X350331367Y-173457593D01*
G37*
G36*
X253571367Y-173297593D02*
X252584589Y-173471589D01*
X252358499Y-172189369D01*
X253345277Y-172015373D01*
X253571367Y-173297593D01*
X253571367Y-173297593D01*
G37*
G36*
X163577226Y-170788874D02*
X163794521Y-170878880D01*
X163990080Y-171009549D01*
X164156389Y-171175858D01*
X164287058Y-171371417D01*
X164377064Y-171588712D01*
X164422949Y-171819390D01*
X164422949Y-172054588D01*
X164377064Y-172285266D01*
X164287058Y-172502561D01*
X164156389Y-172698120D01*
X163990080Y-172864429D01*
X163794521Y-172995098D01*
X163577226Y-173085104D01*
X163346548Y-173130989D01*
X163111350Y-173130989D01*
X162880672Y-173085104D01*
X162663377Y-172995098D01*
X162467818Y-172864429D01*
X162301509Y-172698120D01*
X162170840Y-172502561D01*
X162080834Y-172285266D01*
X162034949Y-172054588D01*
X162034949Y-171819390D01*
X162080834Y-171588712D01*
X162170840Y-171371417D01*
X162301509Y-171175858D01*
X162467818Y-171009549D01*
X162663377Y-170878880D01*
X162880672Y-170788874D01*
X163111350Y-170742989D01*
X163346548Y-170742989D01*
X163577226Y-170788874D01*
X163577226Y-170788874D01*
G37*
G36*
X288831501Y-172700631D02*
X287844723Y-172874627D01*
X287618633Y-171592407D01*
X288605411Y-171418411D01*
X288831501Y-172700631D01*
X288831501Y-172700631D01*
G37*
G36*
X207910742Y-171040242D02*
X208058702Y-171101530D01*
X208125730Y-171146317D01*
X208169944Y-171175859D01*
X208191858Y-171190502D01*
X208305098Y-171303742D01*
X208394070Y-171436898D01*
X208455358Y-171584858D01*
X208486600Y-171741925D01*
X208486600Y-171902075D01*
X208455358Y-172059142D01*
X208452439Y-172066188D01*
X208394071Y-172207100D01*
X208341843Y-172285266D01*
X208305098Y-172340258D01*
X208191858Y-172453498D01*
X208058702Y-172542470D01*
X207910742Y-172603758D01*
X207753675Y-172635000D01*
X207593525Y-172635000D01*
X207436458Y-172603758D01*
X207288498Y-172542470D01*
X207155342Y-172453498D01*
X207042102Y-172340258D01*
X207005358Y-172285266D01*
X206953129Y-172207100D01*
X206894761Y-172066188D01*
X206891842Y-172059142D01*
X206860600Y-171902075D01*
X206860600Y-171741925D01*
X206891842Y-171584858D01*
X206953130Y-171436898D01*
X207042102Y-171303742D01*
X207155342Y-171190502D01*
X207177257Y-171175859D01*
X207221470Y-171146317D01*
X207288498Y-171101530D01*
X207436458Y-171040242D01*
X207593525Y-171009000D01*
X207753675Y-171009000D01*
X207910742Y-171040242D01*
X207910742Y-171040242D01*
G37*
G36*
X223130742Y-171040242D02*
X223278702Y-171101530D01*
X223345730Y-171146317D01*
X223389944Y-171175859D01*
X223411858Y-171190502D01*
X223525098Y-171303742D01*
X223614070Y-171436898D01*
X223675358Y-171584858D01*
X223706600Y-171741925D01*
X223706600Y-171902075D01*
X223675358Y-172059142D01*
X223672439Y-172066188D01*
X223614071Y-172207100D01*
X223561843Y-172285266D01*
X223525098Y-172340258D01*
X223411858Y-172453498D01*
X223278702Y-172542470D01*
X223130742Y-172603758D01*
X222973675Y-172635000D01*
X222813525Y-172635000D01*
X222656458Y-172603758D01*
X222508498Y-172542470D01*
X222375342Y-172453498D01*
X222262102Y-172340258D01*
X222225358Y-172285266D01*
X222173129Y-172207100D01*
X222114761Y-172066188D01*
X222111842Y-172059142D01*
X222080600Y-171902075D01*
X222080600Y-171741925D01*
X222111842Y-171584858D01*
X222173130Y-171436898D01*
X222262102Y-171303742D01*
X222375342Y-171190502D01*
X222397257Y-171175859D01*
X222441470Y-171146317D01*
X222508498Y-171101530D01*
X222656458Y-171040242D01*
X222813525Y-171009000D01*
X222973675Y-171009000D01*
X223130742Y-171040242D01*
X223130742Y-171040242D01*
G37*
G36*
X292081367Y-172127593D02*
X291094589Y-172301589D01*
X290868499Y-171019369D01*
X291855277Y-170845373D01*
X292081367Y-172127593D01*
X292081367Y-172127593D01*
G37*
G36*
X170271821Y-169390128D02*
X170489116Y-169480134D01*
X170684675Y-169610803D01*
X170850984Y-169777112D01*
X170981653Y-169972671D01*
X171071659Y-170189966D01*
X171117544Y-170420644D01*
X171117544Y-170655842D01*
X171071659Y-170886520D01*
X170981653Y-171103815D01*
X170850984Y-171299374D01*
X170684675Y-171465683D01*
X170489116Y-171596352D01*
X170271821Y-171686358D01*
X170041143Y-171732243D01*
X169805945Y-171732243D01*
X169575267Y-171686358D01*
X169357972Y-171596352D01*
X169162413Y-171465683D01*
X168996104Y-171299374D01*
X168865435Y-171103815D01*
X168775429Y-170886520D01*
X168729544Y-170655842D01*
X168729544Y-170420644D01*
X168775429Y-170189966D01*
X168865435Y-169972671D01*
X168996104Y-169777112D01*
X169162413Y-169610803D01*
X169357972Y-169480134D01*
X169575267Y-169390128D01*
X169805945Y-169344243D01*
X170041143Y-169344243D01*
X170271821Y-169390128D01*
X170271821Y-169390128D01*
G37*
G36*
X265997556Y-168507995D02*
X266214851Y-168598001D01*
X266410410Y-168728670D01*
X266576719Y-168894979D01*
X266707388Y-169090538D01*
X266797394Y-169307833D01*
X266843279Y-169538511D01*
X266843279Y-169773709D01*
X266797394Y-170004387D01*
X266707388Y-170221682D01*
X266576719Y-170417241D01*
X266410410Y-170583550D01*
X266214851Y-170714219D01*
X266034617Y-170788874D01*
X265997556Y-170804225D01*
X265766878Y-170850110D01*
X265531680Y-170850110D01*
X265301002Y-170804225D01*
X265263941Y-170788874D01*
X265083707Y-170714219D01*
X264888148Y-170583550D01*
X264721839Y-170417241D01*
X264591170Y-170221682D01*
X264501164Y-170004387D01*
X264455279Y-169773709D01*
X264455279Y-169538511D01*
X264501164Y-169307833D01*
X264591170Y-169090538D01*
X264721839Y-168894979D01*
X264888148Y-168728670D01*
X265083707Y-168598001D01*
X265301002Y-168507995D01*
X265531680Y-168462110D01*
X265766878Y-168462110D01*
X265997556Y-168507995D01*
X265997556Y-168507995D01*
G37*
G36*
X223130742Y-168500242D02*
X223278702Y-168561530D01*
X223333285Y-168598001D01*
X223411857Y-168650501D01*
X223525099Y-168763743D01*
X223569283Y-168829870D01*
X223614070Y-168896898D01*
X223675358Y-169044858D01*
X223706600Y-169201925D01*
X223706600Y-169362075D01*
X223675358Y-169519142D01*
X223637390Y-169610803D01*
X223614071Y-169667100D01*
X223542838Y-169773709D01*
X223525098Y-169800258D01*
X223411858Y-169913498D01*
X223278702Y-170002470D01*
X223130742Y-170063758D01*
X222973675Y-170095000D01*
X222813525Y-170095000D01*
X222656458Y-170063758D01*
X222508498Y-170002470D01*
X222375342Y-169913498D01*
X222262102Y-169800258D01*
X222244363Y-169773709D01*
X222173129Y-169667100D01*
X222149810Y-169610803D01*
X222111842Y-169519142D01*
X222080600Y-169362075D01*
X222080600Y-169201925D01*
X222111842Y-169044858D01*
X222173130Y-168896898D01*
X222217917Y-168829870D01*
X222262101Y-168763743D01*
X222375343Y-168650501D01*
X222453915Y-168598001D01*
X222508498Y-168561530D01*
X222656458Y-168500242D01*
X222813525Y-168469000D01*
X222973675Y-168469000D01*
X223130742Y-168500242D01*
X223130742Y-168500242D01*
G37*
G36*
X207910742Y-168500242D02*
X208058702Y-168561530D01*
X208113285Y-168598001D01*
X208191857Y-168650501D01*
X208305099Y-168763743D01*
X208349283Y-168829870D01*
X208394070Y-168896898D01*
X208455358Y-169044858D01*
X208486600Y-169201925D01*
X208486600Y-169362075D01*
X208455358Y-169519142D01*
X208417390Y-169610803D01*
X208394071Y-169667100D01*
X208322838Y-169773709D01*
X208305098Y-169800258D01*
X208191858Y-169913498D01*
X208058702Y-170002470D01*
X207910742Y-170063758D01*
X207753675Y-170095000D01*
X207593525Y-170095000D01*
X207436458Y-170063758D01*
X207288498Y-170002470D01*
X207155342Y-169913498D01*
X207042102Y-169800258D01*
X207024363Y-169773709D01*
X206953129Y-169667100D01*
X206929810Y-169610803D01*
X206891842Y-169519142D01*
X206860600Y-169362075D01*
X206860600Y-169201925D01*
X206891842Y-169044858D01*
X206953130Y-168896898D01*
X206997917Y-168829870D01*
X207042101Y-168763743D01*
X207155343Y-168650501D01*
X207233915Y-168598001D01*
X207288498Y-168561530D01*
X207436458Y-168500242D01*
X207593525Y-168469000D01*
X207753675Y-168469000D01*
X207910742Y-168500242D01*
X207910742Y-168500242D01*
G37*
G36*
X317265093Y-166702073D02*
X317482388Y-166792079D01*
X317677947Y-166922748D01*
X317844256Y-167089057D01*
X317974925Y-167284616D01*
X318064931Y-167501911D01*
X318110816Y-167732589D01*
X318110816Y-167967787D01*
X318064931Y-168198465D01*
X317974925Y-168415760D01*
X317844256Y-168611319D01*
X317677947Y-168777628D01*
X317482388Y-168908297D01*
X317265093Y-168998303D01*
X317034415Y-169044188D01*
X316799217Y-169044188D01*
X316568539Y-168998303D01*
X316351244Y-168908297D01*
X316155685Y-168777628D01*
X315989376Y-168611319D01*
X315858707Y-168415760D01*
X315768701Y-168198465D01*
X315722816Y-167967787D01*
X315722816Y-167732589D01*
X315768701Y-167501911D01*
X315858707Y-167284616D01*
X315989376Y-167089057D01*
X316155685Y-166922748D01*
X316351244Y-166792079D01*
X316568539Y-166702073D01*
X316799217Y-166656188D01*
X317034415Y-166656188D01*
X317265093Y-166702073D01*
X317265093Y-166702073D01*
G37*
G36*
X297695093Y-165492073D02*
X297912388Y-165582079D01*
X298107947Y-165712748D01*
X298274256Y-165879057D01*
X298404925Y-166074616D01*
X298494931Y-166291911D01*
X298540816Y-166522589D01*
X298540816Y-166757787D01*
X298494931Y-166988465D01*
X298404925Y-167205760D01*
X298274256Y-167401319D01*
X298107947Y-167567628D01*
X297912388Y-167698297D01*
X297695093Y-167788303D01*
X297464415Y-167834188D01*
X297229217Y-167834188D01*
X296998539Y-167788303D01*
X296781244Y-167698297D01*
X296585685Y-167567628D01*
X296419376Y-167401319D01*
X296288707Y-167205760D01*
X296198701Y-166988465D01*
X296152816Y-166757787D01*
X296152816Y-166522589D01*
X296198701Y-166291911D01*
X296288707Y-166074616D01*
X296419376Y-165879057D01*
X296585685Y-165712748D01*
X296781244Y-165582079D01*
X296998539Y-165492073D01*
X297229217Y-165446188D01*
X297464415Y-165446188D01*
X297695093Y-165492073D01*
X297695093Y-165492073D01*
G37*
G36*
X106497226Y-165368874D02*
X106714521Y-165458880D01*
X106910080Y-165589549D01*
X107076389Y-165755858D01*
X107207058Y-165951417D01*
X107297064Y-166168712D01*
X107342949Y-166399390D01*
X107342949Y-166634588D01*
X107297064Y-166865266D01*
X107207058Y-167082561D01*
X107076389Y-167278120D01*
X106910080Y-167444429D01*
X106714521Y-167575098D01*
X106497226Y-167665104D01*
X106266548Y-167710989D01*
X106031350Y-167710989D01*
X105800672Y-167665104D01*
X105583377Y-167575098D01*
X105387818Y-167444429D01*
X105221509Y-167278120D01*
X105090840Y-167082561D01*
X105000834Y-166865266D01*
X104954949Y-166634588D01*
X104954949Y-166399390D01*
X105000834Y-166168712D01*
X105090840Y-165951417D01*
X105221509Y-165755858D01*
X105387818Y-165589549D01*
X105583377Y-165458880D01*
X105800672Y-165368874D01*
X106031350Y-165322989D01*
X106266548Y-165322989D01*
X106497226Y-165368874D01*
X106497226Y-165368874D01*
G37*
G36*
X223130742Y-165960242D02*
X223278702Y-166021530D01*
X223345730Y-166066317D01*
X223363394Y-166078119D01*
X223411858Y-166110502D01*
X223525098Y-166223742D01*
X223614070Y-166356898D01*
X223675358Y-166504858D01*
X223706600Y-166661925D01*
X223706600Y-166822075D01*
X223675358Y-166979142D01*
X223671496Y-166988465D01*
X223614071Y-167127100D01*
X223525099Y-167260257D01*
X223411857Y-167373499D01*
X223370221Y-167401319D01*
X223278702Y-167462470D01*
X223130742Y-167523758D01*
X222973675Y-167555000D01*
X222813525Y-167555000D01*
X222656458Y-167523758D01*
X222508498Y-167462470D01*
X222416979Y-167401319D01*
X222375343Y-167373499D01*
X222262101Y-167260257D01*
X222173129Y-167127100D01*
X222115704Y-166988465D01*
X222111842Y-166979142D01*
X222080600Y-166822075D01*
X222080600Y-166661925D01*
X222111842Y-166504858D01*
X222173130Y-166356898D01*
X222262102Y-166223742D01*
X222375342Y-166110502D01*
X222423807Y-166078119D01*
X222441470Y-166066317D01*
X222508498Y-166021530D01*
X222656458Y-165960242D01*
X222813525Y-165929000D01*
X222973675Y-165929000D01*
X223130742Y-165960242D01*
X223130742Y-165960242D01*
G37*
G36*
X207910742Y-165960242D02*
X208058702Y-166021530D01*
X208125730Y-166066317D01*
X208143394Y-166078119D01*
X208191858Y-166110502D01*
X208305098Y-166223742D01*
X208394070Y-166356898D01*
X208455358Y-166504858D01*
X208486600Y-166661925D01*
X208486600Y-166822075D01*
X208455358Y-166979142D01*
X208451496Y-166988465D01*
X208394071Y-167127100D01*
X208305099Y-167260257D01*
X208191857Y-167373499D01*
X208150221Y-167401319D01*
X208058702Y-167462470D01*
X207910742Y-167523758D01*
X207753675Y-167555000D01*
X207593525Y-167555000D01*
X207436458Y-167523758D01*
X207288498Y-167462470D01*
X207196979Y-167401319D01*
X207155343Y-167373499D01*
X207042101Y-167260257D01*
X206953129Y-167127100D01*
X206895704Y-166988465D01*
X206891842Y-166979142D01*
X206860600Y-166822075D01*
X206860600Y-166661925D01*
X206891842Y-166504858D01*
X206953130Y-166356898D01*
X207042102Y-166223742D01*
X207155342Y-166110502D01*
X207203807Y-166078119D01*
X207221470Y-166066317D01*
X207288498Y-166021530D01*
X207436458Y-165960242D01*
X207593525Y-165929000D01*
X207753675Y-165929000D01*
X207910742Y-165960242D01*
X207910742Y-165960242D01*
G37*
G36*
X126057226Y-164168874D02*
X126274521Y-164258880D01*
X126470080Y-164389549D01*
X126636389Y-164555858D01*
X126767058Y-164751417D01*
X126857064Y-164968712D01*
X126902949Y-165199390D01*
X126902949Y-165434588D01*
X126857064Y-165665266D01*
X126767058Y-165882561D01*
X126636389Y-166078120D01*
X126470080Y-166244429D01*
X126274521Y-166375098D01*
X126057226Y-166465104D01*
X125826548Y-166510989D01*
X125591350Y-166510989D01*
X125360672Y-166465104D01*
X125143377Y-166375098D01*
X124947818Y-166244429D01*
X124781509Y-166078120D01*
X124650840Y-165882561D01*
X124560834Y-165665266D01*
X124514949Y-165434588D01*
X124514949Y-165199390D01*
X124560834Y-164968712D01*
X124650840Y-164751417D01*
X124781509Y-164555858D01*
X124947818Y-164389549D01*
X125143377Y-164258880D01*
X125360672Y-164168874D01*
X125591350Y-164122989D01*
X125826548Y-164122989D01*
X126057226Y-164168874D01*
X126057226Y-164168874D01*
G37*
G36*
X177541367Y-165102407D02*
X177315277Y-166384627D01*
X176328499Y-166210631D01*
X176554589Y-164928411D01*
X177541367Y-165102407D01*
X177541367Y-165102407D01*
G37*
G36*
X113191821Y-163970128D02*
X113409116Y-164060134D01*
X113604675Y-164190803D01*
X113770984Y-164357112D01*
X113901653Y-164552671D01*
X113991659Y-164769966D01*
X114037544Y-165000644D01*
X114037544Y-165235842D01*
X113991659Y-165466520D01*
X113901653Y-165683815D01*
X113770984Y-165879374D01*
X113604675Y-166045683D01*
X113409116Y-166176352D01*
X113191821Y-166266358D01*
X112961143Y-166312243D01*
X112725945Y-166312243D01*
X112495267Y-166266358D01*
X112277972Y-166176352D01*
X112082413Y-166045683D01*
X111916104Y-165879374D01*
X111785435Y-165683815D01*
X111695429Y-165466520D01*
X111649544Y-165235842D01*
X111649544Y-165000644D01*
X111695429Y-164769966D01*
X111785435Y-164552671D01*
X111916104Y-164357112D01*
X112082413Y-164190803D01*
X112277972Y-164060134D01*
X112495267Y-163970128D01*
X112725945Y-163924243D01*
X112961143Y-163924243D01*
X113191821Y-163970128D01*
X113191821Y-163970128D01*
G37*
G36*
X174291501Y-164529369D02*
X174065411Y-165811589D01*
X173078633Y-165637593D01*
X173304723Y-164355373D01*
X174291501Y-164529369D01*
X174291501Y-164529369D01*
G37*
G36*
X336015093Y-163382073D02*
X336232388Y-163472079D01*
X336427947Y-163602748D01*
X336594256Y-163769057D01*
X336724925Y-163964616D01*
X336814931Y-164181911D01*
X336860816Y-164412589D01*
X336860816Y-164647787D01*
X336814931Y-164878465D01*
X336724925Y-165095760D01*
X336594256Y-165291319D01*
X336427947Y-165457628D01*
X336232388Y-165588297D01*
X336113376Y-165637593D01*
X336015093Y-165678303D01*
X335784415Y-165724188D01*
X335549217Y-165724188D01*
X335318539Y-165678303D01*
X335220256Y-165637593D01*
X335101244Y-165588297D01*
X334905685Y-165457628D01*
X334739376Y-165291319D01*
X334608707Y-165095760D01*
X334518701Y-164878465D01*
X334472816Y-164647787D01*
X334472816Y-164412589D01*
X334518701Y-164181911D01*
X334608707Y-163964616D01*
X334739376Y-163769057D01*
X334905685Y-163602748D01*
X335101244Y-163472079D01*
X335318539Y-163382073D01*
X335549217Y-163336188D01*
X335784415Y-163336188D01*
X336015093Y-163382073D01*
X336015093Y-163382073D01*
G37*
G36*
X239275093Y-163222073D02*
X239492388Y-163312079D01*
X239687947Y-163442748D01*
X239854256Y-163609057D01*
X239984925Y-163804616D01*
X240074931Y-164021911D01*
X240120816Y-164252589D01*
X240120816Y-164487787D01*
X240074931Y-164718465D01*
X239984925Y-164935760D01*
X239854256Y-165131319D01*
X239687947Y-165297628D01*
X239492388Y-165428297D01*
X239338418Y-165492073D01*
X239275093Y-165518303D01*
X239044415Y-165564188D01*
X238809217Y-165564188D01*
X238578539Y-165518303D01*
X238515214Y-165492073D01*
X238361244Y-165428297D01*
X238165685Y-165297628D01*
X237999376Y-165131319D01*
X237868707Y-164935760D01*
X237778701Y-164718465D01*
X237732816Y-164487787D01*
X237732816Y-164252589D01*
X237778701Y-164021911D01*
X237868707Y-163804616D01*
X237999376Y-163609057D01*
X238165685Y-163442748D01*
X238361244Y-163312079D01*
X238578539Y-163222073D01*
X238809217Y-163176188D01*
X239044415Y-163176188D01*
X239275093Y-163222073D01*
X239275093Y-163222073D01*
G37*
G36*
X323077556Y-163097995D02*
X323294851Y-163188001D01*
X323490410Y-163318670D01*
X323656719Y-163484979D01*
X323787388Y-163680538D01*
X323877394Y-163897833D01*
X323923279Y-164128511D01*
X323923279Y-164363709D01*
X323877394Y-164594387D01*
X323787388Y-164811682D01*
X323656719Y-165007241D01*
X323490410Y-165173550D01*
X323294851Y-165304219D01*
X323138759Y-165368874D01*
X323077556Y-165394225D01*
X322846878Y-165440110D01*
X322611680Y-165440110D01*
X322381002Y-165394225D01*
X322319799Y-165368874D01*
X322163707Y-165304219D01*
X321968148Y-165173550D01*
X321801839Y-165007241D01*
X321671170Y-164811682D01*
X321581164Y-164594387D01*
X321535279Y-164363709D01*
X321535279Y-164128511D01*
X321581164Y-163897833D01*
X321671170Y-163680538D01*
X321801839Y-163484979D01*
X321968148Y-163318670D01*
X322163707Y-163188001D01*
X322381002Y-163097995D01*
X322611680Y-163052110D01*
X322846878Y-163052110D01*
X323077556Y-163097995D01*
X323077556Y-163097995D01*
G37*
G36*
X132751821Y-162770128D02*
X132969116Y-162860134D01*
X133164675Y-162990803D01*
X133330984Y-163157112D01*
X133461653Y-163352671D01*
X133551659Y-163569966D01*
X133597544Y-163800644D01*
X133597544Y-164035842D01*
X133551659Y-164266520D01*
X133461653Y-164483815D01*
X133330984Y-164679374D01*
X133164675Y-164845683D01*
X132969116Y-164976352D01*
X132751821Y-165066358D01*
X132521143Y-165112243D01*
X132285945Y-165112243D01*
X132055267Y-165066358D01*
X131837972Y-164976352D01*
X131642413Y-164845683D01*
X131476104Y-164679374D01*
X131345435Y-164483815D01*
X131255429Y-164266520D01*
X131209544Y-164035842D01*
X131209544Y-163800644D01*
X131255429Y-163569966D01*
X131345435Y-163352671D01*
X131476104Y-163157112D01*
X131642413Y-162990803D01*
X131837972Y-162860134D01*
X132055267Y-162770128D01*
X132285945Y-162724243D01*
X132521143Y-162724243D01*
X132751821Y-162770128D01*
X132751821Y-162770128D01*
G37*
G36*
X223130742Y-163420242D02*
X223278702Y-163481530D01*
X223283865Y-163484980D01*
X223378878Y-163548465D01*
X223411858Y-163570502D01*
X223525098Y-163683742D01*
X223614070Y-163816898D01*
X223675358Y-163964858D01*
X223706600Y-164121925D01*
X223706600Y-164282075D01*
X223675358Y-164439142D01*
X223655208Y-164487787D01*
X223614071Y-164587100D01*
X223552417Y-164679373D01*
X223525098Y-164720258D01*
X223411858Y-164833498D01*
X223278702Y-164922470D01*
X223278701Y-164922471D01*
X223278700Y-164922471D01*
X223246620Y-164935759D01*
X223130742Y-164983758D01*
X222973675Y-165015000D01*
X222813525Y-165015000D01*
X222656458Y-164983758D01*
X222540580Y-164935759D01*
X222508500Y-164922471D01*
X222508499Y-164922471D01*
X222508498Y-164922470D01*
X222375342Y-164833498D01*
X222262102Y-164720258D01*
X222234784Y-164679373D01*
X222173129Y-164587100D01*
X222131992Y-164487787D01*
X222111842Y-164439142D01*
X222080600Y-164282075D01*
X222080600Y-164121925D01*
X222111842Y-163964858D01*
X222173130Y-163816898D01*
X222262102Y-163683742D01*
X222375342Y-163570502D01*
X222408323Y-163548465D01*
X222503335Y-163484980D01*
X222508498Y-163481530D01*
X222656458Y-163420242D01*
X222813525Y-163389000D01*
X222973675Y-163389000D01*
X223130742Y-163420242D01*
X223130742Y-163420242D01*
G37*
G36*
X207910742Y-163420242D02*
X208058702Y-163481530D01*
X208063865Y-163484980D01*
X208158878Y-163548465D01*
X208191858Y-163570502D01*
X208305098Y-163683742D01*
X208394070Y-163816898D01*
X208455358Y-163964858D01*
X208486600Y-164121925D01*
X208486600Y-164282075D01*
X208455358Y-164439142D01*
X208435208Y-164487787D01*
X208394071Y-164587100D01*
X208332417Y-164679373D01*
X208305098Y-164720258D01*
X208191858Y-164833498D01*
X208058702Y-164922470D01*
X208058701Y-164922471D01*
X208058700Y-164922471D01*
X208026620Y-164935759D01*
X207910742Y-164983758D01*
X207753675Y-165015000D01*
X207593525Y-165015000D01*
X207436458Y-164983758D01*
X207320580Y-164935759D01*
X207288500Y-164922471D01*
X207288499Y-164922471D01*
X207288498Y-164922470D01*
X207155342Y-164833498D01*
X207042102Y-164720258D01*
X207014784Y-164679373D01*
X206953129Y-164587100D01*
X206911992Y-164487787D01*
X206891842Y-164439142D01*
X206860600Y-164282075D01*
X206860600Y-164121925D01*
X206891842Y-163964858D01*
X206953130Y-163816898D01*
X207042102Y-163683742D01*
X207155342Y-163570502D01*
X207188323Y-163548465D01*
X207283335Y-163484980D01*
X207288498Y-163481530D01*
X207436458Y-163420242D01*
X207593525Y-163389000D01*
X207753675Y-163389000D01*
X207910742Y-163420242D01*
X207910742Y-163420242D01*
G37*
G36*
X87737226Y-162068874D02*
X87954521Y-162158880D01*
X88150080Y-162289549D01*
X88316389Y-162455858D01*
X88447058Y-162651417D01*
X88537064Y-162868712D01*
X88582949Y-163099390D01*
X88582949Y-163334588D01*
X88537064Y-163565266D01*
X88447058Y-163782561D01*
X88316389Y-163978120D01*
X88150080Y-164144429D01*
X87954521Y-164275098D01*
X87756518Y-164357113D01*
X87737226Y-164365104D01*
X87506548Y-164410989D01*
X87271350Y-164410989D01*
X87040672Y-164365104D01*
X87021380Y-164357113D01*
X86823377Y-164275098D01*
X86627818Y-164144429D01*
X86461509Y-163978120D01*
X86330840Y-163782561D01*
X86240834Y-163565266D01*
X86194949Y-163334588D01*
X86194949Y-163099390D01*
X86240834Y-162868712D01*
X86330840Y-162651417D01*
X86461509Y-162455858D01*
X86627818Y-162289549D01*
X86823377Y-162158880D01*
X87040672Y-162068874D01*
X87271350Y-162022989D01*
X87506548Y-162022989D01*
X87737226Y-162068874D01*
X87737226Y-162068874D01*
G37*
G36*
X277745093Y-162052073D02*
X277962388Y-162142079D01*
X278157947Y-162272748D01*
X278324256Y-162439057D01*
X278454925Y-162634616D01*
X278544931Y-162851911D01*
X278590816Y-163082589D01*
X278590816Y-163317787D01*
X278544931Y-163548465D01*
X278454925Y-163765760D01*
X278324256Y-163961319D01*
X278157947Y-164127628D01*
X277962388Y-164258297D01*
X277904982Y-164282075D01*
X277745093Y-164348303D01*
X277514415Y-164394188D01*
X277279217Y-164394188D01*
X277048539Y-164348303D01*
X276888650Y-164282075D01*
X276831244Y-164258297D01*
X276635685Y-164127628D01*
X276469376Y-163961319D01*
X276338707Y-163765760D01*
X276248701Y-163548465D01*
X276202816Y-163317787D01*
X276202816Y-163082589D01*
X276248701Y-162851911D01*
X276338707Y-162634616D01*
X276469376Y-162439057D01*
X276635685Y-162272748D01*
X276831244Y-162142079D01*
X277048539Y-162052073D01*
X277279217Y-162006188D01*
X277514415Y-162006188D01*
X277745093Y-162052073D01*
X277745093Y-162052073D01*
G37*
G36*
X184487226Y-161908874D02*
X184704521Y-161998880D01*
X184900080Y-162129549D01*
X185066389Y-162295858D01*
X185197058Y-162491417D01*
X185287064Y-162708712D01*
X185332949Y-162939390D01*
X185332949Y-163174588D01*
X185287064Y-163405266D01*
X185197058Y-163622561D01*
X185066389Y-163818120D01*
X184900080Y-163984429D01*
X184704521Y-164115098D01*
X184521752Y-164190803D01*
X184487226Y-164205104D01*
X184256548Y-164250989D01*
X184021350Y-164250989D01*
X183790672Y-164205104D01*
X183756146Y-164190803D01*
X183573377Y-164115098D01*
X183377818Y-163984429D01*
X183211509Y-163818120D01*
X183080840Y-163622561D01*
X182990834Y-163405266D01*
X182944949Y-163174588D01*
X182944949Y-162939390D01*
X182990834Y-162708712D01*
X183080840Y-162491417D01*
X183211509Y-162295858D01*
X183377818Y-162129549D01*
X183573377Y-161998880D01*
X183790672Y-161908874D01*
X184021350Y-161862989D01*
X184256548Y-161862989D01*
X184487226Y-161908874D01*
X184487226Y-161908874D01*
G37*
G36*
X303507556Y-161887995D02*
X303724851Y-161978001D01*
X303920410Y-162108670D01*
X304086719Y-162274979D01*
X304217388Y-162470538D01*
X304307394Y-162687833D01*
X304353279Y-162918511D01*
X304353279Y-163153709D01*
X304307394Y-163384387D01*
X304217388Y-163601682D01*
X304086719Y-163797241D01*
X303920410Y-163963550D01*
X303724851Y-164094219D01*
X303507556Y-164184225D01*
X303276878Y-164230110D01*
X303041680Y-164230110D01*
X302811002Y-164184225D01*
X302593707Y-164094219D01*
X302398148Y-163963550D01*
X302231839Y-163797241D01*
X302101170Y-163601682D01*
X302011164Y-163384387D01*
X301965279Y-163153709D01*
X301965279Y-162918511D01*
X302011164Y-162687833D01*
X302101170Y-162470538D01*
X302231839Y-162274979D01*
X302398148Y-162108670D01*
X302593707Y-161978001D01*
X302811002Y-161887995D01*
X303041680Y-161842110D01*
X303276878Y-161842110D01*
X303507556Y-161887995D01*
X303507556Y-161887995D01*
G37*
G36*
X267901501Y-163800631D02*
X266914723Y-163974627D01*
X266688633Y-162692407D01*
X267675411Y-162518411D01*
X267901501Y-163800631D01*
X267901501Y-163800631D01*
G37*
G36*
X271151367Y-163227593D02*
X270164589Y-163401589D01*
X269938499Y-162119369D01*
X270925277Y-161945373D01*
X271151367Y-163227593D01*
X271151367Y-163227593D01*
G37*
G36*
X146007226Y-160728874D02*
X146224521Y-160818880D01*
X146420080Y-160949549D01*
X146586389Y-161115858D01*
X146717058Y-161311417D01*
X146807064Y-161528712D01*
X146852949Y-161759390D01*
X146852949Y-161994588D01*
X146807064Y-162225266D01*
X146717058Y-162442561D01*
X146586389Y-162638120D01*
X146420080Y-162804429D01*
X146224521Y-162935098D01*
X146007226Y-163025104D01*
X145776548Y-163070989D01*
X145541350Y-163070989D01*
X145310672Y-163025104D01*
X145093377Y-162935098D01*
X144897818Y-162804429D01*
X144731509Y-162638120D01*
X144600840Y-162442561D01*
X144510834Y-162225266D01*
X144464949Y-161994588D01*
X144464949Y-161759390D01*
X144510834Y-161528712D01*
X144600840Y-161311417D01*
X144731509Y-161115858D01*
X144897818Y-160949549D01*
X145093377Y-160818880D01*
X145310672Y-160728874D01*
X145541350Y-160682989D01*
X145776548Y-160682989D01*
X146007226Y-160728874D01*
X146007226Y-160728874D01*
G37*
G36*
X94431821Y-160670128D02*
X94649116Y-160760134D01*
X94844675Y-160890803D01*
X95010984Y-161057112D01*
X95141653Y-161252671D01*
X95231659Y-161469966D01*
X95277544Y-161700644D01*
X95277544Y-161935842D01*
X95231659Y-162166520D01*
X95141653Y-162383815D01*
X95010984Y-162579374D01*
X94844675Y-162745683D01*
X94649116Y-162876352D01*
X94496928Y-162939390D01*
X94431821Y-162966358D01*
X94201143Y-163012243D01*
X93965945Y-163012243D01*
X93735267Y-162966358D01*
X93670160Y-162939390D01*
X93517972Y-162876352D01*
X93322413Y-162745683D01*
X93156104Y-162579374D01*
X93025435Y-162383815D01*
X92935429Y-162166520D01*
X92889544Y-161935842D01*
X92889544Y-161700644D01*
X92935429Y-161469966D01*
X93025435Y-161252671D01*
X93156104Y-161057112D01*
X93322413Y-160890803D01*
X93517972Y-160760134D01*
X93735267Y-160670128D01*
X93965945Y-160624243D01*
X94201143Y-160624243D01*
X94431821Y-160670128D01*
X94431821Y-160670128D01*
G37*
G36*
X191181821Y-160510128D02*
X191399116Y-160600134D01*
X191594675Y-160730803D01*
X191760984Y-160897112D01*
X191891653Y-161092671D01*
X191981659Y-161309966D01*
X192027544Y-161540644D01*
X192027544Y-161775842D01*
X191981659Y-162006520D01*
X191891653Y-162223815D01*
X191760984Y-162419374D01*
X191594675Y-162585683D01*
X191399116Y-162716352D01*
X191328304Y-162745683D01*
X191181821Y-162806358D01*
X190951143Y-162852243D01*
X190715945Y-162852243D01*
X190485267Y-162806358D01*
X190338784Y-162745683D01*
X190267972Y-162716352D01*
X190072413Y-162585683D01*
X189906104Y-162419374D01*
X189775435Y-162223815D01*
X189685429Y-162006520D01*
X189639544Y-161775842D01*
X189639544Y-161540644D01*
X189685429Y-161309966D01*
X189775435Y-161092671D01*
X189906104Y-160897112D01*
X190072413Y-160730803D01*
X190267972Y-160600134D01*
X190485267Y-160510128D01*
X190715945Y-160464243D01*
X190951143Y-160464243D01*
X191181821Y-160510128D01*
X191181821Y-160510128D01*
G37*
G36*
X207910742Y-160880242D02*
X208058702Y-160941530D01*
X208191858Y-161030502D01*
X208305098Y-161143742D01*
X208394070Y-161276898D01*
X208455358Y-161424858D01*
X208486600Y-161581925D01*
X208486600Y-161742075D01*
X208455358Y-161899142D01*
X208411017Y-162006188D01*
X208394071Y-162047100D01*
X208314278Y-162166520D01*
X208305098Y-162180258D01*
X208191858Y-162293498D01*
X208058702Y-162382470D01*
X208058701Y-162382471D01*
X208058700Y-162382471D01*
X208055455Y-162383815D01*
X207910742Y-162443758D01*
X207753675Y-162475000D01*
X207593525Y-162475000D01*
X207436458Y-162443758D01*
X207291745Y-162383815D01*
X207288500Y-162382471D01*
X207288499Y-162382471D01*
X207288498Y-162382470D01*
X207155342Y-162293498D01*
X207042102Y-162180258D01*
X207032923Y-162166520D01*
X206953129Y-162047100D01*
X206936183Y-162006188D01*
X206891842Y-161899142D01*
X206860600Y-161742075D01*
X206860600Y-161581925D01*
X206891842Y-161424858D01*
X206953130Y-161276898D01*
X207042102Y-161143742D01*
X207155342Y-161030502D01*
X207288498Y-160941530D01*
X207436458Y-160880242D01*
X207593525Y-160849000D01*
X207753675Y-160849000D01*
X207910742Y-160880242D01*
X207910742Y-160880242D01*
G37*
G36*
X223130742Y-160880242D02*
X223278702Y-160941530D01*
X223411858Y-161030502D01*
X223525098Y-161143742D01*
X223614070Y-161276898D01*
X223675358Y-161424858D01*
X223706600Y-161581925D01*
X223706600Y-161742075D01*
X223675358Y-161899142D01*
X223631017Y-162006188D01*
X223614071Y-162047100D01*
X223534278Y-162166520D01*
X223525098Y-162180258D01*
X223411858Y-162293498D01*
X223278702Y-162382470D01*
X223278701Y-162382471D01*
X223278700Y-162382471D01*
X223275455Y-162383815D01*
X223130742Y-162443758D01*
X222973675Y-162475000D01*
X222813525Y-162475000D01*
X222656458Y-162443758D01*
X222511745Y-162383815D01*
X222508500Y-162382471D01*
X222508499Y-162382471D01*
X222508498Y-162382470D01*
X222375342Y-162293498D01*
X222262102Y-162180258D01*
X222252923Y-162166520D01*
X222173129Y-162047100D01*
X222156183Y-162006188D01*
X222111842Y-161899142D01*
X222080600Y-161742075D01*
X222080600Y-161581925D01*
X222111842Y-161424858D01*
X222173130Y-161276898D01*
X222262102Y-161143742D01*
X222375342Y-161030502D01*
X222508498Y-160941530D01*
X222656458Y-160880242D01*
X222813525Y-160849000D01*
X222973675Y-160849000D01*
X223130742Y-160880242D01*
X223130742Y-160880242D01*
G37*
G36*
X341827556Y-159777995D02*
X342044851Y-159868001D01*
X342240410Y-159998670D01*
X342406719Y-160164979D01*
X342537388Y-160360538D01*
X342627394Y-160577833D01*
X342673279Y-160808511D01*
X342673279Y-161043709D01*
X342627394Y-161274387D01*
X342537388Y-161491682D01*
X342406719Y-161687241D01*
X342240410Y-161853550D01*
X342044851Y-161984219D01*
X341827556Y-162074225D01*
X341596878Y-162120110D01*
X341361680Y-162120110D01*
X341131002Y-162074225D01*
X340913707Y-161984219D01*
X340718148Y-161853550D01*
X340551839Y-161687241D01*
X340421170Y-161491682D01*
X340331164Y-161274387D01*
X340285279Y-161043709D01*
X340285279Y-160808511D01*
X340331164Y-160577833D01*
X340421170Y-160360538D01*
X340551839Y-160164979D01*
X340718148Y-159998670D01*
X340913707Y-159868001D01*
X341131002Y-159777995D01*
X341361680Y-159732110D01*
X341596878Y-159732110D01*
X341827556Y-159777995D01*
X341827556Y-159777995D01*
G37*
G36*
X245087556Y-159617995D02*
X245304851Y-159708001D01*
X245500410Y-159838670D01*
X245666719Y-160004979D01*
X245797388Y-160200538D01*
X245887394Y-160417833D01*
X245933279Y-160648511D01*
X245933279Y-160883709D01*
X245887394Y-161114387D01*
X245797388Y-161331682D01*
X245666719Y-161527241D01*
X245500410Y-161693550D01*
X245304851Y-161824219D01*
X245087556Y-161914225D01*
X244856878Y-161960110D01*
X244621680Y-161960110D01*
X244391002Y-161914225D01*
X244173707Y-161824219D01*
X243978148Y-161693550D01*
X243811839Y-161527241D01*
X243681170Y-161331682D01*
X243591164Y-161114387D01*
X243545279Y-160883709D01*
X243545279Y-160648511D01*
X243591164Y-160417833D01*
X243681170Y-160200538D01*
X243811839Y-160004979D01*
X243978148Y-159838670D01*
X244173707Y-159708001D01*
X244391002Y-159617995D01*
X244621680Y-159572110D01*
X244856878Y-159572110D01*
X245087556Y-159617995D01*
X245087556Y-159617995D01*
G37*
G36*
X152701821Y-159330128D02*
X152919116Y-159420134D01*
X153114675Y-159550803D01*
X153280984Y-159717112D01*
X153411653Y-159912671D01*
X153501659Y-160129966D01*
X153547544Y-160360644D01*
X153547544Y-160595842D01*
X153501659Y-160826520D01*
X153411653Y-161043815D01*
X153280984Y-161239374D01*
X153114675Y-161405683D01*
X152919116Y-161536352D01*
X152701821Y-161626358D01*
X152471143Y-161672243D01*
X152235945Y-161672243D01*
X152005267Y-161626358D01*
X151787972Y-161536352D01*
X151592413Y-161405683D01*
X151426104Y-161239374D01*
X151295435Y-161043815D01*
X151205429Y-160826520D01*
X151159544Y-160595842D01*
X151159544Y-160360644D01*
X151205429Y-160129966D01*
X151295435Y-159912671D01*
X151426104Y-159717112D01*
X151592413Y-159550803D01*
X151787972Y-159420134D01*
X152005267Y-159330128D01*
X152235945Y-159284243D01*
X152471143Y-159284243D01*
X152701821Y-159330128D01*
X152701821Y-159330128D01*
G37*
G36*
X120421367Y-159872407D02*
X120195277Y-161154627D01*
X119208499Y-160980631D01*
X119434589Y-159698411D01*
X120421367Y-159872407D01*
X120421367Y-159872407D01*
G37*
G36*
X283557556Y-158447995D02*
X283774851Y-158538001D01*
X283970410Y-158668670D01*
X284136719Y-158834979D01*
X284267388Y-159030538D01*
X284357394Y-159247833D01*
X284403279Y-159478511D01*
X284403279Y-159713709D01*
X284357394Y-159944387D01*
X284267388Y-160161682D01*
X284136719Y-160357241D01*
X283970410Y-160523550D01*
X283774851Y-160654219D01*
X283594617Y-160728874D01*
X283557556Y-160744225D01*
X283326878Y-160790110D01*
X283091680Y-160790110D01*
X282861002Y-160744225D01*
X282823941Y-160728874D01*
X282643707Y-160654219D01*
X282448148Y-160523550D01*
X282281839Y-160357241D01*
X282151170Y-160161682D01*
X282061164Y-159944387D01*
X282015279Y-159713709D01*
X282015279Y-159478511D01*
X282061164Y-159247833D01*
X282151170Y-159030538D01*
X282281839Y-158834979D01*
X282448148Y-158668670D01*
X282643707Y-158538001D01*
X282861002Y-158447995D01*
X283091680Y-158402110D01*
X283326878Y-158402110D01*
X283557556Y-158447995D01*
X283557556Y-158447995D01*
G37*
G36*
X117171501Y-159299369D02*
X116945411Y-160581589D01*
X115958633Y-160407593D01*
X116184723Y-159125373D01*
X117171501Y-159299369D01*
X117171501Y-159299369D01*
G37*
G36*
X223130742Y-158340242D02*
X223278702Y-158401530D01*
X223411858Y-158490502D01*
X223525098Y-158603742D01*
X223614070Y-158736898D01*
X223675358Y-158884858D01*
X223706600Y-159041925D01*
X223706600Y-159202075D01*
X223675358Y-159359142D01*
X223614070Y-159507102D01*
X223525098Y-159640258D01*
X223411858Y-159753498D01*
X223278702Y-159842470D01*
X223130742Y-159903758D01*
X222973675Y-159935000D01*
X222813525Y-159935000D01*
X222656458Y-159903758D01*
X222508498Y-159842470D01*
X222375342Y-159753498D01*
X222262102Y-159640258D01*
X222173130Y-159507102D01*
X222111842Y-159359142D01*
X222080600Y-159202075D01*
X222080600Y-159041925D01*
X222111842Y-158884858D01*
X222173130Y-158736898D01*
X222262102Y-158603742D01*
X222375342Y-158490502D01*
X222508498Y-158401530D01*
X222656458Y-158340242D01*
X222813525Y-158309000D01*
X222973675Y-158309000D01*
X223130742Y-158340242D01*
X223130742Y-158340242D01*
G37*
G36*
X207910742Y-158340242D02*
X208058702Y-158401530D01*
X208191858Y-158490502D01*
X208305098Y-158603742D01*
X208394070Y-158736898D01*
X208455358Y-158884858D01*
X208486600Y-159041925D01*
X208486600Y-159202075D01*
X208455358Y-159359142D01*
X208394070Y-159507102D01*
X208305098Y-159640258D01*
X208191858Y-159753498D01*
X208058702Y-159842470D01*
X207910742Y-159903758D01*
X207753675Y-159935000D01*
X207593525Y-159935000D01*
X207436458Y-159903758D01*
X207288498Y-159842470D01*
X207155342Y-159753498D01*
X207042102Y-159640258D01*
X206953130Y-159507102D01*
X206891842Y-159359142D01*
X206860600Y-159202075D01*
X206860600Y-159041925D01*
X206891842Y-158884858D01*
X206953130Y-158736898D01*
X207042102Y-158603742D01*
X207155342Y-158490502D01*
X207288498Y-158401530D01*
X207436458Y-158340242D01*
X207593525Y-158309000D01*
X207753675Y-158309000D01*
X207910742Y-158340242D01*
X207910742Y-158340242D01*
G37*
G36*
X140021367Y-158502407D02*
X139795277Y-159784627D01*
X138808499Y-159610631D01*
X139034589Y-158328411D01*
X140021367Y-158502407D01*
X140021367Y-158502407D01*
G37*
G36*
X136771501Y-157929369D02*
X136545411Y-159211589D01*
X135558633Y-159037593D01*
X135784723Y-157755373D01*
X136771501Y-157929369D01*
X136771501Y-157929369D01*
G37*
G36*
X325011501Y-158590631D02*
X324024723Y-158764627D01*
X323798633Y-157482407D01*
X324785411Y-157308411D01*
X325011501Y-158590631D01*
X325011501Y-158590631D01*
G37*
G36*
X328261367Y-158017593D02*
X327274589Y-158191589D01*
X327048499Y-156909369D01*
X328035277Y-156735373D01*
X328261367Y-158017593D01*
X328261367Y-158017593D01*
G37*
G36*
X101651367Y-156542407D02*
X101425277Y-157824627D01*
X100438499Y-157650631D01*
X100664589Y-156368411D01*
X101651367Y-156542407D01*
X101651367Y-156542407D01*
G37*
G36*
X198411367Y-156402407D02*
X198185277Y-157684627D01*
X197198499Y-157510631D01*
X197424589Y-156228411D01*
X198411367Y-156402407D01*
X198411367Y-156402407D01*
G37*
G36*
X223130742Y-155800242D02*
X223278702Y-155861530D01*
X223345730Y-155906317D01*
X223411857Y-155950501D01*
X223525099Y-156063743D01*
X223569283Y-156129870D01*
X223614070Y-156196898D01*
X223675358Y-156344858D01*
X223706600Y-156501925D01*
X223706600Y-156662075D01*
X223675358Y-156819142D01*
X223614070Y-156967102D01*
X223525098Y-157100258D01*
X223411858Y-157213498D01*
X223278702Y-157302470D01*
X223278701Y-157302471D01*
X223278700Y-157302471D01*
X223245183Y-157316354D01*
X223130742Y-157363758D01*
X222973675Y-157395000D01*
X222813525Y-157395000D01*
X222656458Y-157363758D01*
X222542017Y-157316354D01*
X222508500Y-157302471D01*
X222508499Y-157302471D01*
X222508498Y-157302470D01*
X222375342Y-157213498D01*
X222262102Y-157100258D01*
X222173130Y-156967102D01*
X222111842Y-156819142D01*
X222080600Y-156662075D01*
X222080600Y-156501925D01*
X222111842Y-156344858D01*
X222173130Y-156196898D01*
X222217917Y-156129870D01*
X222262101Y-156063743D01*
X222375343Y-155950501D01*
X222441470Y-155906317D01*
X222508498Y-155861530D01*
X222656458Y-155800242D01*
X222813525Y-155769000D01*
X222973675Y-155769000D01*
X223130742Y-155800242D01*
X223130742Y-155800242D01*
G37*
G36*
X207910742Y-155800242D02*
X208058702Y-155861530D01*
X208125730Y-155906317D01*
X208191857Y-155950501D01*
X208305099Y-156063743D01*
X208349283Y-156129870D01*
X208394070Y-156196898D01*
X208455358Y-156344858D01*
X208486600Y-156501925D01*
X208486600Y-156662075D01*
X208455358Y-156819142D01*
X208394070Y-156967102D01*
X208305098Y-157100258D01*
X208191858Y-157213498D01*
X208058702Y-157302470D01*
X208058701Y-157302471D01*
X208058700Y-157302471D01*
X208025183Y-157316354D01*
X207910742Y-157363758D01*
X207753675Y-157395000D01*
X207593525Y-157395000D01*
X207436458Y-157363758D01*
X207322017Y-157316354D01*
X207288500Y-157302471D01*
X207288499Y-157302471D01*
X207288498Y-157302470D01*
X207155342Y-157213498D01*
X207042102Y-157100258D01*
X206953130Y-156967102D01*
X206891842Y-156819142D01*
X206860600Y-156662075D01*
X206860600Y-156501925D01*
X206891842Y-156344858D01*
X206953130Y-156196898D01*
X206997917Y-156129870D01*
X207042101Y-156063743D01*
X207155343Y-155950501D01*
X207221470Y-155906317D01*
X207288498Y-155861530D01*
X207436458Y-155800242D01*
X207593525Y-155769000D01*
X207753675Y-155769000D01*
X207910742Y-155800242D01*
X207910742Y-155800242D01*
G37*
G36*
X305451501Y-157200631D02*
X304464723Y-157374627D01*
X304238633Y-156092407D01*
X305225411Y-155918411D01*
X305451501Y-157200631D01*
X305451501Y-157200631D01*
G37*
G36*
X98401501Y-155969369D02*
X98175411Y-157251589D01*
X97188633Y-157077593D01*
X97414723Y-155795373D01*
X98401501Y-155969369D01*
X98401501Y-155969369D01*
G37*
G36*
X195161501Y-155829369D02*
X194935411Y-157111589D01*
X193948633Y-156937593D01*
X194174723Y-155655373D01*
X195161501Y-155829369D01*
X195161501Y-155829369D01*
G37*
G36*
X308701367Y-156627593D02*
X307714589Y-156801589D01*
X307488499Y-155519369D01*
X308475277Y-155345373D01*
X308701367Y-156627593D01*
X308701367Y-156627593D01*
G37*
G36*
X159931367Y-155232407D02*
X159705277Y-156514627D01*
X158718499Y-156340631D01*
X158944589Y-155058411D01*
X159931367Y-155232407D01*
X159931367Y-155232407D01*
G37*
G36*
X156681501Y-154659369D02*
X156455411Y-155941589D01*
X155468633Y-155767593D01*
X155694723Y-154485373D01*
X156681501Y-154659369D01*
X156681501Y-154659369D01*
G37*
G36*
X256835093Y-153162073D02*
X257052388Y-153252079D01*
X257247947Y-153382748D01*
X257414256Y-153549057D01*
X257544925Y-153744616D01*
X257634931Y-153961911D01*
X257680816Y-154192589D01*
X257680816Y-154427787D01*
X257634931Y-154658465D01*
X257544925Y-154875760D01*
X257414256Y-155071319D01*
X257247947Y-155237628D01*
X257052388Y-155368297D01*
X256892252Y-155434627D01*
X256835093Y-155458303D01*
X256604415Y-155504188D01*
X256369217Y-155504188D01*
X256138539Y-155458303D01*
X256081380Y-155434627D01*
X255921244Y-155368297D01*
X255725685Y-155237628D01*
X255559376Y-155071319D01*
X255428707Y-154875760D01*
X255338701Y-154658465D01*
X255292816Y-154427787D01*
X255292816Y-154192589D01*
X255338701Y-153961911D01*
X255428707Y-153744616D01*
X255559376Y-153549057D01*
X255725685Y-153382748D01*
X255921244Y-153252079D01*
X256138539Y-153162073D01*
X256369217Y-153116188D01*
X256604415Y-153116188D01*
X256835093Y-153162073D01*
X256835093Y-153162073D01*
G37*
G36*
X343781501Y-155260631D02*
X342794723Y-155434627D01*
X342568633Y-154152407D01*
X343555411Y-153978411D01*
X343781501Y-155260631D01*
X343781501Y-155260631D01*
G37*
G36*
X246971501Y-155070631D02*
X245984723Y-155244627D01*
X245758633Y-153962407D01*
X246745411Y-153788411D01*
X246971501Y-155070631D01*
X246971501Y-155070631D01*
G37*
G36*
X347031367Y-154687593D02*
X346044589Y-154861589D01*
X345818499Y-153579369D01*
X346805277Y-153405373D01*
X347031367Y-154687593D01*
X347031367Y-154687593D01*
G37*
G36*
X207910742Y-153260242D02*
X208058702Y-153321530D01*
X208191858Y-153410502D01*
X208305098Y-153523742D01*
X208394070Y-153656898D01*
X208455358Y-153804858D01*
X208486600Y-153961925D01*
X208486600Y-154122075D01*
X208455358Y-154279142D01*
X208407954Y-154393583D01*
X208394071Y-154427100D01*
X208305099Y-154560257D01*
X208191857Y-154673499D01*
X208125730Y-154717683D01*
X208058702Y-154762470D01*
X207910742Y-154823758D01*
X207753675Y-154855000D01*
X207593525Y-154855000D01*
X207436458Y-154823758D01*
X207288498Y-154762470D01*
X207221470Y-154717683D01*
X207155343Y-154673499D01*
X207042101Y-154560257D01*
X206953129Y-154427100D01*
X206939246Y-154393583D01*
X206891842Y-154279142D01*
X206860600Y-154122075D01*
X206860600Y-153961925D01*
X206891842Y-153804858D01*
X206953130Y-153656898D01*
X207042102Y-153523742D01*
X207155342Y-153410502D01*
X207288498Y-153321530D01*
X207436458Y-153260242D01*
X207593525Y-153229000D01*
X207753675Y-153229000D01*
X207910742Y-153260242D01*
X207910742Y-153260242D01*
G37*
G36*
X223130742Y-153260242D02*
X223278702Y-153321530D01*
X223411858Y-153410502D01*
X223525098Y-153523742D01*
X223614070Y-153656898D01*
X223675358Y-153804858D01*
X223706600Y-153961925D01*
X223706600Y-154122075D01*
X223675358Y-154279142D01*
X223627954Y-154393583D01*
X223614071Y-154427100D01*
X223525099Y-154560257D01*
X223411857Y-154673499D01*
X223345730Y-154717683D01*
X223278702Y-154762470D01*
X223130742Y-154823758D01*
X222973675Y-154855000D01*
X222813525Y-154855000D01*
X222656458Y-154823758D01*
X222508498Y-154762470D01*
X222441470Y-154717683D01*
X222375343Y-154673499D01*
X222262101Y-154560257D01*
X222173129Y-154427100D01*
X222159246Y-154393583D01*
X222111842Y-154279142D01*
X222080600Y-154122075D01*
X222080600Y-153961925D01*
X222111842Y-153804858D01*
X222173130Y-153656898D01*
X222262102Y-153523742D01*
X222375342Y-153410502D01*
X222508498Y-153321530D01*
X222656458Y-153260242D01*
X222813525Y-153229000D01*
X222973675Y-153229000D01*
X223130742Y-153260242D01*
X223130742Y-153260242D01*
G37*
G36*
X250221367Y-154497593D02*
X249234589Y-154671589D01*
X249008499Y-153389369D01*
X249995277Y-153215373D01*
X250221367Y-154497593D01*
X250221367Y-154497593D01*
G37*
G36*
X166917226Y-151838874D02*
X167134521Y-151928880D01*
X167330080Y-152059549D01*
X167496389Y-152225858D01*
X167627058Y-152421417D01*
X167717064Y-152638712D01*
X167762949Y-152869390D01*
X167762949Y-153104588D01*
X167717064Y-153335266D01*
X167627058Y-153552561D01*
X167496389Y-153748120D01*
X167330080Y-153914429D01*
X167134521Y-154045098D01*
X166917226Y-154135104D01*
X166686548Y-154180989D01*
X166451350Y-154180989D01*
X166220672Y-154135104D01*
X166003377Y-154045098D01*
X165807818Y-153914429D01*
X165641509Y-153748120D01*
X165510840Y-153552561D01*
X165420834Y-153335266D01*
X165374949Y-153104588D01*
X165374949Y-152869390D01*
X165420834Y-152638712D01*
X165510840Y-152421417D01*
X165641509Y-152225858D01*
X165807818Y-152059549D01*
X166003377Y-151928880D01*
X166220672Y-151838874D01*
X166451350Y-151792989D01*
X166686548Y-151792989D01*
X166917226Y-151838874D01*
X166917226Y-151838874D01*
G37*
G36*
X285511501Y-153930631D02*
X284524723Y-154104627D01*
X284298633Y-152822407D01*
X285285411Y-152648411D01*
X285511501Y-153930631D01*
X285511501Y-153930631D01*
G37*
G36*
X288761367Y-153357593D02*
X287774589Y-153531589D01*
X287548499Y-152249369D01*
X288535277Y-152075373D01*
X288761367Y-153357593D01*
X288761367Y-153357593D01*
G37*
G36*
X173611821Y-150440128D02*
X173829116Y-150530134D01*
X174024675Y-150660803D01*
X174190984Y-150827112D01*
X174321653Y-151022671D01*
X174411659Y-151239966D01*
X174457544Y-151470644D01*
X174457544Y-151705842D01*
X174411659Y-151936520D01*
X174321653Y-152153815D01*
X174190984Y-152349374D01*
X174024675Y-152515683D01*
X173829116Y-152646352D01*
X173611821Y-152736358D01*
X173381143Y-152782243D01*
X173145945Y-152782243D01*
X172915267Y-152736358D01*
X172697972Y-152646352D01*
X172502413Y-152515683D01*
X172336104Y-152349374D01*
X172205435Y-152153815D01*
X172115429Y-151936520D01*
X172069544Y-151705842D01*
X172069544Y-151470644D01*
X172115429Y-151239966D01*
X172205435Y-151022671D01*
X172336104Y-150827112D01*
X172502413Y-150660803D01*
X172697972Y-150530134D01*
X172915267Y-150440128D01*
X173145945Y-150394243D01*
X173381143Y-150394243D01*
X173611821Y-150440128D01*
X173611821Y-150440128D01*
G37*
G36*
X223130742Y-150720242D02*
X223278702Y-150781530D01*
X223411858Y-150870502D01*
X223525098Y-150983742D01*
X223614070Y-151116898D01*
X223675358Y-151264858D01*
X223706600Y-151421925D01*
X223706600Y-151582075D01*
X223675358Y-151739142D01*
X223653053Y-151792989D01*
X223614071Y-151887100D01*
X223525099Y-152020257D01*
X223411857Y-152133499D01*
X223345730Y-152177683D01*
X223278702Y-152222470D01*
X223278701Y-152222471D01*
X223278700Y-152222471D01*
X223245183Y-152236354D01*
X223130742Y-152283758D01*
X222973675Y-152315000D01*
X222813525Y-152315000D01*
X222656458Y-152283758D01*
X222542017Y-152236354D01*
X222508500Y-152222471D01*
X222508499Y-152222471D01*
X222508498Y-152222470D01*
X222441470Y-152177683D01*
X222375343Y-152133499D01*
X222262101Y-152020257D01*
X222173129Y-151887100D01*
X222134147Y-151792989D01*
X222111842Y-151739142D01*
X222080600Y-151582075D01*
X222080600Y-151421925D01*
X222111842Y-151264858D01*
X222173130Y-151116898D01*
X222262102Y-150983742D01*
X222375342Y-150870502D01*
X222508498Y-150781530D01*
X222656458Y-150720242D01*
X222813525Y-150689000D01*
X222973675Y-150689000D01*
X223130742Y-150720242D01*
X223130742Y-150720242D01*
G37*
G36*
X207910742Y-150720242D02*
X208058702Y-150781530D01*
X208191858Y-150870502D01*
X208305098Y-150983742D01*
X208394070Y-151116898D01*
X208455358Y-151264858D01*
X208486600Y-151421925D01*
X208486600Y-151582075D01*
X208455358Y-151739142D01*
X208433053Y-151792989D01*
X208394071Y-151887100D01*
X208305099Y-152020257D01*
X208191857Y-152133499D01*
X208125730Y-152177683D01*
X208058702Y-152222470D01*
X208058701Y-152222471D01*
X208058700Y-152222471D01*
X208025183Y-152236354D01*
X207910742Y-152283758D01*
X207753675Y-152315000D01*
X207593525Y-152315000D01*
X207436458Y-152283758D01*
X207322017Y-152236354D01*
X207288500Y-152222471D01*
X207288499Y-152222471D01*
X207288498Y-152222470D01*
X207221470Y-152177683D01*
X207155343Y-152133499D01*
X207042101Y-152020257D01*
X206953129Y-151887100D01*
X206914147Y-151792989D01*
X206891842Y-151739142D01*
X206860600Y-151582075D01*
X206860600Y-151421925D01*
X206891842Y-151264858D01*
X206953130Y-151116898D01*
X207042102Y-150983742D01*
X207155342Y-150870502D01*
X207288498Y-150781530D01*
X207436458Y-150720242D01*
X207593525Y-150689000D01*
X207753675Y-150689000D01*
X207910742Y-150720242D01*
X207910742Y-150720242D01*
G37*
G36*
X262647556Y-149557995D02*
X262864851Y-149648001D01*
X263060410Y-149778670D01*
X263226719Y-149944979D01*
X263357388Y-150140538D01*
X263447394Y-150357833D01*
X263493279Y-150588511D01*
X263493279Y-150823709D01*
X263447394Y-151054387D01*
X263357388Y-151271682D01*
X263226719Y-151467241D01*
X263060410Y-151633550D01*
X262864851Y-151764219D01*
X262647556Y-151854225D01*
X262416878Y-151900110D01*
X262181680Y-151900110D01*
X261951002Y-151854225D01*
X261733707Y-151764219D01*
X261538148Y-151633550D01*
X261371839Y-151467241D01*
X261241170Y-151271682D01*
X261151164Y-151054387D01*
X261105279Y-150823709D01*
X261105279Y-150588511D01*
X261151164Y-150357833D01*
X261241170Y-150140538D01*
X261371839Y-149944979D01*
X261538148Y-149778670D01*
X261733707Y-149648001D01*
X261951002Y-149557995D01*
X262181680Y-149512110D01*
X262416878Y-149512110D01*
X262647556Y-149557995D01*
X262647556Y-149557995D01*
G37*
G36*
X313955093Y-147932073D02*
X314172388Y-148022079D01*
X314367947Y-148152748D01*
X314534256Y-148319057D01*
X314664925Y-148514616D01*
X314754931Y-148731911D01*
X314800816Y-148962589D01*
X314800816Y-149197787D01*
X314754931Y-149428465D01*
X314664925Y-149645760D01*
X314534256Y-149841319D01*
X314367947Y-150007628D01*
X314172388Y-150138297D01*
X313955093Y-150228303D01*
X313724415Y-150274188D01*
X313489217Y-150274188D01*
X313258539Y-150228303D01*
X313041244Y-150138297D01*
X312845685Y-150007628D01*
X312679376Y-149841319D01*
X312548707Y-149645760D01*
X312458701Y-149428465D01*
X312412816Y-149197787D01*
X312412816Y-148962589D01*
X312458701Y-148731911D01*
X312548707Y-148514616D01*
X312679376Y-148319057D01*
X312845685Y-148152748D01*
X313041244Y-148022079D01*
X313258539Y-147932073D01*
X313489217Y-147886188D01*
X313724415Y-147886188D01*
X313955093Y-147932073D01*
X313955093Y-147932073D01*
G37*
G36*
X223130742Y-148180242D02*
X223278702Y-148241530D01*
X223314963Y-148265759D01*
X223399974Y-148322561D01*
X223411858Y-148330502D01*
X223525098Y-148443742D01*
X223614070Y-148576898D01*
X223675358Y-148724858D01*
X223706600Y-148881925D01*
X223706600Y-149042075D01*
X223675358Y-149199142D01*
X223614070Y-149347102D01*
X223525098Y-149480258D01*
X223411858Y-149593498D01*
X223278702Y-149682470D01*
X223130742Y-149743758D01*
X222973675Y-149775000D01*
X222813525Y-149775000D01*
X222656458Y-149743758D01*
X222508498Y-149682470D01*
X222375342Y-149593498D01*
X222262102Y-149480258D01*
X222173130Y-149347102D01*
X222111842Y-149199142D01*
X222080600Y-149042075D01*
X222080600Y-148881925D01*
X222111842Y-148724858D01*
X222173130Y-148576898D01*
X222262102Y-148443742D01*
X222375342Y-148330502D01*
X222387227Y-148322561D01*
X222472237Y-148265759D01*
X222508498Y-148241530D01*
X222656458Y-148180242D01*
X222813525Y-148149000D01*
X222973675Y-148149000D01*
X223130742Y-148180242D01*
X223130742Y-148180242D01*
G37*
G36*
X207910742Y-148180242D02*
X208058702Y-148241530D01*
X208094963Y-148265759D01*
X208179974Y-148322561D01*
X208191858Y-148330502D01*
X208305098Y-148443742D01*
X208394070Y-148576898D01*
X208455358Y-148724858D01*
X208486600Y-148881925D01*
X208486600Y-149042075D01*
X208455358Y-149199142D01*
X208394070Y-149347102D01*
X208305098Y-149480258D01*
X208191858Y-149593498D01*
X208058702Y-149682470D01*
X207910742Y-149743758D01*
X207753675Y-149775000D01*
X207593525Y-149775000D01*
X207436458Y-149743758D01*
X207288498Y-149682470D01*
X207155342Y-149593498D01*
X207042102Y-149480258D01*
X206953130Y-149347102D01*
X206891842Y-149199142D01*
X206860600Y-149042075D01*
X206860600Y-148881925D01*
X206891842Y-148724858D01*
X206953130Y-148576898D01*
X207042102Y-148443742D01*
X207155342Y-148330502D01*
X207167227Y-148322561D01*
X207252237Y-148265759D01*
X207288498Y-148241530D01*
X207436458Y-148180242D01*
X207593525Y-148149000D01*
X207753675Y-148149000D01*
X207910742Y-148180242D01*
X207910742Y-148180242D01*
G37*
G36*
X109807226Y-146608874D02*
X110024521Y-146698880D01*
X110220080Y-146829549D01*
X110386389Y-146995858D01*
X110517058Y-147191417D01*
X110607064Y-147408712D01*
X110652949Y-147639390D01*
X110652949Y-147874588D01*
X110607064Y-148105266D01*
X110517058Y-148322561D01*
X110386389Y-148518120D01*
X110220080Y-148684429D01*
X110024521Y-148815098D01*
X109807226Y-148905104D01*
X109576548Y-148950989D01*
X109341350Y-148950989D01*
X109110672Y-148905104D01*
X108893377Y-148815098D01*
X108697818Y-148684429D01*
X108531509Y-148518120D01*
X108400840Y-148322561D01*
X108310834Y-148105266D01*
X108264949Y-147874588D01*
X108264949Y-147639390D01*
X108310834Y-147408712D01*
X108400840Y-147191417D01*
X108531509Y-146995858D01*
X108697818Y-146829549D01*
X108893377Y-146698880D01*
X109110672Y-146608874D01*
X109341350Y-146562989D01*
X109576548Y-146562989D01*
X109807226Y-146608874D01*
X109807226Y-146608874D01*
G37*
G36*
X294365093Y-146552073D02*
X294582388Y-146642079D01*
X294777947Y-146772748D01*
X294944256Y-146939057D01*
X295074925Y-147134616D01*
X295164931Y-147351911D01*
X295210816Y-147582589D01*
X295210816Y-147817787D01*
X295164931Y-148048465D01*
X295074925Y-148265760D01*
X294944256Y-148461319D01*
X294777947Y-148627628D01*
X294582388Y-148758297D01*
X294365093Y-148848303D01*
X294134415Y-148894188D01*
X293899217Y-148894188D01*
X293668539Y-148848303D01*
X293451244Y-148758297D01*
X293255685Y-148627628D01*
X293089376Y-148461319D01*
X292958707Y-148265760D01*
X292868701Y-148048465D01*
X292822816Y-147817787D01*
X292822816Y-147582589D01*
X292868701Y-147351911D01*
X292958707Y-147134616D01*
X293089376Y-146939057D01*
X293255685Y-146772748D01*
X293451244Y-146642079D01*
X293668539Y-146552073D01*
X293899217Y-146506188D01*
X294134415Y-146506188D01*
X294365093Y-146552073D01*
X294365093Y-146552073D01*
G37*
G36*
X180831367Y-146312407D02*
X180605277Y-147594627D01*
X179618499Y-147420631D01*
X179844589Y-146138411D01*
X180831367Y-146312407D01*
X180831367Y-146312407D01*
G37*
G36*
X129397226Y-145218874D02*
X129614521Y-145308880D01*
X129810080Y-145439549D01*
X129976389Y-145605858D01*
X130107058Y-145801417D01*
X130197064Y-146018712D01*
X130242949Y-146249390D01*
X130242949Y-146484588D01*
X130197064Y-146715266D01*
X130107058Y-146932561D01*
X129976389Y-147128120D01*
X129810080Y-147294429D01*
X129614521Y-147425098D01*
X129397226Y-147515104D01*
X129166548Y-147560989D01*
X128931350Y-147560989D01*
X128700672Y-147515104D01*
X128483377Y-147425098D01*
X128287818Y-147294429D01*
X128121509Y-147128120D01*
X127990840Y-146932561D01*
X127900834Y-146715266D01*
X127854949Y-146484588D01*
X127854949Y-146249390D01*
X127900834Y-146018712D01*
X127990840Y-145801417D01*
X128121509Y-145605858D01*
X128287818Y-145439549D01*
X128483377Y-145308880D01*
X128700672Y-145218874D01*
X128931350Y-145172989D01*
X129166548Y-145172989D01*
X129397226Y-145218874D01*
X129397226Y-145218874D01*
G37*
G36*
X116501821Y-145210128D02*
X116719116Y-145300134D01*
X116914675Y-145430803D01*
X117080984Y-145597112D01*
X117211653Y-145792671D01*
X117301659Y-146009966D01*
X117347544Y-146240644D01*
X117347544Y-146475842D01*
X117301659Y-146706520D01*
X117211653Y-146923815D01*
X117080984Y-147119374D01*
X116914675Y-147285683D01*
X116719116Y-147416352D01*
X116501821Y-147506358D01*
X116271143Y-147552243D01*
X116035945Y-147552243D01*
X115805267Y-147506358D01*
X115587972Y-147416352D01*
X115392413Y-147285683D01*
X115226104Y-147119374D01*
X115095435Y-146923815D01*
X115005429Y-146706520D01*
X114959544Y-146475842D01*
X114959544Y-146240644D01*
X115005429Y-146009966D01*
X115095435Y-145792671D01*
X115226104Y-145597112D01*
X115392413Y-145430803D01*
X115587972Y-145300134D01*
X115805267Y-145210128D01*
X116035945Y-145164243D01*
X116271143Y-145164243D01*
X116501821Y-145210128D01*
X116501821Y-145210128D01*
G37*
G36*
X207910742Y-145640242D02*
X208058702Y-145701530D01*
X208191858Y-145790502D01*
X208305098Y-145903742D01*
X208394070Y-146036898D01*
X208455358Y-146184858D01*
X208486600Y-146341925D01*
X208486600Y-146502075D01*
X208455358Y-146659142D01*
X208408300Y-146772748D01*
X208394071Y-146807100D01*
X208305901Y-146939057D01*
X208305098Y-146940258D01*
X208191858Y-147053498D01*
X208058702Y-147142470D01*
X207910742Y-147203758D01*
X207753675Y-147235000D01*
X207593525Y-147235000D01*
X207436458Y-147203758D01*
X207288498Y-147142470D01*
X207155342Y-147053498D01*
X207042102Y-146940258D01*
X207041300Y-146939057D01*
X206953129Y-146807100D01*
X206938900Y-146772748D01*
X206891842Y-146659142D01*
X206860600Y-146502075D01*
X206860600Y-146341925D01*
X206891842Y-146184858D01*
X206953130Y-146036898D01*
X207042102Y-145903742D01*
X207155342Y-145790502D01*
X207288498Y-145701530D01*
X207436458Y-145640242D01*
X207593525Y-145609000D01*
X207753675Y-145609000D01*
X207910742Y-145640242D01*
X207910742Y-145640242D01*
G37*
G36*
X223130742Y-145640242D02*
X223278702Y-145701530D01*
X223411858Y-145790502D01*
X223525098Y-145903742D01*
X223614070Y-146036898D01*
X223675358Y-146184858D01*
X223706600Y-146341925D01*
X223706600Y-146502075D01*
X223675358Y-146659142D01*
X223628300Y-146772748D01*
X223614071Y-146807100D01*
X223525901Y-146939057D01*
X223525098Y-146940258D01*
X223411858Y-147053498D01*
X223278702Y-147142470D01*
X223130742Y-147203758D01*
X222973675Y-147235000D01*
X222813525Y-147235000D01*
X222656458Y-147203758D01*
X222508498Y-147142470D01*
X222375342Y-147053498D01*
X222262102Y-146940258D01*
X222261300Y-146939057D01*
X222173129Y-146807100D01*
X222158900Y-146772748D01*
X222111842Y-146659142D01*
X222080600Y-146502075D01*
X222080600Y-146341925D01*
X222111842Y-146184858D01*
X222173130Y-146036898D01*
X222262102Y-145903742D01*
X222375342Y-145790502D01*
X222508498Y-145701530D01*
X222656458Y-145640242D01*
X222813525Y-145609000D01*
X222973675Y-145609000D01*
X223130742Y-145640242D01*
X223130742Y-145640242D01*
G37*
G36*
X177581501Y-145739369D02*
X177355411Y-147021589D01*
X176368633Y-146847593D01*
X176594723Y-145565373D01*
X177581501Y-145739369D01*
X177581501Y-145739369D01*
G37*
G36*
X332705093Y-144622073D02*
X332922388Y-144712079D01*
X333117947Y-144842748D01*
X333284256Y-145009057D01*
X333414925Y-145204616D01*
X333504931Y-145421911D01*
X333550816Y-145652589D01*
X333550816Y-145887787D01*
X333504931Y-146118465D01*
X333414925Y-146335760D01*
X333284256Y-146531319D01*
X333117947Y-146697628D01*
X332922388Y-146828297D01*
X332705093Y-146918303D01*
X332474415Y-146964188D01*
X332239217Y-146964188D01*
X332008539Y-146918303D01*
X331791244Y-146828297D01*
X331595685Y-146697628D01*
X331429376Y-146531319D01*
X331298707Y-146335760D01*
X331208701Y-146118465D01*
X331162816Y-145887787D01*
X331162816Y-145652589D01*
X331208701Y-145421911D01*
X331298707Y-145204616D01*
X331429376Y-145009057D01*
X331595685Y-144842748D01*
X331791244Y-144712079D01*
X332008539Y-144622073D01*
X332239217Y-144576188D01*
X332474415Y-144576188D01*
X332705093Y-144622073D01*
X332705093Y-144622073D01*
G37*
G36*
X235955093Y-144462073D02*
X236172388Y-144552079D01*
X236367947Y-144682748D01*
X236534256Y-144849057D01*
X236664925Y-145044616D01*
X236754931Y-145261911D01*
X236800816Y-145492589D01*
X236800816Y-145727787D01*
X236754931Y-145958465D01*
X236664925Y-146175760D01*
X236534256Y-146371319D01*
X236367947Y-146537628D01*
X236172388Y-146668297D01*
X236058994Y-146715266D01*
X235955093Y-146758303D01*
X235724415Y-146804188D01*
X235489217Y-146804188D01*
X235258539Y-146758303D01*
X235154638Y-146715266D01*
X235041244Y-146668297D01*
X234845685Y-146537628D01*
X234679376Y-146371319D01*
X234548707Y-146175760D01*
X234458701Y-145958465D01*
X234412816Y-145727787D01*
X234412816Y-145492589D01*
X234458701Y-145261911D01*
X234548707Y-145044616D01*
X234679376Y-144849057D01*
X234845685Y-144682748D01*
X235041244Y-144552079D01*
X235258539Y-144462073D01*
X235489217Y-144416188D01*
X235724415Y-144416188D01*
X235955093Y-144462073D01*
X235955093Y-144462073D01*
G37*
G36*
X319767556Y-144327995D02*
X319984851Y-144418001D01*
X320180410Y-144548670D01*
X320346719Y-144714979D01*
X320477388Y-144910538D01*
X320567394Y-145127833D01*
X320613279Y-145358511D01*
X320613279Y-145593709D01*
X320567394Y-145824387D01*
X320477388Y-146041682D01*
X320346719Y-146237241D01*
X320180410Y-146403550D01*
X319984851Y-146534219D01*
X319767556Y-146624225D01*
X319536878Y-146670110D01*
X319301680Y-146670110D01*
X319071002Y-146624225D01*
X318853707Y-146534219D01*
X318658148Y-146403550D01*
X318491839Y-146237241D01*
X318361170Y-146041682D01*
X318271164Y-145824387D01*
X318225279Y-145593709D01*
X318225279Y-145358511D01*
X318271164Y-145127833D01*
X318361170Y-144910538D01*
X318491839Y-144714979D01*
X318658148Y-144548670D01*
X318853707Y-144418001D01*
X319071002Y-144327995D01*
X319301680Y-144282110D01*
X319536878Y-144282110D01*
X319767556Y-144327995D01*
X319767556Y-144327995D01*
G37*
G36*
X136091821Y-143820128D02*
X136309116Y-143910134D01*
X136504675Y-144040803D01*
X136670984Y-144207112D01*
X136801653Y-144402671D01*
X136891659Y-144619966D01*
X136937544Y-144850644D01*
X136937544Y-145085842D01*
X136891659Y-145316520D01*
X136801653Y-145533815D01*
X136670984Y-145729374D01*
X136504675Y-145895683D01*
X136309116Y-146026352D01*
X136091821Y-146116358D01*
X135861143Y-146162243D01*
X135625945Y-146162243D01*
X135395267Y-146116358D01*
X135177972Y-146026352D01*
X134982413Y-145895683D01*
X134816104Y-145729374D01*
X134685435Y-145533815D01*
X134595429Y-145316520D01*
X134549544Y-145085842D01*
X134549544Y-144850644D01*
X134595429Y-144619966D01*
X134685435Y-144402671D01*
X134816104Y-144207112D01*
X134982413Y-144040803D01*
X135177972Y-143910134D01*
X135395267Y-143820128D01*
X135625945Y-143774243D01*
X135861143Y-143774243D01*
X136091821Y-143820128D01*
X136091821Y-143820128D01*
G37*
G36*
X91047226Y-143298874D02*
X91264521Y-143388880D01*
X91460080Y-143519549D01*
X91626389Y-143685858D01*
X91757058Y-143881417D01*
X91847064Y-144098712D01*
X91892949Y-144329390D01*
X91892949Y-144564588D01*
X91847064Y-144795266D01*
X91757058Y-145012561D01*
X91626389Y-145208120D01*
X91460080Y-145374429D01*
X91264521Y-145505098D01*
X91119003Y-145565373D01*
X91047226Y-145595104D01*
X90816548Y-145640989D01*
X90581350Y-145640989D01*
X90350672Y-145595104D01*
X90278895Y-145565373D01*
X90133377Y-145505098D01*
X89937818Y-145374429D01*
X89771509Y-145208120D01*
X89640840Y-145012561D01*
X89550834Y-144795266D01*
X89504949Y-144564588D01*
X89504949Y-144329390D01*
X89550834Y-144098712D01*
X89640840Y-143881417D01*
X89771509Y-143685858D01*
X89937818Y-143519549D01*
X90133377Y-143388880D01*
X90350672Y-143298874D01*
X90581350Y-143252989D01*
X90816548Y-143252989D01*
X91047226Y-143298874D01*
X91047226Y-143298874D01*
G37*
G36*
X274445093Y-143292073D02*
X274662388Y-143382079D01*
X274857947Y-143512748D01*
X275024256Y-143679057D01*
X275154925Y-143874616D01*
X275244931Y-144091911D01*
X275290816Y-144322589D01*
X275290816Y-144557787D01*
X275244931Y-144788465D01*
X275154925Y-145005760D01*
X275024256Y-145201319D01*
X274857947Y-145367628D01*
X274662388Y-145498297D01*
X274445093Y-145588303D01*
X274214415Y-145634188D01*
X273979217Y-145634188D01*
X273748539Y-145588303D01*
X273531244Y-145498297D01*
X273335685Y-145367628D01*
X273169376Y-145201319D01*
X273038707Y-145005760D01*
X272948701Y-144788465D01*
X272902816Y-144557787D01*
X272902816Y-144322589D01*
X272948701Y-144091911D01*
X273038707Y-143874616D01*
X273169376Y-143679057D01*
X273335685Y-143512748D01*
X273531244Y-143382079D01*
X273748539Y-143292073D01*
X273979217Y-143246188D01*
X274214415Y-143246188D01*
X274445093Y-143292073D01*
X274445093Y-143292073D01*
G37*
G36*
X187797226Y-143138874D02*
X188014521Y-143228880D01*
X188210080Y-143359549D01*
X188376389Y-143525858D01*
X188507058Y-143721417D01*
X188597064Y-143938712D01*
X188642949Y-144169390D01*
X188642949Y-144404588D01*
X188597064Y-144635266D01*
X188507058Y-144852561D01*
X188376389Y-145048120D01*
X188210080Y-145214429D01*
X188014521Y-145345098D01*
X187797226Y-145435104D01*
X187566548Y-145480989D01*
X187331350Y-145480989D01*
X187100672Y-145435104D01*
X186883377Y-145345098D01*
X186687818Y-145214429D01*
X186521509Y-145048120D01*
X186390840Y-144852561D01*
X186300834Y-144635266D01*
X186254949Y-144404588D01*
X186254949Y-144169390D01*
X186300834Y-143938712D01*
X186390840Y-143721417D01*
X186521509Y-143525858D01*
X186687818Y-143359549D01*
X186883377Y-143228880D01*
X187100672Y-143138874D01*
X187331350Y-143092989D01*
X187566548Y-143092989D01*
X187797226Y-143138874D01*
X187797226Y-143138874D01*
G37*
G36*
X300177556Y-142947995D02*
X300394851Y-143038001D01*
X300590410Y-143168670D01*
X300756719Y-143334979D01*
X300887388Y-143530538D01*
X300977394Y-143747833D01*
X301023279Y-143978511D01*
X301023279Y-144213709D01*
X300977394Y-144444387D01*
X300887388Y-144661682D01*
X300756719Y-144857241D01*
X300590410Y-145023550D01*
X300394851Y-145154219D01*
X300259874Y-145210128D01*
X300177556Y-145244225D01*
X299946878Y-145290110D01*
X299711680Y-145290110D01*
X299481002Y-145244225D01*
X299398684Y-145210128D01*
X299263707Y-145154219D01*
X299068148Y-145023550D01*
X298901839Y-144857241D01*
X298771170Y-144661682D01*
X298681164Y-144444387D01*
X298635279Y-144213709D01*
X298635279Y-143978511D01*
X298681164Y-143747833D01*
X298771170Y-143530538D01*
X298901839Y-143334979D01*
X299068148Y-143168670D01*
X299263707Y-143038001D01*
X299481002Y-142947995D01*
X299711680Y-142902110D01*
X299946878Y-142902110D01*
X300177556Y-142947995D01*
X300177556Y-142947995D01*
G37*
G36*
X264611501Y-145050631D02*
X263624723Y-145224627D01*
X263398633Y-143942407D01*
X264385411Y-143768411D01*
X264611501Y-145050631D01*
X264611501Y-145050631D01*
G37*
G36*
X267861367Y-144477593D02*
X266874589Y-144651589D01*
X266648499Y-143369369D01*
X267635277Y-143195373D01*
X267861367Y-144477593D01*
X267861367Y-144477593D01*
G37*
G36*
X149317226Y-141958874D02*
X149534521Y-142048880D01*
X149730080Y-142179549D01*
X149896389Y-142345858D01*
X150027058Y-142541417D01*
X150117064Y-142758712D01*
X150162949Y-142989390D01*
X150162949Y-143224588D01*
X150117064Y-143455266D01*
X150027058Y-143672561D01*
X149896389Y-143868120D01*
X149730080Y-144034429D01*
X149534521Y-144165098D01*
X149433087Y-144207113D01*
X149317226Y-144255104D01*
X149086548Y-144300989D01*
X148851350Y-144300989D01*
X148620672Y-144255104D01*
X148504811Y-144207113D01*
X148403377Y-144165098D01*
X148207818Y-144034429D01*
X148041509Y-143868120D01*
X147910840Y-143672561D01*
X147820834Y-143455266D01*
X147774949Y-143224588D01*
X147774949Y-142989390D01*
X147820834Y-142758712D01*
X147910840Y-142541417D01*
X148041509Y-142345858D01*
X148207818Y-142179549D01*
X148403377Y-142048880D01*
X148620672Y-141958874D01*
X148851350Y-141912989D01*
X149086548Y-141912989D01*
X149317226Y-141958874D01*
X149317226Y-141958874D01*
G37*
G36*
X97741821Y-141900128D02*
X97959116Y-141990134D01*
X98154675Y-142120803D01*
X98320984Y-142287112D01*
X98451653Y-142482671D01*
X98541659Y-142699966D01*
X98587544Y-142930644D01*
X98587544Y-143165842D01*
X98541659Y-143396520D01*
X98451653Y-143613815D01*
X98320984Y-143809374D01*
X98154675Y-143975683D01*
X97959116Y-144106352D01*
X97741821Y-144196358D01*
X97511143Y-144242243D01*
X97275945Y-144242243D01*
X97045267Y-144196358D01*
X96827972Y-144106352D01*
X96632413Y-143975683D01*
X96466104Y-143809374D01*
X96335435Y-143613815D01*
X96245429Y-143396520D01*
X96199544Y-143165842D01*
X96199544Y-142930644D01*
X96245429Y-142699966D01*
X96335435Y-142482671D01*
X96466104Y-142287112D01*
X96632413Y-142120803D01*
X96827972Y-141990134D01*
X97045267Y-141900128D01*
X97275945Y-141854243D01*
X97511143Y-141854243D01*
X97741821Y-141900128D01*
X97741821Y-141900128D01*
G37*
G36*
X194491821Y-141740128D02*
X194709116Y-141830134D01*
X194904675Y-141960803D01*
X195070984Y-142127112D01*
X195201653Y-142322671D01*
X195291659Y-142539966D01*
X195337544Y-142770644D01*
X195337544Y-143005842D01*
X195291659Y-143236520D01*
X195201653Y-143453815D01*
X195070984Y-143649374D01*
X194904675Y-143815683D01*
X194709116Y-143946352D01*
X194491821Y-144036358D01*
X194261143Y-144082243D01*
X194025945Y-144082243D01*
X193795267Y-144036358D01*
X193577972Y-143946352D01*
X193382413Y-143815683D01*
X193216104Y-143649374D01*
X193085435Y-143453815D01*
X192995429Y-143236520D01*
X192949544Y-143005842D01*
X192949544Y-142770644D01*
X192995429Y-142539966D01*
X193085435Y-142322671D01*
X193216104Y-142127112D01*
X193382413Y-141960803D01*
X193577972Y-141830134D01*
X193795267Y-141740128D01*
X194025945Y-141694243D01*
X194261143Y-141694243D01*
X194491821Y-141740128D01*
X194491821Y-141740128D01*
G37*
G36*
X338517556Y-141017995D02*
X338734851Y-141108001D01*
X338930410Y-141238670D01*
X339096719Y-141404979D01*
X339227388Y-141600538D01*
X339317394Y-141817833D01*
X339363279Y-142048511D01*
X339363279Y-142283709D01*
X339317394Y-142514387D01*
X339227388Y-142731682D01*
X339096719Y-142927241D01*
X338930410Y-143093550D01*
X338734851Y-143224219D01*
X338517556Y-143314225D01*
X338286878Y-143360110D01*
X338051680Y-143360110D01*
X337821002Y-143314225D01*
X337603707Y-143224219D01*
X337408148Y-143093550D01*
X337241839Y-142927241D01*
X337111170Y-142731682D01*
X337021164Y-142514387D01*
X336975279Y-142283709D01*
X336975279Y-142048511D01*
X337021164Y-141817833D01*
X337111170Y-141600538D01*
X337241839Y-141404979D01*
X337408148Y-141238670D01*
X337603707Y-141108001D01*
X337821002Y-141017995D01*
X338051680Y-140972110D01*
X338286878Y-140972110D01*
X338517556Y-141017995D01*
X338517556Y-141017995D01*
G37*
G36*
X241767556Y-140857995D02*
X241984851Y-140948001D01*
X242180410Y-141078670D01*
X242346719Y-141244979D01*
X242477388Y-141440538D01*
X242567394Y-141657833D01*
X242613279Y-141888511D01*
X242613279Y-142123709D01*
X242567394Y-142354387D01*
X242477388Y-142571682D01*
X242346719Y-142767241D01*
X242180410Y-142933550D01*
X241984851Y-143064219D01*
X241767556Y-143154225D01*
X241536878Y-143200110D01*
X241301680Y-143200110D01*
X241071002Y-143154225D01*
X240853707Y-143064219D01*
X240658148Y-142933550D01*
X240491839Y-142767241D01*
X240361170Y-142571682D01*
X240271164Y-142354387D01*
X240225279Y-142123709D01*
X240225279Y-141888511D01*
X240271164Y-141657833D01*
X240361170Y-141440538D01*
X240491839Y-141244979D01*
X240658148Y-141078670D01*
X240853707Y-140948001D01*
X241071002Y-140857995D01*
X241301680Y-140812110D01*
X241536878Y-140812110D01*
X241767556Y-140857995D01*
X241767556Y-140857995D01*
G37*
G36*
X156011821Y-140560128D02*
X156229116Y-140650134D01*
X156424675Y-140780803D01*
X156590984Y-140947112D01*
X156721653Y-141142671D01*
X156811659Y-141359966D01*
X156857544Y-141590644D01*
X156857544Y-141825842D01*
X156811659Y-142056520D01*
X156721653Y-142273815D01*
X156590984Y-142469374D01*
X156424675Y-142635683D01*
X156229116Y-142766352D01*
X156011821Y-142856358D01*
X155781143Y-142902243D01*
X155545945Y-142902243D01*
X155315267Y-142856358D01*
X155097972Y-142766352D01*
X154902413Y-142635683D01*
X154736104Y-142469374D01*
X154605435Y-142273815D01*
X154515429Y-142056520D01*
X154469544Y-141825842D01*
X154469544Y-141590644D01*
X154515429Y-141359966D01*
X154605435Y-141142671D01*
X154736104Y-140947112D01*
X154902413Y-140780803D01*
X155097972Y-140650134D01*
X155315267Y-140560128D01*
X155545945Y-140514243D01*
X155781143Y-140514243D01*
X156011821Y-140560128D01*
X156011821Y-140560128D01*
G37*
G36*
X123711367Y-141112407D02*
X123485277Y-142394627D01*
X122498499Y-142220631D01*
X122724589Y-140938411D01*
X123711367Y-141112407D01*
X123711367Y-141112407D01*
G37*
G36*
X280257556Y-139687995D02*
X280474851Y-139778001D01*
X280670410Y-139908670D01*
X280836719Y-140074979D01*
X280967388Y-140270538D01*
X281057394Y-140487833D01*
X281103279Y-140718511D01*
X281103279Y-140953709D01*
X281057394Y-141184387D01*
X280967388Y-141401682D01*
X280836719Y-141597241D01*
X280670410Y-141763550D01*
X280474851Y-141894219D01*
X280318759Y-141958874D01*
X280257556Y-141984225D01*
X280026878Y-142030110D01*
X279791680Y-142030110D01*
X279561002Y-141984225D01*
X279499799Y-141958874D01*
X279343707Y-141894219D01*
X279148148Y-141763550D01*
X278981839Y-141597241D01*
X278851170Y-141401682D01*
X278761164Y-141184387D01*
X278715279Y-140953709D01*
X278715279Y-140718511D01*
X278761164Y-140487833D01*
X278851170Y-140270538D01*
X278981839Y-140074979D01*
X279148148Y-139908670D01*
X279343707Y-139778001D01*
X279561002Y-139687995D01*
X279791680Y-139642110D01*
X280026878Y-139642110D01*
X280257556Y-139687995D01*
X280257556Y-139687995D01*
G37*
G36*
X120461501Y-140539369D02*
X120235411Y-141821589D01*
X119248633Y-141647593D01*
X119474723Y-140365373D01*
X120461501Y-140539369D01*
X120461501Y-140539369D01*
G37*
G36*
X143311367Y-139692407D02*
X143085277Y-140974627D01*
X142098499Y-140800631D01*
X142324589Y-139518411D01*
X143311367Y-139692407D01*
X143311367Y-139692407D01*
G37*
G36*
X140061501Y-139119369D02*
X139835411Y-140401589D01*
X138848633Y-140227593D01*
X139074723Y-138945373D01*
X140061501Y-139119369D01*
X140061501Y-139119369D01*
G37*
G36*
X321711501Y-139810631D02*
X320724723Y-139984627D01*
X320498633Y-138702407D01*
X321485411Y-138528411D01*
X321711501Y-139810631D01*
X321711501Y-139810631D01*
G37*
G36*
X324961367Y-139237593D02*
X323974589Y-139411589D01*
X323748499Y-138129369D01*
X324735277Y-137955373D01*
X324961367Y-139237593D01*
X324961367Y-139237593D01*
G37*
G36*
X104991367Y-137802407D02*
X104765277Y-139084627D01*
X103778499Y-138910631D01*
X104004589Y-137628411D01*
X104991367Y-137802407D01*
X104991367Y-137802407D01*
G37*
G36*
X201711367Y-137632407D02*
X201485277Y-138914627D01*
X200498499Y-138740631D01*
X200724589Y-137458411D01*
X201711367Y-137632407D01*
X201711367Y-137632407D01*
G37*
G36*
X302141501Y-138420631D02*
X301154723Y-138594627D01*
X300928633Y-137312407D01*
X301915411Y-137138411D01*
X302141501Y-138420631D01*
X302141501Y-138420631D01*
G37*
G36*
X101741501Y-137229369D02*
X101515411Y-138511589D01*
X100528633Y-138337593D01*
X100754723Y-137055373D01*
X101741501Y-137229369D01*
X101741501Y-137229369D01*
G37*
G36*
X198461501Y-137059369D02*
X198235411Y-138341589D01*
X197248633Y-138167593D01*
X197474723Y-136885373D01*
X198461501Y-137059369D01*
X198461501Y-137059369D01*
G37*
G36*
X305391367Y-137847593D02*
X304404589Y-138021589D01*
X304178499Y-136739369D01*
X305165277Y-136565373D01*
X305391367Y-137847593D01*
X305391367Y-137847593D01*
G37*
G36*
X163241367Y-136442407D02*
X163015277Y-137724627D01*
X162028499Y-137550631D01*
X162254589Y-136268411D01*
X163241367Y-136442407D01*
X163241367Y-136442407D01*
G37*
G36*
X159991501Y-135869369D02*
X159765411Y-137151589D01*
X158778633Y-136977593D01*
X159004723Y-135695373D01*
X159991501Y-135869369D01*
X159991501Y-135869369D01*
G37*
G36*
X253535093Y-134402073D02*
X253752388Y-134492079D01*
X253947947Y-134622748D01*
X254114256Y-134789057D01*
X254244925Y-134984616D01*
X254334931Y-135201911D01*
X254380816Y-135432589D01*
X254380816Y-135667787D01*
X254334931Y-135898465D01*
X254244925Y-136115760D01*
X254114256Y-136311319D01*
X253947947Y-136477628D01*
X253752388Y-136608297D01*
X253568110Y-136684627D01*
X253535093Y-136698303D01*
X253304415Y-136744188D01*
X253069217Y-136744188D01*
X252838539Y-136698303D01*
X252805522Y-136684627D01*
X252621244Y-136608297D01*
X252425685Y-136477628D01*
X252259376Y-136311319D01*
X252128707Y-136115760D01*
X252038701Y-135898465D01*
X251992816Y-135667787D01*
X251992816Y-135432589D01*
X252038701Y-135201911D01*
X252128707Y-134984616D01*
X252259376Y-134789057D01*
X252425685Y-134622748D01*
X252621244Y-134492079D01*
X252838539Y-134402073D01*
X253069217Y-134356188D01*
X253304415Y-134356188D01*
X253535093Y-134402073D01*
X253535093Y-134402073D01*
G37*
G36*
X340481501Y-136510631D02*
X339494723Y-136684627D01*
X339268633Y-135402407D01*
X340255411Y-135228411D01*
X340481501Y-136510631D01*
X340481501Y-136510631D01*
G37*
G36*
X243731501Y-136320631D02*
X242744723Y-136494627D01*
X242518633Y-135212407D01*
X243505411Y-135038411D01*
X243731501Y-136320631D01*
X243731501Y-136320631D01*
G37*
G36*
X343731367Y-135937593D02*
X342744589Y-136111589D01*
X342518499Y-134829369D01*
X343505277Y-134655373D01*
X343731367Y-135937593D01*
X343731367Y-135937593D01*
G37*
G36*
X246981367Y-135747593D02*
X245994589Y-135921589D01*
X245768499Y-134639369D01*
X246755277Y-134465373D01*
X246981367Y-135747593D01*
X246981367Y-135747593D01*
G37*
G36*
X170227226Y-133078874D02*
X170444521Y-133168880D01*
X170640080Y-133299549D01*
X170806389Y-133465858D01*
X170937058Y-133661417D01*
X171027064Y-133878712D01*
X171072949Y-134109390D01*
X171072949Y-134344588D01*
X171027064Y-134575266D01*
X170937058Y-134792561D01*
X170806389Y-134988120D01*
X170640080Y-135154429D01*
X170444521Y-135285098D01*
X170227226Y-135375104D01*
X169996548Y-135420989D01*
X169761350Y-135420989D01*
X169530672Y-135375104D01*
X169313377Y-135285098D01*
X169117818Y-135154429D01*
X168951509Y-134988120D01*
X168820840Y-134792561D01*
X168730834Y-134575266D01*
X168684949Y-134344588D01*
X168684949Y-134109390D01*
X168730834Y-133878712D01*
X168820840Y-133661417D01*
X168951509Y-133465858D01*
X169117818Y-133299549D01*
X169313377Y-133168880D01*
X169530672Y-133078874D01*
X169761350Y-133032989D01*
X169996548Y-133032989D01*
X170227226Y-133078874D01*
X170227226Y-133078874D01*
G37*
G36*
X282211501Y-135180631D02*
X281224723Y-135354627D01*
X280998633Y-134072407D01*
X281985411Y-133898411D01*
X282211501Y-135180631D01*
X282211501Y-135180631D01*
G37*
G36*
X285461367Y-134607593D02*
X284474589Y-134781589D01*
X284248499Y-133499369D01*
X285235277Y-133325373D01*
X285461367Y-134607593D01*
X285461367Y-134607593D01*
G37*
G36*
X176921821Y-131680128D02*
X177139116Y-131770134D01*
X177334675Y-131900803D01*
X177500984Y-132067112D01*
X177631653Y-132262671D01*
X177721659Y-132479966D01*
X177767544Y-132710644D01*
X177767544Y-132945842D01*
X177721659Y-133176520D01*
X177631653Y-133393815D01*
X177500984Y-133589374D01*
X177334675Y-133755683D01*
X177139116Y-133886352D01*
X176921821Y-133976358D01*
X176691143Y-134022243D01*
X176455945Y-134022243D01*
X176225267Y-133976358D01*
X176007972Y-133886352D01*
X175812413Y-133755683D01*
X175646104Y-133589374D01*
X175515435Y-133393815D01*
X175425429Y-133176520D01*
X175379544Y-132945842D01*
X175379544Y-132710644D01*
X175425429Y-132479966D01*
X175515435Y-132262671D01*
X175646104Y-132067112D01*
X175812413Y-131900803D01*
X176007972Y-131770134D01*
X176225267Y-131680128D01*
X176455945Y-131634243D01*
X176691143Y-131634243D01*
X176921821Y-131680128D01*
X176921821Y-131680128D01*
G37*
G36*
X259347556Y-130797995D02*
X259564851Y-130888001D01*
X259760410Y-131018670D01*
X259926719Y-131184979D01*
X260057388Y-131380538D01*
X260147394Y-131597833D01*
X260193279Y-131828511D01*
X260193279Y-132063709D01*
X260147394Y-132294387D01*
X260057388Y-132511682D01*
X259926719Y-132707241D01*
X259760410Y-132873550D01*
X259564851Y-133004219D01*
X259347556Y-133094225D01*
X259116878Y-133140110D01*
X258881680Y-133140110D01*
X258651002Y-133094225D01*
X258433707Y-133004219D01*
X258238148Y-132873550D01*
X258071839Y-132707241D01*
X257941170Y-132511682D01*
X257851164Y-132294387D01*
X257805279Y-132063709D01*
X257805279Y-131828511D01*
X257851164Y-131597833D01*
X257941170Y-131380538D01*
X258071839Y-131184979D01*
X258238148Y-131018670D01*
X258433707Y-130888001D01*
X258651002Y-130797995D01*
X258881680Y-130752110D01*
X259116878Y-130752110D01*
X259347556Y-130797995D01*
X259347556Y-130797995D01*
G37*
G36*
X310635093Y-129172073D02*
X310852388Y-129262079D01*
X311047947Y-129392748D01*
X311214256Y-129559057D01*
X311344925Y-129754616D01*
X311434931Y-129971911D01*
X311480816Y-130202589D01*
X311480816Y-130437787D01*
X311434931Y-130668465D01*
X311344925Y-130885760D01*
X311214256Y-131081319D01*
X311047947Y-131247628D01*
X310852388Y-131378297D01*
X310635093Y-131468303D01*
X310404415Y-131514188D01*
X310169217Y-131514188D01*
X309938539Y-131468303D01*
X309721244Y-131378297D01*
X309525685Y-131247628D01*
X309359376Y-131081319D01*
X309228707Y-130885760D01*
X309138701Y-130668465D01*
X309092816Y-130437787D01*
X309092816Y-130202589D01*
X309138701Y-129971911D01*
X309228707Y-129754616D01*
X309359376Y-129559057D01*
X309525685Y-129392748D01*
X309721244Y-129262079D01*
X309938539Y-129172073D01*
X310169217Y-129126188D01*
X310404415Y-129126188D01*
X310635093Y-129172073D01*
X310635093Y-129172073D01*
G37*
G36*
X113114743Y-127851295D02*
X113332038Y-127941301D01*
X113527597Y-128071970D01*
X113693906Y-128238279D01*
X113824575Y-128433838D01*
X113914581Y-128651133D01*
X113960466Y-128881811D01*
X113960466Y-129117009D01*
X113914581Y-129347687D01*
X113824575Y-129564982D01*
X113693906Y-129760541D01*
X113527597Y-129926850D01*
X113332038Y-130057519D01*
X113171084Y-130124188D01*
X113114743Y-130147525D01*
X112884065Y-130193410D01*
X112648867Y-130193410D01*
X112418189Y-130147525D01*
X112361848Y-130124188D01*
X112200894Y-130057519D01*
X112005335Y-129926850D01*
X111839026Y-129760541D01*
X111708357Y-129564982D01*
X111618351Y-129347687D01*
X111572466Y-129117009D01*
X111572466Y-128881811D01*
X111618351Y-128651133D01*
X111708357Y-128433838D01*
X111839026Y-128238279D01*
X112005335Y-128071970D01*
X112200894Y-127941301D01*
X112418189Y-127851295D01*
X112648867Y-127805410D01*
X112884065Y-127805410D01*
X113114743Y-127851295D01*
X113114743Y-127851295D01*
G37*
G36*
X291055093Y-127782073D02*
X291272388Y-127872079D01*
X291467947Y-128002748D01*
X291634256Y-128169057D01*
X291764925Y-128364616D01*
X291854931Y-128581911D01*
X291900816Y-128812589D01*
X291900816Y-129047787D01*
X291854931Y-129278465D01*
X291764925Y-129495760D01*
X291634256Y-129691319D01*
X291467947Y-129857628D01*
X291272388Y-129988297D01*
X291055093Y-130078303D01*
X290824415Y-130124188D01*
X290589217Y-130124188D01*
X290358539Y-130078303D01*
X290141244Y-129988297D01*
X289945685Y-129857628D01*
X289779376Y-129691319D01*
X289648707Y-129495760D01*
X289558701Y-129278465D01*
X289512816Y-129047787D01*
X289512816Y-128812589D01*
X289558701Y-128581911D01*
X289648707Y-128364616D01*
X289779376Y-128169057D01*
X289945685Y-128002748D01*
X290141244Y-127872079D01*
X290358539Y-127782073D01*
X290589217Y-127736188D01*
X290824415Y-127736188D01*
X291055093Y-127782073D01*
X291055093Y-127782073D01*
G37*
G36*
X184161367Y-127582407D02*
X183935277Y-128864627D01*
X182948499Y-128690631D01*
X183174589Y-127408411D01*
X184161367Y-127582407D01*
X184161367Y-127582407D01*
G37*
G36*
X132707226Y-126468874D02*
X132924521Y-126558880D01*
X133120080Y-126689549D01*
X133286389Y-126855858D01*
X133417058Y-127051417D01*
X133507064Y-127268712D01*
X133552949Y-127499390D01*
X133552949Y-127734588D01*
X133507064Y-127965266D01*
X133417058Y-128182561D01*
X133286389Y-128378120D01*
X133120080Y-128544429D01*
X132924521Y-128675098D01*
X132707226Y-128765104D01*
X132476548Y-128810989D01*
X132241350Y-128810989D01*
X132010672Y-128765104D01*
X131793377Y-128675098D01*
X131597818Y-128544429D01*
X131431509Y-128378120D01*
X131300840Y-128182561D01*
X131210834Y-127965266D01*
X131164949Y-127734588D01*
X131164949Y-127499390D01*
X131210834Y-127268712D01*
X131300840Y-127051417D01*
X131431509Y-126855858D01*
X131597818Y-126689549D01*
X131793377Y-126558880D01*
X132010672Y-126468874D01*
X132241350Y-126422989D01*
X132476548Y-126422989D01*
X132707226Y-126468874D01*
X132707226Y-126468874D01*
G37*
G36*
X119809338Y-126452549D02*
X120026633Y-126542555D01*
X120222192Y-126673224D01*
X120388501Y-126839533D01*
X120519170Y-127035092D01*
X120609176Y-127252387D01*
X120655061Y-127483065D01*
X120655061Y-127718263D01*
X120609176Y-127948941D01*
X120519170Y-128166236D01*
X120388501Y-128361795D01*
X120222192Y-128528104D01*
X120026633Y-128658773D01*
X119809338Y-128748779D01*
X119578660Y-128794664D01*
X119343462Y-128794664D01*
X119112784Y-128748779D01*
X118895489Y-128658773D01*
X118699930Y-128528104D01*
X118533621Y-128361795D01*
X118402952Y-128166236D01*
X118312946Y-127948941D01*
X118267061Y-127718263D01*
X118267061Y-127483065D01*
X118312946Y-127252387D01*
X118402952Y-127035092D01*
X118533621Y-126839533D01*
X118699930Y-126673224D01*
X118895489Y-126542555D01*
X119112784Y-126452549D01*
X119343462Y-126406664D01*
X119578660Y-126406664D01*
X119809338Y-126452549D01*
X119809338Y-126452549D01*
G37*
G36*
X180911501Y-127009369D02*
X180685411Y-128291589D01*
X179698633Y-128117593D01*
X179924723Y-126835373D01*
X180911501Y-127009369D01*
X180911501Y-127009369D01*
G37*
G36*
X329405093Y-125862073D02*
X329622388Y-125952079D01*
X329817947Y-126082748D01*
X329984256Y-126249057D01*
X330114925Y-126444616D01*
X330204931Y-126661911D01*
X330250816Y-126892589D01*
X330250816Y-127127787D01*
X330204931Y-127358465D01*
X330114925Y-127575760D01*
X329984256Y-127771319D01*
X329817947Y-127937628D01*
X329622388Y-128068297D01*
X329503376Y-128117593D01*
X329405093Y-128158303D01*
X329174415Y-128204188D01*
X328939217Y-128204188D01*
X328708539Y-128158303D01*
X328610256Y-128117593D01*
X328491244Y-128068297D01*
X328295685Y-127937628D01*
X328129376Y-127771319D01*
X327998707Y-127575760D01*
X327908701Y-127358465D01*
X327862816Y-127127787D01*
X327862816Y-126892589D01*
X327908701Y-126661911D01*
X327998707Y-126444616D01*
X328129376Y-126249057D01*
X328295685Y-126082748D01*
X328491244Y-125952079D01*
X328708539Y-125862073D01*
X328939217Y-125816188D01*
X329174415Y-125816188D01*
X329405093Y-125862073D01*
X329405093Y-125862073D01*
G37*
G36*
X232655093Y-125702073D02*
X232872388Y-125792079D01*
X233067947Y-125922748D01*
X233234256Y-126089057D01*
X233364925Y-126284616D01*
X233454931Y-126501911D01*
X233500816Y-126732589D01*
X233500816Y-126967787D01*
X233454931Y-127198465D01*
X233364925Y-127415760D01*
X233234256Y-127611319D01*
X233067947Y-127777628D01*
X232872388Y-127908297D01*
X232655093Y-127998303D01*
X232424415Y-128044188D01*
X232189217Y-128044188D01*
X231958539Y-127998303D01*
X231741244Y-127908297D01*
X231545685Y-127777628D01*
X231379376Y-127611319D01*
X231248707Y-127415760D01*
X231158701Y-127198465D01*
X231112816Y-126967787D01*
X231112816Y-126732589D01*
X231158701Y-126501911D01*
X231248707Y-126284616D01*
X231379376Y-126089057D01*
X231545685Y-125922748D01*
X231741244Y-125792079D01*
X231958539Y-125702073D01*
X232189217Y-125656188D01*
X232424415Y-125656188D01*
X232655093Y-125702073D01*
X232655093Y-125702073D01*
G37*
G36*
X316447556Y-125567995D02*
X316664851Y-125658001D01*
X316860410Y-125788670D01*
X317026719Y-125954979D01*
X317157388Y-126150538D01*
X317247394Y-126367833D01*
X317293279Y-126598511D01*
X317293279Y-126833709D01*
X317247394Y-127064387D01*
X317157388Y-127281682D01*
X317026719Y-127477241D01*
X316860410Y-127643550D01*
X316664851Y-127774219D01*
X316478772Y-127851295D01*
X316447556Y-127864225D01*
X316216878Y-127910110D01*
X315981680Y-127910110D01*
X315751002Y-127864225D01*
X315719786Y-127851295D01*
X315533707Y-127774219D01*
X315338148Y-127643550D01*
X315171839Y-127477241D01*
X315041170Y-127281682D01*
X314951164Y-127064387D01*
X314905279Y-126833709D01*
X314905279Y-126598511D01*
X314951164Y-126367833D01*
X315041170Y-126150538D01*
X315171839Y-125954979D01*
X315338148Y-125788670D01*
X315533707Y-125658001D01*
X315751002Y-125567995D01*
X315981680Y-125522110D01*
X316216878Y-125522110D01*
X316447556Y-125567995D01*
X316447556Y-125567995D01*
G37*
G36*
X139401821Y-125070128D02*
X139619116Y-125160134D01*
X139814675Y-125290803D01*
X139980984Y-125457112D01*
X140111653Y-125652671D01*
X140201659Y-125869966D01*
X140247544Y-126100644D01*
X140247544Y-126335842D01*
X140201659Y-126566520D01*
X140111653Y-126783815D01*
X139980984Y-126979374D01*
X139814675Y-127145683D01*
X139619116Y-127276352D01*
X139401821Y-127366358D01*
X139171143Y-127412243D01*
X138935945Y-127412243D01*
X138705267Y-127366358D01*
X138487972Y-127276352D01*
X138292413Y-127145683D01*
X138126104Y-126979374D01*
X137995435Y-126783815D01*
X137905429Y-126566520D01*
X137859544Y-126335842D01*
X137859544Y-126100644D01*
X137905429Y-125869966D01*
X137995435Y-125652671D01*
X138126104Y-125457112D01*
X138292413Y-125290803D01*
X138487972Y-125160134D01*
X138705267Y-125070128D01*
X138935945Y-125024243D01*
X139171143Y-125024243D01*
X139401821Y-125070128D01*
X139401821Y-125070128D01*
G37*
G36*
X94357226Y-124538874D02*
X94574521Y-124628880D01*
X94770080Y-124759549D01*
X94936389Y-124925858D01*
X95067058Y-125121417D01*
X95157064Y-125338712D01*
X95202949Y-125569390D01*
X95202949Y-125804588D01*
X95157064Y-126035266D01*
X95067058Y-126252561D01*
X94936389Y-126448120D01*
X94770080Y-126614429D01*
X94574521Y-126745098D01*
X94481049Y-126783815D01*
X94357226Y-126835104D01*
X94126548Y-126880989D01*
X93891350Y-126880989D01*
X93660672Y-126835104D01*
X93536849Y-126783815D01*
X93443377Y-126745098D01*
X93247818Y-126614429D01*
X93081509Y-126448120D01*
X92950840Y-126252561D01*
X92860834Y-126035266D01*
X92814949Y-125804588D01*
X92814949Y-125569390D01*
X92860834Y-125338712D01*
X92950840Y-125121417D01*
X93081509Y-124925858D01*
X93247818Y-124759549D01*
X93443377Y-124628880D01*
X93660672Y-124538874D01*
X93891350Y-124492989D01*
X94126548Y-124492989D01*
X94357226Y-124538874D01*
X94357226Y-124538874D01*
G37*
G36*
X271135093Y-124522073D02*
X271352388Y-124612079D01*
X271547947Y-124742748D01*
X271714256Y-124909057D01*
X271844925Y-125104616D01*
X271934931Y-125321911D01*
X271980816Y-125552589D01*
X271980816Y-125787787D01*
X271934931Y-126018465D01*
X271844925Y-126235760D01*
X271714256Y-126431319D01*
X271547947Y-126597628D01*
X271352388Y-126728297D01*
X271218357Y-126783814D01*
X271135093Y-126818303D01*
X270904415Y-126864188D01*
X270669217Y-126864188D01*
X270438539Y-126818303D01*
X270355275Y-126783814D01*
X270221244Y-126728297D01*
X270025685Y-126597628D01*
X269859376Y-126431319D01*
X269728707Y-126235760D01*
X269638701Y-126018465D01*
X269592816Y-125787787D01*
X269592816Y-125552589D01*
X269638701Y-125321911D01*
X269728707Y-125104616D01*
X269859376Y-124909057D01*
X270025685Y-124742748D01*
X270221244Y-124612079D01*
X270438539Y-124522073D01*
X270669217Y-124476188D01*
X270904415Y-124476188D01*
X271135093Y-124522073D01*
X271135093Y-124522073D01*
G37*
G36*
X191097226Y-124388874D02*
X191314521Y-124478880D01*
X191510080Y-124609549D01*
X191676389Y-124775858D01*
X191807058Y-124971417D01*
X191897064Y-125188712D01*
X191942949Y-125419390D01*
X191942949Y-125654588D01*
X191897064Y-125885266D01*
X191807058Y-126102561D01*
X191676389Y-126298120D01*
X191510080Y-126464429D01*
X191314521Y-126595098D01*
X191153219Y-126661911D01*
X191097226Y-126685104D01*
X190866548Y-126730989D01*
X190631350Y-126730989D01*
X190400672Y-126685104D01*
X190344679Y-126661911D01*
X190183377Y-126595098D01*
X189987818Y-126464429D01*
X189821509Y-126298120D01*
X189690840Y-126102561D01*
X189600834Y-125885266D01*
X189554949Y-125654588D01*
X189554949Y-125419390D01*
X189600834Y-125188712D01*
X189690840Y-124971417D01*
X189821509Y-124775858D01*
X189987818Y-124609549D01*
X190183377Y-124478880D01*
X190400672Y-124388874D01*
X190631350Y-124342989D01*
X190866548Y-124342989D01*
X191097226Y-124388874D01*
X191097226Y-124388874D01*
G37*
G36*
X296867556Y-124177995D02*
X297084851Y-124268001D01*
X297280410Y-124398670D01*
X297446719Y-124564979D01*
X297577388Y-124760538D01*
X297667394Y-124977833D01*
X297713279Y-125208511D01*
X297713279Y-125443709D01*
X297667394Y-125674387D01*
X297577388Y-125891682D01*
X297446719Y-126087241D01*
X297280410Y-126253550D01*
X297084851Y-126384219D01*
X296867556Y-126474225D01*
X296636878Y-126520110D01*
X296401680Y-126520110D01*
X296171002Y-126474225D01*
X295953707Y-126384219D01*
X295758148Y-126253550D01*
X295591839Y-126087241D01*
X295461170Y-125891682D01*
X295371164Y-125674387D01*
X295325279Y-125443709D01*
X295325279Y-125208511D01*
X295371164Y-124977833D01*
X295461170Y-124760538D01*
X295591839Y-124564979D01*
X295758148Y-124398670D01*
X295953707Y-124268001D01*
X296171002Y-124177995D01*
X296401680Y-124132110D01*
X296636878Y-124132110D01*
X296867556Y-124177995D01*
X296867556Y-124177995D01*
G37*
G36*
X261281501Y-126260631D02*
X260294723Y-126434627D01*
X260068633Y-125152407D01*
X261055411Y-124978411D01*
X261281501Y-126260631D01*
X261281501Y-126260631D01*
G37*
G36*
X264531367Y-125687593D02*
X263544589Y-125861589D01*
X263318499Y-124579369D01*
X264305277Y-124405373D01*
X264531367Y-125687593D01*
X264531367Y-125687593D01*
G37*
G36*
X152617226Y-123198874D02*
X152834521Y-123288880D01*
X153030080Y-123419549D01*
X153196389Y-123585858D01*
X153327058Y-123781417D01*
X153417064Y-123998712D01*
X153462949Y-124229390D01*
X153462949Y-124464588D01*
X153417064Y-124695266D01*
X153327058Y-124912561D01*
X153196389Y-125108120D01*
X153030080Y-125274429D01*
X152834521Y-125405098D01*
X152759052Y-125436358D01*
X152617226Y-125495104D01*
X152386548Y-125540989D01*
X152151350Y-125540989D01*
X151920672Y-125495104D01*
X151778846Y-125436358D01*
X151703377Y-125405098D01*
X151507818Y-125274429D01*
X151341509Y-125108120D01*
X151210840Y-124912561D01*
X151120834Y-124695266D01*
X151074949Y-124464588D01*
X151074949Y-124229390D01*
X151120834Y-123998712D01*
X151210840Y-123781417D01*
X151341509Y-123585858D01*
X151507818Y-123419549D01*
X151703377Y-123288880D01*
X151920672Y-123198874D01*
X152151350Y-123152989D01*
X152386548Y-123152989D01*
X152617226Y-123198874D01*
X152617226Y-123198874D01*
G37*
G36*
X101051821Y-123140128D02*
X101269116Y-123230134D01*
X101464675Y-123360803D01*
X101630984Y-123527112D01*
X101761653Y-123722671D01*
X101851659Y-123939966D01*
X101897544Y-124170644D01*
X101897544Y-124405842D01*
X101851659Y-124636520D01*
X101761653Y-124853815D01*
X101630984Y-125049374D01*
X101464675Y-125215683D01*
X101269116Y-125346352D01*
X101051821Y-125436358D01*
X100821143Y-125482243D01*
X100585945Y-125482243D01*
X100355267Y-125436358D01*
X100137972Y-125346352D01*
X99942413Y-125215683D01*
X99776104Y-125049374D01*
X99645435Y-124853815D01*
X99555429Y-124636520D01*
X99509544Y-124405842D01*
X99509544Y-124170644D01*
X99555429Y-123939966D01*
X99645435Y-123722671D01*
X99776104Y-123527112D01*
X99942413Y-123360803D01*
X100137972Y-123230134D01*
X100355267Y-123140128D01*
X100585945Y-123094243D01*
X100821143Y-123094243D01*
X101051821Y-123140128D01*
X101051821Y-123140128D01*
G37*
G36*
X197791821Y-122990128D02*
X198009116Y-123080134D01*
X198204675Y-123210803D01*
X198370984Y-123377112D01*
X198501653Y-123572671D01*
X198591659Y-123789966D01*
X198637544Y-124020644D01*
X198637544Y-124255842D01*
X198591659Y-124486520D01*
X198501653Y-124703815D01*
X198370984Y-124899374D01*
X198204675Y-125065683D01*
X198009116Y-125196352D01*
X197820620Y-125274429D01*
X197791821Y-125286358D01*
X197561143Y-125332243D01*
X197325945Y-125332243D01*
X197095267Y-125286358D01*
X197066468Y-125274429D01*
X196877972Y-125196352D01*
X196682413Y-125065683D01*
X196516104Y-124899374D01*
X196385435Y-124703815D01*
X196295429Y-124486520D01*
X196249544Y-124255842D01*
X196249544Y-124020644D01*
X196295429Y-123789966D01*
X196385435Y-123572671D01*
X196516104Y-123377112D01*
X196682413Y-123210803D01*
X196877972Y-123080134D01*
X197095267Y-122990128D01*
X197325945Y-122944243D01*
X197561143Y-122944243D01*
X197791821Y-122990128D01*
X197791821Y-122990128D01*
G37*
G36*
X335217556Y-122257995D02*
X335434851Y-122348001D01*
X335630410Y-122478670D01*
X335796719Y-122644979D01*
X335927388Y-122840538D01*
X336017394Y-123057833D01*
X336063279Y-123288511D01*
X336063279Y-123523709D01*
X336017394Y-123754387D01*
X335927388Y-123971682D01*
X335796719Y-124167241D01*
X335630410Y-124333550D01*
X335434851Y-124464219D01*
X335217556Y-124554225D01*
X334986878Y-124600110D01*
X334751680Y-124600110D01*
X334521002Y-124554225D01*
X334303707Y-124464219D01*
X334108148Y-124333550D01*
X333941839Y-124167241D01*
X333811170Y-123971682D01*
X333721164Y-123754387D01*
X333675279Y-123523709D01*
X333675279Y-123288511D01*
X333721164Y-123057833D01*
X333811170Y-122840538D01*
X333941839Y-122644979D01*
X334108148Y-122478670D01*
X334303707Y-122348001D01*
X334521002Y-122257995D01*
X334751680Y-122212110D01*
X334986878Y-122212110D01*
X335217556Y-122257995D01*
X335217556Y-122257995D01*
G37*
G36*
X238467556Y-122097995D02*
X238684851Y-122188001D01*
X238880410Y-122318670D01*
X239046719Y-122484979D01*
X239177388Y-122680538D01*
X239267394Y-122897833D01*
X239313279Y-123128511D01*
X239313279Y-123363709D01*
X239267394Y-123594387D01*
X239177388Y-123811682D01*
X239046719Y-124007241D01*
X238880410Y-124173550D01*
X238684851Y-124304219D01*
X238467556Y-124394225D01*
X238236878Y-124440110D01*
X238001680Y-124440110D01*
X237771002Y-124394225D01*
X237553707Y-124304219D01*
X237358148Y-124173550D01*
X237191839Y-124007241D01*
X237061170Y-123811682D01*
X236971164Y-123594387D01*
X236925279Y-123363709D01*
X236925279Y-123128511D01*
X236971164Y-122897833D01*
X237061170Y-122680538D01*
X237191839Y-122484979D01*
X237358148Y-122318670D01*
X237553707Y-122188001D01*
X237771002Y-122097995D01*
X238001680Y-122052110D01*
X238236878Y-122052110D01*
X238467556Y-122097995D01*
X238467556Y-122097995D01*
G37*
G36*
X159311821Y-121800128D02*
X159529116Y-121890134D01*
X159724675Y-122020803D01*
X159890984Y-122187112D01*
X160021653Y-122382671D01*
X160111659Y-122599966D01*
X160157544Y-122830644D01*
X160157544Y-123065842D01*
X160111659Y-123296520D01*
X160021653Y-123513815D01*
X159890984Y-123709374D01*
X159724675Y-123875683D01*
X159529116Y-124006352D01*
X159311821Y-124096358D01*
X159081143Y-124142243D01*
X158845945Y-124142243D01*
X158615267Y-124096358D01*
X158397972Y-124006352D01*
X158202413Y-123875683D01*
X158036104Y-123709374D01*
X157905435Y-123513815D01*
X157815429Y-123296520D01*
X157769544Y-123065842D01*
X157769544Y-122830644D01*
X157815429Y-122599966D01*
X157905435Y-122382671D01*
X158036104Y-122187112D01*
X158202413Y-122020803D01*
X158397972Y-121890134D01*
X158615267Y-121800128D01*
X158845945Y-121754243D01*
X159081143Y-121754243D01*
X159311821Y-121800128D01*
X159311821Y-121800128D01*
G37*
G36*
X127036434Y-122345888D02*
X126810344Y-123628108D01*
X125823566Y-123454112D01*
X126049656Y-122171892D01*
X127036434Y-122345888D01*
X127036434Y-122345888D01*
G37*
G36*
X276947556Y-120917995D02*
X277164851Y-121008001D01*
X277360410Y-121138670D01*
X277526719Y-121304979D01*
X277657388Y-121500538D01*
X277747394Y-121717833D01*
X277793279Y-121948511D01*
X277793279Y-122183709D01*
X277747394Y-122414387D01*
X277657388Y-122631682D01*
X277526719Y-122827241D01*
X277360410Y-122993550D01*
X277164851Y-123124219D01*
X276947556Y-123214225D01*
X276716878Y-123260110D01*
X276481680Y-123260110D01*
X276251002Y-123214225D01*
X276033707Y-123124219D01*
X275838148Y-122993550D01*
X275671839Y-122827241D01*
X275541170Y-122631682D01*
X275451164Y-122414387D01*
X275405279Y-122183709D01*
X275405279Y-121948511D01*
X275451164Y-121717833D01*
X275541170Y-121500538D01*
X275671839Y-121304979D01*
X275838148Y-121138670D01*
X276033707Y-121008001D01*
X276251002Y-120917995D01*
X276481680Y-120872110D01*
X276716878Y-120872110D01*
X276947556Y-120917995D01*
X276947556Y-120917995D01*
G37*
G36*
X123786568Y-121772850D02*
X123560478Y-123055070D01*
X122573700Y-122881074D01*
X122799790Y-121598854D01*
X123786568Y-121772850D01*
X123786568Y-121772850D01*
G37*
G36*
X146641367Y-120982407D02*
X146415277Y-122264627D01*
X145428499Y-122090631D01*
X145654589Y-120808411D01*
X146641367Y-120982407D01*
X146641367Y-120982407D01*
G37*
G36*
X143391501Y-120409369D02*
X143165411Y-121691589D01*
X142178633Y-121517593D01*
X142404723Y-120235373D01*
X143391501Y-120409369D01*
X143391501Y-120409369D01*
G37*
G36*
X318431501Y-121050631D02*
X317444723Y-121224627D01*
X317218633Y-119942407D01*
X318205411Y-119768411D01*
X318431501Y-121050631D01*
X318431501Y-121050631D01*
G37*
G36*
X321681367Y-120477593D02*
X320694589Y-120651589D01*
X320468499Y-119369369D01*
X321455277Y-119195373D01*
X321681367Y-120477593D01*
X321681367Y-120477593D01*
G37*
G36*
X298831501Y-119660631D02*
X297844723Y-119834627D01*
X297618633Y-118552407D01*
X298605411Y-118378411D01*
X298831501Y-119660631D01*
X298831501Y-119660631D01*
G37*
G36*
X302081367Y-119087593D02*
X301094589Y-119261589D01*
X300868499Y-117979369D01*
X301855277Y-117805373D01*
X302081367Y-119087593D01*
X302081367Y-119087593D01*
G37*
G36*
X166541367Y-117712407D02*
X166315277Y-118994627D01*
X165328499Y-118820631D01*
X165554589Y-117538411D01*
X166541367Y-117712407D01*
X166541367Y-117712407D01*
G37*
G36*
X163291501Y-117139369D02*
X163065411Y-118421589D01*
X162078633Y-118247593D01*
X162304723Y-116965373D01*
X163291501Y-117139369D01*
X163291501Y-117139369D01*
G37*
G36*
X250225093Y-115642073D02*
X250442388Y-115732079D01*
X250637947Y-115862748D01*
X250804256Y-116029057D01*
X250934925Y-116224616D01*
X251024931Y-116441911D01*
X251070816Y-116672589D01*
X251070816Y-116907787D01*
X251024931Y-117138465D01*
X250934925Y-117355760D01*
X250804256Y-117551319D01*
X250637947Y-117717628D01*
X250442388Y-117848297D01*
X250225093Y-117938303D01*
X249994415Y-117984188D01*
X249759217Y-117984188D01*
X249528539Y-117938303D01*
X249311244Y-117848297D01*
X249115685Y-117717628D01*
X248949376Y-117551319D01*
X248818707Y-117355760D01*
X248728701Y-117138465D01*
X248682816Y-116907787D01*
X248682816Y-116672589D01*
X248728701Y-116441911D01*
X248818707Y-116224616D01*
X248949376Y-116029057D01*
X249115685Y-115862748D01*
X249311244Y-115732079D01*
X249528539Y-115642073D01*
X249759217Y-115596188D01*
X249994415Y-115596188D01*
X250225093Y-115642073D01*
X250225093Y-115642073D01*
G37*
G36*
X173537226Y-114318874D02*
X173754521Y-114408880D01*
X173950080Y-114539549D01*
X174116389Y-114705858D01*
X174247058Y-114901417D01*
X174337064Y-115118712D01*
X174382949Y-115349390D01*
X174382949Y-115584588D01*
X174337064Y-115815266D01*
X174247058Y-116032561D01*
X174116389Y-116228120D01*
X173950080Y-116394429D01*
X173754521Y-116525098D01*
X173537226Y-116615104D01*
X173306548Y-116660989D01*
X173071350Y-116660989D01*
X172840672Y-116615104D01*
X172623377Y-116525098D01*
X172427818Y-116394429D01*
X172261509Y-116228120D01*
X172130840Y-116032561D01*
X172040834Y-115815266D01*
X171994949Y-115584588D01*
X171994949Y-115349390D01*
X172040834Y-115118712D01*
X172130840Y-114901417D01*
X172261509Y-114705858D01*
X172427818Y-114539549D01*
X172623377Y-114408880D01*
X172840672Y-114318874D01*
X173071350Y-114272989D01*
X173306548Y-114272989D01*
X173537226Y-114318874D01*
X173537226Y-114318874D01*
G37*
G36*
X278911501Y-116420631D02*
X277924723Y-116594627D01*
X277698633Y-115312407D01*
X278685411Y-115138411D01*
X278911501Y-116420631D01*
X278911501Y-116420631D01*
G37*
G36*
X282161367Y-115847593D02*
X281174589Y-116021589D01*
X280948499Y-114739369D01*
X281935277Y-114565373D01*
X282161367Y-115847593D01*
X282161367Y-115847593D01*
G37*
G36*
X180231821Y-112920128D02*
X180449116Y-113010134D01*
X180644675Y-113140803D01*
X180810984Y-113307112D01*
X180941653Y-113502671D01*
X181031659Y-113719966D01*
X181077544Y-113950644D01*
X181077544Y-114185842D01*
X181031659Y-114416520D01*
X180941653Y-114633815D01*
X180810984Y-114829374D01*
X180644675Y-114995683D01*
X180449116Y-115126352D01*
X180231821Y-115216358D01*
X180001143Y-115262243D01*
X179765945Y-115262243D01*
X179535267Y-115216358D01*
X179317972Y-115126352D01*
X179122413Y-114995683D01*
X178956104Y-114829374D01*
X178825435Y-114633815D01*
X178735429Y-114416520D01*
X178689544Y-114185842D01*
X178689544Y-113950644D01*
X178735429Y-113719966D01*
X178825435Y-113502671D01*
X178956104Y-113307112D01*
X179122413Y-113140803D01*
X179317972Y-113010134D01*
X179535267Y-112920128D01*
X179765945Y-112874243D01*
X180001143Y-112874243D01*
X180231821Y-112920128D01*
X180231821Y-112920128D01*
G37*
G36*
X256037556Y-112037995D02*
X256254851Y-112128001D01*
X256450410Y-112258670D01*
X256616719Y-112424979D01*
X256747388Y-112620538D01*
X256837394Y-112837833D01*
X256883279Y-113068511D01*
X256883279Y-113303709D01*
X256837394Y-113534387D01*
X256747388Y-113751682D01*
X256616719Y-113947241D01*
X256450410Y-114113550D01*
X256254851Y-114244219D01*
X256037556Y-114334225D01*
X255806878Y-114380110D01*
X255571680Y-114380110D01*
X255341002Y-114334225D01*
X255123707Y-114244219D01*
X254928148Y-114113550D01*
X254761839Y-113947241D01*
X254631170Y-113751682D01*
X254541164Y-113534387D01*
X254495279Y-113303709D01*
X254495279Y-113068511D01*
X254541164Y-112837833D01*
X254631170Y-112620538D01*
X254761839Y-112424979D01*
X254928148Y-112258670D01*
X255123707Y-112128001D01*
X255341002Y-112037995D01*
X255571680Y-111992110D01*
X255806878Y-111992110D01*
X256037556Y-112037995D01*
X256037556Y-112037995D01*
G37*
G36*
X307335093Y-110402073D02*
X307552388Y-110492079D01*
X307747947Y-110622748D01*
X307914256Y-110789057D01*
X308044925Y-110984616D01*
X308134931Y-111201911D01*
X308180816Y-111432589D01*
X308180816Y-111667787D01*
X308134931Y-111898465D01*
X308044925Y-112115760D01*
X307914256Y-112311319D01*
X307747947Y-112477628D01*
X307552388Y-112608297D01*
X307335093Y-112698303D01*
X307104415Y-112744188D01*
X306869217Y-112744188D01*
X306638539Y-112698303D01*
X306421244Y-112608297D01*
X306225685Y-112477628D01*
X306059376Y-112311319D01*
X305928707Y-112115760D01*
X305838701Y-111898465D01*
X305792816Y-111667787D01*
X305792816Y-111432589D01*
X305838701Y-111201911D01*
X305928707Y-110984616D01*
X306059376Y-110789057D01*
X306225685Y-110622748D01*
X306421244Y-110492079D01*
X306638539Y-110402073D01*
X306869217Y-110356188D01*
X307104415Y-110356188D01*
X307335093Y-110402073D01*
X307335093Y-110402073D01*
G37*
G36*
X116427226Y-109088874D02*
X116644521Y-109178880D01*
X116840080Y-109309549D01*
X117006389Y-109475858D01*
X117137058Y-109671417D01*
X117227064Y-109888712D01*
X117272949Y-110119390D01*
X117272949Y-110354588D01*
X117227064Y-110585266D01*
X117137058Y-110802561D01*
X117006389Y-110998120D01*
X116840080Y-111164429D01*
X116644521Y-111295098D01*
X116427226Y-111385104D01*
X116196548Y-111430989D01*
X115961350Y-111430989D01*
X115730672Y-111385104D01*
X115513377Y-111295098D01*
X115317818Y-111164429D01*
X115151509Y-110998120D01*
X115020840Y-110802561D01*
X114930834Y-110585266D01*
X114884949Y-110354588D01*
X114884949Y-110119390D01*
X114930834Y-109888712D01*
X115020840Y-109671417D01*
X115151509Y-109475858D01*
X115317818Y-109309549D01*
X115513377Y-109178880D01*
X115730672Y-109088874D01*
X115961350Y-109042989D01*
X116196548Y-109042989D01*
X116427226Y-109088874D01*
X116427226Y-109088874D01*
G37*
G36*
X287745093Y-109032073D02*
X287962388Y-109122079D01*
X288157947Y-109252748D01*
X288324256Y-109419057D01*
X288454925Y-109614616D01*
X288544931Y-109831911D01*
X288590816Y-110062589D01*
X288590816Y-110297787D01*
X288544931Y-110528465D01*
X288454925Y-110745760D01*
X288324256Y-110941319D01*
X288157947Y-111107628D01*
X287962388Y-111238297D01*
X287825257Y-111295098D01*
X287745093Y-111328303D01*
X287514415Y-111374188D01*
X287279217Y-111374188D01*
X287048539Y-111328303D01*
X286968375Y-111295098D01*
X286831244Y-111238297D01*
X286635685Y-111107628D01*
X286469376Y-110941319D01*
X286338707Y-110745760D01*
X286248701Y-110528465D01*
X286202816Y-110297787D01*
X286202816Y-110062589D01*
X286248701Y-109831911D01*
X286338707Y-109614616D01*
X286469376Y-109419057D01*
X286635685Y-109252748D01*
X286831244Y-109122079D01*
X287048539Y-109032073D01*
X287279217Y-108986188D01*
X287514415Y-108986188D01*
X287745093Y-109032073D01*
X287745093Y-109032073D01*
G37*
G36*
X136017226Y-107708874D02*
X136234521Y-107798880D01*
X136430080Y-107929549D01*
X136596389Y-108095858D01*
X136727058Y-108291417D01*
X136817064Y-108508712D01*
X136862949Y-108739390D01*
X136862949Y-108974588D01*
X136817064Y-109205266D01*
X136727058Y-109422561D01*
X136596389Y-109618120D01*
X136430080Y-109784429D01*
X136234521Y-109915098D01*
X136062483Y-109986358D01*
X136017226Y-110005104D01*
X135786548Y-110050989D01*
X135551350Y-110050989D01*
X135320672Y-110005104D01*
X135275415Y-109986358D01*
X135103377Y-109915098D01*
X134907818Y-109784429D01*
X134741509Y-109618120D01*
X134610840Y-109422561D01*
X134520834Y-109205266D01*
X134474949Y-108974588D01*
X134474949Y-108739390D01*
X134520834Y-108508712D01*
X134610840Y-108291417D01*
X134741509Y-108095858D01*
X134907818Y-107929549D01*
X135103377Y-107798880D01*
X135320672Y-107708874D01*
X135551350Y-107662989D01*
X135786548Y-107662989D01*
X136017226Y-107708874D01*
X136017226Y-107708874D01*
G37*
G36*
X123121821Y-107690128D02*
X123339116Y-107780134D01*
X123534675Y-107910803D01*
X123700984Y-108077112D01*
X123831653Y-108272671D01*
X123921659Y-108489966D01*
X123967544Y-108720644D01*
X123967544Y-108955842D01*
X123921659Y-109186520D01*
X123831653Y-109403815D01*
X123700984Y-109599374D01*
X123534675Y-109765683D01*
X123339116Y-109896352D01*
X123121821Y-109986358D01*
X122891143Y-110032243D01*
X122655945Y-110032243D01*
X122425267Y-109986358D01*
X122207972Y-109896352D01*
X122012413Y-109765683D01*
X121846104Y-109599374D01*
X121715435Y-109403815D01*
X121625429Y-109186520D01*
X121579544Y-108955842D01*
X121579544Y-108720644D01*
X121625429Y-108489966D01*
X121715435Y-108272671D01*
X121846104Y-108077112D01*
X122012413Y-107910803D01*
X122207972Y-107780134D01*
X122425267Y-107690128D01*
X122655945Y-107644243D01*
X122891143Y-107644243D01*
X123121821Y-107690128D01*
X123121821Y-107690128D01*
G37*
G36*
X313147556Y-106797995D02*
X313364851Y-106888001D01*
X313560410Y-107018670D01*
X313726719Y-107184979D01*
X313857388Y-107380538D01*
X313947394Y-107597833D01*
X313993279Y-107828511D01*
X313993279Y-108063709D01*
X313947394Y-108294387D01*
X313857388Y-108511682D01*
X313726719Y-108707241D01*
X313560410Y-108873550D01*
X313364851Y-109004219D01*
X313147556Y-109094225D01*
X312916878Y-109140110D01*
X312681680Y-109140110D01*
X312451002Y-109094225D01*
X312233707Y-109004219D01*
X312038148Y-108873550D01*
X311871839Y-108707241D01*
X311741170Y-108511682D01*
X311651164Y-108294387D01*
X311605279Y-108063709D01*
X311605279Y-107828511D01*
X311651164Y-107597833D01*
X311741170Y-107380538D01*
X311871839Y-107184979D01*
X312038148Y-107018670D01*
X312233707Y-106888001D01*
X312451002Y-106797995D01*
X312681680Y-106752110D01*
X312916878Y-106752110D01*
X313147556Y-106797995D01*
X313147556Y-106797995D01*
G37*
G36*
X142711821Y-106310128D02*
X142929116Y-106400134D01*
X143124675Y-106530803D01*
X143290984Y-106697112D01*
X143421653Y-106892671D01*
X143511659Y-107109966D01*
X143557544Y-107340644D01*
X143557544Y-107575842D01*
X143511659Y-107806520D01*
X143421653Y-108023815D01*
X143290984Y-108219374D01*
X143124675Y-108385683D01*
X142929116Y-108516352D01*
X142711821Y-108606358D01*
X142481143Y-108652243D01*
X142245945Y-108652243D01*
X142015267Y-108606358D01*
X141797972Y-108516352D01*
X141602413Y-108385683D01*
X141436104Y-108219374D01*
X141305435Y-108023815D01*
X141215429Y-107806520D01*
X141169544Y-107575842D01*
X141169544Y-107340644D01*
X141215429Y-107109966D01*
X141305435Y-106892671D01*
X141436104Y-106697112D01*
X141602413Y-106530803D01*
X141797972Y-106400134D01*
X142015267Y-106310128D01*
X142245945Y-106264243D01*
X142481143Y-106264243D01*
X142711821Y-106310128D01*
X142711821Y-106310128D01*
G37*
G36*
X267825093Y-105772073D02*
X268042388Y-105862079D01*
X268237947Y-105992748D01*
X268404256Y-106159057D01*
X268534925Y-106354616D01*
X268624931Y-106571911D01*
X268670816Y-106802589D01*
X268670816Y-107037787D01*
X268624931Y-107268465D01*
X268534925Y-107485760D01*
X268404256Y-107681319D01*
X268237947Y-107847628D01*
X268042388Y-107978297D01*
X267932497Y-108023815D01*
X267825093Y-108068303D01*
X267594415Y-108114188D01*
X267359217Y-108114188D01*
X267128539Y-108068303D01*
X267021135Y-108023815D01*
X266911244Y-107978297D01*
X266715685Y-107847628D01*
X266549376Y-107681319D01*
X266418707Y-107485760D01*
X266328701Y-107268465D01*
X266282816Y-107037787D01*
X266282816Y-106802589D01*
X266328701Y-106571911D01*
X266418707Y-106354616D01*
X266549376Y-106159057D01*
X266715685Y-105992748D01*
X266911244Y-105862079D01*
X267128539Y-105772073D01*
X267359217Y-105726188D01*
X267594415Y-105726188D01*
X267825093Y-105772073D01*
X267825093Y-105772073D01*
G37*
G36*
X293557556Y-105427995D02*
X293774851Y-105518001D01*
X293970410Y-105648670D01*
X294136719Y-105814979D01*
X294267388Y-106010538D01*
X294357394Y-106227833D01*
X294403279Y-106458511D01*
X294403279Y-106693709D01*
X294357394Y-106924387D01*
X294267388Y-107141682D01*
X294136719Y-107337241D01*
X293970410Y-107503550D01*
X293774851Y-107634219D01*
X293639874Y-107690128D01*
X293557556Y-107724225D01*
X293326878Y-107770110D01*
X293091680Y-107770110D01*
X292861002Y-107724225D01*
X292778684Y-107690128D01*
X292643707Y-107634219D01*
X292448148Y-107503550D01*
X292281839Y-107337241D01*
X292151170Y-107141682D01*
X292061164Y-106924387D01*
X292015279Y-106693709D01*
X292015279Y-106458511D01*
X292061164Y-106227833D01*
X292151170Y-106010538D01*
X292281839Y-105814979D01*
X292448148Y-105648670D01*
X292643707Y-105518001D01*
X292861002Y-105427995D01*
X293091680Y-105382110D01*
X293326878Y-105382110D01*
X293557556Y-105427995D01*
X293557556Y-105427995D01*
G37*
G36*
X155927226Y-104448874D02*
X156144521Y-104538880D01*
X156340080Y-104669549D01*
X156506389Y-104835858D01*
X156637058Y-105031417D01*
X156727064Y-105248712D01*
X156772949Y-105479390D01*
X156772949Y-105714588D01*
X156727064Y-105945266D01*
X156637058Y-106162561D01*
X156506389Y-106358120D01*
X156340080Y-106524429D01*
X156144521Y-106655098D01*
X155927226Y-106745104D01*
X155696548Y-106790989D01*
X155461350Y-106790989D01*
X155230672Y-106745104D01*
X155013377Y-106655098D01*
X154817818Y-106524429D01*
X154651509Y-106358120D01*
X154520840Y-106162561D01*
X154430834Y-105945266D01*
X154384949Y-105714588D01*
X154384949Y-105479390D01*
X154430834Y-105248712D01*
X154520840Y-105031417D01*
X154651509Y-104835858D01*
X154817818Y-104669549D01*
X155013377Y-104538880D01*
X155230672Y-104448874D01*
X155461350Y-104402989D01*
X155696548Y-104402989D01*
X155927226Y-104448874D01*
X155927226Y-104448874D01*
G37*
G36*
X162621821Y-103050128D02*
X162839116Y-103140134D01*
X163034675Y-103270803D01*
X163200984Y-103437112D01*
X163331653Y-103632671D01*
X163421659Y-103849966D01*
X163467544Y-104080644D01*
X163467544Y-104315842D01*
X163421659Y-104546520D01*
X163331653Y-104763815D01*
X163200984Y-104959374D01*
X163034675Y-105125683D01*
X162839116Y-105256352D01*
X162621821Y-105346358D01*
X162391143Y-105392243D01*
X162155945Y-105392243D01*
X161925267Y-105346358D01*
X161707972Y-105256352D01*
X161512413Y-105125683D01*
X161346104Y-104959374D01*
X161215435Y-104763815D01*
X161125429Y-104546520D01*
X161079544Y-104315842D01*
X161079544Y-104080644D01*
X161125429Y-103849966D01*
X161215435Y-103632671D01*
X161346104Y-103437112D01*
X161512413Y-103270803D01*
X161707972Y-103140134D01*
X161925267Y-103050128D01*
X162155945Y-103004243D01*
X162391143Y-103004243D01*
X162621821Y-103050128D01*
X162621821Y-103050128D01*
G37*
G36*
X273637556Y-102167995D02*
X273854851Y-102258001D01*
X274050410Y-102388670D01*
X274216719Y-102554979D01*
X274347388Y-102750538D01*
X274437394Y-102967833D01*
X274483279Y-103198511D01*
X274483279Y-103433709D01*
X274437394Y-103664387D01*
X274347388Y-103881682D01*
X274216719Y-104077241D01*
X274050410Y-104243550D01*
X273854851Y-104374219D01*
X273674617Y-104448874D01*
X273637556Y-104464225D01*
X273406878Y-104510110D01*
X273171680Y-104510110D01*
X272941002Y-104464225D01*
X272903941Y-104448874D01*
X272723707Y-104374219D01*
X272528148Y-104243550D01*
X272361839Y-104077241D01*
X272231170Y-103881682D01*
X272141164Y-103664387D01*
X272095279Y-103433709D01*
X272095279Y-103198511D01*
X272141164Y-102967833D01*
X272231170Y-102750538D01*
X272361839Y-102554979D01*
X272528148Y-102388670D01*
X272723707Y-102258001D01*
X272941002Y-102167995D01*
X273171680Y-102122110D01*
X273406878Y-102122110D01*
X273637556Y-102167995D01*
X273637556Y-102167995D01*
G37*
M02*
